%TF.GenerationSoftware,KiCad,Pcbnew,9.0.7*%
%TF.CreationDate,2026-03-06T21:40:47+03:00*%
%TF.ProjectId,3axis-magnitometer,33617869-732d-46d6-9167-6e69746f6d65,rev?*%
%TF.SameCoordinates,Original*%
%TF.FileFunction,Copper,L2,Bot*%
%TF.FilePolarity,Positive*%
%FSLAX46Y46*%
G04 Gerber Fmt 4.6, Leading zero omitted, Abs format (unit mm)*
G04 Created by KiCad (PCBNEW 9.0.7) date 2026-03-06 21:40:47*
%MOMM*%
%LPD*%
G01*
G04 APERTURE LIST*
%ADD10C,0.200000*%
%TA.AperFunction,NonConductor*%
%ADD11C,0.200000*%
%TD*%
%TA.AperFunction,ComponentPad*%
%ADD12R,1.700000X1.700000*%
%TD*%
%TA.AperFunction,ComponentPad*%
%ADD13C,1.700000*%
%TD*%
%TA.AperFunction,ComponentPad*%
%ADD14C,1.000000*%
%TD*%
%TA.AperFunction,ComponentPad*%
%ADD15R,1.200000X1.200000*%
%TD*%
%TA.AperFunction,ViaPad*%
%ADD16C,1.200000*%
%TD*%
%TA.AperFunction,Conductor*%
%ADD17C,0.500000*%
%TD*%
%TA.AperFunction,Conductor*%
%ADD18C,0.400000*%
%TD*%
%TA.AperFunction,Conductor*%
%ADD19C,1.000000*%
%TD*%
%TA.AperFunction,Conductor*%
%ADD20C,0.300000*%
%TD*%
%TA.AperFunction,Profile*%
%ADD21C,0.100000*%
%TD*%
G04 APERTURE END LIST*
D10*
D11*
X109085713Y-42117457D02*
X109038094Y-42069838D01*
X109038094Y-42069838D02*
X108942856Y-42022219D01*
X108942856Y-42022219D02*
X108704761Y-42022219D01*
X108704761Y-42022219D02*
X108609523Y-42069838D01*
X108609523Y-42069838D02*
X108561904Y-42117457D01*
X108561904Y-42117457D02*
X108514285Y-42212695D01*
X108514285Y-42212695D02*
X108514285Y-42307933D01*
X108514285Y-42307933D02*
X108561904Y-42450790D01*
X108561904Y-42450790D02*
X109133332Y-43022219D01*
X109133332Y-43022219D02*
X108514285Y-43022219D01*
D12*
%TO.P,J3,1,MISO*%
%TO.N,/MISO*%
X101977000Y-63906000D03*
D13*
%TO.P,J3,2,VCC*%
%TO.N,Net-(J2-VREF)*%
X101977000Y-61366000D03*
%TO.P,J3,3,SCK*%
%TO.N,/SCK*%
X104517000Y-63906000D03*
%TO.P,J3,4,MOSI*%
%TO.N,/MOSI *%
X104517000Y-61366000D03*
%TO.P,J3,5,~{RST}*%
%TO.N,/mc/~{RESET}*%
X107057000Y-63906000D03*
%TO.P,J3,6,GND*%
%TO.N,GND*%
X107057000Y-61366000D03*
%TD*%
D12*
%TO.P,J1,1,Pin_1*%
%TO.N,+5V*%
X160870000Y-113690000D03*
D13*
%TO.P,J1,2,Pin_2*%
X160870000Y-116230000D03*
%TO.P,J1,3,Pin_3*%
%TO.N,unconnected-(J1-Pin_3-Pad3)*%
X158330000Y-113690000D03*
%TO.P,J1,4,Pin_4*%
%TO.N,unconnected-(J1-Pin_4-Pad4)*%
X158330000Y-116230000D03*
%TO.P,J1,5,Pin_5*%
%TO.N,unconnected-(J1-Pin_5-Pad5)*%
X155790000Y-113690000D03*
%TO.P,J1,6,Pin_6*%
%TO.N,unconnected-(J1-Pin_6-Pad6)*%
X155790000Y-116230000D03*
%TO.P,J1,7,Pin_7*%
%TO.N,unconnected-(J1-Pin_7-Pad7)*%
X153250000Y-113690000D03*
%TO.P,J1,8,Pin_8*%
%TO.N,unconnected-(J1-Pin_8-Pad8)*%
X153250000Y-116230000D03*
%TO.P,J1,9,Pin_9*%
%TO.N,unconnected-(J1-Pin_9-Pad9)*%
X150710000Y-113690000D03*
%TO.P,J1,10,Pin_10*%
%TO.N,unconnected-(J1-Pin_10-Pad10)*%
X150710000Y-116230000D03*
%TO.P,J1,11,Pin_11*%
%TO.N,unconnected-(J1-Pin_11-Pad11)*%
X148170000Y-113690000D03*
%TO.P,J1,12,Pin_12*%
%TO.N,unconnected-(J1-Pin_12-Pad12)*%
X148170000Y-116230000D03*
%TO.P,J1,13,Pin_13*%
%TO.N,unconnected-(J1-Pin_13-Pad13)*%
X145630000Y-113690000D03*
%TO.P,J1,14,Pin_14*%
%TO.N,unconnected-(J1-Pin_14-Pad14)*%
X145630000Y-116230000D03*
%TO.P,J1,15,Pin_15*%
%TO.N,unconnected-(J1-Pin_15-Pad15)*%
X143090000Y-113690000D03*
%TO.P,J1,16,Pin_16*%
%TO.N,unconnected-(J1-Pin_16-Pad16)*%
X143090000Y-116230000D03*
%TO.P,J1,17,Pin_17*%
%TO.N,unconnected-(J1-Pin_17-Pad17)*%
X140550000Y-113690000D03*
%TO.P,J1,18,Pin_18*%
%TO.N,unconnected-(J1-Pin_18-Pad18)*%
X140550000Y-116230000D03*
%TO.P,J1,19,Pin_19*%
%TO.N,/level_translator/RX0*%
X138010000Y-113690000D03*
%TO.P,J1,20,Pin_20*%
%TO.N,/level_translator/TX0*%
X138010000Y-116230000D03*
%TO.P,J1,21,Pin_21*%
%TO.N,/level_translator/RX1*%
X135470000Y-113690000D03*
%TO.P,J1,22,Pin_22*%
%TO.N,/level_translator/TX1*%
X135470000Y-116230000D03*
%TO.P,J1,23,Pin_23*%
%TO.N,/level_translator/485_1_A*%
X132930000Y-113690000D03*
%TO.P,J1,24,Pin_24*%
%TO.N,/level_translator/485_1_B*%
X132930000Y-116230000D03*
%TO.P,J1,25,Pin_25*%
%TO.N,/level_translator/485_2_A*%
X130390000Y-113690000D03*
%TO.P,J1,26,Pin_26*%
%TO.N,/level_translator/485_2_B*%
X130390000Y-116230000D03*
%TO.P,J1,27,Pin_27*%
%TO.N,unconnected-(J1-Pin_27-Pad27)*%
X127850000Y-113690000D03*
%TO.P,J1,28,Pin_28*%
%TO.N,unconnected-(J1-Pin_28-Pad28)*%
X127850000Y-116230000D03*
%TO.P,J1,29,Pin_29*%
%TO.N,unconnected-(J1-Pin_29-Pad29)*%
X125310000Y-113690000D03*
%TO.P,J1,30,Pin_30*%
%TO.N,unconnected-(J1-Pin_30-Pad30)*%
X125310000Y-116230000D03*
%TO.P,J1,31,Pin_31*%
%TO.N,unconnected-(J1-Pin_31-Pad31)*%
X122770000Y-113690000D03*
%TO.P,J1,32,Pin_32*%
%TO.N,unconnected-(J1-Pin_32-Pad32)*%
X122770000Y-116230000D03*
%TO.P,J1,33,Pin_33*%
%TO.N,unconnected-(J1-Pin_33-Pad33)*%
X120230000Y-113690000D03*
%TO.P,J1,34,Pin_34*%
%TO.N,unconnected-(J1-Pin_34-Pad34)*%
X120230000Y-116230000D03*
%TO.P,J1,35,Pin_35*%
%TO.N,unconnected-(J1-Pin_35-Pad35)*%
X117690000Y-113690000D03*
%TO.P,J1,36,Pin_36*%
%TO.N,unconnected-(J1-Pin_36-Pad36)*%
X117690000Y-116230000D03*
%TO.P,J1,37,Pin_37*%
%TO.N,unconnected-(J1-Pin_37-Pad37)*%
X115150000Y-113690000D03*
%TO.P,J1,38,Pin_38*%
%TO.N,unconnected-(J1-Pin_38-Pad38)*%
X115150000Y-116230000D03*
%TO.P,J1,39,Pin_39*%
%TO.N,GND*%
X112610000Y-113690000D03*
%TO.P,J1,40,Pin_40*%
X112610000Y-116230000D03*
%TD*%
D12*
%TO.P,J2,1,TCK*%
%TO.N,/mc/TCK*%
X140686600Y-78790400D03*
D13*
%TO.P,J2,2,GND*%
%TO.N,GND*%
X138146600Y-78790400D03*
%TO.P,J2,3,TDO*%
%TO.N,/mc/TDO*%
X140686600Y-76250400D03*
%TO.P,J2,4,VREF*%
%TO.N,Net-(J2-VREF)*%
X138146600Y-76250400D03*
%TO.P,J2,5,TMS*%
%TO.N,/mc/TMS*%
X140686600Y-73710400D03*
%TO.P,J2,6,~{SRST}*%
%TO.N,/mc/~{RESET}*%
X138146600Y-73710400D03*
%TO.P,J2,7,VCC*%
%TO.N,unconnected-(J2-VCC-Pad7)*%
X140686600Y-71170400D03*
%TO.P,J2,8,~{TRST}*%
%TO.N,unconnected-(J2-~{TRST}-Pad8)*%
X138146600Y-71170400D03*
%TO.P,J2,9,TDI*%
%TO.N,/mc/TDI*%
X140686600Y-68630400D03*
%TO.P,J2,10,GND*%
%TO.N,GND*%
X138146600Y-68630400D03*
%TD*%
D14*
%TO.P,Y1,1,1*%
%TO.N,Net-(U1-OSCI)*%
X160241400Y-65023600D03*
%TO.P,Y1,2,2*%
%TO.N,Net-(U1-OSCO)*%
X160241400Y-62483600D03*
D15*
%TO.P,Y1,3*%
%TO.N,GND*%
X168991400Y-65753600D03*
X168991400Y-61753600D03*
%TD*%
D16*
%TO.N,GND*%
X147154000Y-92735000D03*
X164680000Y-81305000D03*
X149186000Y-86004000D03*
X122467081Y-52464644D03*
X150202000Y-104927000D03*
X105879000Y-57429000D03*
X133219000Y-77766500D03*
X175221000Y-86512000D03*
X122043000Y-61510500D03*
X128774000Y-73702500D03*
X136613000Y-91592000D03*
X145665000Y-46761000D03*
X143090000Y-92354000D03*
X142754000Y-105816000D03*
X122043000Y-63669500D03*
X111375000Y-100990000D03*
X155028000Y-63906000D03*
X158888000Y-104673000D03*
X120611000Y-81940000D03*
X112102000Y-69494000D03*
X138045000Y-64160000D03*
X150202000Y-98831000D03*
X150202000Y-109372000D03*
X158365000Y-109880000D03*
X128520000Y-48920000D03*
X143125000Y-57810000D03*
X126453000Y-76987000D03*
X151472000Y-47904000D03*
X160539000Y-86512000D03*
X155205000Y-86512000D03*
X167220000Y-92735000D03*
X108327000Y-77495000D03*
X121662000Y-76242500D03*
X149094000Y-64160000D03*
X103339000Y-66700000D03*
X133219000Y-69240000D03*
X121373000Y-69875000D03*
X136740000Y-100990000D03*
X158330000Y-66700000D03*
X151472000Y-51079000D03*
X156729000Y-104673000D03*
X176110000Y-104673000D03*
X173824000Y-104673000D03*
X120900000Y-100990000D03*
X152361000Y-92735000D03*
X130136000Y-93878000D03*
X157476000Y-58953000D03*
X122043000Y-65828500D03*
X170141000Y-86512000D03*
X172681000Y-86512000D03*
X123313000Y-46761000D03*
X126326000Y-91846000D03*
X161047000Y-104673000D03*
X171665000Y-104673000D03*
X157872000Y-86512000D03*
X115566000Y-98323000D03*
X128993000Y-99974000D03*
%TO.N,Net-(J2-VREF)*%
X127215000Y-59334000D03*
X119671200Y-59334000D03*
X133311000Y-61493000D03*
X103755000Y-69277250D03*
X127215000Y-64795000D03*
X124837000Y-74210500D03*
%TO.N,Net-(U3-AVCC)*%
X133311000Y-63669500D03*
X135251000Y-69240000D03*
%TO.N,+3.3VA*%
X177507000Y-84480000D03*
X135251000Y-81178000D03*
%TO.N,+3.3V*%
X108342800Y-57505200D03*
X150999000Y-79746000D03*
X126453000Y-95148000D03*
X134616000Y-49555000D03*
X150964000Y-88671000D03*
X134616000Y-57429000D03*
%TO.N,/mc/TCK*%
X143090000Y-83083000D03*
%TO.N,/mc/~{RESET}*%
X122516000Y-71653000D03*
%TO.N,/SCK*%
X110740000Y-67335000D03*
%TO.N,/MOSI *%
X110105000Y-62890000D03*
X118360000Y-67335000D03*
%TO.N,/SCL*%
X121754000Y-55397000D03*
X127215000Y-55270000D03*
%TO.N,/SDA*%
X148967000Y-60604000D03*
X145665000Y-60604000D03*
X145665000Y-53644400D03*
%TO.N,Net-(U3-PA3)*%
X130425000Y-65938000D03*
X127215000Y-61510500D03*
%TO.N,Net-(U7-VCC)*%
X124710000Y-104596800D03*
X115566000Y-104622200D03*
X128033861Y-96164000D03*
X136740000Y-96164000D03*
X120763400Y-91846000D03*
X128033861Y-90216861D03*
X111375000Y-91846000D03*
%TO.N,Net-(U9-OE)*%
X142754000Y-96418000D03*
X146773000Y-94894000D03*
X136740000Y-105689000D03*
X152488000Y-97180000D03*
%TO.N,/level_translator/UART_RX0*%
X124710000Y-84082500D03*
X114388000Y-84099000D03*
%TO.N,/level_translator/UART_RX1*%
X115185000Y-85750000D03*
X117690000Y-85750000D03*
%TO.N,/level_translator/UART_TX1*%
X119029000Y-80797000D03*
X108588900Y-87189900D03*
%TO.N,Net-(JP1-B)*%
X145376000Y-98704000D03*
X145376000Y-91465000D03*
X119630000Y-85750000D03*
X144614000Y-87655000D03*
%TO.N,Net-(JP3-B)*%
X134454000Y-91608000D03*
X134454000Y-87748000D03*
X123134500Y-86258000D03*
X134454000Y-94767000D03*
%TO.N,/level_translator/TX0*%
X145376000Y-103784000D03*
%TO.N,Net-(JP4-B)*%
X131914000Y-87748000D03*
X113407000Y-85750000D03*
%TO.N,/level_translator/RX0*%
X138953893Y-107013893D03*
%TO.N,Net-(JP2-B)*%
X148043000Y-87528000D03*
X111311500Y-87147000D03*
%TO.N,Net-(U10-CS)*%
X128520000Y-51968000D03*
X122297000Y-48937500D03*
%TD*%
D17*
%TO.N,/mc/TCK*%
X142099400Y-78790400D02*
X140686600Y-78790400D01*
X143090000Y-79781000D02*
X142099400Y-78790400D01*
X143090000Y-83083000D02*
X143090000Y-79781000D01*
%TO.N,+3.3VA*%
X177380000Y-84607000D02*
X177507000Y-84480000D01*
X139153000Y-85369000D02*
X146646000Y-85369000D01*
X135251000Y-81467000D02*
X139153000Y-85369000D01*
X147408000Y-84607000D02*
X177380000Y-84607000D01*
X135251000Y-81178000D02*
X135251000Y-81467000D01*
X146646000Y-85369000D02*
X147408000Y-84607000D01*
%TO.N,Net-(JP2-B)*%
X113089500Y-88925000D02*
X111311500Y-87147000D01*
X146646000Y-88925000D02*
X113089500Y-88925000D01*
X148043000Y-87528000D02*
X146646000Y-88925000D01*
%TO.N,Net-(JP1-B)*%
X120247500Y-85132500D02*
X119630000Y-85750000D01*
X144614000Y-87655000D02*
X136613000Y-87655000D01*
X136613000Y-87655000D02*
X134090500Y-85132500D01*
X134090500Y-85132500D02*
X120247500Y-85132500D01*
%TO.N,/level_translator/UART_TX1*%
X114981800Y-80797000D02*
X119029000Y-80797000D01*
X108588900Y-87189900D02*
X114981800Y-80797000D01*
%TO.N,/level_translator/UART_RX1*%
X117690000Y-85750000D02*
X115185000Y-85750000D01*
%TO.N,/level_translator/UART_RX0*%
X115293500Y-84082500D02*
X124710000Y-84082500D01*
X115277000Y-84099000D02*
X115293500Y-84082500D01*
X114388000Y-84099000D02*
X115277000Y-84099000D01*
%TO.N,/MOSI *%
X113915000Y-62890000D02*
X110105000Y-62890000D01*
X118360000Y-67335000D02*
X113915000Y-62890000D01*
%TO.N,+3.3V*%
X149313000Y-90322000D02*
X150964000Y-88671000D01*
X131279000Y-90322000D02*
X149313000Y-90322000D01*
X126453000Y-95148000D02*
X131279000Y-90322000D01*
D18*
%TO.N,/level_translator/TX0*%
X139280000Y-114960000D02*
X138010000Y-116230000D01*
X139280000Y-112293000D02*
X139280000Y-114960000D01*
X145376000Y-106197000D02*
X139280000Y-112293000D01*
X145376000Y-103784000D02*
X145376000Y-106197000D01*
D17*
%TO.N,Net-(JP1-B)*%
X145376000Y-98704000D02*
X145376000Y-91465000D01*
%TO.N,/mc/~{RESET}*%
X130771000Y-70383000D02*
X134098400Y-73710400D01*
X123786000Y-70383000D02*
X130771000Y-70383000D01*
X122516000Y-71653000D02*
X123786000Y-70383000D01*
X134098400Y-73710400D02*
X138146600Y-73710400D01*
D19*
%TO.N,+3.3V*%
X144776000Y-67589000D02*
X134616000Y-57429000D01*
X144776000Y-73523000D02*
X144776000Y-67589000D01*
X150999000Y-79746000D02*
X144776000Y-73523000D01*
D17*
%TO.N,Net-(U7-VCC)*%
X111375000Y-91846000D02*
X120763400Y-91846000D01*
X127885000Y-90068000D02*
X122541400Y-90068000D01*
X128033861Y-90216861D02*
X127885000Y-90068000D01*
X122541400Y-90068000D02*
X120763400Y-91846000D01*
%TO.N,Net-(JP3-B)*%
X133184000Y-86258000D02*
X123134500Y-86258000D01*
X134454000Y-87528000D02*
X133184000Y-86258000D01*
X134454000Y-87748000D02*
X134454000Y-87528000D01*
%TO.N,Net-(J2-VREF)*%
X137519500Y-76225000D02*
X137537000Y-76242500D01*
X128358000Y-76225000D02*
X137519500Y-76225000D01*
X126343500Y-74210500D02*
X128358000Y-76225000D01*
X124837000Y-74210500D02*
X126343500Y-74210500D01*
D18*
%TO.N,Net-(U9-OE)*%
X142709000Y-96463000D02*
X142754000Y-96418000D01*
X136740000Y-105689000D02*
X142709000Y-99720000D01*
X142709000Y-99720000D02*
X142709000Y-96463000D01*
D17*
%TO.N,Net-(U7-VCC)*%
X136740000Y-96164000D02*
X128033861Y-96164000D01*
%TO.N,/SCL*%
X121881000Y-55270000D02*
X127215000Y-55270000D01*
X121754000Y-55397000D02*
X121881000Y-55270000D01*
%TO.N,/MOSI *%
X104893000Y-59715000D02*
X104517000Y-60091000D01*
X104517000Y-60091000D02*
X104517000Y-61366000D01*
X108708000Y-59715000D02*
X104893000Y-59715000D01*
X110105000Y-61112000D02*
X108708000Y-59715000D01*
X110105000Y-62890000D02*
X110105000Y-61112000D01*
%TO.N,Net-(J2-VREF)*%
X131152000Y-59334000D02*
X127215000Y-59334000D01*
D20*
X100707000Y-61361000D02*
X100712000Y-61366000D01*
D17*
X100381750Y-61361000D02*
X100707000Y-61361000D01*
X103755000Y-69277250D02*
X103286000Y-69277250D01*
X125945000Y-63525000D02*
X125945000Y-60604000D01*
X99526750Y-62216000D02*
X100381750Y-61361000D01*
X127215000Y-64795000D02*
X125945000Y-63525000D01*
X100712000Y-61366000D02*
X101977000Y-61366000D01*
X103286000Y-69277250D02*
X99526750Y-65518000D01*
X119671200Y-59334000D02*
X127215000Y-59334000D01*
X99526750Y-65518000D02*
X99526750Y-62216000D01*
X133311000Y-61493000D02*
X131152000Y-59334000D01*
X125945000Y-60604000D02*
X127215000Y-59334000D01*
%TO.N,Net-(U3-AVCC)*%
X133311000Y-63669500D02*
X135251000Y-65609500D01*
X135251000Y-65609500D02*
X135251000Y-69240000D01*
D19*
%TO.N,+3.3V*%
X108342800Y-57505200D02*
X134539800Y-57505200D01*
D17*
X134616000Y-57429000D02*
X134616000Y-49555000D01*
D19*
X134539800Y-57505200D02*
X134616000Y-57429000D01*
D17*
%TO.N,/mc/~{RESET}*%
X138121200Y-73685000D02*
X138146600Y-73710400D01*
%TO.N,/SCK*%
X106681000Y-67335000D02*
X104517000Y-65171000D01*
X104517000Y-65171000D02*
X104517000Y-63906000D01*
X110740000Y-67335000D02*
X106681000Y-67335000D01*
%TO.N,/SDA*%
X145665000Y-60604000D02*
X145665000Y-53644400D01*
X145665000Y-60604000D02*
X148967000Y-60604000D01*
%TO.N,Net-(U3-PA3)*%
X127215000Y-61510500D02*
X127232500Y-61510500D01*
X127232500Y-61510500D02*
X130425000Y-64703000D01*
X130425000Y-64703000D02*
X130425000Y-65938000D01*
%TO.N,Net-(U7-VCC)*%
X128033861Y-96164000D02*
X124675000Y-99522861D01*
X124675000Y-104561800D02*
X124710000Y-104596800D01*
X115566000Y-104622200D02*
X124684600Y-104622200D01*
X124684600Y-104622200D02*
X124710000Y-104596800D01*
X124675000Y-99522861D02*
X124675000Y-104561800D01*
%TO.N,Net-(U9-OE)*%
X149059000Y-97180000D02*
X152488000Y-97180000D01*
X146773000Y-94894000D02*
X149059000Y-97180000D01*
%TO.N,Net-(JP3-B)*%
X134454000Y-91608000D02*
X134454000Y-94767000D01*
%TO.N,Net-(JP4-B)*%
X131821000Y-87655000D02*
X115312000Y-87655000D01*
X131914000Y-87748000D02*
X131821000Y-87655000D01*
X115312000Y-87655000D02*
X113407000Y-85750000D01*
D18*
%TO.N,/level_translator/RX1*%
X135505000Y-113655000D02*
X135470000Y-113690000D01*
%TO.N,/level_translator/RX0*%
X138953893Y-107013893D02*
X138010000Y-107957786D01*
X138010000Y-107957786D02*
X138010000Y-113690000D01*
D17*
%TO.N,Net-(U10-CS)*%
X125489500Y-48937500D02*
X128520000Y-51968000D01*
X122297000Y-48937500D02*
X125489500Y-48937500D01*
%TD*%
%TA.AperFunction,Conductor*%
%TO.N,GND*%
G36*
X113616735Y-116883183D02*
G01*
X113662517Y-116946190D01*
X113665455Y-116951955D01*
X113691834Y-117045461D01*
X113680422Y-117141943D01*
X113632957Y-117226714D01*
X113556665Y-117286869D01*
X113463159Y-117313248D01*
X113366677Y-117301836D01*
X113281906Y-117254371D01*
X113267533Y-117241087D01*
X112739408Y-116712962D01*
X112802993Y-116695925D01*
X112917007Y-116630099D01*
X113010099Y-116537007D01*
X113075925Y-116422993D01*
X113092962Y-116359409D01*
X113616735Y-116883183D01*
G37*
%TD.AperFunction*%
%TA.AperFunction,Conductor*%
G36*
X113453311Y-115147913D02*
G01*
X113463141Y-115146750D01*
X113500655Y-115157330D01*
X113538890Y-115164936D01*
X113547121Y-115170436D01*
X113556648Y-115173123D01*
X113587260Y-115197255D01*
X113619671Y-115218912D01*
X113625169Y-115227141D01*
X113632945Y-115233271D01*
X113651994Y-115267287D01*
X113673648Y-115299694D01*
X113675578Y-115309401D01*
X113680416Y-115318039D01*
X113684997Y-115356750D01*
X113692602Y-115394982D01*
X113690670Y-115404691D01*
X113691834Y-115414521D01*
X113681253Y-115452035D01*
X113673648Y-115490270D01*
X113665461Y-115508028D01*
X113662523Y-115513794D01*
X113616734Y-115576817D01*
X113092962Y-116100589D01*
X113075925Y-116037007D01*
X113010099Y-115922993D01*
X112917007Y-115829901D01*
X112802993Y-115764075D01*
X112739407Y-115747037D01*
X113267532Y-115218913D01*
X113275761Y-115213414D01*
X113281891Y-115205639D01*
X113315907Y-115186589D01*
X113348314Y-115164936D01*
X113358021Y-115163005D01*
X113366659Y-115158168D01*
X113405370Y-115153586D01*
X113443602Y-115145982D01*
X113453311Y-115147913D01*
G37*
%TD.AperFunction*%
%TA.AperFunction,Conductor*%
G36*
X113616735Y-114343183D02*
G01*
X113662524Y-114406206D01*
X113665462Y-114411972D01*
X113691835Y-114505479D01*
X113680417Y-114601961D01*
X113632946Y-114686729D01*
X113556649Y-114746877D01*
X113463142Y-114773250D01*
X113366660Y-114761832D01*
X113281892Y-114714361D01*
X113267533Y-114701087D01*
X112739409Y-114172962D01*
X112802993Y-114155925D01*
X112917007Y-114090099D01*
X113010099Y-113997007D01*
X113075925Y-113882993D01*
X113092962Y-113819409D01*
X113616735Y-114343183D01*
G37*
%TD.AperFunction*%
%TA.AperFunction,Conductor*%
G36*
X113453319Y-112607913D02*
G01*
X113463159Y-112606750D01*
X113500670Y-112617332D01*
X113538891Y-112624935D01*
X113547127Y-112630438D01*
X113556664Y-112633129D01*
X113587270Y-112657261D01*
X113619672Y-112678911D01*
X113625175Y-112687147D01*
X113632957Y-112693283D01*
X113651999Y-112727292D01*
X113673649Y-112759693D01*
X113675581Y-112769409D01*
X113680422Y-112778054D01*
X113684999Y-112816757D01*
X113692603Y-112854981D01*
X113690670Y-112864697D01*
X113691834Y-112874537D01*
X113681251Y-112912048D01*
X113673649Y-112950269D01*
X113665455Y-112968042D01*
X113662516Y-112973809D01*
X113616734Y-113036817D01*
X113092962Y-113560589D01*
X113075925Y-113497007D01*
X113010099Y-113382993D01*
X112917007Y-113289901D01*
X112802993Y-113224075D01*
X112739407Y-113207037D01*
X113267533Y-112678912D01*
X113275769Y-112673408D01*
X113281905Y-112665627D01*
X113315914Y-112646584D01*
X113348315Y-112624935D01*
X113358031Y-112623002D01*
X113366676Y-112618162D01*
X113405379Y-112613584D01*
X113443603Y-112605981D01*
X113453319Y-112607913D01*
G37*
%TD.AperFunction*%
%TA.AperFunction,Conductor*%
G36*
X132899788Y-91391454D02*
G01*
X132980570Y-91445430D01*
X133034546Y-91526212D01*
X133053500Y-91621500D01*
X133053500Y-91718217D01*
X133053501Y-91718232D01*
X133087982Y-91935938D01*
X133087984Y-91935945D01*
X133087985Y-91935951D01*
X133156105Y-92145606D01*
X133156106Y-92145607D01*
X133156109Y-92145616D01*
X133256179Y-92342013D01*
X133256183Y-92342019D01*
X133256185Y-92342022D01*
X133355947Y-92479333D01*
X133396620Y-92567562D01*
X133403500Y-92625689D01*
X133403500Y-93749310D01*
X133384546Y-93844598D01*
X133355946Y-93895667D01*
X133256188Y-94032973D01*
X133256179Y-94032986D01*
X133156109Y-94229383D01*
X133156105Y-94229392D01*
X133156105Y-94229394D01*
X133087985Y-94439049D01*
X133087984Y-94439052D01*
X133087984Y-94439054D01*
X133087982Y-94439061D01*
X133053501Y-94656767D01*
X133053500Y-94656782D01*
X133053500Y-94864500D01*
X133034546Y-94959788D01*
X132980570Y-95040570D01*
X132899788Y-95094546D01*
X132804500Y-95113500D01*
X129051550Y-95113500D01*
X129031400Y-95109491D01*
X129010868Y-95110154D01*
X128989237Y-95101105D01*
X128956262Y-95094546D01*
X128919957Y-95075886D01*
X128912394Y-95071178D01*
X128767883Y-94966185D01*
X128634854Y-94898402D01*
X128625798Y-94892765D01*
X128597992Y-94866696D01*
X128568049Y-94843091D01*
X128562782Y-94833685D01*
X128554921Y-94826316D01*
X128539205Y-94791586D01*
X128520578Y-94758323D01*
X128519311Y-94747620D01*
X128514868Y-94737801D01*
X128513639Y-94699697D01*
X128509159Y-94661842D01*
X128512084Y-94651469D01*
X128511737Y-94640697D01*
X128525182Y-94605026D01*
X128535531Y-94568334D01*
X128542768Y-94558372D01*
X128546005Y-94549786D01*
X128559343Y-94535558D01*
X128581318Y-94505312D01*
X131641202Y-91445430D01*
X131721984Y-91391454D01*
X131817272Y-91372500D01*
X132804500Y-91372500D01*
X132899788Y-91391454D01*
G37*
%TD.AperFunction*%
%TA.AperFunction,Conductor*%
G36*
X137406867Y-77726748D02*
G01*
X137424609Y-77734927D01*
X137430395Y-77737875D01*
X137493416Y-77783663D01*
X138017191Y-78307437D01*
X137953607Y-78324475D01*
X137839593Y-78390301D01*
X137746501Y-78483393D01*
X137680675Y-78597407D01*
X137663637Y-78660992D01*
X137135509Y-78132864D01*
X137081533Y-78052082D01*
X137062579Y-77956794D01*
X137081533Y-77861506D01*
X137135509Y-77780724D01*
X137216291Y-77726748D01*
X137311579Y-77707794D01*
X137406867Y-77726748D01*
G37*
%TD.AperFunction*%
%TA.AperFunction,Conductor*%
G36*
X139075491Y-67565335D02*
G01*
X139156273Y-67619311D01*
X139210249Y-67700093D01*
X139229203Y-67795381D01*
X139210249Y-67890669D01*
X139202055Y-67908442D01*
X139199116Y-67914209D01*
X139153334Y-67977217D01*
X138629562Y-68500989D01*
X138612525Y-68437407D01*
X138546699Y-68323393D01*
X138453607Y-68230301D01*
X138339593Y-68164475D01*
X138276006Y-68147436D01*
X138804133Y-67619311D01*
X138884915Y-67565335D01*
X138980203Y-67546381D01*
X139075491Y-67565335D01*
G37*
%TD.AperFunction*%
%TA.AperFunction,Conductor*%
G36*
X108068086Y-62023532D02*
G01*
X108122062Y-62104314D01*
X108141016Y-62199602D01*
X108122062Y-62294890D01*
X108068086Y-62375672D01*
X107987304Y-62429648D01*
X107892016Y-62448602D01*
X107796728Y-62429648D01*
X107778970Y-62421461D01*
X107773204Y-62418523D01*
X107710181Y-62372734D01*
X107186408Y-61848962D01*
X107249993Y-61831925D01*
X107364007Y-61766099D01*
X107457099Y-61673007D01*
X107522925Y-61558993D01*
X107539962Y-61495408D01*
X108068086Y-62023532D01*
G37*
%TD.AperFunction*%
%TA.AperFunction,Conductor*%
G36*
X181778863Y-39230134D02*
G01*
X181806639Y-39232120D01*
X181965645Y-39243493D01*
X182000793Y-39248546D01*
X182175064Y-39286456D01*
X182209143Y-39296463D01*
X182376228Y-39358783D01*
X182408542Y-39373540D01*
X182565062Y-39459006D01*
X182594947Y-39478212D01*
X182737703Y-39585078D01*
X182764553Y-39608343D01*
X182890656Y-39734446D01*
X182913921Y-39761296D01*
X183020787Y-39904052D01*
X183039995Y-39933940D01*
X183125459Y-40090457D01*
X183140216Y-40122771D01*
X183202534Y-40289850D01*
X183212544Y-40323939D01*
X183250451Y-40498195D01*
X183255507Y-40533360D01*
X183268866Y-40720135D01*
X183269500Y-40737899D01*
X183269500Y-130720100D01*
X183268866Y-130737863D01*
X183268866Y-130737864D01*
X183255507Y-130924639D01*
X183250451Y-130959804D01*
X183212544Y-131134060D01*
X183202534Y-131168149D01*
X183140216Y-131335228D01*
X183125459Y-131367542D01*
X183039995Y-131524059D01*
X183020787Y-131553947D01*
X182913921Y-131696703D01*
X182890656Y-131723553D01*
X182764553Y-131849656D01*
X182737703Y-131872921D01*
X182594947Y-131979787D01*
X182565059Y-131998995D01*
X182408542Y-132084459D01*
X182376228Y-132099216D01*
X182209149Y-132161534D01*
X182175060Y-132171544D01*
X182000804Y-132209451D01*
X181965639Y-132214507D01*
X181778864Y-132227866D01*
X181761100Y-132228500D01*
X168778900Y-132228500D01*
X168761136Y-132227866D01*
X168574360Y-132214507D01*
X168539195Y-132209451D01*
X168364939Y-132171544D01*
X168330850Y-132161534D01*
X168163771Y-132099216D01*
X168131457Y-132084459D01*
X167974940Y-131998995D01*
X167945052Y-131979787D01*
X167802296Y-131872921D01*
X167775446Y-131849656D01*
X167649343Y-131723553D01*
X167626078Y-131696703D01*
X167519212Y-131553947D01*
X167500004Y-131524059D01*
X167414540Y-131367542D01*
X167399783Y-131335228D01*
X167337465Y-131168149D01*
X167327455Y-131134060D01*
X167289546Y-130959793D01*
X167284493Y-130924645D01*
X167271134Y-130737863D01*
X167270500Y-130720100D01*
X167270500Y-128577753D01*
X167270500Y-128577748D01*
X167252741Y-128431493D01*
X174519500Y-128431493D01*
X174519500Y-128726506D01*
X174558006Y-129018988D01*
X174634360Y-129303950D01*
X174747253Y-129576499D01*
X174747255Y-129576503D01*
X174747257Y-129576507D01*
X174894762Y-129831994D01*
X175074354Y-130066042D01*
X175282958Y-130274646D01*
X175517006Y-130454238D01*
X175772493Y-130601743D01*
X176045048Y-130714639D01*
X176330007Y-130790993D01*
X176549372Y-130819873D01*
X176622493Y-130829500D01*
X176622494Y-130829500D01*
X176917507Y-130829500D01*
X176966253Y-130823082D01*
X177209993Y-130790993D01*
X177494952Y-130714639D01*
X177767507Y-130601743D01*
X178022994Y-130454238D01*
X178257042Y-130274646D01*
X178465646Y-130066042D01*
X178645238Y-129831994D01*
X178792743Y-129576507D01*
X178905639Y-129303952D01*
X178981993Y-129018993D01*
X179020500Y-128726506D01*
X179020500Y-128431494D01*
X178981993Y-128139007D01*
X178905639Y-127854048D01*
X178792743Y-127581493D01*
X178645238Y-127326006D01*
X178465646Y-127091958D01*
X178257042Y-126883354D01*
X178257037Y-126883350D01*
X178257036Y-126883349D01*
X178022994Y-126703762D01*
X178022989Y-126703759D01*
X177817657Y-126585211D01*
X177767507Y-126556257D01*
X177767505Y-126556256D01*
X177767503Y-126556255D01*
X177767499Y-126556253D01*
X177494950Y-126443360D01*
X177371555Y-126410297D01*
X177209993Y-126367007D01*
X177209988Y-126367006D01*
X177209989Y-126367006D01*
X176917507Y-126328500D01*
X176917506Y-126328500D01*
X176622494Y-126328500D01*
X176622493Y-126328500D01*
X176330011Y-126367006D01*
X176045049Y-126443360D01*
X175772500Y-126556253D01*
X175772496Y-126556255D01*
X175517010Y-126703759D01*
X175517005Y-126703762D01*
X175282963Y-126883349D01*
X175074349Y-127091963D01*
X174894762Y-127326005D01*
X174894759Y-127326010D01*
X174747255Y-127581496D01*
X174747253Y-127581500D01*
X174634360Y-127854049D01*
X174558006Y-128139011D01*
X174519500Y-128431493D01*
X167252741Y-128431493D01*
X167234037Y-128277449D01*
X167161643Y-127983734D01*
X167054373Y-127700887D01*
X166991712Y-127581496D01*
X166913799Y-127433045D01*
X166913788Y-127433027D01*
X166741956Y-127184085D01*
X166741950Y-127184076D01*
X166541352Y-126957648D01*
X166314924Y-126757050D01*
X166237723Y-126703762D01*
X166065972Y-126585211D01*
X166065954Y-126585200D01*
X165798124Y-126444632D01*
X165798107Y-126444624D01*
X165515267Y-126337357D01*
X165364084Y-126300094D01*
X165221551Y-126264963D01*
X165221549Y-126264962D01*
X165221547Y-126264962D01*
X165097277Y-126249873D01*
X164921252Y-126228500D01*
X164835892Y-126228500D01*
X136835892Y-126228500D01*
X108835892Y-126228500D01*
X108770000Y-126228500D01*
X108618748Y-126228500D01*
X108442722Y-126249873D01*
X108318453Y-126264962D01*
X108024732Y-126337357D01*
X107741892Y-126444624D01*
X107741875Y-126444632D01*
X107474045Y-126585200D01*
X107474027Y-126585211D01*
X107225085Y-126757043D01*
X107225072Y-126757053D01*
X106998653Y-126957643D01*
X106998643Y-126957653D01*
X106798053Y-127184072D01*
X106798043Y-127184085D01*
X106626211Y-127433027D01*
X106626200Y-127433045D01*
X106485632Y-127700875D01*
X106485624Y-127700892D01*
X106378357Y-127983732D01*
X106305962Y-128277453D01*
X106302430Y-128306542D01*
X106269500Y-128577748D01*
X106269500Y-128577753D01*
X106269500Y-128577754D01*
X106269500Y-130720100D01*
X106268866Y-130737863D01*
X106268866Y-130737864D01*
X106255507Y-130924639D01*
X106250451Y-130959804D01*
X106212544Y-131134060D01*
X106202534Y-131168149D01*
X106140216Y-131335228D01*
X106125459Y-131367542D01*
X106039995Y-131524059D01*
X106020787Y-131553947D01*
X105913921Y-131696703D01*
X105890656Y-131723553D01*
X105764553Y-131849656D01*
X105737703Y-131872921D01*
X105594947Y-131979787D01*
X105565059Y-131998995D01*
X105408542Y-132084459D01*
X105376228Y-132099216D01*
X105209149Y-132161534D01*
X105175060Y-132171544D01*
X105000804Y-132209451D01*
X104965639Y-132214507D01*
X104778864Y-132227866D01*
X104761100Y-132228500D01*
X91778900Y-132228500D01*
X91761136Y-132227866D01*
X91574360Y-132214507D01*
X91539195Y-132209451D01*
X91364939Y-132171544D01*
X91330850Y-132161534D01*
X91163771Y-132099216D01*
X91131457Y-132084459D01*
X90974940Y-131998995D01*
X90945052Y-131979787D01*
X90802296Y-131872921D01*
X90775446Y-131849656D01*
X90649343Y-131723553D01*
X90626078Y-131696703D01*
X90519212Y-131553947D01*
X90500004Y-131524059D01*
X90414540Y-131367542D01*
X90399783Y-131335228D01*
X90337465Y-131168149D01*
X90327455Y-131134060D01*
X90289546Y-130959793D01*
X90284493Y-130924645D01*
X90271134Y-130737863D01*
X90270500Y-130720100D01*
X90270500Y-128431493D01*
X94519500Y-128431493D01*
X94519500Y-128726506D01*
X94558006Y-129018988D01*
X94634360Y-129303950D01*
X94747253Y-129576499D01*
X94747255Y-129576503D01*
X94747257Y-129576507D01*
X94894762Y-129831994D01*
X95074354Y-130066042D01*
X95282958Y-130274646D01*
X95517006Y-130454238D01*
X95772493Y-130601743D01*
X96045048Y-130714639D01*
X96330007Y-130790993D01*
X96549372Y-130819873D01*
X96622493Y-130829500D01*
X96622494Y-130829500D01*
X96917507Y-130829500D01*
X96966253Y-130823082D01*
X97209993Y-130790993D01*
X97494952Y-130714639D01*
X97767507Y-130601743D01*
X98022994Y-130454238D01*
X98257042Y-130274646D01*
X98465646Y-130066042D01*
X98645238Y-129831994D01*
X98792743Y-129576507D01*
X98905639Y-129303952D01*
X98981993Y-129018993D01*
X99020500Y-128726506D01*
X99020500Y-128431494D01*
X98981993Y-128139007D01*
X98905639Y-127854048D01*
X98792743Y-127581493D01*
X98645238Y-127326006D01*
X98465646Y-127091958D01*
X98257042Y-126883354D01*
X98257037Y-126883350D01*
X98257036Y-126883349D01*
X98022994Y-126703762D01*
X98022989Y-126703759D01*
X97817657Y-126585211D01*
X97767507Y-126556257D01*
X97767505Y-126556256D01*
X97767503Y-126556255D01*
X97767499Y-126556253D01*
X97494950Y-126443360D01*
X97371555Y-126410297D01*
X97209993Y-126367007D01*
X97209988Y-126367006D01*
X97209989Y-126367006D01*
X96917507Y-126328500D01*
X96917506Y-126328500D01*
X96622494Y-126328500D01*
X96622493Y-126328500D01*
X96330011Y-126367006D01*
X96045049Y-126443360D01*
X95772500Y-126556253D01*
X95772496Y-126556255D01*
X95517010Y-126703759D01*
X95517005Y-126703762D01*
X95282963Y-126883349D01*
X95074349Y-127091963D01*
X94894762Y-127326005D01*
X94894759Y-127326010D01*
X94747255Y-127581496D01*
X94747253Y-127581500D01*
X94634360Y-127854049D01*
X94558006Y-128139011D01*
X94519500Y-128431493D01*
X90270500Y-128431493D01*
X90270500Y-62112535D01*
X98476250Y-62112535D01*
X98476250Y-65621465D01*
X98493337Y-65707366D01*
X98516620Y-65824421D01*
X98595806Y-66015593D01*
X98595812Y-66015603D01*
X98710768Y-66187649D01*
X98710770Y-66187651D01*
X98710773Y-66187655D01*
X98857095Y-66333977D01*
X98857098Y-66333979D01*
X102470020Y-69946901D01*
X102470023Y-69946905D01*
X102603897Y-70080779D01*
X102629263Y-70110479D01*
X102686758Y-70189615D01*
X102842635Y-70345492D01*
X103020978Y-70475065D01*
X103020981Y-70475066D01*
X103020986Y-70475070D01*
X103217383Y-70575140D01*
X103217386Y-70575141D01*
X103217394Y-70575145D01*
X103427049Y-70643265D01*
X103427060Y-70643266D01*
X103427061Y-70643267D01*
X103487640Y-70652861D01*
X103644778Y-70677750D01*
X103644782Y-70677750D01*
X103865218Y-70677750D01*
X103865222Y-70677750D01*
X104082951Y-70643265D01*
X104292606Y-70575145D01*
X104292616Y-70575140D01*
X104489013Y-70475070D01*
X104489015Y-70475068D01*
X104489022Y-70475065D01*
X104667365Y-70345492D01*
X104823242Y-70189615D01*
X104952815Y-70011272D01*
X105052895Y-69814856D01*
X105121015Y-69605201D01*
X105155500Y-69387472D01*
X105155500Y-69167028D01*
X105121015Y-68949299D01*
X105052895Y-68739644D01*
X105052891Y-68739636D01*
X105052890Y-68739633D01*
X104952820Y-68543236D01*
X104952816Y-68543231D01*
X104952815Y-68543228D01*
X104823242Y-68364885D01*
X104667365Y-68209008D01*
X104489022Y-68079435D01*
X104489019Y-68079433D01*
X104489013Y-68079429D01*
X104292616Y-67979359D01*
X104292609Y-67979356D01*
X104292606Y-67979355D01*
X104082951Y-67911235D01*
X104082945Y-67911234D01*
X104082938Y-67911232D01*
X103865232Y-67876751D01*
X103865225Y-67876750D01*
X103865222Y-67876750D01*
X103644778Y-67876750D01*
X103644776Y-67876750D01*
X103533855Y-67894318D01*
X103436775Y-67890503D01*
X103348544Y-67849827D01*
X103318834Y-67824453D01*
X101475951Y-65981570D01*
X101421975Y-65900788D01*
X101403021Y-65805500D01*
X101421975Y-65710212D01*
X101475951Y-65629430D01*
X101556733Y-65575454D01*
X101652021Y-65556500D01*
X102871954Y-65556500D01*
X102871968Y-65556499D01*
X102982079Y-65544091D01*
X103006255Y-65541368D01*
X103176522Y-65481789D01*
X103190405Y-65473065D01*
X103281171Y-65438418D01*
X103378288Y-65441143D01*
X103466969Y-65480825D01*
X103533715Y-65551423D01*
X103552927Y-65588611D01*
X103586058Y-65668596D01*
X103586062Y-65668603D01*
X103701018Y-65840649D01*
X103701020Y-65840651D01*
X103701023Y-65840655D01*
X103847345Y-65986977D01*
X103847348Y-65986979D01*
X105865020Y-68004651D01*
X105865023Y-68004655D01*
X106011345Y-68150977D01*
X106011348Y-68150979D01*
X106011350Y-68150981D01*
X106150433Y-68243912D01*
X106183402Y-68265941D01*
X106183404Y-68265941D01*
X106183406Y-68265943D01*
X106289511Y-68309893D01*
X106374580Y-68345130D01*
X106577535Y-68385500D01*
X109722311Y-68385500D01*
X109817599Y-68404454D01*
X109868664Y-68433051D01*
X110005978Y-68532815D01*
X110005981Y-68532816D01*
X110005986Y-68532820D01*
X110202383Y-68632890D01*
X110202386Y-68632891D01*
X110202394Y-68632895D01*
X110412049Y-68701015D01*
X110412060Y-68701016D01*
X110412061Y-68701017D01*
X110431072Y-68704028D01*
X110629778Y-68735500D01*
X110629782Y-68735500D01*
X110850218Y-68735500D01*
X110850222Y-68735500D01*
X111067951Y-68701015D01*
X111277606Y-68632895D01*
X111277616Y-68632890D01*
X111474013Y-68532820D01*
X111474015Y-68532818D01*
X111474022Y-68532815D01*
X111652365Y-68403242D01*
X111808242Y-68247365D01*
X111937815Y-68069022D01*
X111984593Y-67977217D01*
X112037890Y-67872616D01*
X112037890Y-67872615D01*
X112037895Y-67872606D01*
X112106015Y-67662951D01*
X112140500Y-67445222D01*
X112140500Y-67224778D01*
X112108152Y-67020540D01*
X112106017Y-67007061D01*
X112106016Y-67007060D01*
X112106015Y-67007049D01*
X112037895Y-66797394D01*
X112037891Y-66797386D01*
X112037890Y-66797383D01*
X111937820Y-66600986D01*
X111937816Y-66600981D01*
X111937815Y-66600978D01*
X111808242Y-66422635D01*
X111652365Y-66266758D01*
X111474022Y-66137185D01*
X111474019Y-66137183D01*
X111474013Y-66137179D01*
X111277616Y-66037109D01*
X111277609Y-66037106D01*
X111277606Y-66037105D01*
X111067951Y-65968985D01*
X111067945Y-65968984D01*
X111067938Y-65968982D01*
X110850232Y-65934501D01*
X110850225Y-65934500D01*
X110850222Y-65934500D01*
X110629778Y-65934500D01*
X110629775Y-65934500D01*
X110629767Y-65934501D01*
X110412061Y-65968982D01*
X110412054Y-65968984D01*
X110412052Y-65968984D01*
X110412049Y-65968985D01*
X110202394Y-66037105D01*
X110202392Y-66037105D01*
X110202392Y-66037106D01*
X110202383Y-66037109D01*
X110005986Y-66137179D01*
X110005979Y-66137184D01*
X109973179Y-66161015D01*
X109868666Y-66236947D01*
X109780438Y-66277620D01*
X109722311Y-66284500D01*
X107219271Y-66284500D01*
X107123983Y-66265546D01*
X107043201Y-66211570D01*
X106813201Y-65981570D01*
X106759225Y-65900788D01*
X106740271Y-65805500D01*
X106759225Y-65710212D01*
X106813201Y-65629430D01*
X106893983Y-65575454D01*
X106989271Y-65556500D01*
X107186893Y-65556500D01*
X107186897Y-65556500D01*
X107443493Y-65515860D01*
X107690572Y-65435579D01*
X107922051Y-65317634D01*
X108132229Y-65164931D01*
X108315931Y-64981229D01*
X108468634Y-64771051D01*
X108586579Y-64539572D01*
X108666860Y-64292493D01*
X108707500Y-64035897D01*
X108707500Y-64035887D01*
X108708000Y-64032731D01*
X108741627Y-63941581D01*
X108807575Y-63870238D01*
X108895806Y-63829562D01*
X108992886Y-63825747D01*
X109084036Y-63859374D01*
X109130005Y-63895612D01*
X109192635Y-63958242D01*
X109370978Y-64087815D01*
X109370981Y-64087816D01*
X109370986Y-64087820D01*
X109567383Y-64187890D01*
X109567386Y-64187891D01*
X109567394Y-64187895D01*
X109777049Y-64256015D01*
X109777060Y-64256016D01*
X109777061Y-64256017D01*
X109837640Y-64265611D01*
X109994778Y-64290500D01*
X109994782Y-64290500D01*
X110215218Y-64290500D01*
X110215222Y-64290500D01*
X110432951Y-64256015D01*
X110642606Y-64187895D01*
X110642616Y-64187890D01*
X110839013Y-64087820D01*
X110839015Y-64087818D01*
X110839022Y-64087815D01*
X110976333Y-63988052D01*
X111064562Y-63947380D01*
X111122689Y-63940500D01*
X113376729Y-63940500D01*
X113472017Y-63959454D01*
X113552799Y-64013430D01*
X116897570Y-67358201D01*
X116951546Y-67438983D01*
X116967434Y-67495319D01*
X116993982Y-67662938D01*
X116993984Y-67662945D01*
X116993985Y-67662951D01*
X117062105Y-67872606D01*
X117062106Y-67872607D01*
X117062109Y-67872616D01*
X117162179Y-68069013D01*
X117162183Y-68069019D01*
X117162185Y-68069022D01*
X117291758Y-68247365D01*
X117447635Y-68403242D01*
X117625978Y-68532815D01*
X117625981Y-68532816D01*
X117625986Y-68532820D01*
X117822383Y-68632890D01*
X117822386Y-68632891D01*
X117822394Y-68632895D01*
X118032049Y-68701015D01*
X118032060Y-68701016D01*
X118032061Y-68701017D01*
X118051072Y-68704028D01*
X118249778Y-68735500D01*
X118249782Y-68735500D01*
X118470218Y-68735500D01*
X118470222Y-68735500D01*
X118687951Y-68701015D01*
X118897606Y-68632895D01*
X118897616Y-68632890D01*
X119094013Y-68532820D01*
X119094015Y-68532818D01*
X119094022Y-68532815D01*
X119272365Y-68403242D01*
X119428242Y-68247365D01*
X119557815Y-68069022D01*
X119604593Y-67977217D01*
X119657890Y-67872616D01*
X119657890Y-67872615D01*
X119657895Y-67872606D01*
X119726015Y-67662951D01*
X119760500Y-67445222D01*
X119760500Y-67224778D01*
X119728152Y-67020540D01*
X119726017Y-67007061D01*
X119726016Y-67007060D01*
X119726015Y-67007049D01*
X119657895Y-66797394D01*
X119657891Y-66797386D01*
X119657890Y-66797383D01*
X119557820Y-66600986D01*
X119557816Y-66600981D01*
X119557815Y-66600978D01*
X119428242Y-66422635D01*
X119272365Y-66266758D01*
X119094022Y-66137185D01*
X119094019Y-66137183D01*
X119094013Y-66137179D01*
X118897616Y-66037109D01*
X118897609Y-66037106D01*
X118897606Y-66037105D01*
X118687951Y-65968985D01*
X118687945Y-65968984D01*
X118687938Y-65968982D01*
X118520319Y-65942434D01*
X118429169Y-65908807D01*
X118383201Y-65872570D01*
X114730979Y-62220348D01*
X114730977Y-62220345D01*
X114584655Y-62074023D01*
X114584651Y-62074020D01*
X114584649Y-62074018D01*
X114412603Y-61959062D01*
X114412593Y-61959056D01*
X114221421Y-61879870D01*
X114151690Y-61866000D01*
X114018465Y-61839500D01*
X114018463Y-61839500D01*
X111404500Y-61839500D01*
X111309212Y-61820546D01*
X111228430Y-61766570D01*
X111174454Y-61685788D01*
X111155500Y-61590500D01*
X111155500Y-61008536D01*
X111149726Y-60979507D01*
X111115130Y-60805580D01*
X111035941Y-60614402D01*
X111013379Y-60580635D01*
X110920981Y-60442350D01*
X110920979Y-60442348D01*
X110920977Y-60442345D01*
X110774655Y-60296023D01*
X110774651Y-60296020D01*
X109709401Y-59230770D01*
X109655425Y-59149988D01*
X109636471Y-59054700D01*
X109655425Y-58959412D01*
X109709401Y-58878630D01*
X109790183Y-58824654D01*
X109885471Y-58805700D01*
X118045376Y-58805700D01*
X118140664Y-58824654D01*
X118221446Y-58878630D01*
X118275422Y-58959412D01*
X118294376Y-59054700D01*
X118291310Y-59093653D01*
X118270701Y-59223769D01*
X118270700Y-59223782D01*
X118270700Y-59444217D01*
X118270701Y-59444232D01*
X118305182Y-59661938D01*
X118305184Y-59661945D01*
X118305185Y-59661951D01*
X118373305Y-59871606D01*
X118373306Y-59871607D01*
X118373309Y-59871616D01*
X118473379Y-60068013D01*
X118473383Y-60068019D01*
X118473385Y-60068022D01*
X118602958Y-60246365D01*
X118758835Y-60402242D01*
X118937178Y-60531815D01*
X118937181Y-60531816D01*
X118937186Y-60531820D01*
X119133583Y-60631890D01*
X119133586Y-60631891D01*
X119133594Y-60631895D01*
X119343249Y-60700015D01*
X119343260Y-60700016D01*
X119343261Y-60700017D01*
X119403840Y-60709611D01*
X119560978Y-60734500D01*
X119560982Y-60734500D01*
X119781418Y-60734500D01*
X119781422Y-60734500D01*
X119999151Y-60700015D01*
X120208806Y-60631895D01*
X120243138Y-60614402D01*
X120405213Y-60531820D01*
X120405215Y-60531818D01*
X120405222Y-60531815D01*
X120542533Y-60432052D01*
X120630762Y-60391380D01*
X120688889Y-60384500D01*
X124645500Y-60384500D01*
X124740788Y-60403454D01*
X124821570Y-60457430D01*
X124875546Y-60538212D01*
X124894500Y-60633500D01*
X124894500Y-63628465D01*
X124906505Y-63688820D01*
X124934870Y-63831421D01*
X125014056Y-64022593D01*
X125014062Y-64022603D01*
X125129018Y-64194649D01*
X125129020Y-64194651D01*
X125129023Y-64194655D01*
X125275345Y-64340977D01*
X125275348Y-64340979D01*
X125752570Y-64818201D01*
X125806546Y-64898983D01*
X125822434Y-64955319D01*
X125848982Y-65122938D01*
X125848984Y-65122945D01*
X125848985Y-65122951D01*
X125917105Y-65332606D01*
X125917106Y-65332607D01*
X125917109Y-65332616D01*
X126017179Y-65529013D01*
X126017183Y-65529019D01*
X126017185Y-65529022D01*
X126146758Y-65707365D01*
X126302635Y-65863242D01*
X126480978Y-65992815D01*
X126480981Y-65992816D01*
X126480986Y-65992820D01*
X126677383Y-66092890D01*
X126677386Y-66092891D01*
X126677394Y-66092895D01*
X126887049Y-66161015D01*
X126887060Y-66161016D01*
X126887061Y-66161017D01*
X126947640Y-66170611D01*
X127104778Y-66195500D01*
X127104782Y-66195500D01*
X127325218Y-66195500D01*
X127325222Y-66195500D01*
X127542951Y-66161015D01*
X127752606Y-66092895D01*
X127790317Y-66073680D01*
X127949013Y-65992820D01*
X127949015Y-65992818D01*
X127949022Y-65992815D01*
X128127365Y-65863242D01*
X128283242Y-65707365D01*
X128412815Y-65529022D01*
X128415979Y-65522814D01*
X128512890Y-65332616D01*
X128512890Y-65332615D01*
X128512895Y-65332606D01*
X128581015Y-65122951D01*
X128594864Y-65035515D01*
X128610984Y-64933738D01*
X128621144Y-64906197D01*
X128626872Y-64877402D01*
X128637802Y-64861042D01*
X128644611Y-64842588D01*
X128664535Y-64821034D01*
X128680848Y-64796620D01*
X128697208Y-64785688D01*
X128710560Y-64771245D01*
X128737217Y-64758955D01*
X128761630Y-64742644D01*
X128780924Y-64738805D01*
X128798790Y-64730570D01*
X128828123Y-64729417D01*
X128856918Y-64723690D01*
X128876214Y-64727528D01*
X128895870Y-64726756D01*
X128923410Y-64736916D01*
X128952206Y-64742644D01*
X128968565Y-64753574D01*
X128987020Y-64760383D01*
X129032988Y-64796620D01*
X129171213Y-64934845D01*
X129225189Y-65015627D01*
X129244143Y-65110915D01*
X129225189Y-65206203D01*
X129217003Y-65223959D01*
X129127110Y-65400383D01*
X129127105Y-65400392D01*
X129127105Y-65400394D01*
X129058985Y-65610049D01*
X129058984Y-65610052D01*
X129058984Y-65610054D01*
X129058982Y-65610061D01*
X129024501Y-65827767D01*
X129024500Y-65827782D01*
X129024500Y-66048217D01*
X129024501Y-66048232D01*
X129058982Y-66265938D01*
X129058984Y-66265945D01*
X129058985Y-66265951D01*
X129127105Y-66475606D01*
X129127106Y-66475607D01*
X129127109Y-66475616D01*
X129227179Y-66672013D01*
X129227183Y-66672019D01*
X129227185Y-66672022D01*
X129356758Y-66850365D01*
X129512635Y-67006242D01*
X129690978Y-67135815D01*
X129690981Y-67135816D01*
X129690986Y-67135820D01*
X129887383Y-67235890D01*
X129887386Y-67235891D01*
X129887394Y-67235895D01*
X130097049Y-67304015D01*
X130097060Y-67304016D01*
X130097061Y-67304017D01*
X130157640Y-67313611D01*
X130314778Y-67338500D01*
X130314782Y-67338500D01*
X130535218Y-67338500D01*
X130535222Y-67338500D01*
X130752951Y-67304015D01*
X130962606Y-67235895D01*
X130962616Y-67235890D01*
X131159013Y-67135820D01*
X131159015Y-67135818D01*
X131159022Y-67135815D01*
X131337365Y-67006242D01*
X131493242Y-66850365D01*
X131622815Y-66672022D01*
X131661026Y-66597031D01*
X131722890Y-66475616D01*
X131722890Y-66475615D01*
X131722895Y-66475606D01*
X131791015Y-66265951D01*
X131825500Y-66048222D01*
X131825500Y-65827778D01*
X131791015Y-65610049D01*
X131722895Y-65400394D01*
X131722891Y-65400386D01*
X131722890Y-65400383D01*
X131622820Y-65203986D01*
X131622816Y-65203980D01*
X131622815Y-65203978D01*
X131563946Y-65122951D01*
X131523054Y-65066667D01*
X131510764Y-65040009D01*
X131494454Y-65015598D01*
X131490615Y-64996302D01*
X131482380Y-64978437D01*
X131475500Y-64920310D01*
X131475500Y-64818773D01*
X131475501Y-64818752D01*
X131475501Y-64599534D01*
X131475500Y-64599529D01*
X131435131Y-64396583D01*
X131435130Y-64396582D01*
X131435130Y-64396580D01*
X131355942Y-64205402D01*
X131336549Y-64176379D01*
X131240979Y-64033348D01*
X131240977Y-64033345D01*
X128674136Y-61466504D01*
X128620160Y-61385722D01*
X128604272Y-61329386D01*
X128581017Y-61182561D01*
X128581016Y-61182560D01*
X128581015Y-61182549D01*
X128512895Y-60972894D01*
X128512891Y-60972886D01*
X128512890Y-60972883D01*
X128412820Y-60776486D01*
X128407705Y-60768140D01*
X128409392Y-60767105D01*
X128374597Y-60691632D01*
X128370781Y-60594552D01*
X128404406Y-60503402D01*
X128470354Y-60432058D01*
X128558584Y-60391381D01*
X128616716Y-60384500D01*
X130613729Y-60384500D01*
X130709017Y-60403454D01*
X130789799Y-60457430D01*
X131848570Y-61516201D01*
X131902546Y-61596983D01*
X131918434Y-61653319D01*
X131944982Y-61820938D01*
X131944984Y-61820945D01*
X131944985Y-61820951D01*
X132013105Y-62030606D01*
X132013106Y-62030607D01*
X132013109Y-62030616D01*
X132113179Y-62227013D01*
X132113183Y-62227019D01*
X132113185Y-62227022D01*
X132242758Y-62405365D01*
X132242761Y-62405368D01*
X132249117Y-62412811D01*
X132248196Y-62413596D01*
X132296549Y-62485962D01*
X132315503Y-62581250D01*
X132296549Y-62676538D01*
X132248196Y-62748903D01*
X132249117Y-62749689D01*
X132242761Y-62757131D01*
X132113184Y-62935479D01*
X132113179Y-62935486D01*
X132013109Y-63131883D01*
X132013105Y-63131892D01*
X132013105Y-63131894D01*
X131944985Y-63341549D01*
X131944984Y-63341552D01*
X131944984Y-63341554D01*
X131944982Y-63341561D01*
X131910501Y-63559267D01*
X131910500Y-63559282D01*
X131910500Y-63779717D01*
X131910501Y-63779732D01*
X131944982Y-63997438D01*
X131944984Y-63997445D01*
X131944985Y-63997451D01*
X132013105Y-64207106D01*
X132013106Y-64207107D01*
X132013109Y-64207116D01*
X132113179Y-64403513D01*
X132113183Y-64403519D01*
X132113185Y-64403522D01*
X132242758Y-64581865D01*
X132398635Y-64737742D01*
X132576978Y-64867315D01*
X132576981Y-64867316D01*
X132576986Y-64867320D01*
X132773383Y-64967390D01*
X132773386Y-64967391D01*
X132773394Y-64967395D01*
X132983049Y-65035515D01*
X133150684Y-65062065D01*
X133241829Y-65095691D01*
X133287798Y-65131929D01*
X134127570Y-65971701D01*
X134181546Y-66052483D01*
X134200500Y-66147771D01*
X134200500Y-68222310D01*
X134181546Y-68317598D01*
X134152946Y-68368667D01*
X134053188Y-68505973D01*
X134053179Y-68505986D01*
X133953109Y-68702383D01*
X133953105Y-68702392D01*
X133953105Y-68702394D01*
X133884985Y-68912049D01*
X133884984Y-68912052D01*
X133884984Y-68912054D01*
X133884982Y-68912061D01*
X133850501Y-69129767D01*
X133850500Y-69129782D01*
X133850500Y-69350217D01*
X133850501Y-69350232D01*
X133884982Y-69567938D01*
X133884984Y-69567945D01*
X133884985Y-69567951D01*
X133953105Y-69777606D01*
X133953106Y-69777607D01*
X133953109Y-69777616D01*
X134053179Y-69974013D01*
X134053183Y-69974019D01*
X134053185Y-69974022D01*
X134182758Y-70152365D01*
X134338635Y-70308242D01*
X134516978Y-70437815D01*
X134516981Y-70437816D01*
X134516986Y-70437820D01*
X134713383Y-70537890D01*
X134713386Y-70537891D01*
X134713394Y-70537895D01*
X134923049Y-70606015D01*
X134923060Y-70606016D01*
X134923061Y-70606017D01*
X134983640Y-70615611D01*
X135140778Y-70640500D01*
X135140782Y-70640500D01*
X135361218Y-70640500D01*
X135361222Y-70640500D01*
X135578951Y-70606015D01*
X135788606Y-70537895D01*
X135790712Y-70536822D01*
X135985013Y-70437820D01*
X135985015Y-70437818D01*
X135985022Y-70437815D01*
X136163365Y-70308242D01*
X136214275Y-70257332D01*
X136295056Y-70203355D01*
X136390344Y-70184400D01*
X136485632Y-70203353D01*
X136566414Y-70257329D01*
X136620391Y-70338110D01*
X136639346Y-70433398D01*
X136620394Y-70528684D01*
X136617019Y-70536830D01*
X136536740Y-70783906D01*
X136536738Y-70783912D01*
X136496101Y-71040491D01*
X136496100Y-71040507D01*
X136496100Y-71300292D01*
X136496101Y-71300308D01*
X136536738Y-71556887D01*
X136536740Y-71556893D01*
X136617019Y-71803967D01*
X136617023Y-71803977D01*
X136734965Y-72035450D01*
X136887666Y-72245625D01*
X136890710Y-72249189D01*
X136892237Y-72251917D01*
X136893419Y-72253543D01*
X136893226Y-72253682D01*
X136938181Y-72333957D01*
X136949599Y-72430439D01*
X136923227Y-72523946D01*
X136863078Y-72600243D01*
X136778310Y-72647714D01*
X136701367Y-72659900D01*
X134636671Y-72659900D01*
X134541383Y-72640946D01*
X134460601Y-72586970D01*
X131586979Y-69713348D01*
X131586977Y-69713345D01*
X131440655Y-69567023D01*
X131440651Y-69567020D01*
X131440649Y-69567018D01*
X131268603Y-69452062D01*
X131268593Y-69452056D01*
X131077421Y-69372870D01*
X130963610Y-69350232D01*
X130874465Y-69332500D01*
X123682535Y-69332500D01*
X123593465Y-69350217D01*
X123479578Y-69372870D01*
X123288406Y-69452056D01*
X123288396Y-69452062D01*
X123116350Y-69567018D01*
X123116343Y-69567024D01*
X122970022Y-69713344D01*
X122970023Y-69713345D01*
X122492799Y-70190569D01*
X122412017Y-70244545D01*
X122355683Y-70260433D01*
X122188058Y-70286983D01*
X122188054Y-70286984D01*
X122188052Y-70286984D01*
X122188049Y-70286985D01*
X121978394Y-70355105D01*
X121978392Y-70355105D01*
X121978392Y-70355106D01*
X121978383Y-70355109D01*
X121781986Y-70455179D01*
X121781979Y-70455184D01*
X121603633Y-70584759D01*
X121447759Y-70740633D01*
X121318184Y-70918979D01*
X121318179Y-70918986D01*
X121218109Y-71115383D01*
X121218105Y-71115392D01*
X121218105Y-71115394D01*
X121149985Y-71325049D01*
X121149984Y-71325052D01*
X121149984Y-71325054D01*
X121149982Y-71325061D01*
X121115501Y-71542767D01*
X121115500Y-71542782D01*
X121115500Y-71763217D01*
X121115501Y-71763232D01*
X121149982Y-71980938D01*
X121149984Y-71980945D01*
X121149985Y-71980951D01*
X121218105Y-72190606D01*
X121218106Y-72190607D01*
X121218109Y-72190616D01*
X121318179Y-72387013D01*
X121318183Y-72387019D01*
X121318185Y-72387022D01*
X121447758Y-72565365D01*
X121603635Y-72721242D01*
X121781978Y-72850815D01*
X121781981Y-72850816D01*
X121781986Y-72850820D01*
X121978383Y-72950890D01*
X121978386Y-72950891D01*
X121978394Y-72950895D01*
X122188049Y-73019015D01*
X122188060Y-73019016D01*
X122188061Y-73019017D01*
X122248640Y-73028611D01*
X122405778Y-73053500D01*
X122405782Y-73053500D01*
X122626218Y-73053500D01*
X122626222Y-73053500D01*
X122843951Y-73019015D01*
X123053606Y-72950895D01*
X123190438Y-72881175D01*
X123250013Y-72850820D01*
X123250015Y-72850818D01*
X123250022Y-72850815D01*
X123428365Y-72721242D01*
X123584242Y-72565365D01*
X123713815Y-72387022D01*
X123735170Y-72345112D01*
X123813890Y-72190616D01*
X123813890Y-72190615D01*
X123813895Y-72190606D01*
X123882015Y-71980951D01*
X123908566Y-71813314D01*
X123918725Y-71785776D01*
X123924453Y-71756982D01*
X123935382Y-71740624D01*
X123942191Y-71722170D01*
X123978430Y-71676201D01*
X124148202Y-71506430D01*
X124228984Y-71452454D01*
X124324271Y-71433500D01*
X130232729Y-71433500D01*
X130328017Y-71452454D01*
X130408799Y-71506430D01*
X133282420Y-74380051D01*
X133282423Y-74380055D01*
X133428745Y-74526377D01*
X133428748Y-74526379D01*
X133428750Y-74526381D01*
X133600796Y-74641337D01*
X133600802Y-74641341D01*
X133600804Y-74641341D01*
X133600806Y-74641343D01*
X133731441Y-74695454D01*
X133812223Y-74749431D01*
X133866199Y-74830212D01*
X133885153Y-74925500D01*
X133866199Y-75020788D01*
X133812222Y-75101570D01*
X133731441Y-75155546D01*
X133636153Y-75174500D01*
X128896271Y-75174500D01*
X128800983Y-75155546D01*
X128720201Y-75101570D01*
X127159479Y-73540848D01*
X127159477Y-73540845D01*
X127013155Y-73394523D01*
X127013151Y-73394520D01*
X127013149Y-73394518D01*
X126841103Y-73279562D01*
X126841093Y-73279556D01*
X126649921Y-73200370D01*
X126582268Y-73186913D01*
X126446965Y-73160000D01*
X126446963Y-73160000D01*
X125854689Y-73160000D01*
X125759401Y-73141046D01*
X125708335Y-73112448D01*
X125571022Y-73012685D01*
X125571019Y-73012683D01*
X125571013Y-73012679D01*
X125374616Y-72912609D01*
X125374609Y-72912606D01*
X125374606Y-72912605D01*
X125164951Y-72844485D01*
X125164945Y-72844484D01*
X125164938Y-72844482D01*
X124947232Y-72810001D01*
X124947225Y-72810000D01*
X124947222Y-72810000D01*
X124726778Y-72810000D01*
X124726775Y-72810000D01*
X124726767Y-72810001D01*
X124509061Y-72844482D01*
X124509054Y-72844484D01*
X124509052Y-72844484D01*
X124509049Y-72844485D01*
X124299394Y-72912605D01*
X124299392Y-72912605D01*
X124299392Y-72912606D01*
X124299383Y-72912609D01*
X124102986Y-73012679D01*
X124102979Y-73012684D01*
X123924633Y-73142259D01*
X123768759Y-73298133D01*
X123639184Y-73476479D01*
X123639179Y-73476486D01*
X123539109Y-73672883D01*
X123539105Y-73672892D01*
X123539105Y-73672894D01*
X123470985Y-73882549D01*
X123470984Y-73882552D01*
X123470984Y-73882554D01*
X123470982Y-73882561D01*
X123436501Y-74100267D01*
X123436500Y-74100282D01*
X123436500Y-74320717D01*
X123436501Y-74320732D01*
X123470982Y-74538438D01*
X123470984Y-74538445D01*
X123470985Y-74538451D01*
X123539105Y-74748106D01*
X123539106Y-74748107D01*
X123539109Y-74748116D01*
X123639179Y-74944513D01*
X123639183Y-74944519D01*
X123639185Y-74944522D01*
X123768758Y-75122865D01*
X123924635Y-75278742D01*
X124102978Y-75408315D01*
X124102981Y-75408316D01*
X124102986Y-75408320D01*
X124299383Y-75508390D01*
X124299386Y-75508391D01*
X124299394Y-75508395D01*
X124509049Y-75576515D01*
X124509060Y-75576516D01*
X124509061Y-75576517D01*
X124569640Y-75586111D01*
X124726778Y-75611000D01*
X124726782Y-75611000D01*
X124947218Y-75611000D01*
X124947222Y-75611000D01*
X125164951Y-75576515D01*
X125374606Y-75508395D01*
X125374616Y-75508390D01*
X125571013Y-75408320D01*
X125571015Y-75408318D01*
X125571022Y-75408315D01*
X125679684Y-75329368D01*
X125767914Y-75288693D01*
X125864994Y-75284879D01*
X125956144Y-75318506D01*
X126002112Y-75354743D01*
X127542020Y-76894651D01*
X127542023Y-76894655D01*
X127688345Y-77040977D01*
X127688348Y-77040979D01*
X127688350Y-77040981D01*
X127799804Y-77115451D01*
X127860402Y-77155941D01*
X127860404Y-77155941D01*
X127860406Y-77155943D01*
X127915298Y-77178680D01*
X128051580Y-77235130D01*
X128254535Y-77275500D01*
X128461465Y-77275500D01*
X136734401Y-77275500D01*
X136829689Y-77294454D01*
X136910467Y-77348427D01*
X136953210Y-77391170D01*
X137007184Y-77471949D01*
X137026138Y-77567237D01*
X137007184Y-77662525D01*
X136953208Y-77743307D01*
X136872426Y-77797283D01*
X136819375Y-77810019D01*
X136735397Y-77925607D01*
X136735389Y-77925620D01*
X136617490Y-78157009D01*
X136617482Y-78157026D01*
X136537228Y-78404026D01*
X136496600Y-78660532D01*
X136496600Y-78920267D01*
X136537228Y-79176773D01*
X136617482Y-79423773D01*
X136617490Y-79423790D01*
X136735389Y-79655179D01*
X136735393Y-79655186D01*
X136816551Y-79766892D01*
X137663636Y-78919806D01*
X137680675Y-78983393D01*
X137746501Y-79097407D01*
X137839593Y-79190499D01*
X137953607Y-79256325D01*
X138017190Y-79273362D01*
X137170106Y-80120447D01*
X137281812Y-80201606D01*
X137513209Y-80319509D01*
X137513226Y-80319517D01*
X137760226Y-80399771D01*
X138016732Y-80440399D01*
X138016745Y-80440400D01*
X138276455Y-80440400D01*
X138276467Y-80440399D01*
X138532973Y-80399771D01*
X138779973Y-80319517D01*
X138779985Y-80319512D01*
X139018685Y-80197887D01*
X139112192Y-80171515D01*
X139208674Y-80182934D01*
X139293442Y-80230405D01*
X139307786Y-80243664D01*
X139334338Y-80270216D01*
X139334340Y-80270217D01*
X139334342Y-80270219D01*
X139487070Y-80366185D01*
X139487073Y-80366186D01*
X139487078Y-80366189D01*
X139657345Y-80425768D01*
X139657354Y-80425769D01*
X139791631Y-80440899D01*
X139791646Y-80440900D01*
X141581554Y-80440900D01*
X141581568Y-80440899D01*
X141691679Y-80428491D01*
X141715855Y-80425768D01*
X141715865Y-80425764D01*
X141729482Y-80422657D01*
X141730095Y-80425342D01*
X141804459Y-80414844D01*
X141898534Y-80439109D01*
X141976163Y-80497529D01*
X142025526Y-80581210D01*
X142039500Y-80663452D01*
X142039500Y-82065310D01*
X142020546Y-82160598D01*
X141991946Y-82211667D01*
X141892188Y-82348973D01*
X141892179Y-82348986D01*
X141792109Y-82545383D01*
X141792105Y-82545392D01*
X141792105Y-82545394D01*
X141723985Y-82755049D01*
X141723984Y-82755052D01*
X141723984Y-82755054D01*
X141723982Y-82755061D01*
X141689501Y-82972767D01*
X141689500Y-82972782D01*
X141689500Y-83193217D01*
X141689501Y-83193232D01*
X141723982Y-83410938D01*
X141723984Y-83410945D01*
X141723985Y-83410951D01*
X141792105Y-83620606D01*
X141792106Y-83620607D01*
X141792109Y-83620616D01*
X141892179Y-83817013D01*
X141892189Y-83817028D01*
X141969285Y-83923142D01*
X142009960Y-84011372D01*
X142013774Y-84108453D01*
X141980147Y-84199602D01*
X141914198Y-84270945D01*
X141825968Y-84311620D01*
X141767840Y-84318500D01*
X139691271Y-84318500D01*
X139595983Y-84299546D01*
X139515201Y-84245570D01*
X136724430Y-81454799D01*
X136670454Y-81374017D01*
X136651500Y-81278729D01*
X136651500Y-81067782D01*
X136651500Y-81067778D01*
X136617015Y-80850049D01*
X136548895Y-80640394D01*
X136548891Y-80640386D01*
X136548890Y-80640383D01*
X136448820Y-80443986D01*
X136448816Y-80443981D01*
X136448815Y-80443978D01*
X136319242Y-80265635D01*
X136163365Y-80109758D01*
X135985022Y-79980185D01*
X135985019Y-79980183D01*
X135985013Y-79980179D01*
X135788616Y-79880109D01*
X135788609Y-79880106D01*
X135788606Y-79880105D01*
X135578951Y-79811985D01*
X135578945Y-79811984D01*
X135578938Y-79811982D01*
X135361232Y-79777501D01*
X135361225Y-79777500D01*
X135361222Y-79777500D01*
X135140778Y-79777500D01*
X135140775Y-79777500D01*
X135140767Y-79777501D01*
X134923061Y-79811982D01*
X134923054Y-79811984D01*
X134923052Y-79811984D01*
X134923049Y-79811985D01*
X134713394Y-79880105D01*
X134713392Y-79880105D01*
X134713392Y-79880106D01*
X134713383Y-79880109D01*
X134516986Y-79980179D01*
X134516979Y-79980184D01*
X134338633Y-80109759D01*
X134182759Y-80265633D01*
X134053184Y-80443979D01*
X134053179Y-80443986D01*
X133953109Y-80640383D01*
X133953105Y-80640392D01*
X133953105Y-80640394D01*
X133884985Y-80850049D01*
X133884984Y-80850052D01*
X133884984Y-80850054D01*
X133884982Y-80850061D01*
X133850501Y-81067767D01*
X133850500Y-81067782D01*
X133850500Y-81288217D01*
X133850501Y-81288232D01*
X133884982Y-81505938D01*
X133884984Y-81505945D01*
X133884985Y-81505951D01*
X133953105Y-81715606D01*
X133953106Y-81715607D01*
X133953109Y-81715616D01*
X134053179Y-81912013D01*
X134053183Y-81912019D01*
X134053185Y-81912022D01*
X134182758Y-82090365D01*
X134338635Y-82246242D01*
X134516978Y-82375815D01*
X134516981Y-82375816D01*
X134516986Y-82375820D01*
X134713383Y-82475890D01*
X134713387Y-82475891D01*
X134713394Y-82475895D01*
X134746705Y-82486718D01*
X134831471Y-82534188D01*
X134845830Y-82547461D01*
X138337020Y-86038651D01*
X138337023Y-86038655D01*
X138477801Y-86179433D01*
X138531775Y-86260212D01*
X138550729Y-86355500D01*
X138531775Y-86450788D01*
X138477799Y-86531570D01*
X138397017Y-86585546D01*
X138301729Y-86604500D01*
X137151272Y-86604500D01*
X137055984Y-86585546D01*
X136975202Y-86531570D01*
X134906478Y-84462847D01*
X134906477Y-84462845D01*
X134760155Y-84316523D01*
X134760151Y-84316520D01*
X134760149Y-84316518D01*
X134588103Y-84201562D01*
X134588093Y-84201556D01*
X134396921Y-84122370D01*
X134326954Y-84108453D01*
X134193965Y-84082000D01*
X134193963Y-84082000D01*
X126340544Y-84082000D01*
X126245256Y-84063046D01*
X126164474Y-84009070D01*
X126110498Y-83928288D01*
X126094610Y-83871952D01*
X126076017Y-83754561D01*
X126076016Y-83754560D01*
X126076015Y-83754549D01*
X126007895Y-83544894D01*
X126007891Y-83544886D01*
X126007890Y-83544883D01*
X125907820Y-83348486D01*
X125907816Y-83348481D01*
X125907815Y-83348478D01*
X125778242Y-83170135D01*
X125622365Y-83014258D01*
X125444022Y-82884685D01*
X125444019Y-82884683D01*
X125444013Y-82884679D01*
X125247616Y-82784609D01*
X125247609Y-82784606D01*
X125247606Y-82784605D01*
X125037951Y-82716485D01*
X125037945Y-82716484D01*
X125037938Y-82716482D01*
X124820232Y-82682001D01*
X124820225Y-82682000D01*
X124820222Y-82682000D01*
X124599778Y-82682000D01*
X124599775Y-82682000D01*
X124599767Y-82682001D01*
X124382061Y-82716482D01*
X124382054Y-82716484D01*
X124382052Y-82716484D01*
X124382049Y-82716485D01*
X124172394Y-82784605D01*
X124172392Y-82784605D01*
X124172392Y-82784606D01*
X124172383Y-82784609D01*
X123975986Y-82884679D01*
X123975979Y-82884684D01*
X123939924Y-82910879D01*
X123838666Y-82984447D01*
X123750438Y-83025120D01*
X123692311Y-83032000D01*
X115409265Y-83032000D01*
X115396968Y-83031999D01*
X115396966Y-83031999D01*
X115382969Y-83031999D01*
X115340322Y-83023514D01*
X115287690Y-83013045D01*
X115287683Y-83013041D01*
X115287681Y-83013041D01*
X115287671Y-83013034D01*
X115236620Y-82984445D01*
X115220562Y-82972778D01*
X115122022Y-82901185D01*
X115122019Y-82901183D01*
X115122018Y-82901182D01*
X114924727Y-82800657D01*
X114848430Y-82740509D01*
X114800959Y-82655741D01*
X114789540Y-82559260D01*
X114815912Y-82465752D01*
X114861701Y-82402729D01*
X115344002Y-81920430D01*
X115424783Y-81866454D01*
X115520071Y-81847500D01*
X118011311Y-81847500D01*
X118106599Y-81866454D01*
X118157664Y-81895051D01*
X118294978Y-81994815D01*
X118294981Y-81994816D01*
X118294986Y-81994820D01*
X118491383Y-82094890D01*
X118491386Y-82094891D01*
X118491394Y-82094895D01*
X118701049Y-82163015D01*
X118701060Y-82163016D01*
X118701061Y-82163017D01*
X118761640Y-82172611D01*
X118918778Y-82197500D01*
X118918782Y-82197500D01*
X119139218Y-82197500D01*
X119139222Y-82197500D01*
X119356951Y-82163015D01*
X119566606Y-82094895D01*
X119575497Y-82090365D01*
X119763013Y-81994820D01*
X119763015Y-81994818D01*
X119763022Y-81994815D01*
X119941365Y-81865242D01*
X120097242Y-81709365D01*
X120226815Y-81531022D01*
X120239590Y-81505951D01*
X120326890Y-81334616D01*
X120326890Y-81334615D01*
X120326895Y-81334606D01*
X120395015Y-81124951D01*
X120429500Y-80907222D01*
X120429500Y-80686778D01*
X120395015Y-80469049D01*
X120326895Y-80259394D01*
X120326891Y-80259386D01*
X120326890Y-80259383D01*
X120226820Y-80062986D01*
X120226816Y-80062981D01*
X120226815Y-80062978D01*
X120097242Y-79884635D01*
X119941365Y-79728758D01*
X119763022Y-79599185D01*
X119763019Y-79599183D01*
X119763013Y-79599179D01*
X119566616Y-79499109D01*
X119566609Y-79499106D01*
X119566606Y-79499105D01*
X119356951Y-79430985D01*
X119356945Y-79430984D01*
X119356938Y-79430982D01*
X119139232Y-79396501D01*
X119139225Y-79396500D01*
X119139222Y-79396500D01*
X118918778Y-79396500D01*
X118918775Y-79396500D01*
X118918767Y-79396501D01*
X118701061Y-79430982D01*
X118701054Y-79430984D01*
X118701052Y-79430984D01*
X118701049Y-79430985D01*
X118491394Y-79499105D01*
X118491392Y-79499105D01*
X118491392Y-79499106D01*
X118491383Y-79499109D01*
X118294986Y-79599179D01*
X118294979Y-79599184D01*
X118294978Y-79599185D01*
X118157666Y-79698947D01*
X118069438Y-79739620D01*
X118011311Y-79746500D01*
X115097573Y-79746500D01*
X115097553Y-79746499D01*
X115085265Y-79746499D01*
X114878335Y-79746499D01*
X114878329Y-79746499D01*
X114675383Y-79786868D01*
X114675382Y-79786869D01*
X114484203Y-79866057D01*
X114484200Y-79866058D01*
X114312148Y-79981020D01*
X108565698Y-85727470D01*
X108484916Y-85781446D01*
X108428581Y-85797334D01*
X108260959Y-85823882D01*
X108260954Y-85823884D01*
X108260952Y-85823884D01*
X108260949Y-85823885D01*
X108051294Y-85892005D01*
X108051292Y-85892005D01*
X108051292Y-85892006D01*
X108051283Y-85892009D01*
X107854886Y-85992079D01*
X107854879Y-85992084D01*
X107676533Y-86121659D01*
X107520659Y-86277533D01*
X107391084Y-86455879D01*
X107391079Y-86455886D01*
X107291009Y-86652283D01*
X107291005Y-86652292D01*
X107291005Y-86652294D01*
X107222885Y-86861949D01*
X107222884Y-86861952D01*
X107222884Y-86861954D01*
X107222882Y-86861961D01*
X107188401Y-87079667D01*
X107188400Y-87079682D01*
X107188400Y-87300117D01*
X107188401Y-87300132D01*
X107222882Y-87517838D01*
X107222884Y-87517845D01*
X107222885Y-87517851D01*
X107291005Y-87727506D01*
X107291006Y-87727507D01*
X107291009Y-87727516D01*
X107391079Y-87923913D01*
X107391083Y-87923919D01*
X107391085Y-87923922D01*
X107520658Y-88102265D01*
X107676535Y-88258142D01*
X107854878Y-88387715D01*
X107854881Y-88387716D01*
X107854886Y-88387720D01*
X108051283Y-88487790D01*
X108051286Y-88487791D01*
X108051294Y-88487795D01*
X108260949Y-88555915D01*
X108260960Y-88555916D01*
X108260961Y-88555917D01*
X108291678Y-88560782D01*
X108478678Y-88590400D01*
X108478682Y-88590400D01*
X108699118Y-88590400D01*
X108699122Y-88590400D01*
X108916851Y-88555915D01*
X109126506Y-88487795D01*
X109126516Y-88487790D01*
X109322913Y-88387720D01*
X109322915Y-88387718D01*
X109322922Y-88387715D01*
X109501265Y-88258142D01*
X109657142Y-88102265D01*
X109764339Y-87954720D01*
X109835681Y-87888771D01*
X109926830Y-87855144D01*
X110023911Y-87858958D01*
X110112141Y-87899632D01*
X110167227Y-87954717D01*
X110243258Y-88059365D01*
X110399135Y-88215242D01*
X110577478Y-88344815D01*
X110577481Y-88344816D01*
X110577486Y-88344820D01*
X110773883Y-88444890D01*
X110773886Y-88444891D01*
X110773894Y-88444895D01*
X110983549Y-88513015D01*
X111151184Y-88539565D01*
X111242329Y-88573191D01*
X111288297Y-88609428D01*
X112419845Y-89740977D01*
X112419848Y-89740979D01*
X112591900Y-89855941D01*
X112591901Y-89855941D01*
X112591902Y-89855942D01*
X112783080Y-89935130D01*
X112783082Y-89935130D01*
X112783083Y-89935131D01*
X112986029Y-89975500D01*
X112986034Y-89975501D01*
X112986035Y-89975501D01*
X113205253Y-89975501D01*
X113205273Y-89975500D01*
X120456796Y-89975500D01*
X120552084Y-89994454D01*
X120632866Y-90048430D01*
X120686842Y-90129212D01*
X120705796Y-90224500D01*
X120686842Y-90319788D01*
X120632866Y-90400570D01*
X120552084Y-90454546D01*
X120495749Y-90470434D01*
X120435459Y-90479982D01*
X120435454Y-90479984D01*
X120435452Y-90479984D01*
X120435449Y-90479985D01*
X120225794Y-90548105D01*
X120225792Y-90548105D01*
X120225792Y-90548106D01*
X120225783Y-90548109D01*
X120029386Y-90648179D01*
X120029379Y-90648184D01*
X120029378Y-90648185D01*
X119892066Y-90747947D01*
X119803838Y-90788620D01*
X119745711Y-90795500D01*
X112392689Y-90795500D01*
X112297401Y-90776546D01*
X112246335Y-90747948D01*
X112109022Y-90648185D01*
X112109019Y-90648183D01*
X112109013Y-90648179D01*
X111912616Y-90548109D01*
X111912609Y-90548106D01*
X111912606Y-90548105D01*
X111702951Y-90479985D01*
X111702945Y-90479984D01*
X111702938Y-90479982D01*
X111485232Y-90445501D01*
X111485225Y-90445500D01*
X111485222Y-90445500D01*
X111264778Y-90445500D01*
X111264775Y-90445500D01*
X111264767Y-90445501D01*
X111047061Y-90479982D01*
X111047054Y-90479984D01*
X111047052Y-90479984D01*
X111047049Y-90479985D01*
X110837394Y-90548105D01*
X110837392Y-90548105D01*
X110837392Y-90548106D01*
X110837383Y-90548109D01*
X110640986Y-90648179D01*
X110640979Y-90648184D01*
X110462633Y-90777759D01*
X110306759Y-90933633D01*
X110177184Y-91111979D01*
X110177179Y-91111986D01*
X110077109Y-91308383D01*
X110077105Y-91308392D01*
X110077105Y-91308394D01*
X110008985Y-91518049D01*
X110008984Y-91518052D01*
X110008984Y-91518054D01*
X110008982Y-91518061D01*
X109974501Y-91735767D01*
X109974500Y-91735782D01*
X109974500Y-91956217D01*
X109974501Y-91956232D01*
X110008982Y-92173938D01*
X110008984Y-92173945D01*
X110008985Y-92173951D01*
X110077105Y-92383606D01*
X110077106Y-92383607D01*
X110077109Y-92383616D01*
X110177179Y-92580013D01*
X110177183Y-92580019D01*
X110177185Y-92580022D01*
X110306758Y-92758365D01*
X110462635Y-92914242D01*
X110640978Y-93043815D01*
X110640981Y-93043816D01*
X110640986Y-93043820D01*
X110837383Y-93143890D01*
X110837386Y-93143891D01*
X110837394Y-93143895D01*
X111047049Y-93212015D01*
X111047060Y-93212016D01*
X111047061Y-93212017D01*
X111107640Y-93221611D01*
X111264778Y-93246500D01*
X111264782Y-93246500D01*
X111485218Y-93246500D01*
X111485222Y-93246500D01*
X111702951Y-93212015D01*
X111912606Y-93143895D01*
X111912616Y-93143890D01*
X112109013Y-93043820D01*
X112109015Y-93043818D01*
X112109022Y-93043815D01*
X112246333Y-92944052D01*
X112334562Y-92903380D01*
X112392689Y-92896500D01*
X119745711Y-92896500D01*
X119840999Y-92915454D01*
X119892064Y-92944051D01*
X120029378Y-93043815D01*
X120029381Y-93043816D01*
X120029386Y-93043820D01*
X120225783Y-93143890D01*
X120225786Y-93143891D01*
X120225794Y-93143895D01*
X120435449Y-93212015D01*
X120435460Y-93212016D01*
X120435461Y-93212017D01*
X120496040Y-93221611D01*
X120653178Y-93246500D01*
X120653182Y-93246500D01*
X120873618Y-93246500D01*
X120873622Y-93246500D01*
X121091351Y-93212015D01*
X121301006Y-93143895D01*
X121301016Y-93143890D01*
X121497413Y-93043820D01*
X121497415Y-93043818D01*
X121497422Y-93043815D01*
X121675765Y-92914242D01*
X121831642Y-92758365D01*
X121961215Y-92580022D01*
X121986499Y-92530401D01*
X122061290Y-92383616D01*
X122061290Y-92383615D01*
X122061295Y-92383606D01*
X122129415Y-92173951D01*
X122133904Y-92145606D01*
X122155966Y-92006318D01*
X122189593Y-91915168D01*
X122225831Y-91869200D01*
X122903602Y-91191430D01*
X122984383Y-91137454D01*
X123079671Y-91118500D01*
X126851754Y-91118500D01*
X126947042Y-91137454D01*
X127027820Y-91191427D01*
X127027824Y-91191431D01*
X127121489Y-91285097D01*
X127121492Y-91285099D01*
X127121496Y-91285103D01*
X127299839Y-91414676D01*
X127299842Y-91414677D01*
X127299847Y-91414681D01*
X127496244Y-91514751D01*
X127496247Y-91514752D01*
X127496255Y-91514756D01*
X127705910Y-91582876D01*
X127705921Y-91582877D01*
X127705922Y-91582878D01*
X127933302Y-91618892D01*
X127932935Y-91621206D01*
X128011118Y-91643245D01*
X128087424Y-91703382D01*
X128134907Y-91788143D01*
X128146340Y-91884623D01*
X128119981Y-91978134D01*
X128074175Y-92041190D01*
X126429798Y-93685569D01*
X126349016Y-93739546D01*
X126292681Y-93755434D01*
X126125059Y-93781982D01*
X126125054Y-93781984D01*
X126125052Y-93781984D01*
X126125049Y-93781985D01*
X125915394Y-93850105D01*
X125915392Y-93850105D01*
X125915392Y-93850106D01*
X125915383Y-93850109D01*
X125718986Y-93950179D01*
X125718979Y-93950184D01*
X125540633Y-94079759D01*
X125384759Y-94235633D01*
X125255184Y-94413979D01*
X125255179Y-94413986D01*
X125155109Y-94610383D01*
X125155105Y-94610392D01*
X125155105Y-94610394D01*
X125086985Y-94820049D01*
X125086984Y-94820052D01*
X125086984Y-94820054D01*
X125086982Y-94820061D01*
X125052501Y-95037767D01*
X125052500Y-95037782D01*
X125052500Y-95258217D01*
X125052501Y-95258232D01*
X125086982Y-95475938D01*
X125086984Y-95475945D01*
X125086985Y-95475951D01*
X125155105Y-95685606D01*
X125155106Y-95685607D01*
X125155109Y-95685616D01*
X125255179Y-95882013D01*
X125255183Y-95882019D01*
X125255185Y-95882022D01*
X125384758Y-96060365D01*
X125540635Y-96216242D01*
X125718978Y-96345815D01*
X125842514Y-96408760D01*
X125918809Y-96468906D01*
X125966281Y-96553673D01*
X125977700Y-96650155D01*
X125951329Y-96743662D01*
X125905538Y-96806688D01*
X124005347Y-98706881D01*
X124005347Y-98706882D01*
X124005345Y-98706884D01*
X124005344Y-98706883D01*
X123859024Y-98853204D01*
X123859018Y-98853211D01*
X123744062Y-99025257D01*
X123744056Y-99025267D01*
X123664870Y-99216439D01*
X123624500Y-99419397D01*
X123624500Y-103322700D01*
X123605546Y-103417988D01*
X123551570Y-103498770D01*
X123470788Y-103552746D01*
X123375500Y-103571700D01*
X116583689Y-103571700D01*
X116488401Y-103552746D01*
X116437335Y-103524148D01*
X116300022Y-103424385D01*
X116300019Y-103424383D01*
X116300013Y-103424379D01*
X116103616Y-103324309D01*
X116103609Y-103324306D01*
X116103606Y-103324305D01*
X115893951Y-103256185D01*
X115893945Y-103256184D01*
X115893938Y-103256182D01*
X115676232Y-103221701D01*
X115676225Y-103221700D01*
X115676222Y-103221700D01*
X115455778Y-103221700D01*
X115455775Y-103221700D01*
X115455767Y-103221701D01*
X115238061Y-103256182D01*
X115238054Y-103256184D01*
X115238052Y-103256184D01*
X115238049Y-103256185D01*
X115028394Y-103324305D01*
X115028392Y-103324305D01*
X115028392Y-103324306D01*
X115028383Y-103324309D01*
X114831986Y-103424379D01*
X114831979Y-103424384D01*
X114653633Y-103553959D01*
X114497759Y-103709833D01*
X114368184Y-103888179D01*
X114368179Y-103888186D01*
X114268109Y-104084583D01*
X114268105Y-104084592D01*
X114268105Y-104084594D01*
X114199985Y-104294249D01*
X114199984Y-104294252D01*
X114199984Y-104294254D01*
X114199982Y-104294261D01*
X114165501Y-104511967D01*
X114165500Y-104511982D01*
X114165500Y-104732417D01*
X114165501Y-104732432D01*
X114199982Y-104950138D01*
X114199984Y-104950145D01*
X114199985Y-104950151D01*
X114268105Y-105159806D01*
X114268106Y-105159807D01*
X114268109Y-105159816D01*
X114368179Y-105356213D01*
X114368183Y-105356219D01*
X114368185Y-105356222D01*
X114497758Y-105534565D01*
X114653635Y-105690442D01*
X114831978Y-105820015D01*
X114831981Y-105820016D01*
X114831986Y-105820020D01*
X115028383Y-105920090D01*
X115028386Y-105920091D01*
X115028394Y-105920095D01*
X115238049Y-105988215D01*
X115238060Y-105988216D01*
X115238061Y-105988217D01*
X115295397Y-105997298D01*
X115455778Y-106022700D01*
X115455782Y-106022700D01*
X115676218Y-106022700D01*
X115676222Y-106022700D01*
X115893951Y-105988215D01*
X116103606Y-105920095D01*
X116230360Y-105855510D01*
X116300013Y-105820020D01*
X116300015Y-105820018D01*
X116300022Y-105820015D01*
X116437333Y-105720252D01*
X116525562Y-105679580D01*
X116583689Y-105672700D01*
X123727270Y-105672700D01*
X123822558Y-105691654D01*
X123873627Y-105720254D01*
X123941859Y-105769826D01*
X123975978Y-105794615D01*
X123975980Y-105794616D01*
X123975986Y-105794620D01*
X124172383Y-105894690D01*
X124172386Y-105894691D01*
X124172394Y-105894695D01*
X124382049Y-105962815D01*
X124382060Y-105962816D01*
X124382061Y-105962817D01*
X124442640Y-105972411D01*
X124599778Y-105997300D01*
X124599782Y-105997300D01*
X124820218Y-105997300D01*
X124820222Y-105997300D01*
X125037951Y-105962815D01*
X125247606Y-105894695D01*
X125269707Y-105883434D01*
X125444013Y-105794620D01*
X125444015Y-105794618D01*
X125444022Y-105794615D01*
X125622365Y-105665042D01*
X125778242Y-105509165D01*
X125907815Y-105330822D01*
X125929857Y-105287564D01*
X126007890Y-105134416D01*
X126007890Y-105134415D01*
X126007895Y-105134406D01*
X126076015Y-104924751D01*
X126110500Y-104707022D01*
X126110500Y-104486578D01*
X126084589Y-104322982D01*
X126076017Y-104268861D01*
X126076016Y-104268860D01*
X126076015Y-104268849D01*
X126007895Y-104059194D01*
X126007891Y-104059186D01*
X126007890Y-104059183D01*
X125907820Y-103862786D01*
X125907816Y-103862780D01*
X125907815Y-103862778D01*
X125869825Y-103810488D01*
X125773054Y-103677293D01*
X125732380Y-103589063D01*
X125725500Y-103530936D01*
X125725500Y-100061132D01*
X125744454Y-99965844D01*
X125798430Y-99885062D01*
X126869275Y-98814217D01*
X128057065Y-97626427D01*
X128137845Y-97572453D01*
X128194173Y-97556566D01*
X128361812Y-97530015D01*
X128571467Y-97461895D01*
X128723472Y-97384444D01*
X128767874Y-97361820D01*
X128767876Y-97361818D01*
X128767883Y-97361815D01*
X128905194Y-97262052D01*
X128993423Y-97221380D01*
X129051550Y-97214500D01*
X135722311Y-97214500D01*
X135817599Y-97233454D01*
X135868664Y-97262051D01*
X136005978Y-97361815D01*
X136005981Y-97361816D01*
X136005986Y-97361820D01*
X136202383Y-97461890D01*
X136202386Y-97461891D01*
X136202394Y-97461895D01*
X136412049Y-97530015D01*
X136412060Y-97530016D01*
X136412061Y-97530017D01*
X136472640Y-97539611D01*
X136629778Y-97564500D01*
X136629782Y-97564500D01*
X136850218Y-97564500D01*
X136850222Y-97564500D01*
X137067951Y-97530015D01*
X137277606Y-97461895D01*
X137429611Y-97384444D01*
X137474013Y-97361820D01*
X137474015Y-97361818D01*
X137474022Y-97361815D01*
X137652365Y-97232242D01*
X137808242Y-97076365D01*
X137937815Y-96898022D01*
X137984353Y-96806688D01*
X138037890Y-96701616D01*
X138037890Y-96701615D01*
X138037895Y-96701606D01*
X138106015Y-96491951D01*
X138140500Y-96274222D01*
X138140500Y-96053778D01*
X138106015Y-95836049D01*
X138037895Y-95626394D01*
X138037891Y-95626386D01*
X138037890Y-95626383D01*
X137937820Y-95429986D01*
X137937816Y-95429981D01*
X137937815Y-95429978D01*
X137808242Y-95251635D01*
X137652365Y-95095758D01*
X137474022Y-94966185D01*
X137474019Y-94966183D01*
X137474013Y-94966179D01*
X137277616Y-94866109D01*
X137277609Y-94866106D01*
X137277606Y-94866105D01*
X137067951Y-94797985D01*
X137067945Y-94797984D01*
X137067938Y-94797982D01*
X136850232Y-94763501D01*
X136850225Y-94763500D01*
X136850222Y-94763500D01*
X136629778Y-94763500D01*
X136629775Y-94763500D01*
X136629767Y-94763501D01*
X136412061Y-94797982D01*
X136412054Y-94797984D01*
X136412052Y-94797984D01*
X136412049Y-94797985D01*
X136207334Y-94864500D01*
X136202382Y-94866109D01*
X136198054Y-94867902D01*
X136194990Y-94868511D01*
X136193089Y-94869129D01*
X136193015Y-94868903D01*
X136102765Y-94886850D01*
X136007478Y-94867890D01*
X135926700Y-94813909D01*
X135872728Y-94733124D01*
X135856697Y-94666335D01*
X135856031Y-94666441D01*
X135854688Y-94657966D01*
X135854547Y-94657376D01*
X135854499Y-94656770D01*
X135820017Y-94439061D01*
X135820016Y-94439060D01*
X135820015Y-94439049D01*
X135751895Y-94229394D01*
X135751891Y-94229386D01*
X135751890Y-94229383D01*
X135651820Y-94032986D01*
X135651816Y-94032980D01*
X135651815Y-94032978D01*
X135591662Y-93950184D01*
X135552054Y-93895667D01*
X135511380Y-93807437D01*
X135504500Y-93749310D01*
X135504500Y-92625689D01*
X135523454Y-92530401D01*
X135552051Y-92479335D01*
X135651815Y-92342022D01*
X135724683Y-92199013D01*
X135751890Y-92145616D01*
X135751890Y-92145615D01*
X135751895Y-92145606D01*
X135820015Y-91935951D01*
X135854500Y-91718222D01*
X135854500Y-91621500D01*
X135873454Y-91526212D01*
X135927430Y-91445430D01*
X136008212Y-91391454D01*
X136103500Y-91372500D01*
X143730726Y-91372500D01*
X143826014Y-91391454D01*
X143906796Y-91445430D01*
X143960772Y-91526212D01*
X143976660Y-91582548D01*
X144009982Y-91792938D01*
X144009984Y-91792945D01*
X144009985Y-91792951D01*
X144078105Y-92002606D01*
X144078106Y-92002607D01*
X144078109Y-92002616D01*
X144178179Y-92199013D01*
X144178183Y-92199019D01*
X144178185Y-92199022D01*
X144277947Y-92336333D01*
X144318620Y-92424562D01*
X144325500Y-92482689D01*
X144325500Y-95431967D01*
X144306546Y-95527255D01*
X144252570Y-95608037D01*
X144171788Y-95662013D01*
X144076500Y-95680967D01*
X143981212Y-95662013D01*
X143900430Y-95608037D01*
X143875055Y-95578326D01*
X143822241Y-95505634D01*
X143666366Y-95349759D01*
X143666365Y-95349758D01*
X143488022Y-95220185D01*
X143488019Y-95220183D01*
X143488013Y-95220179D01*
X143291616Y-95120109D01*
X143291609Y-95120106D01*
X143291606Y-95120105D01*
X143081951Y-95051985D01*
X143081945Y-95051984D01*
X143081938Y-95051982D01*
X142864232Y-95017501D01*
X142864225Y-95017500D01*
X142864222Y-95017500D01*
X142643778Y-95017500D01*
X142643775Y-95017500D01*
X142643767Y-95017501D01*
X142426061Y-95051982D01*
X142426054Y-95051984D01*
X142426052Y-95051984D01*
X142426049Y-95051985D01*
X142216394Y-95120105D01*
X142216392Y-95120105D01*
X142216392Y-95120106D01*
X142216383Y-95120109D01*
X142019986Y-95220179D01*
X142019979Y-95220184D01*
X141841633Y-95349759D01*
X141685759Y-95505633D01*
X141556184Y-95683979D01*
X141556179Y-95683986D01*
X141456109Y-95880383D01*
X141456105Y-95880392D01*
X141456105Y-95880394D01*
X141387985Y-96090049D01*
X141387984Y-96090052D01*
X141387984Y-96090054D01*
X141387982Y-96090061D01*
X141353501Y-96307767D01*
X141353500Y-96307782D01*
X141353500Y-96528217D01*
X141353501Y-96528232D01*
X141387982Y-96745938D01*
X141387984Y-96745945D01*
X141387985Y-96745951D01*
X141456105Y-96955606D01*
X141456106Y-96955607D01*
X141456109Y-96955616D01*
X141556179Y-97152013D01*
X141556183Y-97152019D01*
X141556185Y-97152022D01*
X141660947Y-97296215D01*
X141701620Y-97384444D01*
X141708500Y-97442571D01*
X141708500Y-99202439D01*
X141689546Y-99297727D01*
X141635570Y-99378509D01*
X136798510Y-104215570D01*
X136717728Y-104269546D01*
X136639325Y-104285141D01*
X136639529Y-104287733D01*
X136629780Y-104288500D01*
X136629778Y-104288500D01*
X136629776Y-104288500D01*
X136629767Y-104288501D01*
X136412061Y-104322982D01*
X136412054Y-104322984D01*
X136412052Y-104322984D01*
X136412049Y-104322985D01*
X136202394Y-104391105D01*
X136202392Y-104391105D01*
X136202392Y-104391106D01*
X136202383Y-104391109D01*
X136005986Y-104491179D01*
X136005979Y-104491184D01*
X135827633Y-104620759D01*
X135671759Y-104776633D01*
X135542184Y-104954979D01*
X135542179Y-104954986D01*
X135442109Y-105151383D01*
X135442105Y-105151392D01*
X135442105Y-105151394D01*
X135373985Y-105361049D01*
X135373984Y-105361052D01*
X135373984Y-105361054D01*
X135373982Y-105361061D01*
X135339501Y-105578767D01*
X135339500Y-105578782D01*
X135339500Y-105799217D01*
X135339501Y-105799232D01*
X135373982Y-106016938D01*
X135373984Y-106016945D01*
X135373985Y-106016951D01*
X135442105Y-106226606D01*
X135442106Y-106226607D01*
X135442109Y-106226616D01*
X135542179Y-106423013D01*
X135542183Y-106423019D01*
X135542185Y-106423022D01*
X135671758Y-106601365D01*
X135827635Y-106757242D01*
X136005978Y-106886815D01*
X136005981Y-106886816D01*
X136005986Y-106886820D01*
X136202383Y-106986890D01*
X136202386Y-106986891D01*
X136202394Y-106986895D01*
X136412049Y-107055015D01*
X136412060Y-107055016D01*
X136412061Y-107055017D01*
X136472640Y-107064611D01*
X136629778Y-107089500D01*
X136629782Y-107089500D01*
X136850218Y-107089500D01*
X136850222Y-107089500D01*
X136888141Y-107083494D01*
X136985217Y-107087307D01*
X137073448Y-107127981D01*
X137139398Y-107199323D01*
X137173027Y-107290472D01*
X137169214Y-107387552D01*
X137134134Y-107467757D01*
X137123372Y-107483863D01*
X137123365Y-107483877D01*
X137047949Y-107665950D01*
X137047947Y-107665955D01*
X137009500Y-107859240D01*
X137009500Y-112253201D01*
X136990546Y-112348489D01*
X136936570Y-112429271D01*
X136934774Y-112431066D01*
X136934771Y-112431069D01*
X136916066Y-112449773D01*
X136835288Y-112503747D01*
X136740000Y-112522701D01*
X136644712Y-112503747D01*
X136563933Y-112449773D01*
X136545229Y-112431069D01*
X136451230Y-112362775D01*
X136335050Y-112278365D01*
X136103577Y-112160423D01*
X136103567Y-112160419D01*
X135856493Y-112080140D01*
X135856487Y-112080138D01*
X135599908Y-112039501D01*
X135599899Y-112039500D01*
X135599897Y-112039500D01*
X135340103Y-112039500D01*
X135340100Y-112039500D01*
X135340091Y-112039501D01*
X135083512Y-112080138D01*
X135083506Y-112080140D01*
X134836432Y-112160419D01*
X134836422Y-112160423D01*
X134604949Y-112278365D01*
X134394774Y-112431066D01*
X134394771Y-112431068D01*
X134394771Y-112431069D01*
X134376066Y-112449773D01*
X134295288Y-112503747D01*
X134200000Y-112522701D01*
X134104712Y-112503747D01*
X134023933Y-112449773D01*
X134005229Y-112431069D01*
X133911230Y-112362775D01*
X133795050Y-112278365D01*
X133563577Y-112160423D01*
X133563567Y-112160419D01*
X133316493Y-112080140D01*
X133316487Y-112080138D01*
X133059908Y-112039501D01*
X133059899Y-112039500D01*
X133059897Y-112039500D01*
X132800103Y-112039500D01*
X132800100Y-112039500D01*
X132800091Y-112039501D01*
X132543512Y-112080138D01*
X132543506Y-112080140D01*
X132296432Y-112160419D01*
X132296422Y-112160423D01*
X132064949Y-112278365D01*
X131854774Y-112431066D01*
X131854771Y-112431068D01*
X131854771Y-112431069D01*
X131836066Y-112449773D01*
X131755288Y-112503747D01*
X131660000Y-112522701D01*
X131564712Y-112503747D01*
X131483933Y-112449773D01*
X131465229Y-112431069D01*
X131371230Y-112362775D01*
X131255050Y-112278365D01*
X131023577Y-112160423D01*
X131023567Y-112160419D01*
X130776493Y-112080140D01*
X130776487Y-112080138D01*
X130519908Y-112039501D01*
X130519899Y-112039500D01*
X130519897Y-112039500D01*
X130260103Y-112039500D01*
X130260100Y-112039500D01*
X130260091Y-112039501D01*
X130003512Y-112080138D01*
X130003506Y-112080140D01*
X129756432Y-112160419D01*
X129756422Y-112160423D01*
X129524949Y-112278365D01*
X129314774Y-112431066D01*
X129314771Y-112431068D01*
X129314771Y-112431069D01*
X129296066Y-112449773D01*
X129215288Y-112503747D01*
X129120000Y-112522701D01*
X129024712Y-112503747D01*
X128943933Y-112449773D01*
X128925229Y-112431069D01*
X128831230Y-112362775D01*
X128715050Y-112278365D01*
X128483577Y-112160423D01*
X128483567Y-112160419D01*
X128236493Y-112080140D01*
X128236487Y-112080138D01*
X127979908Y-112039501D01*
X127979899Y-112039500D01*
X127979897Y-112039500D01*
X127720103Y-112039500D01*
X127720100Y-112039500D01*
X127720091Y-112039501D01*
X127463512Y-112080138D01*
X127463506Y-112080140D01*
X127216432Y-112160419D01*
X127216422Y-112160423D01*
X126984949Y-112278365D01*
X126774774Y-112431066D01*
X126774771Y-112431068D01*
X126774771Y-112431069D01*
X126756066Y-112449773D01*
X126675288Y-112503747D01*
X126580000Y-112522701D01*
X126484712Y-112503747D01*
X126403933Y-112449773D01*
X126385229Y-112431069D01*
X126291230Y-112362775D01*
X126175050Y-112278365D01*
X125943577Y-112160423D01*
X125943567Y-112160419D01*
X125696493Y-112080140D01*
X125696487Y-112080138D01*
X125439908Y-112039501D01*
X125439899Y-112039500D01*
X125439897Y-112039500D01*
X125180103Y-112039500D01*
X125180100Y-112039500D01*
X125180091Y-112039501D01*
X124923512Y-112080138D01*
X124923506Y-112080140D01*
X124676432Y-112160419D01*
X124676422Y-112160423D01*
X124444949Y-112278365D01*
X124234774Y-112431066D01*
X124234771Y-112431068D01*
X124234771Y-112431069D01*
X124216066Y-112449773D01*
X124135288Y-112503747D01*
X124040000Y-112522701D01*
X123944712Y-112503747D01*
X123863933Y-112449773D01*
X123845229Y-112431069D01*
X123751230Y-112362775D01*
X123635050Y-112278365D01*
X123403577Y-112160423D01*
X123403567Y-112160419D01*
X123156493Y-112080140D01*
X123156487Y-112080138D01*
X122899908Y-112039501D01*
X122899899Y-112039500D01*
X122899897Y-112039500D01*
X122640103Y-112039500D01*
X122640100Y-112039500D01*
X122640091Y-112039501D01*
X122383512Y-112080138D01*
X122383506Y-112080140D01*
X122136432Y-112160419D01*
X122136422Y-112160423D01*
X121904949Y-112278365D01*
X121694774Y-112431066D01*
X121694771Y-112431068D01*
X121694771Y-112431069D01*
X121676066Y-112449773D01*
X121595288Y-112503747D01*
X121500000Y-112522701D01*
X121404712Y-112503747D01*
X121323933Y-112449773D01*
X121305229Y-112431069D01*
X121211230Y-112362775D01*
X121095050Y-112278365D01*
X120863577Y-112160423D01*
X120863567Y-112160419D01*
X120616493Y-112080140D01*
X120616487Y-112080138D01*
X120359908Y-112039501D01*
X120359899Y-112039500D01*
X120359897Y-112039500D01*
X120100103Y-112039500D01*
X120100100Y-112039500D01*
X120100091Y-112039501D01*
X119843512Y-112080138D01*
X119843506Y-112080140D01*
X119596432Y-112160419D01*
X119596422Y-112160423D01*
X119364949Y-112278365D01*
X119154774Y-112431066D01*
X119154771Y-112431068D01*
X119154771Y-112431069D01*
X119136066Y-112449773D01*
X119055288Y-112503747D01*
X118960000Y-112522701D01*
X118864712Y-112503747D01*
X118783933Y-112449773D01*
X118765229Y-112431069D01*
X118671230Y-112362775D01*
X118555050Y-112278365D01*
X118323577Y-112160423D01*
X118323567Y-112160419D01*
X118076493Y-112080140D01*
X118076487Y-112080138D01*
X117819908Y-112039501D01*
X117819899Y-112039500D01*
X117819897Y-112039500D01*
X117560103Y-112039500D01*
X117560100Y-112039500D01*
X117560091Y-112039501D01*
X117303512Y-112080138D01*
X117303506Y-112080140D01*
X117056432Y-112160419D01*
X117056422Y-112160423D01*
X116824949Y-112278365D01*
X116614774Y-112431066D01*
X116614771Y-112431068D01*
X116614771Y-112431069D01*
X116596066Y-112449773D01*
X116515288Y-112503747D01*
X116420000Y-112522701D01*
X116324712Y-112503747D01*
X116243933Y-112449773D01*
X116225229Y-112431069D01*
X116131230Y-112362775D01*
X116015050Y-112278365D01*
X115783577Y-112160423D01*
X115783567Y-112160419D01*
X115536493Y-112080140D01*
X115536487Y-112080138D01*
X115279908Y-112039501D01*
X115279899Y-112039500D01*
X115279897Y-112039500D01*
X115020103Y-112039500D01*
X115020100Y-112039500D01*
X115020091Y-112039501D01*
X114763512Y-112080138D01*
X114763506Y-112080140D01*
X114516432Y-112160419D01*
X114516422Y-112160423D01*
X114284949Y-112278365D01*
X114074772Y-112431068D01*
X114074768Y-112431071D01*
X114009229Y-112496610D01*
X113928448Y-112550586D01*
X113833159Y-112569539D01*
X113737871Y-112550584D01*
X113657090Y-112496607D01*
X113603114Y-112415826D01*
X113590378Y-112362775D01*
X113474786Y-112278793D01*
X113474779Y-112278789D01*
X113243390Y-112160890D01*
X113243373Y-112160882D01*
X112996373Y-112080628D01*
X112739867Y-112040000D01*
X112480132Y-112040000D01*
X112223626Y-112080628D01*
X111976626Y-112160882D01*
X111976609Y-112160890D01*
X111745220Y-112278789D01*
X111745207Y-112278797D01*
X111633506Y-112359951D01*
X112480592Y-113207037D01*
X112417007Y-113224075D01*
X112302993Y-113289901D01*
X112209901Y-113382993D01*
X112144075Y-113497007D01*
X112127037Y-113560592D01*
X111279951Y-112713506D01*
X111198797Y-112825207D01*
X111198789Y-112825220D01*
X111080890Y-113056609D01*
X111080882Y-113056626D01*
X111000628Y-113303626D01*
X110960000Y-113560132D01*
X110960000Y-113819867D01*
X111000628Y-114076373D01*
X111080882Y-114323373D01*
X111080890Y-114323390D01*
X111198789Y-114554779D01*
X111198793Y-114554786D01*
X111279951Y-114666492D01*
X112127036Y-113819406D01*
X112144075Y-113882993D01*
X112209901Y-113997007D01*
X112302993Y-114090099D01*
X112417007Y-114155925D01*
X112480590Y-114172962D01*
X111693554Y-114959999D01*
X112480592Y-115747037D01*
X112417007Y-115764075D01*
X112302993Y-115829901D01*
X112209901Y-115922993D01*
X112144075Y-116037007D01*
X112127037Y-116100592D01*
X111279951Y-115253506D01*
X111198797Y-115365207D01*
X111198789Y-115365220D01*
X111080890Y-115596609D01*
X111080882Y-115596626D01*
X111000628Y-115843626D01*
X110960000Y-116100132D01*
X110960000Y-116359867D01*
X111000628Y-116616373D01*
X111080882Y-116863373D01*
X111080890Y-116863390D01*
X111198789Y-117094779D01*
X111198793Y-117094786D01*
X111279951Y-117206492D01*
X112127036Y-116359406D01*
X112144075Y-116422993D01*
X112209901Y-116537007D01*
X112302993Y-116630099D01*
X112417007Y-116695925D01*
X112480591Y-116712962D01*
X111633506Y-117560047D01*
X111745212Y-117641206D01*
X111976609Y-117759109D01*
X111976626Y-117759117D01*
X112223626Y-117839371D01*
X112480132Y-117879999D01*
X112480145Y-117880000D01*
X112739855Y-117880000D01*
X112739867Y-117879999D01*
X112996373Y-117839371D01*
X113243373Y-117759117D01*
X113243390Y-117759109D01*
X113474779Y-117641211D01*
X113474785Y-117641207D01*
X113591576Y-117556352D01*
X113611300Y-117486416D01*
X113671449Y-117410119D01*
X113756216Y-117362647D01*
X113852697Y-117351228D01*
X113946205Y-117377599D01*
X114009227Y-117423387D01*
X114074771Y-117488931D01*
X114074774Y-117488933D01*
X114284949Y-117641634D01*
X114515505Y-117759109D01*
X114516428Y-117759579D01*
X114763507Y-117839860D01*
X114763510Y-117839860D01*
X114763512Y-117839861D01*
X114937135Y-117867359D01*
X115020103Y-117880500D01*
X115020107Y-117880500D01*
X115279893Y-117880500D01*
X115279897Y-117880500D01*
X115536493Y-117839860D01*
X115783572Y-117759579D01*
X116015051Y-117641634D01*
X116225229Y-117488931D01*
X116243933Y-117470226D01*
X116324712Y-117416253D01*
X116420000Y-117397299D01*
X116515288Y-117416253D01*
X116596066Y-117470226D01*
X116614771Y-117488931D01*
X116614774Y-117488933D01*
X116824949Y-117641634D01*
X117055505Y-117759109D01*
X117056428Y-117759579D01*
X117303507Y-117839860D01*
X117303510Y-117839860D01*
X117303512Y-117839861D01*
X117477135Y-117867359D01*
X117560103Y-117880500D01*
X117560107Y-117880500D01*
X117819893Y-117880500D01*
X117819897Y-117880500D01*
X118076493Y-117839860D01*
X118323572Y-117759579D01*
X118555051Y-117641634D01*
X118765229Y-117488931D01*
X118783933Y-117470226D01*
X118864712Y-117416253D01*
X118960000Y-117397299D01*
X119055288Y-117416253D01*
X119136066Y-117470226D01*
X119154771Y-117488931D01*
X119154774Y-117488933D01*
X119364949Y-117641634D01*
X119595505Y-117759109D01*
X119596428Y-117759579D01*
X119843507Y-117839860D01*
X119843510Y-117839860D01*
X119843512Y-117839861D01*
X120017135Y-117867359D01*
X120100103Y-117880500D01*
X120100107Y-117880500D01*
X120359893Y-117880500D01*
X120359897Y-117880500D01*
X120616493Y-117839860D01*
X120863572Y-117759579D01*
X121095051Y-117641634D01*
X121305229Y-117488931D01*
X121323933Y-117470226D01*
X121404712Y-117416253D01*
X121500000Y-117397299D01*
X121595288Y-117416253D01*
X121676066Y-117470226D01*
X121694771Y-117488931D01*
X121694774Y-117488933D01*
X121904949Y-117641634D01*
X122135505Y-117759109D01*
X122136428Y-117759579D01*
X122383507Y-117839860D01*
X122383510Y-117839860D01*
X122383512Y-117839861D01*
X122557135Y-117867359D01*
X122640103Y-117880500D01*
X122640107Y-117880500D01*
X122899893Y-117880500D01*
X122899897Y-117880500D01*
X123156493Y-117839860D01*
X123403572Y-117759579D01*
X123635051Y-117641634D01*
X123845229Y-117488931D01*
X123863933Y-117470226D01*
X123944712Y-117416253D01*
X124040000Y-117397299D01*
X124135288Y-117416253D01*
X124216066Y-117470226D01*
X124234771Y-117488931D01*
X124234774Y-117488933D01*
X124444949Y-117641634D01*
X124675505Y-117759109D01*
X124676428Y-117759579D01*
X124923507Y-117839860D01*
X124923510Y-117839860D01*
X124923512Y-117839861D01*
X125097135Y-117867359D01*
X125180103Y-117880500D01*
X125180107Y-117880500D01*
X125439893Y-117880500D01*
X125439897Y-117880500D01*
X125696493Y-117839860D01*
X125943572Y-117759579D01*
X126175051Y-117641634D01*
X126385229Y-117488931D01*
X126403933Y-117470226D01*
X126484712Y-117416253D01*
X126580000Y-117397299D01*
X126675288Y-117416253D01*
X126756066Y-117470226D01*
X126774771Y-117488931D01*
X126774774Y-117488933D01*
X126984949Y-117641634D01*
X127215505Y-117759109D01*
X127216428Y-117759579D01*
X127463507Y-117839860D01*
X127463510Y-117839860D01*
X127463512Y-117839861D01*
X127637135Y-117867359D01*
X127720103Y-117880500D01*
X127720107Y-117880500D01*
X127979893Y-117880500D01*
X127979897Y-117880500D01*
X128236493Y-117839860D01*
X128483572Y-117759579D01*
X128715051Y-117641634D01*
X128925229Y-117488931D01*
X128943933Y-117470226D01*
X129024712Y-117416253D01*
X129120000Y-117397299D01*
X129215288Y-117416253D01*
X129296066Y-117470226D01*
X129314771Y-117488931D01*
X129314774Y-117488933D01*
X129524949Y-117641634D01*
X129755505Y-117759109D01*
X129756428Y-117759579D01*
X130003507Y-117839860D01*
X130003510Y-117839860D01*
X130003512Y-117839861D01*
X130177135Y-117867359D01*
X130260103Y-117880500D01*
X130260107Y-117880500D01*
X130519893Y-117880500D01*
X130519897Y-117880500D01*
X130776493Y-117839860D01*
X131023572Y-117759579D01*
X131255051Y-117641634D01*
X131465229Y-117488931D01*
X131483933Y-117470226D01*
X131564712Y-117416253D01*
X131660000Y-117397299D01*
X131755288Y-117416253D01*
X131836066Y-117470226D01*
X131854771Y-117488931D01*
X131854774Y-117488933D01*
X132064949Y-117641634D01*
X132295505Y-117759109D01*
X132296428Y-117759579D01*
X132543507Y-117839860D01*
X132543510Y-117839860D01*
X132543512Y-117839861D01*
X132717135Y-117867359D01*
X132800103Y-117880500D01*
X132800107Y-117880500D01*
X133059893Y-117880500D01*
X133059897Y-117880500D01*
X133316493Y-117839860D01*
X133563572Y-117759579D01*
X133795051Y-117641634D01*
X134005229Y-117488931D01*
X134023933Y-117470226D01*
X134104712Y-117416253D01*
X134200000Y-117397299D01*
X134295288Y-117416253D01*
X134376066Y-117470226D01*
X134394771Y-117488931D01*
X134394774Y-117488933D01*
X134604949Y-117641634D01*
X134835505Y-117759109D01*
X134836428Y-117759579D01*
X135083507Y-117839860D01*
X135083510Y-117839860D01*
X135083512Y-117839861D01*
X135257135Y-117867359D01*
X135340103Y-117880500D01*
X135340107Y-117880500D01*
X135599893Y-117880500D01*
X135599897Y-117880500D01*
X135856493Y-117839860D01*
X136103572Y-117759579D01*
X136335051Y-117641634D01*
X136545229Y-117488931D01*
X136563933Y-117470226D01*
X136644712Y-117416253D01*
X136740000Y-117397299D01*
X136835288Y-117416253D01*
X136916066Y-117470226D01*
X136934771Y-117488931D01*
X136934774Y-117488933D01*
X137144949Y-117641634D01*
X137375505Y-117759109D01*
X137376428Y-117759579D01*
X137623507Y-117839860D01*
X137623510Y-117839860D01*
X137623512Y-117839861D01*
X137797135Y-117867359D01*
X137880103Y-117880500D01*
X137880107Y-117880500D01*
X138139893Y-117880500D01*
X138139897Y-117880500D01*
X138396493Y-117839860D01*
X138643572Y-117759579D01*
X138875051Y-117641634D01*
X139085229Y-117488931D01*
X139103933Y-117470226D01*
X139184712Y-117416253D01*
X139280000Y-117397299D01*
X139375288Y-117416253D01*
X139456066Y-117470226D01*
X139474771Y-117488931D01*
X139474774Y-117488933D01*
X139684949Y-117641634D01*
X139915505Y-117759109D01*
X139916428Y-117759579D01*
X140163507Y-117839860D01*
X140163510Y-117839860D01*
X140163512Y-117839861D01*
X140337135Y-117867359D01*
X140420103Y-117880500D01*
X140420107Y-117880500D01*
X140679893Y-117880500D01*
X140679897Y-117880500D01*
X140936493Y-117839860D01*
X141183572Y-117759579D01*
X141415051Y-117641634D01*
X141625229Y-117488931D01*
X141643933Y-117470226D01*
X141724712Y-117416253D01*
X141820000Y-117397299D01*
X141915288Y-117416253D01*
X141996066Y-117470226D01*
X142014771Y-117488931D01*
X142014774Y-117488933D01*
X142224949Y-117641634D01*
X142455505Y-117759109D01*
X142456428Y-117759579D01*
X142703507Y-117839860D01*
X142703510Y-117839860D01*
X142703512Y-117839861D01*
X142877135Y-117867359D01*
X142960103Y-117880500D01*
X142960107Y-117880500D01*
X143219893Y-117880500D01*
X143219897Y-117880500D01*
X143476493Y-117839860D01*
X143723572Y-117759579D01*
X143955051Y-117641634D01*
X144165229Y-117488931D01*
X144183933Y-117470226D01*
X144264712Y-117416253D01*
X144360000Y-117397299D01*
X144455288Y-117416253D01*
X144536066Y-117470226D01*
X144554771Y-117488931D01*
X144554774Y-117488933D01*
X144764949Y-117641634D01*
X144995505Y-117759109D01*
X144996428Y-117759579D01*
X145243507Y-117839860D01*
X145243510Y-117839860D01*
X145243512Y-117839861D01*
X145417135Y-117867359D01*
X145500103Y-117880500D01*
X145500107Y-117880500D01*
X145759893Y-117880500D01*
X145759897Y-117880500D01*
X146016493Y-117839860D01*
X146263572Y-117759579D01*
X146495051Y-117641634D01*
X146705229Y-117488931D01*
X146723933Y-117470226D01*
X146804712Y-117416253D01*
X146900000Y-117397299D01*
X146995288Y-117416253D01*
X147076066Y-117470226D01*
X147094771Y-117488931D01*
X147094774Y-117488933D01*
X147304949Y-117641634D01*
X147535505Y-117759109D01*
X147536428Y-117759579D01*
X147783507Y-117839860D01*
X147783510Y-117839860D01*
X147783512Y-117839861D01*
X147957135Y-117867359D01*
X148040103Y-117880500D01*
X148040107Y-117880500D01*
X148299893Y-117880500D01*
X148299897Y-117880500D01*
X148556493Y-117839860D01*
X148803572Y-117759579D01*
X149035051Y-117641634D01*
X149245229Y-117488931D01*
X149263933Y-117470226D01*
X149344712Y-117416253D01*
X149440000Y-117397299D01*
X149535288Y-117416253D01*
X149616066Y-117470226D01*
X149634771Y-117488931D01*
X149634774Y-117488933D01*
X149844949Y-117641634D01*
X150075505Y-117759109D01*
X150076428Y-117759579D01*
X150323507Y-117839860D01*
X150323510Y-117839860D01*
X150323512Y-117839861D01*
X150497135Y-117867359D01*
X150580103Y-117880500D01*
X150580107Y-117880500D01*
X150839893Y-117880500D01*
X150839897Y-117880500D01*
X151096493Y-117839860D01*
X151343572Y-117759579D01*
X151575051Y-117641634D01*
X151785229Y-117488931D01*
X151803933Y-117470226D01*
X151884712Y-117416253D01*
X151980000Y-117397299D01*
X152075288Y-117416253D01*
X152156066Y-117470226D01*
X152174771Y-117488931D01*
X152174774Y-117488933D01*
X152384949Y-117641634D01*
X152615505Y-117759109D01*
X152616428Y-117759579D01*
X152863507Y-117839860D01*
X152863510Y-117839860D01*
X152863512Y-117839861D01*
X153037135Y-117867359D01*
X153120103Y-117880500D01*
X153120107Y-117880500D01*
X153379893Y-117880500D01*
X153379897Y-117880500D01*
X153636493Y-117839860D01*
X153883572Y-117759579D01*
X154115051Y-117641634D01*
X154325229Y-117488931D01*
X154343933Y-117470226D01*
X154424712Y-117416253D01*
X154520000Y-117397299D01*
X154615288Y-117416253D01*
X154696066Y-117470226D01*
X154714771Y-117488931D01*
X154714774Y-117488933D01*
X154924949Y-117641634D01*
X155155505Y-117759109D01*
X155156428Y-117759579D01*
X155403507Y-117839860D01*
X155403510Y-117839860D01*
X155403512Y-117839861D01*
X155577135Y-117867359D01*
X155660103Y-117880500D01*
X155660107Y-117880500D01*
X155919893Y-117880500D01*
X155919897Y-117880500D01*
X156176493Y-117839860D01*
X156423572Y-117759579D01*
X156655051Y-117641634D01*
X156865229Y-117488931D01*
X156883933Y-117470226D01*
X156964712Y-117416253D01*
X157060000Y-117397299D01*
X157155288Y-117416253D01*
X157236066Y-117470226D01*
X157254771Y-117488931D01*
X157254774Y-117488933D01*
X157464949Y-117641634D01*
X157695505Y-117759109D01*
X157696428Y-117759579D01*
X157943507Y-117839860D01*
X157943510Y-117839860D01*
X157943512Y-117839861D01*
X158117135Y-117867359D01*
X158200103Y-117880500D01*
X158200107Y-117880500D01*
X158459893Y-117880500D01*
X158459897Y-117880500D01*
X158716493Y-117839860D01*
X158963572Y-117759579D01*
X159195051Y-117641634D01*
X159405229Y-117488931D01*
X159423933Y-117470226D01*
X159504712Y-117416253D01*
X159600000Y-117397299D01*
X159695288Y-117416253D01*
X159776066Y-117470226D01*
X159794771Y-117488931D01*
X159794774Y-117488933D01*
X160004949Y-117641634D01*
X160235505Y-117759109D01*
X160236428Y-117759579D01*
X160483507Y-117839860D01*
X160483510Y-117839860D01*
X160483512Y-117839861D01*
X160657135Y-117867359D01*
X160740103Y-117880500D01*
X160740107Y-117880500D01*
X160999893Y-117880500D01*
X160999897Y-117880500D01*
X161256493Y-117839860D01*
X161503572Y-117759579D01*
X161735051Y-117641634D01*
X161945229Y-117488931D01*
X162128931Y-117305229D01*
X162281634Y-117095051D01*
X162399579Y-116863572D01*
X162479860Y-116616493D01*
X162520500Y-116359897D01*
X162520500Y-116100103D01*
X162479860Y-115843507D01*
X162399579Y-115596428D01*
X162281634Y-115364949D01*
X162281630Y-115364944D01*
X162277859Y-115357542D01*
X162251487Y-115264034D01*
X162262906Y-115167553D01*
X162310377Y-115082785D01*
X162323639Y-115068438D01*
X162349816Y-115042262D01*
X162445789Y-114889522D01*
X162505368Y-114719255D01*
X162518584Y-114601961D01*
X162520499Y-114584968D01*
X162520500Y-114584953D01*
X162520500Y-112795046D01*
X162520499Y-112795031D01*
X162505369Y-112660754D01*
X162505368Y-112660745D01*
X162445789Y-112490478D01*
X162445786Y-112490473D01*
X162445785Y-112490470D01*
X162349819Y-112337742D01*
X162349817Y-112337740D01*
X162349816Y-112337738D01*
X162222262Y-112210184D01*
X162222259Y-112210182D01*
X162222257Y-112210180D01*
X162069529Y-112114214D01*
X162069524Y-112114212D01*
X162069522Y-112114211D01*
X161899255Y-112054632D01*
X161899251Y-112054631D01*
X161899245Y-112054630D01*
X161764968Y-112039500D01*
X161764954Y-112039500D01*
X159975046Y-112039500D01*
X159975031Y-112039500D01*
X159840754Y-112054630D01*
X159840746Y-112054631D01*
X159840745Y-112054632D01*
X159670478Y-112114211D01*
X159670476Y-112114211D01*
X159670476Y-112114212D01*
X159670470Y-112114214D01*
X159517738Y-112210182D01*
X159517738Y-112210183D01*
X159491569Y-112236352D01*
X159410787Y-112290327D01*
X159315499Y-112309280D01*
X159220211Y-112290325D01*
X159202458Y-112282140D01*
X158963576Y-112160423D01*
X158963567Y-112160419D01*
X158716493Y-112080140D01*
X158716487Y-112080138D01*
X158459908Y-112039501D01*
X158459899Y-112039500D01*
X158459897Y-112039500D01*
X158200103Y-112039500D01*
X158200100Y-112039500D01*
X158200091Y-112039501D01*
X157943512Y-112080138D01*
X157943506Y-112080140D01*
X157696432Y-112160419D01*
X157696422Y-112160423D01*
X157464949Y-112278365D01*
X157254774Y-112431066D01*
X157254771Y-112431068D01*
X157254771Y-112431069D01*
X157236066Y-112449773D01*
X157155288Y-112503747D01*
X157060000Y-112522701D01*
X156964712Y-112503747D01*
X156883933Y-112449773D01*
X156865229Y-112431069D01*
X156771230Y-112362775D01*
X156655050Y-112278365D01*
X156423577Y-112160423D01*
X156423567Y-112160419D01*
X156176493Y-112080140D01*
X156176487Y-112080138D01*
X155919908Y-112039501D01*
X155919899Y-112039500D01*
X155919897Y-112039500D01*
X155660103Y-112039500D01*
X155660100Y-112039500D01*
X155660091Y-112039501D01*
X155403512Y-112080138D01*
X155403506Y-112080140D01*
X155156432Y-112160419D01*
X155156422Y-112160423D01*
X154924949Y-112278365D01*
X154714774Y-112431066D01*
X154714771Y-112431068D01*
X154714771Y-112431069D01*
X154696066Y-112449773D01*
X154615288Y-112503747D01*
X154520000Y-112522701D01*
X154424712Y-112503747D01*
X154343933Y-112449773D01*
X154325229Y-112431069D01*
X154231230Y-112362775D01*
X154115050Y-112278365D01*
X153883577Y-112160423D01*
X153883567Y-112160419D01*
X153636493Y-112080140D01*
X153636487Y-112080138D01*
X153379908Y-112039501D01*
X153379899Y-112039500D01*
X153379897Y-112039500D01*
X153120103Y-112039500D01*
X153120100Y-112039500D01*
X153120091Y-112039501D01*
X152863512Y-112080138D01*
X152863506Y-112080140D01*
X152616432Y-112160419D01*
X152616422Y-112160423D01*
X152384949Y-112278365D01*
X152174774Y-112431066D01*
X152174771Y-112431068D01*
X152174771Y-112431069D01*
X152156066Y-112449773D01*
X152075288Y-112503747D01*
X151980000Y-112522701D01*
X151884712Y-112503747D01*
X151803933Y-112449773D01*
X151785229Y-112431069D01*
X151691230Y-112362775D01*
X151575050Y-112278365D01*
X151343577Y-112160423D01*
X151343567Y-112160419D01*
X151096493Y-112080140D01*
X151096487Y-112080138D01*
X150839908Y-112039501D01*
X150839899Y-112039500D01*
X150839897Y-112039500D01*
X150580103Y-112039500D01*
X150580100Y-112039500D01*
X150580091Y-112039501D01*
X150323512Y-112080138D01*
X150323506Y-112080140D01*
X150076432Y-112160419D01*
X150076422Y-112160423D01*
X149844949Y-112278365D01*
X149634774Y-112431066D01*
X149634771Y-112431068D01*
X149634771Y-112431069D01*
X149616066Y-112449773D01*
X149535288Y-112503747D01*
X149440000Y-112522701D01*
X149344712Y-112503747D01*
X149263933Y-112449773D01*
X149245229Y-112431069D01*
X149151230Y-112362775D01*
X149035050Y-112278365D01*
X148803577Y-112160423D01*
X148803567Y-112160419D01*
X148556493Y-112080140D01*
X148556487Y-112080138D01*
X148299908Y-112039501D01*
X148299899Y-112039500D01*
X148299897Y-112039500D01*
X148040103Y-112039500D01*
X148040100Y-112039500D01*
X148040091Y-112039501D01*
X147783512Y-112080138D01*
X147783506Y-112080140D01*
X147536432Y-112160419D01*
X147536422Y-112160423D01*
X147304949Y-112278365D01*
X147094774Y-112431066D01*
X147094771Y-112431068D01*
X147094771Y-112431069D01*
X147076066Y-112449773D01*
X146995288Y-112503747D01*
X146900000Y-112522701D01*
X146804712Y-112503747D01*
X146723933Y-112449773D01*
X146705229Y-112431069D01*
X146611230Y-112362775D01*
X146495050Y-112278365D01*
X146263577Y-112160423D01*
X146263567Y-112160419D01*
X146016493Y-112080140D01*
X146016487Y-112080138D01*
X145759908Y-112039501D01*
X145759899Y-112039500D01*
X145759897Y-112039500D01*
X145500103Y-112039500D01*
X145500100Y-112039500D01*
X145500091Y-112039501D01*
X145243512Y-112080138D01*
X145243506Y-112080140D01*
X144996432Y-112160419D01*
X144996422Y-112160423D01*
X144764949Y-112278365D01*
X144554774Y-112431066D01*
X144554771Y-112431068D01*
X144554771Y-112431069D01*
X144536066Y-112449773D01*
X144455288Y-112503747D01*
X144360000Y-112522701D01*
X144264712Y-112503747D01*
X144183933Y-112449773D01*
X144165229Y-112431069D01*
X144071230Y-112362775D01*
X143955050Y-112278365D01*
X143723577Y-112160423D01*
X143723567Y-112160419D01*
X143476493Y-112080140D01*
X143476487Y-112080138D01*
X143219908Y-112039501D01*
X143219899Y-112039500D01*
X143219897Y-112039500D01*
X142960103Y-112039500D01*
X142960100Y-112039500D01*
X142960091Y-112039501D01*
X142703512Y-112080138D01*
X142703506Y-112080140D01*
X142456432Y-112160419D01*
X142456422Y-112160423D01*
X142224949Y-112278365D01*
X142014774Y-112431066D01*
X142014771Y-112431068D01*
X142014771Y-112431069D01*
X141996066Y-112449773D01*
X141915288Y-112503747D01*
X141820000Y-112522701D01*
X141724712Y-112503747D01*
X141643933Y-112449773D01*
X141625229Y-112431069D01*
X141550500Y-112376775D01*
X141415052Y-112278366D01*
X141253051Y-112195822D01*
X141176754Y-112135674D01*
X141129283Y-112050906D01*
X141117864Y-111954425D01*
X141144236Y-111860917D01*
X141190023Y-111797895D01*
X146013778Y-106974141D01*
X146013782Y-106974139D01*
X146153139Y-106834782D01*
X146262632Y-106670914D01*
X146338051Y-106488835D01*
X146376500Y-106295541D01*
X146376500Y-104867247D01*
X146395454Y-104771959D01*
X146439860Y-104705499D01*
X146437883Y-104703811D01*
X146444232Y-104696374D01*
X146444242Y-104696365D01*
X146573815Y-104518022D01*
X146576901Y-104511967D01*
X146673890Y-104321616D01*
X146673890Y-104321615D01*
X146673895Y-104321606D01*
X146742015Y-104111951D01*
X146776500Y-103894222D01*
X146776500Y-103673778D01*
X146742015Y-103456049D01*
X146673895Y-103246394D01*
X146673891Y-103246386D01*
X146673890Y-103246383D01*
X146573820Y-103049986D01*
X146573816Y-103049981D01*
X146573815Y-103049978D01*
X146444242Y-102871635D01*
X146288365Y-102715758D01*
X146110022Y-102586185D01*
X146110019Y-102586183D01*
X146110013Y-102586179D01*
X145913616Y-102486109D01*
X145913609Y-102486106D01*
X145913606Y-102486105D01*
X145703951Y-102417985D01*
X145703945Y-102417984D01*
X145703938Y-102417982D01*
X145486232Y-102383501D01*
X145486225Y-102383500D01*
X145486222Y-102383500D01*
X145265778Y-102383500D01*
X145265775Y-102383500D01*
X145265767Y-102383501D01*
X145048061Y-102417982D01*
X145048054Y-102417984D01*
X145048052Y-102417984D01*
X145048049Y-102417985D01*
X144838394Y-102486105D01*
X144838392Y-102486105D01*
X144838392Y-102486106D01*
X144838383Y-102486109D01*
X144641986Y-102586179D01*
X144641979Y-102586184D01*
X144463633Y-102715759D01*
X144307759Y-102871633D01*
X144178184Y-103049979D01*
X144178179Y-103049986D01*
X144078109Y-103246383D01*
X144078105Y-103246392D01*
X144078105Y-103246394D01*
X144009985Y-103456049D01*
X144009984Y-103456052D01*
X144009984Y-103456054D01*
X144009982Y-103456061D01*
X143975501Y-103673767D01*
X143975500Y-103673782D01*
X143975500Y-103894217D01*
X143975501Y-103894232D01*
X144009982Y-104111938D01*
X144009984Y-104111945D01*
X144009985Y-104111951D01*
X144078105Y-104321606D01*
X144078106Y-104321607D01*
X144078109Y-104321616D01*
X144178179Y-104518013D01*
X144178183Y-104518019D01*
X144178185Y-104518022D01*
X144307758Y-104696365D01*
X144307761Y-104696368D01*
X144314117Y-104703811D01*
X144312139Y-104705499D01*
X144356546Y-104771959D01*
X144375500Y-104867247D01*
X144375500Y-105679440D01*
X144356546Y-105774728D01*
X144302570Y-105855510D01*
X139435570Y-110722510D01*
X139354788Y-110776486D01*
X139259500Y-110795440D01*
X139164212Y-110776486D01*
X139083430Y-110722510D01*
X139029454Y-110641728D01*
X139010500Y-110546440D01*
X139010500Y-108635550D01*
X139029454Y-108540262D01*
X139083430Y-108459480D01*
X139164212Y-108405504D01*
X139220543Y-108389617D01*
X139281844Y-108379908D01*
X139491499Y-108311788D01*
X139491509Y-108311783D01*
X139687906Y-108211713D01*
X139687908Y-108211711D01*
X139687915Y-108211708D01*
X139866258Y-108082135D01*
X140022135Y-107926258D01*
X140151708Y-107747915D01*
X140251788Y-107551499D01*
X140319908Y-107341844D01*
X140354393Y-107124115D01*
X140354393Y-106903671D01*
X140319908Y-106685942D01*
X140251788Y-106476287D01*
X140251784Y-106476279D01*
X140251783Y-106476276D01*
X140151713Y-106279879D01*
X140151709Y-106279874D01*
X140151708Y-106279871D01*
X140022135Y-106101528D01*
X139866258Y-105945651D01*
X139687915Y-105816078D01*
X139687912Y-105816076D01*
X139687906Y-105816072D01*
X139491509Y-105716002D01*
X139491502Y-105715999D01*
X139491499Y-105715998D01*
X139281844Y-105647878D01*
X139281838Y-105647877D01*
X139281831Y-105647875D01*
X139064125Y-105613394D01*
X139064118Y-105613393D01*
X139064115Y-105613393D01*
X138843671Y-105613393D01*
X138833888Y-105613393D01*
X138833888Y-105610796D01*
X138754459Y-105601371D01*
X138669706Y-105553873D01*
X138609581Y-105477557D01*
X138583239Y-105384042D01*
X138594688Y-105287564D01*
X138642186Y-105202811D01*
X138655393Y-105188526D01*
X143486140Y-100357781D01*
X143513419Y-100316953D01*
X143595632Y-100193914D01*
X143671051Y-100011835D01*
X143709500Y-99818541D01*
X143709500Y-99555335D01*
X143728454Y-99460047D01*
X143782430Y-99379265D01*
X143863212Y-99325289D01*
X143958500Y-99306335D01*
X144053788Y-99325289D01*
X144134570Y-99379265D01*
X144171772Y-99430474D01*
X144173072Y-99429678D01*
X144178180Y-99438013D01*
X144178185Y-99438022D01*
X144307758Y-99616365D01*
X144463635Y-99772242D01*
X144641978Y-99901815D01*
X144641981Y-99901816D01*
X144641986Y-99901820D01*
X144838383Y-100001890D01*
X144838386Y-100001891D01*
X144838394Y-100001895D01*
X145048049Y-100070015D01*
X145048060Y-100070016D01*
X145048061Y-100070017D01*
X145108640Y-100079611D01*
X145265778Y-100104500D01*
X145265782Y-100104500D01*
X145486218Y-100104500D01*
X145486222Y-100104500D01*
X145703951Y-100070015D01*
X145913606Y-100001895D01*
X145913616Y-100001890D01*
X146110013Y-99901820D01*
X146110015Y-99901818D01*
X146110022Y-99901815D01*
X146288365Y-99772242D01*
X146444242Y-99616365D01*
X146573815Y-99438022D01*
X146673895Y-99241606D01*
X146742015Y-99031951D01*
X146776500Y-98814222D01*
X146776500Y-98593778D01*
X146751611Y-98436640D01*
X146742017Y-98376061D01*
X146742016Y-98376060D01*
X146742015Y-98376049D01*
X146673895Y-98166394D01*
X146673891Y-98166386D01*
X146673890Y-98166383D01*
X146573820Y-97969986D01*
X146573816Y-97969980D01*
X146573815Y-97969978D01*
X146486393Y-97849651D01*
X146474054Y-97832667D01*
X146433380Y-97744437D01*
X146426500Y-97686310D01*
X146426500Y-96634271D01*
X146445454Y-96538983D01*
X146499430Y-96458201D01*
X146580212Y-96404225D01*
X146675500Y-96385271D01*
X146770788Y-96404225D01*
X146851570Y-96458201D01*
X148243020Y-97849651D01*
X148243023Y-97849655D01*
X148389345Y-97995977D01*
X148389348Y-97995979D01*
X148389350Y-97995981D01*
X148533601Y-98092365D01*
X148561402Y-98110941D01*
X148561404Y-98110941D01*
X148561406Y-98110943D01*
X148688854Y-98163733D01*
X148752580Y-98190130D01*
X148955535Y-98230500D01*
X149162465Y-98230500D01*
X151470311Y-98230500D01*
X151565599Y-98249454D01*
X151616664Y-98278051D01*
X151753978Y-98377815D01*
X151753981Y-98377816D01*
X151753986Y-98377820D01*
X151950383Y-98477890D01*
X151950386Y-98477891D01*
X151950394Y-98477895D01*
X152160049Y-98546015D01*
X152160060Y-98546016D01*
X152160061Y-98546017D01*
X152220640Y-98555611D01*
X152377778Y-98580500D01*
X152377782Y-98580500D01*
X152598218Y-98580500D01*
X152598222Y-98580500D01*
X152815951Y-98546015D01*
X153025606Y-98477895D01*
X153025616Y-98477890D01*
X153222013Y-98377820D01*
X153222015Y-98377818D01*
X153222022Y-98377815D01*
X153400365Y-98248242D01*
X153556242Y-98092365D01*
X153685815Y-97914022D01*
X153785895Y-97717606D01*
X153854015Y-97507951D01*
X153888500Y-97290222D01*
X153888500Y-97069778D01*
X153854015Y-96852049D01*
X153785895Y-96642394D01*
X153785891Y-96642386D01*
X153785890Y-96642383D01*
X153685820Y-96445986D01*
X153685816Y-96445981D01*
X153685815Y-96445978D01*
X153556242Y-96267635D01*
X153400365Y-96111758D01*
X153222022Y-95982185D01*
X153222019Y-95982183D01*
X153222013Y-95982179D01*
X153025616Y-95882109D01*
X153025609Y-95882106D01*
X153025606Y-95882105D01*
X152815951Y-95813985D01*
X152815945Y-95813984D01*
X152815938Y-95813982D01*
X152598232Y-95779501D01*
X152598225Y-95779500D01*
X152598222Y-95779500D01*
X152377778Y-95779500D01*
X152377775Y-95779500D01*
X152377767Y-95779501D01*
X152160061Y-95813982D01*
X152160054Y-95813984D01*
X152160052Y-95813984D01*
X152160049Y-95813985D01*
X151950394Y-95882105D01*
X151950392Y-95882105D01*
X151950392Y-95882106D01*
X151950383Y-95882109D01*
X151753986Y-95982179D01*
X151753979Y-95982184D01*
X151753978Y-95982185D01*
X151616666Y-96081947D01*
X151528438Y-96122620D01*
X151470311Y-96129500D01*
X149597271Y-96129500D01*
X149501983Y-96110546D01*
X149421201Y-96056570D01*
X148235429Y-94870798D01*
X148181453Y-94790016D01*
X148165566Y-94733687D01*
X148139015Y-94566049D01*
X148070895Y-94356394D01*
X148070891Y-94356386D01*
X148070890Y-94356383D01*
X147970820Y-94159986D01*
X147970816Y-94159981D01*
X147970815Y-94159978D01*
X147841242Y-93981635D01*
X147685365Y-93825758D01*
X147507022Y-93696185D01*
X147507019Y-93696183D01*
X147507013Y-93696179D01*
X147310616Y-93596109D01*
X147310609Y-93596106D01*
X147310606Y-93596105D01*
X147100951Y-93527985D01*
X147100945Y-93527984D01*
X147100938Y-93527982D01*
X146883232Y-93493501D01*
X146883225Y-93493500D01*
X146883222Y-93493500D01*
X146675500Y-93493500D01*
X146580212Y-93474546D01*
X146499430Y-93420570D01*
X146445454Y-93339788D01*
X146426500Y-93244500D01*
X146426500Y-92482689D01*
X146445454Y-92387401D01*
X146474051Y-92336335D01*
X146573815Y-92199022D01*
X146586590Y-92173951D01*
X146673890Y-92002616D01*
X146673890Y-92002615D01*
X146673895Y-92002606D01*
X146742015Y-91792951D01*
X146765726Y-91643245D01*
X146775340Y-91582548D01*
X146808967Y-91491398D01*
X146874915Y-91420055D01*
X146963146Y-91379380D01*
X147021274Y-91372500D01*
X149416463Y-91372500D01*
X149416465Y-91372500D01*
X149619420Y-91332130D01*
X149810598Y-91252941D01*
X149849435Y-91226991D01*
X149982655Y-91137977D01*
X150128977Y-90991655D01*
X150128978Y-90991652D01*
X150987206Y-90133425D01*
X151067982Y-90079453D01*
X151124307Y-90063567D01*
X151291951Y-90037015D01*
X151501606Y-89968895D01*
X151567873Y-89935130D01*
X151698013Y-89868820D01*
X151698015Y-89868818D01*
X151698022Y-89868815D01*
X151876365Y-89739242D01*
X152032242Y-89583365D01*
X152161815Y-89405022D01*
X152261895Y-89208606D01*
X152330015Y-88998951D01*
X152364500Y-88781222D01*
X152364500Y-88560778D01*
X152337089Y-88387715D01*
X152330017Y-88343061D01*
X152330016Y-88343060D01*
X152330015Y-88343049D01*
X152261895Y-88133394D01*
X152261891Y-88133386D01*
X152261890Y-88133383D01*
X152161820Y-87936986D01*
X152161816Y-87936981D01*
X152161815Y-87936978D01*
X152032242Y-87758635D01*
X151876365Y-87602758D01*
X151698022Y-87473185D01*
X151698019Y-87473183D01*
X151698013Y-87473179D01*
X151501616Y-87373109D01*
X151501609Y-87373106D01*
X151501606Y-87373105D01*
X151291951Y-87304985D01*
X151291945Y-87304984D01*
X151291938Y-87304982D01*
X151074232Y-87270501D01*
X151074225Y-87270500D01*
X151074222Y-87270500D01*
X150853778Y-87270500D01*
X150853775Y-87270500D01*
X150853767Y-87270501D01*
X150636061Y-87304982D01*
X150636054Y-87304984D01*
X150636052Y-87304984D01*
X150636049Y-87304985D01*
X150426394Y-87373105D01*
X150426392Y-87373105D01*
X150426392Y-87373106D01*
X150426383Y-87373109D01*
X150229986Y-87473179D01*
X150229979Y-87473184D01*
X150051633Y-87602759D01*
X149895754Y-87758638D01*
X149893941Y-87761135D01*
X149892430Y-87762531D01*
X149889410Y-87766068D01*
X149888991Y-87765710D01*
X149822597Y-87827082D01*
X149731446Y-87860706D01*
X149634366Y-87856890D01*
X149546136Y-87816212D01*
X149480189Y-87744868D01*
X149446565Y-87653717D01*
X149443500Y-87614771D01*
X149443500Y-87417782D01*
X149443500Y-87417778D01*
X149409015Y-87200049D01*
X149340895Y-86990394D01*
X149340891Y-86990386D01*
X149340890Y-86990383D01*
X149240820Y-86793986D01*
X149240816Y-86793981D01*
X149240815Y-86793978D01*
X149111242Y-86615635D01*
X148955365Y-86459758D01*
X148777022Y-86330185D01*
X148777019Y-86330183D01*
X148777013Y-86330179D01*
X148580616Y-86230109D01*
X148580609Y-86230106D01*
X148580606Y-86230105D01*
X148370951Y-86161985D01*
X148370945Y-86161984D01*
X148370940Y-86161982D01*
X148310651Y-86152434D01*
X148219502Y-86118807D01*
X148148159Y-86052858D01*
X148107484Y-85964628D01*
X148103670Y-85867547D01*
X148137297Y-85776398D01*
X148203246Y-85705055D01*
X148291476Y-85664380D01*
X148349604Y-85657500D01*
X176673328Y-85657500D01*
X176768616Y-85676454D01*
X176786369Y-85684638D01*
X176969394Y-85777895D01*
X177179049Y-85846015D01*
X177179060Y-85846016D01*
X177179061Y-85846017D01*
X177198558Y-85849105D01*
X177396778Y-85880500D01*
X177396782Y-85880500D01*
X177617218Y-85880500D01*
X177617222Y-85880500D01*
X177834951Y-85846015D01*
X178044606Y-85777895D01*
X178143570Y-85727470D01*
X178241013Y-85677820D01*
X178241015Y-85677818D01*
X178241022Y-85677815D01*
X178419365Y-85548242D01*
X178575242Y-85392365D01*
X178704815Y-85214022D01*
X178804895Y-85017606D01*
X178873015Y-84807951D01*
X178907500Y-84590222D01*
X178907500Y-84369778D01*
X178873015Y-84152049D01*
X178804895Y-83942394D01*
X178804891Y-83942386D01*
X178804890Y-83942383D01*
X178704820Y-83745986D01*
X178704816Y-83745981D01*
X178704815Y-83745978D01*
X178575242Y-83567635D01*
X178419365Y-83411758D01*
X178241022Y-83282185D01*
X178241019Y-83282183D01*
X178241013Y-83282179D01*
X178044616Y-83182109D01*
X178044609Y-83182106D01*
X178044606Y-83182105D01*
X177834951Y-83113985D01*
X177834945Y-83113984D01*
X177834938Y-83113982D01*
X177617232Y-83079501D01*
X177617225Y-83079500D01*
X177617222Y-83079500D01*
X177396778Y-83079500D01*
X177396775Y-83079500D01*
X177396767Y-83079501D01*
X177179061Y-83113982D01*
X177179054Y-83113984D01*
X177179052Y-83113984D01*
X177179049Y-83113985D01*
X176969394Y-83182105D01*
X176969392Y-83182105D01*
X176969392Y-83182106D01*
X176969383Y-83182109D01*
X176772986Y-83282179D01*
X176772979Y-83282184D01*
X176594633Y-83411759D01*
X176522823Y-83483570D01*
X176442041Y-83537546D01*
X176346753Y-83556500D01*
X147523773Y-83556500D01*
X147523753Y-83556499D01*
X147511465Y-83556499D01*
X147304535Y-83556499D01*
X147304529Y-83556499D01*
X147101583Y-83596868D01*
X147101582Y-83596869D01*
X146910403Y-83676057D01*
X146910400Y-83676058D01*
X146738346Y-83791022D01*
X146738344Y-83791023D01*
X146283800Y-84245569D01*
X146203018Y-84299546D01*
X146107730Y-84318500D01*
X144412160Y-84318500D01*
X144316872Y-84299546D01*
X144236090Y-84245570D01*
X144182114Y-84164788D01*
X144163160Y-84069500D01*
X144182114Y-83974212D01*
X144210715Y-83923142D01*
X144247906Y-83871952D01*
X144287815Y-83817022D01*
X144301063Y-83791023D01*
X144387890Y-83620616D01*
X144387890Y-83620615D01*
X144387895Y-83620606D01*
X144456015Y-83410951D01*
X144490500Y-83193222D01*
X144490500Y-82972778D01*
X144456015Y-82755049D01*
X144387895Y-82545394D01*
X144387891Y-82545386D01*
X144387890Y-82545383D01*
X144287820Y-82348986D01*
X144287816Y-82348980D01*
X144287815Y-82348978D01*
X144252993Y-82301050D01*
X144188054Y-82211667D01*
X144147380Y-82123437D01*
X144140500Y-82065310D01*
X144140500Y-79677536D01*
X144140500Y-79677535D01*
X144100130Y-79474580D01*
X144020941Y-79283402D01*
X143970823Y-79208394D01*
X143905981Y-79111350D01*
X143905975Y-79111343D01*
X143759655Y-78965022D01*
X143759655Y-78965023D01*
X143759654Y-78965022D01*
X143759654Y-78965021D01*
X142929573Y-78134942D01*
X142929570Y-78134938D01*
X142929570Y-78134939D01*
X142915378Y-78120747D01*
X142915377Y-78120745D01*
X142769055Y-77974423D01*
X142769051Y-77974420D01*
X142769049Y-77974418D01*
X142597003Y-77859462D01*
X142596996Y-77859458D01*
X142418518Y-77785529D01*
X142337737Y-77731552D01*
X142301988Y-77686379D01*
X142287736Y-77663316D01*
X142262389Y-77590878D01*
X142166416Y-77438138D01*
X142119743Y-77391465D01*
X142104500Y-77366798D01*
X142097459Y-77347932D01*
X142086273Y-77331190D01*
X142080635Y-77302848D01*
X142070532Y-77275774D01*
X142071247Y-77255650D01*
X142067319Y-77235902D01*
X142072956Y-77207560D01*
X142073983Y-77178680D01*
X142082344Y-77160362D01*
X142086273Y-77140614D01*
X142094459Y-77122857D01*
X142098229Y-77115457D01*
X142098234Y-77115451D01*
X142216179Y-76883972D01*
X142296460Y-76636893D01*
X142337100Y-76380297D01*
X142337100Y-76120503D01*
X142296460Y-75863907D01*
X142216179Y-75616828D01*
X142213209Y-75611000D01*
X142098234Y-75385349D01*
X141945533Y-75175174D01*
X141945531Y-75175171D01*
X141926826Y-75156466D01*
X141872853Y-75075688D01*
X141853899Y-74980400D01*
X141872853Y-74885112D01*
X141926826Y-74804333D01*
X141945531Y-74785629D01*
X142098234Y-74575451D01*
X142216179Y-74343972D01*
X142296460Y-74096893D01*
X142337100Y-73840297D01*
X142337100Y-73580503D01*
X142307644Y-73394523D01*
X142296461Y-73323912D01*
X142296460Y-73323910D01*
X142296460Y-73323907D01*
X142216179Y-73076828D01*
X142098234Y-72845349D01*
X141945531Y-72635171D01*
X141926826Y-72616466D01*
X141872853Y-72535688D01*
X141853899Y-72440400D01*
X141872853Y-72345112D01*
X141926826Y-72264333D01*
X141945531Y-72245629D01*
X142098234Y-72035451D01*
X142216179Y-71803972D01*
X142296460Y-71556893D01*
X142337100Y-71300297D01*
X142337100Y-71040503D01*
X142296460Y-70783907D01*
X142216179Y-70536828D01*
X142098234Y-70305349D01*
X141945531Y-70095171D01*
X141926826Y-70076466D01*
X141872853Y-69995688D01*
X141853899Y-69900400D01*
X141872853Y-69805112D01*
X141926826Y-69724333D01*
X141945531Y-69705629D01*
X142098234Y-69495451D01*
X142216179Y-69263972D01*
X142296460Y-69016893D01*
X142337100Y-68760297D01*
X142337100Y-68500503D01*
X142296460Y-68243907D01*
X142216179Y-67996828D01*
X142172566Y-67911234D01*
X142098234Y-67765349D01*
X142017266Y-67653906D01*
X141945531Y-67555171D01*
X141761829Y-67371469D01*
X141668989Y-67304017D01*
X141551650Y-67218765D01*
X141320177Y-67100823D01*
X141320167Y-67100819D01*
X141073093Y-67020540D01*
X141073087Y-67020538D01*
X140816508Y-66979901D01*
X140816499Y-66979900D01*
X140816497Y-66979900D01*
X140556703Y-66979900D01*
X140556700Y-66979900D01*
X140556691Y-66979901D01*
X140300112Y-67020538D01*
X140300106Y-67020540D01*
X140053032Y-67100819D01*
X140053022Y-67100823D01*
X139821549Y-67218765D01*
X139611372Y-67371468D01*
X139611368Y-67371471D01*
X139545829Y-67437010D01*
X139465048Y-67490986D01*
X139369759Y-67509939D01*
X139274471Y-67490984D01*
X139193690Y-67437007D01*
X139139714Y-67356226D01*
X139126978Y-67303175D01*
X139011386Y-67219193D01*
X139011379Y-67219189D01*
X138779990Y-67101290D01*
X138779973Y-67101282D01*
X138532973Y-67021028D01*
X138276467Y-66980400D01*
X138016732Y-66980400D01*
X137760226Y-67021028D01*
X137513226Y-67101282D01*
X137513209Y-67101290D01*
X137281820Y-67219189D01*
X137281807Y-67219197D01*
X137170106Y-67300351D01*
X138017192Y-68147437D01*
X137953607Y-68164475D01*
X137839593Y-68230301D01*
X137746501Y-68323393D01*
X137680675Y-68437407D01*
X137663637Y-68500991D01*
X136816551Y-67653906D01*
X136751946Y-67742829D01*
X136680603Y-67808779D01*
X136589454Y-67842406D01*
X136492374Y-67838592D01*
X136404143Y-67797918D01*
X136338193Y-67726575D01*
X136304566Y-67635426D01*
X136301500Y-67596472D01*
X136301500Y-65506036D01*
X136301500Y-65506035D01*
X136261130Y-65303080D01*
X136203907Y-65164933D01*
X136181943Y-65111906D01*
X136181937Y-65111896D01*
X136066981Y-64939850D01*
X136066979Y-64939848D01*
X136066977Y-64939845D01*
X135920655Y-64793523D01*
X135920651Y-64793520D01*
X134773429Y-63646298D01*
X134719453Y-63565516D01*
X134703566Y-63509187D01*
X134677015Y-63341549D01*
X134608895Y-63131894D01*
X134608891Y-63131886D01*
X134608890Y-63131883D01*
X134508820Y-62935486D01*
X134508816Y-62935481D01*
X134508815Y-62935478D01*
X134379242Y-62757135D01*
X134379238Y-62757131D01*
X134372883Y-62749689D01*
X134373803Y-62748903D01*
X134325451Y-62676538D01*
X134306497Y-62581250D01*
X134325451Y-62485962D01*
X134373803Y-62413596D01*
X134372883Y-62412811D01*
X134379232Y-62405374D01*
X134379242Y-62405365D01*
X134508815Y-62227022D01*
X134512218Y-62220345D01*
X134608890Y-62030616D01*
X134608890Y-62030615D01*
X134608895Y-62030606D01*
X134677015Y-61820951D01*
X134711500Y-61603222D01*
X134711500Y-61382778D01*
X134679787Y-61182549D01*
X134677017Y-61165061D01*
X134677016Y-61165060D01*
X134677015Y-61165049D01*
X134608895Y-60955394D01*
X134608891Y-60955386D01*
X134608890Y-60955383D01*
X134508820Y-60758986D01*
X134508816Y-60758981D01*
X134508815Y-60758978D01*
X134379242Y-60580635D01*
X134223365Y-60424758D01*
X134045022Y-60295185D01*
X134045019Y-60295183D01*
X134045013Y-60295179D01*
X133848616Y-60195109D01*
X133848609Y-60195106D01*
X133848606Y-60195105D01*
X133638951Y-60126985D01*
X133638945Y-60126984D01*
X133638938Y-60126982D01*
X133471319Y-60100434D01*
X133380169Y-60066807D01*
X133334201Y-60030570D01*
X132534401Y-59230770D01*
X132480425Y-59149988D01*
X132461471Y-59054700D01*
X132480425Y-58959412D01*
X132534401Y-58878630D01*
X132615183Y-58824654D01*
X132710471Y-58805700D01*
X134050375Y-58805700D01*
X134145663Y-58824654D01*
X134226445Y-58878630D01*
X143402570Y-68054754D01*
X143456546Y-68135536D01*
X143475500Y-68230824D01*
X143475500Y-73625361D01*
X143507522Y-73827531D01*
X143511673Y-73840308D01*
X143570780Y-74022219D01*
X143608828Y-74096893D01*
X143608829Y-74096894D01*
X143608828Y-74096894D01*
X143663712Y-74204610D01*
X143663713Y-74204611D01*
X143784034Y-74370219D01*
X146739444Y-77325629D01*
X149677046Y-80263231D01*
X149722836Y-80326256D01*
X149801187Y-80480026D01*
X149917693Y-80640383D01*
X149930758Y-80658365D01*
X150086635Y-80814242D01*
X150264978Y-80943815D01*
X150264981Y-80943816D01*
X150264986Y-80943820D01*
X150461383Y-81043890D01*
X150461386Y-81043891D01*
X150461394Y-81043895D01*
X150671049Y-81112015D01*
X150671060Y-81112016D01*
X150671061Y-81112017D01*
X150731640Y-81121611D01*
X150888778Y-81146500D01*
X150888782Y-81146500D01*
X151109218Y-81146500D01*
X151109222Y-81146500D01*
X151326951Y-81112015D01*
X151536606Y-81043895D01*
X151536616Y-81043890D01*
X151733013Y-80943820D01*
X151733015Y-80943818D01*
X151733022Y-80943815D01*
X151911365Y-80814242D01*
X152067242Y-80658365D01*
X152196815Y-80480022D01*
X152215177Y-80443986D01*
X152296890Y-80283616D01*
X152296890Y-80283615D01*
X152296895Y-80283606D01*
X152365015Y-80073951D01*
X152399500Y-79856222D01*
X152399500Y-79635778D01*
X152365015Y-79418049D01*
X152296895Y-79208394D01*
X152296891Y-79208386D01*
X152296890Y-79208383D01*
X152196820Y-79011986D01*
X152196816Y-79011981D01*
X152196815Y-79011978D01*
X152067242Y-78833635D01*
X151911365Y-78677758D01*
X151911364Y-78677757D01*
X151911360Y-78677754D01*
X151733026Y-78548187D01*
X151733027Y-78548187D01*
X151579256Y-78469836D01*
X151516231Y-78424046D01*
X146149430Y-73057245D01*
X146095454Y-72976463D01*
X146076500Y-72881175D01*
X146076500Y-67486650D01*
X146076499Y-67486638D01*
X146044479Y-67284477D01*
X146044478Y-67284474D01*
X146044477Y-67284466D01*
X146023130Y-67218766D01*
X145981221Y-67089782D01*
X145888287Y-66907390D01*
X145846857Y-66850366D01*
X145837438Y-66837401D01*
X145837438Y-66837402D01*
X145767966Y-66741781D01*
X145767962Y-66741777D01*
X145767960Y-66741774D01*
X145616971Y-66590786D01*
X145616970Y-66590786D01*
X141573719Y-62547535D01*
X141407422Y-62381238D01*
X158940900Y-62381238D01*
X158940900Y-62585961D01*
X158972922Y-62788131D01*
X159036178Y-62982814D01*
X159036182Y-62982824D01*
X159129111Y-63165207D01*
X159249435Y-63330820D01*
X159394181Y-63475566D01*
X159394185Y-63475569D01*
X159499596Y-63552155D01*
X159565545Y-63623498D01*
X159599172Y-63714648D01*
X159595358Y-63811728D01*
X159554683Y-63899958D01*
X159499596Y-63955045D01*
X159394185Y-64031630D01*
X159394181Y-64031633D01*
X159249435Y-64176379D01*
X159129111Y-64341992D01*
X159036182Y-64524375D01*
X159036178Y-64524385D01*
X158972922Y-64719068D01*
X158940900Y-64921238D01*
X158940900Y-65125961D01*
X158972922Y-65328131D01*
X159036178Y-65522814D01*
X159036182Y-65522824D01*
X159129111Y-65705207D01*
X159129113Y-65705210D01*
X159249434Y-65870819D01*
X159394181Y-66015566D01*
X159559790Y-66135887D01*
X159742181Y-66228820D01*
X159936866Y-66292077D01*
X160007975Y-66303339D01*
X160139038Y-66324099D01*
X160139045Y-66324099D01*
X160139048Y-66324100D01*
X160139051Y-66324100D01*
X160343749Y-66324100D01*
X160343752Y-66324100D01*
X160343755Y-66324099D01*
X160343761Y-66324099D01*
X160439270Y-66308971D01*
X160545934Y-66292077D01*
X160740619Y-66228820D01*
X160923010Y-66135887D01*
X161088619Y-66015566D01*
X161233366Y-65870819D01*
X161353687Y-65705210D01*
X161446620Y-65522819D01*
X161509877Y-65328134D01*
X161529502Y-65204228D01*
X161541899Y-65125961D01*
X161541900Y-65125949D01*
X161541900Y-65108661D01*
X167591400Y-65108661D01*
X167591400Y-65503599D01*
X167591401Y-65503600D01*
X168675714Y-65503600D01*
X168671320Y-65507994D01*
X168618659Y-65599206D01*
X168591400Y-65700939D01*
X168591400Y-65806261D01*
X168618659Y-65907994D01*
X168671320Y-65999206D01*
X168675714Y-66003600D01*
X167591401Y-66003600D01*
X167591400Y-66003601D01*
X167591400Y-66398538D01*
X167606522Y-66532742D01*
X167666060Y-66702894D01*
X167666065Y-66702903D01*
X167761974Y-66855544D01*
X167889455Y-66983025D01*
X168042096Y-67078934D01*
X168042105Y-67078939D01*
X168212257Y-67138477D01*
X168346461Y-67153599D01*
X168346474Y-67153600D01*
X168741399Y-67153600D01*
X168741400Y-67153599D01*
X168741400Y-66069286D01*
X168745794Y-66073680D01*
X168837006Y-66126341D01*
X168938739Y-66153600D01*
X169044061Y-66153600D01*
X169145794Y-66126341D01*
X169237006Y-66073680D01*
X169241400Y-66069286D01*
X169241400Y-67153599D01*
X169241401Y-67153600D01*
X169636326Y-67153600D01*
X169636338Y-67153599D01*
X169770542Y-67138477D01*
X169940694Y-67078939D01*
X169940703Y-67078934D01*
X170093344Y-66983025D01*
X170220825Y-66855544D01*
X170316734Y-66702903D01*
X170316739Y-66702894D01*
X170376277Y-66532742D01*
X170391399Y-66398538D01*
X170391400Y-66398525D01*
X170391400Y-66003601D01*
X170391399Y-66003600D01*
X169307086Y-66003600D01*
X169311480Y-65999206D01*
X169364141Y-65907994D01*
X169391400Y-65806261D01*
X169391400Y-65700939D01*
X169364141Y-65599206D01*
X169311480Y-65507994D01*
X169307086Y-65503600D01*
X170391399Y-65503600D01*
X170391400Y-65503599D01*
X170391400Y-65108674D01*
X170391399Y-65108661D01*
X170376277Y-64974457D01*
X170316739Y-64804305D01*
X170316734Y-64804296D01*
X170220825Y-64651655D01*
X170093344Y-64524174D01*
X169940703Y-64428265D01*
X169940694Y-64428260D01*
X169770542Y-64368722D01*
X169636338Y-64353600D01*
X169241401Y-64353600D01*
X169241400Y-64353601D01*
X169241400Y-65437914D01*
X169237006Y-65433520D01*
X169145794Y-65380859D01*
X169044061Y-65353600D01*
X168938739Y-65353600D01*
X168837006Y-65380859D01*
X168745794Y-65433520D01*
X168741400Y-65437914D01*
X168741400Y-64353601D01*
X168741399Y-64353600D01*
X168346461Y-64353600D01*
X168212257Y-64368722D01*
X168042105Y-64428260D01*
X168042096Y-64428265D01*
X167889455Y-64524174D01*
X167761974Y-64651655D01*
X167666065Y-64804296D01*
X167666060Y-64804305D01*
X167606522Y-64974457D01*
X167591400Y-65108661D01*
X161541900Y-65108661D01*
X161541900Y-64921250D01*
X161541899Y-64921238D01*
X161516195Y-64758955D01*
X161509877Y-64719066D01*
X161446620Y-64524381D01*
X161353687Y-64341990D01*
X161233366Y-64176381D01*
X161088619Y-64031634D01*
X160983201Y-63955044D01*
X160917254Y-63883703D01*
X160883627Y-63792553D01*
X160887441Y-63695473D01*
X160928115Y-63607242D01*
X160983202Y-63552155D01*
X161088619Y-63475566D01*
X161233366Y-63330819D01*
X161353687Y-63165210D01*
X161446620Y-62982819D01*
X161509877Y-62788134D01*
X161541900Y-62585952D01*
X161541900Y-62381248D01*
X161541899Y-62381245D01*
X161541899Y-62381238D01*
X161517471Y-62227013D01*
X161509877Y-62179066D01*
X161446620Y-61984381D01*
X161353687Y-61801990D01*
X161233366Y-61636381D01*
X161088619Y-61491634D01*
X160923010Y-61371313D01*
X160857669Y-61338020D01*
X160829277Y-61323553D01*
X160829271Y-61323550D01*
X160740619Y-61278380D01*
X160740616Y-61278379D01*
X160740614Y-61278378D01*
X160545931Y-61215122D01*
X160343761Y-61183100D01*
X160343752Y-61183100D01*
X160139048Y-61183100D01*
X160139038Y-61183100D01*
X159936868Y-61215122D01*
X159742185Y-61278378D01*
X159742175Y-61278382D01*
X159559792Y-61371311D01*
X159394179Y-61491635D01*
X159249435Y-61636379D01*
X159129111Y-61801992D01*
X159036182Y-61984375D01*
X159036178Y-61984385D01*
X158972922Y-62179068D01*
X158940900Y-62381238D01*
X141407422Y-62381238D01*
X140745031Y-61718847D01*
X135937951Y-56911766D01*
X135901637Y-56865673D01*
X135896571Y-56857396D01*
X135813815Y-56694978D01*
X135708262Y-56549697D01*
X135703116Y-56541287D01*
X135689669Y-56504772D01*
X135673380Y-56469437D01*
X135671827Y-56456320D01*
X135669543Y-56450117D01*
X135669933Y-56440319D01*
X135666500Y-56411310D01*
X135666500Y-53534182D01*
X144264500Y-53534182D01*
X144264500Y-53754617D01*
X144264501Y-53754632D01*
X144298982Y-53972338D01*
X144298984Y-53972345D01*
X144298985Y-53972351D01*
X144367105Y-54182006D01*
X144367106Y-54182007D01*
X144367109Y-54182016D01*
X144467179Y-54378413D01*
X144467183Y-54378419D01*
X144467185Y-54378422D01*
X144566947Y-54515733D01*
X144607620Y-54603962D01*
X144614500Y-54662089D01*
X144614500Y-59586310D01*
X144595546Y-59681598D01*
X144566946Y-59732667D01*
X144467188Y-59869973D01*
X144467179Y-59869986D01*
X144367109Y-60066383D01*
X144367105Y-60066392D01*
X144367105Y-60066394D01*
X144298985Y-60276049D01*
X144298984Y-60276052D01*
X144298984Y-60276054D01*
X144298982Y-60276061D01*
X144264501Y-60493767D01*
X144264500Y-60493782D01*
X144264500Y-60714217D01*
X144264501Y-60714232D01*
X144298982Y-60931938D01*
X144298984Y-60931945D01*
X144298985Y-60931951D01*
X144367105Y-61141606D01*
X144367106Y-61141607D01*
X144367109Y-61141616D01*
X144467179Y-61338013D01*
X144467183Y-61338019D01*
X144467185Y-61338022D01*
X144596758Y-61516365D01*
X144752635Y-61672242D01*
X144930978Y-61801815D01*
X144930981Y-61801816D01*
X144930986Y-61801820D01*
X145127383Y-61901890D01*
X145127386Y-61901891D01*
X145127394Y-61901895D01*
X145337049Y-61970015D01*
X145337060Y-61970016D01*
X145337061Y-61970017D01*
X145397640Y-61979611D01*
X145554778Y-62004500D01*
X145554782Y-62004500D01*
X145775218Y-62004500D01*
X145775222Y-62004500D01*
X145992951Y-61970015D01*
X146202606Y-61901895D01*
X146245832Y-61879870D01*
X146399013Y-61801820D01*
X146399015Y-61801818D01*
X146399022Y-61801815D01*
X146536333Y-61702052D01*
X146624562Y-61661380D01*
X146682689Y-61654500D01*
X147949311Y-61654500D01*
X148044599Y-61673454D01*
X148095664Y-61702051D01*
X148232978Y-61801815D01*
X148232981Y-61801816D01*
X148232986Y-61801820D01*
X148429383Y-61901890D01*
X148429386Y-61901891D01*
X148429394Y-61901895D01*
X148639049Y-61970015D01*
X148639060Y-61970016D01*
X148639061Y-61970017D01*
X148699640Y-61979611D01*
X148856778Y-62004500D01*
X148856782Y-62004500D01*
X149077218Y-62004500D01*
X149077222Y-62004500D01*
X149294951Y-61970015D01*
X149504606Y-61901895D01*
X149547832Y-61879870D01*
X149701013Y-61801820D01*
X149701015Y-61801818D01*
X149701022Y-61801815D01*
X149879365Y-61672242D01*
X150035242Y-61516365D01*
X150164815Y-61338022D01*
X150169216Y-61329386D01*
X150264890Y-61141616D01*
X150264890Y-61141615D01*
X150264895Y-61141606D01*
X150275599Y-61108661D01*
X167591400Y-61108661D01*
X167591400Y-61503599D01*
X167591401Y-61503600D01*
X168675714Y-61503600D01*
X168671320Y-61507994D01*
X168618659Y-61599206D01*
X168591400Y-61700939D01*
X168591400Y-61806261D01*
X168618659Y-61907994D01*
X168671320Y-61999206D01*
X168675714Y-62003600D01*
X167591401Y-62003600D01*
X167591400Y-62003601D01*
X167591400Y-62398538D01*
X167606522Y-62532742D01*
X167666060Y-62702894D01*
X167666065Y-62702903D01*
X167761974Y-62855544D01*
X167889455Y-62983025D01*
X168042096Y-63078934D01*
X168042105Y-63078939D01*
X168212257Y-63138477D01*
X168346461Y-63153599D01*
X168346474Y-63153600D01*
X168741399Y-63153600D01*
X168741400Y-63153599D01*
X168741400Y-62069286D01*
X168745794Y-62073680D01*
X168837006Y-62126341D01*
X168938739Y-62153600D01*
X169044061Y-62153600D01*
X169145794Y-62126341D01*
X169237006Y-62073680D01*
X169241400Y-62069286D01*
X169241400Y-63153599D01*
X169241401Y-63153600D01*
X169636326Y-63153600D01*
X169636338Y-63153599D01*
X169770542Y-63138477D01*
X169940694Y-63078939D01*
X169940703Y-63078934D01*
X170093344Y-62983025D01*
X170220825Y-62855544D01*
X170316734Y-62702903D01*
X170316739Y-62702894D01*
X170376277Y-62532742D01*
X170391399Y-62398538D01*
X170391400Y-62398525D01*
X170391400Y-62003601D01*
X170391399Y-62003600D01*
X169307086Y-62003600D01*
X169311480Y-61999206D01*
X169364141Y-61907994D01*
X169391400Y-61806261D01*
X169391400Y-61700939D01*
X169364141Y-61599206D01*
X169311480Y-61507994D01*
X169307086Y-61503600D01*
X170391399Y-61503600D01*
X170391400Y-61503599D01*
X170391400Y-61108674D01*
X170391399Y-61108661D01*
X170376277Y-60974457D01*
X170316739Y-60804305D01*
X170316734Y-60804296D01*
X170220825Y-60651655D01*
X170093344Y-60524174D01*
X169940703Y-60428265D01*
X169940694Y-60428260D01*
X169770542Y-60368722D01*
X169636338Y-60353600D01*
X169241401Y-60353600D01*
X169241400Y-60353601D01*
X169241400Y-61437914D01*
X169237006Y-61433520D01*
X169145794Y-61380859D01*
X169044061Y-61353600D01*
X168938739Y-61353600D01*
X168837006Y-61380859D01*
X168745794Y-61433520D01*
X168741400Y-61437914D01*
X168741400Y-60353601D01*
X168741399Y-60353600D01*
X168346461Y-60353600D01*
X168212257Y-60368722D01*
X168042105Y-60428260D01*
X168042096Y-60428265D01*
X167889455Y-60524174D01*
X167761974Y-60651655D01*
X167666065Y-60804296D01*
X167666060Y-60804305D01*
X167606522Y-60974457D01*
X167591400Y-61108661D01*
X150275599Y-61108661D01*
X150333015Y-60931951D01*
X150367500Y-60714222D01*
X150367500Y-60493778D01*
X150336045Y-60295179D01*
X150333017Y-60276061D01*
X150333016Y-60276060D01*
X150333015Y-60276049D01*
X150264895Y-60066394D01*
X150264891Y-60066386D01*
X150264890Y-60066383D01*
X150164820Y-59869986D01*
X150164816Y-59869981D01*
X150164815Y-59869978D01*
X150035242Y-59691635D01*
X149879365Y-59535758D01*
X149701022Y-59406185D01*
X149701019Y-59406183D01*
X149701013Y-59406179D01*
X149504616Y-59306109D01*
X149504609Y-59306106D01*
X149504606Y-59306105D01*
X149294951Y-59237985D01*
X149294945Y-59237984D01*
X149294938Y-59237982D01*
X149077232Y-59203501D01*
X149077225Y-59203500D01*
X149077222Y-59203500D01*
X148856778Y-59203500D01*
X148856775Y-59203500D01*
X148856767Y-59203501D01*
X148639061Y-59237982D01*
X148639054Y-59237984D01*
X148639052Y-59237984D01*
X148639049Y-59237985D01*
X148429394Y-59306105D01*
X148429392Y-59306105D01*
X148429392Y-59306106D01*
X148429383Y-59306109D01*
X148232986Y-59406179D01*
X148232979Y-59406184D01*
X148232978Y-59406185D01*
X148095666Y-59505947D01*
X148007438Y-59546620D01*
X147949311Y-59553500D01*
X146964500Y-59553500D01*
X146869212Y-59534546D01*
X146788430Y-59480570D01*
X146734454Y-59399788D01*
X146715500Y-59304500D01*
X146715500Y-54662089D01*
X146734454Y-54566801D01*
X146763051Y-54515735D01*
X146862815Y-54378422D01*
X146888121Y-54328758D01*
X146962890Y-54182016D01*
X146962890Y-54182015D01*
X146962895Y-54182006D01*
X147031015Y-53972351D01*
X147065500Y-53754622D01*
X147065500Y-53534178D01*
X147031015Y-53316449D01*
X146962895Y-53106794D01*
X146962891Y-53106786D01*
X146962890Y-53106783D01*
X146862820Y-52910386D01*
X146862816Y-52910381D01*
X146862815Y-52910378D01*
X146733242Y-52732035D01*
X146577365Y-52576158D01*
X146399022Y-52446585D01*
X146399019Y-52446583D01*
X146399013Y-52446579D01*
X146202616Y-52346509D01*
X146202609Y-52346506D01*
X146202606Y-52346505D01*
X145992951Y-52278385D01*
X145992945Y-52278384D01*
X145992938Y-52278382D01*
X145775232Y-52243901D01*
X145775225Y-52243900D01*
X145775222Y-52243900D01*
X145554778Y-52243900D01*
X145554775Y-52243900D01*
X145554767Y-52243901D01*
X145337061Y-52278382D01*
X145337054Y-52278384D01*
X145337052Y-52278384D01*
X145337049Y-52278385D01*
X145127394Y-52346505D01*
X145127392Y-52346505D01*
X145127392Y-52346506D01*
X145127383Y-52346509D01*
X144930986Y-52446579D01*
X144930979Y-52446584D01*
X144752633Y-52576159D01*
X144596759Y-52732033D01*
X144467184Y-52910379D01*
X144467179Y-52910386D01*
X144367109Y-53106783D01*
X144367105Y-53106792D01*
X144367105Y-53106794D01*
X144298985Y-53316449D01*
X144298984Y-53316452D01*
X144298984Y-53316454D01*
X144298982Y-53316461D01*
X144264501Y-53534167D01*
X144264500Y-53534182D01*
X135666500Y-53534182D01*
X135666500Y-50572689D01*
X135685454Y-50477401D01*
X135714051Y-50426335D01*
X135813815Y-50289022D01*
X135892134Y-50135315D01*
X135913890Y-50092616D01*
X135913890Y-50092615D01*
X135913895Y-50092606D01*
X135982015Y-49882951D01*
X136016500Y-49665222D01*
X136016500Y-49444778D01*
X135982015Y-49227049D01*
X135913895Y-49017394D01*
X135913891Y-49017386D01*
X135913890Y-49017383D01*
X135813820Y-48820986D01*
X135813816Y-48820981D01*
X135813815Y-48820978D01*
X135684242Y-48642635D01*
X135528365Y-48486758D01*
X135350022Y-48357185D01*
X135350019Y-48357183D01*
X135350013Y-48357179D01*
X135153616Y-48257109D01*
X135153609Y-48257106D01*
X135153606Y-48257105D01*
X134943951Y-48188985D01*
X134943945Y-48188984D01*
X134943938Y-48188982D01*
X134726232Y-48154501D01*
X134726225Y-48154500D01*
X134726222Y-48154500D01*
X134505778Y-48154500D01*
X134505775Y-48154500D01*
X134505767Y-48154501D01*
X134288061Y-48188982D01*
X134288054Y-48188984D01*
X134288052Y-48188984D01*
X134288049Y-48188985D01*
X134078394Y-48257105D01*
X134078392Y-48257105D01*
X134078392Y-48257106D01*
X134078383Y-48257109D01*
X133881986Y-48357179D01*
X133881979Y-48357184D01*
X133703633Y-48486759D01*
X133547759Y-48642633D01*
X133418184Y-48820979D01*
X133418179Y-48820986D01*
X133318109Y-49017383D01*
X133318105Y-49017392D01*
X133318105Y-49017394D01*
X133249985Y-49227049D01*
X133249984Y-49227052D01*
X133249984Y-49227054D01*
X133249982Y-49227061D01*
X133215501Y-49444767D01*
X133215500Y-49444782D01*
X133215500Y-49665217D01*
X133215501Y-49665232D01*
X133249982Y-49882938D01*
X133249984Y-49882945D01*
X133249985Y-49882951D01*
X133318105Y-50092606D01*
X133318106Y-50092607D01*
X133318109Y-50092616D01*
X133418179Y-50289013D01*
X133418183Y-50289019D01*
X133418185Y-50289022D01*
X133517947Y-50426333D01*
X133558620Y-50514562D01*
X133565500Y-50572689D01*
X133565500Y-55955700D01*
X133546546Y-56050988D01*
X133492570Y-56131770D01*
X133411788Y-56185746D01*
X133316500Y-56204700D01*
X128716896Y-56204700D01*
X128621608Y-56185746D01*
X128540826Y-56131770D01*
X128486850Y-56050988D01*
X128467896Y-55955700D01*
X128486850Y-55860412D01*
X128495037Y-55842654D01*
X128512890Y-55807615D01*
X128512895Y-55807606D01*
X128581015Y-55597951D01*
X128615500Y-55380222D01*
X128615500Y-55159778D01*
X128581015Y-54942049D01*
X128512895Y-54732394D01*
X128512891Y-54732386D01*
X128512890Y-54732383D01*
X128412820Y-54535986D01*
X128412816Y-54535981D01*
X128412815Y-54535978D01*
X128283242Y-54357635D01*
X128127365Y-54201758D01*
X127949022Y-54072185D01*
X127949019Y-54072183D01*
X127949013Y-54072179D01*
X127752616Y-53972109D01*
X127752609Y-53972106D01*
X127752606Y-53972105D01*
X127542951Y-53903985D01*
X127542945Y-53903984D01*
X127542938Y-53903982D01*
X127325232Y-53869501D01*
X127325225Y-53869500D01*
X127325222Y-53869500D01*
X127104778Y-53869500D01*
X127104775Y-53869500D01*
X127104767Y-53869501D01*
X126887061Y-53903982D01*
X126887054Y-53903984D01*
X126887052Y-53903984D01*
X126887049Y-53903985D01*
X126677394Y-53972105D01*
X126677392Y-53972105D01*
X126677392Y-53972106D01*
X126677383Y-53972109D01*
X126480986Y-54072179D01*
X126480979Y-54072184D01*
X126480978Y-54072185D01*
X126343666Y-54171947D01*
X126255438Y-54212620D01*
X126197311Y-54219500D01*
X122587672Y-54219500D01*
X122492384Y-54200546D01*
X122474627Y-54192360D01*
X122454308Y-54182007D01*
X122432262Y-54170773D01*
X122291611Y-54099107D01*
X122291608Y-54099106D01*
X122291606Y-54099105D01*
X122081951Y-54030985D01*
X122081945Y-54030984D01*
X122081938Y-54030982D01*
X121864232Y-53996501D01*
X121864225Y-53996500D01*
X121864222Y-53996500D01*
X121643778Y-53996500D01*
X121643775Y-53996500D01*
X121643767Y-53996501D01*
X121426061Y-54030982D01*
X121426054Y-54030984D01*
X121426052Y-54030984D01*
X121426049Y-54030985D01*
X121216394Y-54099105D01*
X121216392Y-54099105D01*
X121216392Y-54099106D01*
X121216383Y-54099109D01*
X121019986Y-54199179D01*
X121019979Y-54199184D01*
X120841633Y-54328759D01*
X120685759Y-54484633D01*
X120556184Y-54662979D01*
X120556179Y-54662986D01*
X120456109Y-54859383D01*
X120456105Y-54859392D01*
X120456105Y-54859394D01*
X120387985Y-55069049D01*
X120387984Y-55069052D01*
X120387984Y-55069054D01*
X120387982Y-55069061D01*
X120353501Y-55286767D01*
X120353500Y-55286782D01*
X120353500Y-55507217D01*
X120353501Y-55507232D01*
X120387982Y-55724938D01*
X120387984Y-55724946D01*
X120387985Y-55724951D01*
X120431998Y-55860412D01*
X120437959Y-55878757D01*
X120449377Y-55975238D01*
X120423005Y-56068745D01*
X120362856Y-56145042D01*
X120278088Y-56192514D01*
X120201145Y-56204700D01*
X108911825Y-56204700D01*
X108834881Y-56192513D01*
X108803648Y-56182365D01*
X108670760Y-56139187D01*
X108670742Y-56139183D01*
X108453032Y-56104701D01*
X108453025Y-56104700D01*
X108453022Y-56104700D01*
X108232578Y-56104700D01*
X108232575Y-56104700D01*
X108232567Y-56104701D01*
X108014861Y-56139182D01*
X108014854Y-56139184D01*
X108014852Y-56139184D01*
X108014849Y-56139185D01*
X107805194Y-56207305D01*
X107805192Y-56207305D01*
X107805192Y-56207306D01*
X107805183Y-56207309D01*
X107608786Y-56307379D01*
X107608779Y-56307384D01*
X107430433Y-56436959D01*
X107274559Y-56592833D01*
X107144984Y-56771179D01*
X107144979Y-56771186D01*
X107044909Y-56967583D01*
X107044905Y-56967592D01*
X107044905Y-56967594D01*
X106976785Y-57177249D01*
X106976784Y-57177252D01*
X106976784Y-57177254D01*
X106976782Y-57177261D01*
X106942301Y-57394967D01*
X106942300Y-57394982D01*
X106942300Y-57615417D01*
X106942301Y-57615432D01*
X106976782Y-57833138D01*
X106976784Y-57833145D01*
X106976785Y-57833151D01*
X107044905Y-58042806D01*
X107044906Y-58042807D01*
X107044909Y-58042816D01*
X107144979Y-58239213D01*
X107144983Y-58239218D01*
X107144985Y-58239222D01*
X107166724Y-58269143D01*
X107207398Y-58357371D01*
X107211213Y-58454451D01*
X107177586Y-58545601D01*
X107111637Y-58616945D01*
X107023407Y-58657620D01*
X106965278Y-58664500D01*
X104789535Y-58664500D01*
X104688057Y-58684685D01*
X104586578Y-58704870D01*
X104395406Y-58784056D01*
X104395396Y-58784062D01*
X104223350Y-58899018D01*
X104223343Y-58899024D01*
X104077022Y-59045344D01*
X104077023Y-59045345D01*
X104077020Y-59045348D01*
X103847348Y-59275020D01*
X103847345Y-59275023D01*
X103847344Y-59275022D01*
X103701024Y-59421343D01*
X103701018Y-59421350D01*
X103586062Y-59593396D01*
X103586056Y-59593406D01*
X103506869Y-59784580D01*
X103506868Y-59784583D01*
X103468817Y-59975881D01*
X103431638Y-60065640D01*
X103362938Y-60134339D01*
X103273179Y-60171519D01*
X103176024Y-60171518D01*
X103086265Y-60134339D01*
X103060124Y-60112886D01*
X103059667Y-60113422D01*
X103052233Y-60107073D01*
X103052229Y-60107069D01*
X102842051Y-59954366D01*
X102842052Y-59954366D01*
X102842050Y-59954365D01*
X102610577Y-59836423D01*
X102610567Y-59836419D01*
X102363493Y-59756140D01*
X102363487Y-59756138D01*
X102106908Y-59715501D01*
X102106899Y-59715500D01*
X102106897Y-59715500D01*
X101847103Y-59715500D01*
X101847100Y-59715500D01*
X101847091Y-59715501D01*
X101590512Y-59756138D01*
X101590506Y-59756140D01*
X101343432Y-59836419D01*
X101343422Y-59836423D01*
X101111949Y-59954365D01*
X100901774Y-60107066D01*
X100901771Y-60107068D01*
X100901771Y-60107069D01*
X100771267Y-60237572D01*
X100690489Y-60291546D01*
X100595201Y-60310500D01*
X100497524Y-60310500D01*
X100497504Y-60310499D01*
X100485216Y-60310499D01*
X100278285Y-60310499D01*
X100278282Y-60310499D01*
X100123390Y-60341310D01*
X100123388Y-60341310D01*
X100109214Y-60344130D01*
X100075330Y-60350870D01*
X100019407Y-60374034D01*
X100010156Y-60377865D01*
X100010146Y-60377869D01*
X99884153Y-60430057D01*
X99884150Y-60430058D01*
X99712096Y-60545022D01*
X99712094Y-60545023D01*
X98857096Y-61400020D01*
X98857097Y-61400021D01*
X98857095Y-61400023D01*
X98857094Y-61400022D01*
X98710774Y-61546343D01*
X98710768Y-61546350D01*
X98595812Y-61718396D01*
X98595806Y-61718406D01*
X98516620Y-61909578D01*
X98497918Y-62003600D01*
X98476250Y-62112535D01*
X90270500Y-62112535D01*
X90270500Y-48827282D01*
X120896500Y-48827282D01*
X120896500Y-49047717D01*
X120896501Y-49047732D01*
X120930982Y-49265438D01*
X120930984Y-49265445D01*
X120930985Y-49265451D01*
X120999105Y-49475106D01*
X120999106Y-49475107D01*
X120999109Y-49475116D01*
X121099179Y-49671513D01*
X121099183Y-49671519D01*
X121099185Y-49671522D01*
X121228758Y-49849865D01*
X121384635Y-50005742D01*
X121562978Y-50135315D01*
X121562981Y-50135316D01*
X121562986Y-50135320D01*
X121759383Y-50235390D01*
X121759386Y-50235391D01*
X121759394Y-50235395D01*
X121969049Y-50303515D01*
X121969060Y-50303516D01*
X121969061Y-50303517D01*
X122029640Y-50313111D01*
X122186778Y-50338000D01*
X122186782Y-50338000D01*
X122407218Y-50338000D01*
X122407222Y-50338000D01*
X122624951Y-50303515D01*
X122834606Y-50235395D01*
X122834616Y-50235390D01*
X123031013Y-50135320D01*
X123031015Y-50135318D01*
X123031022Y-50135315D01*
X123168333Y-50035552D01*
X123256562Y-49994880D01*
X123314689Y-49988000D01*
X124951229Y-49988000D01*
X125046517Y-50006954D01*
X125127299Y-50060930D01*
X127057570Y-51991201D01*
X127111546Y-52071983D01*
X127127434Y-52128319D01*
X127153982Y-52295938D01*
X127153984Y-52295945D01*
X127153985Y-52295951D01*
X127222105Y-52505606D01*
X127222106Y-52505607D01*
X127222109Y-52505616D01*
X127322179Y-52702013D01*
X127322183Y-52702019D01*
X127322185Y-52702022D01*
X127451758Y-52880365D01*
X127607635Y-53036242D01*
X127785978Y-53165815D01*
X127785981Y-53165816D01*
X127785986Y-53165820D01*
X127982383Y-53265890D01*
X127982386Y-53265891D01*
X127982394Y-53265895D01*
X128192049Y-53334015D01*
X128192060Y-53334016D01*
X128192061Y-53334017D01*
X128252640Y-53343611D01*
X128409778Y-53368500D01*
X128409782Y-53368500D01*
X128630218Y-53368500D01*
X128630222Y-53368500D01*
X128847951Y-53334015D01*
X129057606Y-53265895D01*
X129057616Y-53265890D01*
X129254013Y-53165820D01*
X129254015Y-53165818D01*
X129254022Y-53165815D01*
X129432365Y-53036242D01*
X129588242Y-52880365D01*
X129717815Y-52702022D01*
X129817895Y-52505606D01*
X129886015Y-52295951D01*
X129920500Y-52078222D01*
X129920500Y-51857778D01*
X129886015Y-51640049D01*
X129817895Y-51430394D01*
X129817891Y-51430386D01*
X129817890Y-51430383D01*
X129717820Y-51233986D01*
X129717816Y-51233981D01*
X129717815Y-51233978D01*
X129588242Y-51055635D01*
X129432365Y-50899758D01*
X129254022Y-50770185D01*
X129254019Y-50770183D01*
X129254013Y-50770179D01*
X129057616Y-50670109D01*
X129057609Y-50670106D01*
X129057606Y-50670105D01*
X128847951Y-50601985D01*
X128847945Y-50601984D01*
X128847938Y-50601982D01*
X128680319Y-50575434D01*
X128589169Y-50541807D01*
X128543201Y-50505570D01*
X126305479Y-48267848D01*
X126305477Y-48267845D01*
X126159155Y-48121523D01*
X126159151Y-48121520D01*
X126159149Y-48121518D01*
X125987103Y-48006562D01*
X125987093Y-48006556D01*
X125795921Y-47927370D01*
X125728268Y-47913913D01*
X125592965Y-47887000D01*
X125592963Y-47887000D01*
X123314689Y-47887000D01*
X123219401Y-47868046D01*
X123168335Y-47839448D01*
X123031022Y-47739685D01*
X123031019Y-47739683D01*
X123031013Y-47739679D01*
X122834616Y-47639609D01*
X122834609Y-47639606D01*
X122834606Y-47639605D01*
X122624951Y-47571485D01*
X122624945Y-47571484D01*
X122624938Y-47571482D01*
X122407232Y-47537001D01*
X122407225Y-47537000D01*
X122407222Y-47537000D01*
X122186778Y-47537000D01*
X122186775Y-47537000D01*
X122186767Y-47537001D01*
X121969061Y-47571482D01*
X121969054Y-47571484D01*
X121969052Y-47571484D01*
X121969049Y-47571485D01*
X121759394Y-47639605D01*
X121759392Y-47639605D01*
X121759392Y-47639606D01*
X121759383Y-47639609D01*
X121562986Y-47739679D01*
X121562979Y-47739684D01*
X121384633Y-47869259D01*
X121228759Y-48025133D01*
X121099184Y-48203479D01*
X121099179Y-48203486D01*
X120999109Y-48399883D01*
X120999105Y-48399892D01*
X120999105Y-48399894D01*
X120930985Y-48609549D01*
X120930984Y-48609552D01*
X120930984Y-48609554D01*
X120930982Y-48609561D01*
X120896501Y-48827267D01*
X120896500Y-48827282D01*
X90270500Y-48827282D01*
X90270500Y-42731493D01*
X97619500Y-42731493D01*
X97619500Y-43026506D01*
X97658006Y-43318988D01*
X97734360Y-43603950D01*
X97847253Y-43876499D01*
X97847255Y-43876503D01*
X97847257Y-43876507D01*
X97994762Y-44131994D01*
X98174354Y-44366042D01*
X98382958Y-44574646D01*
X98617006Y-44754238D01*
X98872493Y-44901743D01*
X99145048Y-45014639D01*
X99430007Y-45090993D01*
X99649372Y-45119873D01*
X99722493Y-45129500D01*
X99722494Y-45129500D01*
X100017507Y-45129500D01*
X100066253Y-45123082D01*
X100309993Y-45090993D01*
X100594952Y-45014639D01*
X100867507Y-44901743D01*
X101122994Y-44754238D01*
X101357042Y-44574646D01*
X101565646Y-44366042D01*
X101745238Y-44131994D01*
X101892743Y-43876507D01*
X102005639Y-43603952D01*
X102081993Y-43318993D01*
X102120500Y-43026506D01*
X102120500Y-42731494D01*
X102081993Y-42439007D01*
X102005639Y-42154048D01*
X101892743Y-41881493D01*
X101745238Y-41626006D01*
X101565646Y-41391958D01*
X101473688Y-41300000D01*
X106260000Y-41300000D01*
X106260000Y-43840000D01*
X107416782Y-43840000D01*
X107512070Y-43858954D01*
X107592852Y-43912930D01*
X107607640Y-43927718D01*
X107607640Y-43927719D01*
X107607641Y-43927719D01*
X110038831Y-43927719D01*
X110038832Y-43927719D01*
X110038832Y-43927717D01*
X110050400Y-43916149D01*
X110057786Y-43879019D01*
X110070000Y-43860739D01*
X110070000Y-42731493D01*
X171419500Y-42731493D01*
X171419500Y-43026506D01*
X171458006Y-43318988D01*
X171534360Y-43603950D01*
X171647253Y-43876499D01*
X171647255Y-43876503D01*
X171647257Y-43876507D01*
X171794762Y-44131994D01*
X171974354Y-44366042D01*
X172182958Y-44574646D01*
X172417006Y-44754238D01*
X172672493Y-44901743D01*
X172945048Y-45014639D01*
X173230007Y-45090993D01*
X173449372Y-45119873D01*
X173522493Y-45129500D01*
X173522494Y-45129500D01*
X173817507Y-45129500D01*
X173866253Y-45123082D01*
X174109993Y-45090993D01*
X174394952Y-45014639D01*
X174667507Y-44901743D01*
X174922994Y-44754238D01*
X175157042Y-44574646D01*
X175365646Y-44366042D01*
X175545238Y-44131994D01*
X175692743Y-43876507D01*
X175805639Y-43603952D01*
X175881993Y-43318993D01*
X175920500Y-43026506D01*
X175920500Y-42731494D01*
X175881993Y-42439007D01*
X175805639Y-42154048D01*
X175692743Y-41881493D01*
X175545238Y-41626006D01*
X175365646Y-41391958D01*
X175157042Y-41183354D01*
X175157037Y-41183350D01*
X175157036Y-41183349D01*
X174922994Y-41003762D01*
X174922989Y-41003759D01*
X174854526Y-40964232D01*
X174667507Y-40856257D01*
X174667505Y-40856256D01*
X174667503Y-40856255D01*
X174667499Y-40856253D01*
X174394950Y-40743360D01*
X174271555Y-40710297D01*
X174109993Y-40667007D01*
X174109988Y-40667006D01*
X174109989Y-40667006D01*
X173817507Y-40628500D01*
X173817506Y-40628500D01*
X173522494Y-40628500D01*
X173522493Y-40628500D01*
X173230011Y-40667006D01*
X172945049Y-40743360D01*
X172672500Y-40856253D01*
X172672496Y-40856255D01*
X172417010Y-41003759D01*
X172417005Y-41003762D01*
X172182963Y-41183349D01*
X171974349Y-41391963D01*
X171794762Y-41626005D01*
X171794759Y-41626010D01*
X171647255Y-41881496D01*
X171647253Y-41881500D01*
X171534360Y-42154049D01*
X171458006Y-42439011D01*
X171419500Y-42731493D01*
X110070000Y-42731493D01*
X110070000Y-41279260D01*
X110057786Y-41260981D01*
X110038832Y-41165693D01*
X110038832Y-41115575D01*
X110038832Y-41115574D01*
X107607640Y-41115574D01*
X107591605Y-41131609D01*
X107588686Y-41146288D01*
X107534710Y-41227070D01*
X107453928Y-41281046D01*
X107358640Y-41300000D01*
X106260000Y-41300000D01*
X101473688Y-41300000D01*
X101357042Y-41183354D01*
X101357037Y-41183350D01*
X101357036Y-41183349D01*
X101122994Y-41003762D01*
X101122989Y-41003759D01*
X101054526Y-40964232D01*
X100867507Y-40856257D01*
X100867505Y-40856256D01*
X100867503Y-40856255D01*
X100867499Y-40856253D01*
X100594950Y-40743360D01*
X100471555Y-40710297D01*
X100309993Y-40667007D01*
X100309988Y-40667006D01*
X100309989Y-40667006D01*
X100017507Y-40628500D01*
X100017506Y-40628500D01*
X99722494Y-40628500D01*
X99722493Y-40628500D01*
X99430011Y-40667006D01*
X99145049Y-40743360D01*
X98872500Y-40856253D01*
X98872496Y-40856255D01*
X98617010Y-41003759D01*
X98617005Y-41003762D01*
X98382963Y-41183349D01*
X98174349Y-41391963D01*
X97994762Y-41626005D01*
X97994759Y-41626010D01*
X97847255Y-41881496D01*
X97847253Y-41881500D01*
X97734360Y-42154049D01*
X97658006Y-42439011D01*
X97619500Y-42731493D01*
X90270500Y-42731493D01*
X90270500Y-40737899D01*
X90271134Y-40720136D01*
X90277688Y-40628500D01*
X90284493Y-40533350D01*
X90289546Y-40498208D01*
X90327457Y-40323931D01*
X90337461Y-40289860D01*
X90399785Y-40122766D01*
X90414540Y-40090457D01*
X90472815Y-39983734D01*
X90500009Y-39933931D01*
X90519207Y-39904058D01*
X90626085Y-39761287D01*
X90649336Y-39734453D01*
X90775453Y-39608336D01*
X90802287Y-39585085D01*
X90945058Y-39478207D01*
X90974931Y-39459009D01*
X91131462Y-39373537D01*
X91163766Y-39358785D01*
X91330860Y-39296461D01*
X91364931Y-39286457D01*
X91539208Y-39248546D01*
X91574352Y-39243493D01*
X91736158Y-39231920D01*
X91761137Y-39230134D01*
X91778900Y-39229500D01*
X91835892Y-39229500D01*
X181704108Y-39229500D01*
X181761100Y-39229500D01*
X181778863Y-39230134D01*
G37*
%TD.AperFunction*%
%TD*%
D21*
X106770000Y-128729000D02*
X106770000Y-130729000D01*
X106770000Y-128729000D02*
G75*
G02*
X108770000Y-126729000I2000000J0D01*
G01*
X166770000Y-128729000D02*
X166770000Y-130729000D01*
X136770000Y-126729000D02*
X164770000Y-126729000D01*
X89770000Y-40729000D02*
X89770000Y-130729000D01*
X101620000Y-42879000D02*
G75*
G02*
X98120000Y-42879000I-1750000J0D01*
G01*
X98120000Y-42879000D02*
G75*
G02*
X101620000Y-42879000I1750000J0D01*
G01*
X178520000Y-128579000D02*
G75*
G02*
X175020000Y-128579000I-1750000J0D01*
G01*
X175020000Y-128579000D02*
G75*
G02*
X178520000Y-128579000I1750000J0D01*
G01*
X164770000Y-126729000D02*
G75*
G02*
X166770000Y-128729000I0J-2000000D01*
G01*
X89770000Y-40729000D02*
G75*
G02*
X91770000Y-38729000I2000000J0D01*
G01*
X175420000Y-42879000D02*
G75*
G02*
X171920000Y-42879000I-1750000J0D01*
G01*
X171920000Y-42879000D02*
G75*
G02*
X175420000Y-42879000I1750000J0D01*
G01*
X181770000Y-38729000D02*
X91770000Y-38729000D01*
X181770000Y-38729000D02*
G75*
G02*
X183770000Y-40729000I0J-2000000D01*
G01*
X168770000Y-132729000D02*
X181770000Y-132729000D01*
X91770000Y-132729000D02*
X104770000Y-132729000D01*
X168770000Y-132729000D02*
G75*
G02*
X166770000Y-130729000I0J2000000D01*
G01*
X106770000Y-130729000D02*
G75*
G02*
X104770000Y-132729000I-2000000J0D01*
G01*
X91770000Y-132729000D02*
G75*
G02*
X89770000Y-130729000I0J2000000D01*
G01*
X136770000Y-126729000D02*
X108770000Y-126729000D01*
X183770000Y-130729000D02*
X183770000Y-40729000D01*
X98520000Y-128579000D02*
G75*
G02*
X95020000Y-128579000I-1750000J0D01*
G01*
X95020000Y-128579000D02*
G75*
G02*
X98520000Y-128579000I1750000J0D01*
G01*
X183770000Y-130729000D02*
G75*
G02*
X181770000Y-132729000I-2000000J0D01*
G01*
M02*
