%TF.GenerationSoftware,KiCad,Pcbnew,9.0.7*%
%TF.CreationDate,2026-03-06T10:41:30+03:00*%
%TF.ProjectId,3axis-magnitometer,33617869-732d-46d6-9167-6e69746f6d65,rev?*%
%TF.SameCoordinates,Original*%
%TF.FileFunction,Copper,L2,Bot*%
%TF.FilePolarity,Positive*%
%FSLAX46Y46*%
G04 Gerber Fmt 4.6, Leading zero omitted, Abs format (unit mm)*
G04 Created by KiCad (PCBNEW 9.0.7) date 2026-03-06 10:41:30*
%MOMM*%
%LPD*%
G01*
G04 APERTURE LIST*
%ADD10C,0.200000*%
%TA.AperFunction,NonConductor*%
%ADD11C,0.200000*%
%TD*%
%TA.AperFunction,ComponentPad*%
%ADD12R,1.700000X1.700000*%
%TD*%
%TA.AperFunction,ComponentPad*%
%ADD13C,1.700000*%
%TD*%
%TA.AperFunction,ComponentPad*%
%ADD14C,1.000000*%
%TD*%
%TA.AperFunction,ComponentPad*%
%ADD15R,1.200000X1.200000*%
%TD*%
%TA.AperFunction,ViaPad*%
%ADD16C,1.200000*%
%TD*%
%TA.AperFunction,Conductor*%
%ADD17C,0.500000*%
%TD*%
%TA.AperFunction,Conductor*%
%ADD18C,0.300000*%
%TD*%
%TA.AperFunction,Conductor*%
%ADD19C,1.000000*%
%TD*%
%TA.AperFunction,Conductor*%
%ADD20C,0.400000*%
%TD*%
%TA.AperFunction,Profile*%
%ADD21C,0.100000*%
%TD*%
G04 APERTURE END LIST*
D10*
D11*
X109085713Y-42117457D02*
X109038094Y-42069838D01*
X109038094Y-42069838D02*
X108942856Y-42022219D01*
X108942856Y-42022219D02*
X108704761Y-42022219D01*
X108704761Y-42022219D02*
X108609523Y-42069838D01*
X108609523Y-42069838D02*
X108561904Y-42117457D01*
X108561904Y-42117457D02*
X108514285Y-42212695D01*
X108514285Y-42212695D02*
X108514285Y-42307933D01*
X108514285Y-42307933D02*
X108561904Y-42450790D01*
X108561904Y-42450790D02*
X109133332Y-43022219D01*
X109133332Y-43022219D02*
X108514285Y-43022219D01*
D12*
%TO.P,J3,1,MISO*%
%TO.N,/MISO*%
X101977000Y-63906000D03*
D13*
%TO.P,J3,2,VCC*%
%TO.N,Net-(J2-VREF)*%
X101977000Y-61366000D03*
%TO.P,J3,3,SCK*%
%TO.N,/SCK*%
X104517000Y-63906000D03*
%TO.P,J3,4,MOSI*%
%TO.N,/MOSI *%
X104517000Y-61366000D03*
%TO.P,J3,5,~{RST}*%
%TO.N,/mc/~{RESET}*%
X107057000Y-63906000D03*
%TO.P,J3,6,GND*%
%TO.N,GND*%
X107057000Y-61366000D03*
%TD*%
D12*
%TO.P,J1,1,Pin_1*%
%TO.N,+5V*%
X160870000Y-113690000D03*
D13*
%TO.P,J1,2,Pin_2*%
X160870000Y-116230000D03*
%TO.P,J1,3,Pin_3*%
%TO.N,unconnected-(J1-Pin_3-Pad3)*%
X158330000Y-113690000D03*
%TO.P,J1,4,Pin_4*%
%TO.N,unconnected-(J1-Pin_4-Pad4)*%
X158330000Y-116230000D03*
%TO.P,J1,5,Pin_5*%
%TO.N,unconnected-(J1-Pin_5-Pad5)*%
X155790000Y-113690000D03*
%TO.P,J1,6,Pin_6*%
%TO.N,unconnected-(J1-Pin_6-Pad6)*%
X155790000Y-116230000D03*
%TO.P,J1,7,Pin_7*%
%TO.N,unconnected-(J1-Pin_7-Pad7)*%
X153250000Y-113690000D03*
%TO.P,J1,8,Pin_8*%
%TO.N,unconnected-(J1-Pin_8-Pad8)*%
X153250000Y-116230000D03*
%TO.P,J1,9,Pin_9*%
%TO.N,unconnected-(J1-Pin_9-Pad9)*%
X150710000Y-113690000D03*
%TO.P,J1,10,Pin_10*%
%TO.N,unconnected-(J1-Pin_10-Pad10)*%
X150710000Y-116230000D03*
%TO.P,J1,11,Pin_11*%
%TO.N,unconnected-(J1-Pin_11-Pad11)*%
X148170000Y-113690000D03*
%TO.P,J1,12,Pin_12*%
%TO.N,unconnected-(J1-Pin_12-Pad12)*%
X148170000Y-116230000D03*
%TO.P,J1,13,Pin_13*%
%TO.N,unconnected-(J1-Pin_13-Pad13)*%
X145630000Y-113690000D03*
%TO.P,J1,14,Pin_14*%
%TO.N,unconnected-(J1-Pin_14-Pad14)*%
X145630000Y-116230000D03*
%TO.P,J1,15,Pin_15*%
%TO.N,unconnected-(J1-Pin_15-Pad15)*%
X143090000Y-113690000D03*
%TO.P,J1,16,Pin_16*%
%TO.N,unconnected-(J1-Pin_16-Pad16)*%
X143090000Y-116230000D03*
%TO.P,J1,17,Pin_17*%
%TO.N,unconnected-(J1-Pin_17-Pad17)*%
X140550000Y-113690000D03*
%TO.P,J1,18,Pin_18*%
%TO.N,unconnected-(J1-Pin_18-Pad18)*%
X140550000Y-116230000D03*
%TO.P,J1,19,Pin_19*%
%TO.N,/level_translator/RX0*%
X138010000Y-113690000D03*
%TO.P,J1,20,Pin_20*%
%TO.N,/level_translator/TX0*%
X138010000Y-116230000D03*
%TO.P,J1,21,Pin_21*%
%TO.N,/level_translator/RX1*%
X135470000Y-113690000D03*
%TO.P,J1,22,Pin_22*%
%TO.N,/level_translator/TX1*%
X135470000Y-116230000D03*
%TO.P,J1,23,Pin_23*%
%TO.N,/level_translator/485_1_A*%
X132930000Y-113690000D03*
%TO.P,J1,24,Pin_24*%
%TO.N,/level_translator/485_1_B*%
X132930000Y-116230000D03*
%TO.P,J1,25,Pin_25*%
%TO.N,/level_translator/485_2_A*%
X130390000Y-113690000D03*
%TO.P,J1,26,Pin_26*%
%TO.N,/level_translator/485_2_B*%
X130390000Y-116230000D03*
%TO.P,J1,27,Pin_27*%
%TO.N,unconnected-(J1-Pin_27-Pad27)*%
X127850000Y-113690000D03*
%TO.P,J1,28,Pin_28*%
%TO.N,unconnected-(J1-Pin_28-Pad28)*%
X127850000Y-116230000D03*
%TO.P,J1,29,Pin_29*%
%TO.N,unconnected-(J1-Pin_29-Pad29)*%
X125310000Y-113690000D03*
%TO.P,J1,30,Pin_30*%
%TO.N,unconnected-(J1-Pin_30-Pad30)*%
X125310000Y-116230000D03*
%TO.P,J1,31,Pin_31*%
%TO.N,unconnected-(J1-Pin_31-Pad31)*%
X122770000Y-113690000D03*
%TO.P,J1,32,Pin_32*%
%TO.N,unconnected-(J1-Pin_32-Pad32)*%
X122770000Y-116230000D03*
%TO.P,J1,33,Pin_33*%
%TO.N,unconnected-(J1-Pin_33-Pad33)*%
X120230000Y-113690000D03*
%TO.P,J1,34,Pin_34*%
%TO.N,unconnected-(J1-Pin_34-Pad34)*%
X120230000Y-116230000D03*
%TO.P,J1,35,Pin_35*%
%TO.N,unconnected-(J1-Pin_35-Pad35)*%
X117690000Y-113690000D03*
%TO.P,J1,36,Pin_36*%
%TO.N,unconnected-(J1-Pin_36-Pad36)*%
X117690000Y-116230000D03*
%TO.P,J1,37,Pin_37*%
%TO.N,unconnected-(J1-Pin_37-Pad37)*%
X115150000Y-113690000D03*
%TO.P,J1,38,Pin_38*%
%TO.N,unconnected-(J1-Pin_38-Pad38)*%
X115150000Y-116230000D03*
%TO.P,J1,39,Pin_39*%
%TO.N,GND*%
X112610000Y-113690000D03*
%TO.P,J1,40,Pin_40*%
X112610000Y-116230000D03*
%TD*%
D12*
%TO.P,J2,1,TCK*%
%TO.N,/mc/TCK*%
X140686600Y-78790400D03*
D13*
%TO.P,J2,2,GND*%
%TO.N,GND*%
X138146600Y-78790400D03*
%TO.P,J2,3,TDO*%
%TO.N,/mc/TDO*%
X140686600Y-76250400D03*
%TO.P,J2,4,VREF*%
%TO.N,Net-(J2-VREF)*%
X138146600Y-76250400D03*
%TO.P,J2,5,TMS*%
%TO.N,/mc/TMS*%
X140686600Y-73710400D03*
%TO.P,J2,6,~{SRST}*%
%TO.N,/mc/~{RESET}*%
X138146600Y-73710400D03*
%TO.P,J2,7,VCC*%
%TO.N,unconnected-(J2-VCC-Pad7)*%
X140686600Y-71170400D03*
%TO.P,J2,8,~{TRST}*%
%TO.N,unconnected-(J2-~{TRST}-Pad8)*%
X138146600Y-71170400D03*
%TO.P,J2,9,TDI*%
%TO.N,/mc/TDI*%
X140686600Y-68630400D03*
%TO.P,J2,10,GND*%
%TO.N,GND*%
X138146600Y-68630400D03*
%TD*%
D14*
%TO.P,Y1,1,1*%
%TO.N,Net-(U1-OSCI)*%
X160241400Y-65023600D03*
%TO.P,Y1,2,2*%
%TO.N,Net-(U1-OSCO)*%
X160241400Y-62483600D03*
D15*
%TO.P,Y1,3*%
%TO.N,GND*%
X168991400Y-65753600D03*
X168991400Y-61753600D03*
%TD*%
D16*
%TO.N,GND*%
X149186000Y-86004000D03*
X122459000Y-51968000D03*
X150456000Y-105054000D03*
X112391000Y-62763000D03*
X133219000Y-77766500D03*
X175221000Y-86512000D03*
X122043000Y-61510500D03*
X128774000Y-73702500D03*
X136613000Y-91592000D03*
X145665000Y-46761000D03*
X143217000Y-91592000D03*
X140296000Y-109499000D03*
X122043000Y-63669500D03*
X111375000Y-100990000D03*
X155028000Y-63906000D03*
X158888000Y-104673000D03*
X121611200Y-83641800D03*
X112137000Y-68478000D03*
X138045000Y-64160000D03*
X149694000Y-98450000D03*
X150964000Y-109118000D03*
X158365000Y-109880000D03*
X128520000Y-48920000D03*
X143125000Y-57810000D03*
X127213668Y-77531332D03*
X151472000Y-47904000D03*
X160539000Y-86512000D03*
X155205000Y-86512000D03*
X167474000Y-92862000D03*
X108327000Y-77495000D03*
X121662000Y-76242500D03*
X149094000Y-64160000D03*
X103755000Y-67462000D03*
X133219000Y-69240000D03*
X124320250Y-69774250D03*
X138518000Y-100990000D03*
X158330000Y-66700000D03*
X152996000Y-51206000D03*
X156729000Y-104673000D03*
X176110000Y-104673000D03*
X173824000Y-104673000D03*
X120900000Y-100990000D03*
X152615000Y-92735000D03*
X130136000Y-92608000D03*
X157476000Y-58953000D03*
X122043000Y-65828500D03*
X170141000Y-86512000D03*
X172681000Y-86512000D03*
X123313000Y-46761000D03*
X126326000Y-91846000D03*
X161047000Y-104673000D03*
X171665000Y-104673000D03*
X157872000Y-86512000D03*
X115566000Y-98323000D03*
X128993000Y-99974000D03*
%TO.N,Net-(J2-VREF)*%
X127215000Y-59334000D03*
X119671200Y-59334000D03*
X133311000Y-61493000D03*
X103755000Y-69277250D03*
X127215000Y-64795000D03*
X124837000Y-76225000D03*
%TO.N,Net-(U3-AVCC)*%
X133311000Y-63669500D03*
X135251000Y-69240000D03*
%TO.N,Net-(U4-VDD)*%
X149069717Y-53231217D03*
%TO.N,+3.3VA*%
X177507000Y-84480000D03*
X134616000Y-46761000D03*
X135301800Y-77876000D03*
X154664500Y-57192500D03*
%TO.N,+3.3V*%
X108342800Y-57505200D03*
X150999000Y-79746000D03*
X126326000Y-94132000D03*
X134616000Y-49555000D03*
X150964000Y-88671000D03*
X134616000Y-57429000D03*
%TO.N,/mc/TCK*%
X140686600Y-82787500D03*
%TO.N,/mc/~{RESET}*%
X122008000Y-70891000D03*
%TO.N,/SCK*%
X110740000Y-67335000D03*
%TO.N,/MOSI *%
X110105000Y-62890000D03*
X118360000Y-67335000D03*
%TO.N,/SCL*%
X122262000Y-55270000D03*
X147341400Y-61874000D03*
X127215000Y-55270000D03*
X147341400Y-55270000D03*
%TO.N,/SDA*%
X148967000Y-60604000D03*
X145665000Y-60604000D03*
X125437000Y-53644400D03*
X145665000Y-53644400D03*
%TO.N,Net-(U3-PA3)*%
X130425000Y-65938000D03*
X127215000Y-61510500D03*
%TO.N,+5V*%
X154520000Y-104673000D03*
%TO.N,Net-(U7-VCC)*%
X124710000Y-104596800D03*
X115566000Y-104622200D03*
X128033861Y-96164000D03*
X136613000Y-96164000D03*
X120763400Y-90068000D03*
X127885000Y-90068000D03*
X111375000Y-90068000D03*
%TO.N,Net-(U9-OE)*%
X142754000Y-96418000D03*
X146773000Y-94894000D03*
X136740000Y-105689000D03*
X152488000Y-97180000D03*
%TO.N,/level_translator/UART_RX0*%
X124710000Y-83997400D03*
X115185000Y-80416000D03*
%TO.N,/level_translator/UART_RX1*%
X115185000Y-85750000D03*
X117979000Y-85750000D03*
%TO.N,/level_translator/UART_TX1*%
X119630000Y-83210000D03*
X108161900Y-87616900D03*
%TO.N,Net-(JP1-B)*%
X145376000Y-98450000D03*
X145376000Y-91465000D03*
X119630000Y-85750000D03*
X144360000Y-87020000D03*
%TO.N,Net-(JP3-B)*%
X134454000Y-91608000D03*
X134454000Y-87528000D03*
X123134500Y-86258000D03*
X134454000Y-94767000D03*
%TO.N,/level_translator/TX1*%
X144106000Y-107467000D03*
%TO.N,/level_translator/TX0*%
X145376000Y-103784000D03*
%TO.N,Net-(JP4-B)*%
X131914000Y-87748000D03*
X113407000Y-85750000D03*
%TO.N,/level_translator/RX0*%
X138953893Y-107013893D03*
%TO.N,Net-(JP2-B)*%
X147027000Y-87020000D03*
X111311500Y-87718500D03*
%TO.N,Net-(U10-CS)*%
X128520000Y-51968000D03*
X122297000Y-48937500D03*
%TD*%
D17*
%TO.N,Net-(JP1-B)*%
X120247500Y-85132500D02*
X119630000Y-85750000D01*
X134090500Y-85132500D02*
X120247500Y-85132500D01*
X135978000Y-87020000D02*
X134090500Y-85132500D01*
X144360000Y-87020000D02*
X135978000Y-87020000D01*
%TO.N,/MOSI *%
X104893000Y-59715000D02*
X104517000Y-60091000D01*
X104517000Y-60091000D02*
X104517000Y-61366000D01*
X108708000Y-59715000D02*
X104893000Y-59715000D01*
X110105000Y-61112000D02*
X108708000Y-59715000D01*
X110105000Y-62890000D02*
X110105000Y-61112000D01*
%TO.N,Net-(J2-VREF)*%
X131152000Y-59334000D02*
X127215000Y-59334000D01*
D18*
X100707000Y-61361000D02*
X100712000Y-61366000D01*
D17*
X100381750Y-61361000D02*
X100707000Y-61361000D01*
X103755000Y-69277250D02*
X103286000Y-69277250D01*
X125945000Y-63525000D02*
X125945000Y-60604000D01*
X99526750Y-62216000D02*
X100381750Y-61361000D01*
X127215000Y-64795000D02*
X125945000Y-63525000D01*
X124837000Y-76225000D02*
X137519500Y-76225000D01*
X137519500Y-76225000D02*
X137537000Y-76242500D01*
X100712000Y-61366000D02*
X101977000Y-61366000D01*
X103286000Y-69277250D02*
X99526750Y-65518000D01*
X119671200Y-59334000D02*
X127215000Y-59334000D01*
X99526750Y-65518000D02*
X99526750Y-62216000D01*
X133311000Y-61493000D02*
X131152000Y-59334000D01*
X125945000Y-60604000D02*
X127215000Y-59334000D01*
%TO.N,Net-(U3-AVCC)*%
X133311000Y-63669500D02*
X135251000Y-65609500D01*
X135251000Y-65609500D02*
X135251000Y-69240000D01*
%TO.N,+3.3VA*%
X138264000Y-84480000D02*
X177507000Y-84480000D01*
X135251000Y-77926800D02*
X135251000Y-81467000D01*
X135301800Y-77876000D02*
X135251000Y-77926800D01*
X135251000Y-81467000D02*
X138264000Y-84480000D01*
D19*
%TO.N,+3.3V*%
X150999000Y-79746000D02*
X149278000Y-79746000D01*
X144776000Y-75244000D02*
X144776000Y-67589000D01*
X108342800Y-57505200D02*
X134539800Y-57505200D01*
D17*
X130263000Y-90195000D02*
X149440000Y-90195000D01*
X149440000Y-90195000D02*
X150964000Y-88671000D01*
X134616000Y-57429000D02*
X134616000Y-49555000D01*
D19*
X144776000Y-67589000D02*
X134616000Y-57429000D01*
D17*
X126326000Y-94132000D02*
X130263000Y-90195000D01*
D19*
X134539800Y-57505200D02*
X134616000Y-57429000D01*
X149278000Y-79746000D02*
X144776000Y-75244000D01*
D17*
%TO.N,/mc/TCK*%
X140686600Y-82727400D02*
X140686600Y-78790400D01*
X140686600Y-82787500D02*
X140686600Y-82727400D01*
%TO.N,/mc/~{RESET}*%
X134098400Y-73710400D02*
X138146600Y-73710400D01*
X122008000Y-70891000D02*
X131279000Y-70891000D01*
X131279000Y-70891000D02*
X134098400Y-73710400D01*
X138121200Y-73685000D02*
X138146600Y-73710400D01*
%TO.N,/SCK*%
X106681000Y-67335000D02*
X104517000Y-65171000D01*
X104517000Y-65171000D02*
X104517000Y-63906000D01*
X110740000Y-67335000D02*
X106681000Y-67335000D01*
%TO.N,/MOSI *%
X111629000Y-64414000D02*
X110105000Y-62890000D01*
X115439000Y-64414000D02*
X111629000Y-64414000D01*
X118360000Y-67335000D02*
X115439000Y-64414000D01*
%TO.N,/SCL*%
X122262000Y-55270000D02*
X127215000Y-55270000D01*
%TO.N,/SDA*%
X145665000Y-60604000D02*
X145665000Y-53644400D01*
X145665000Y-60604000D02*
X148967000Y-60604000D01*
%TO.N,Net-(U3-PA3)*%
X127215000Y-61510500D02*
X127232500Y-61510500D01*
X127232500Y-61510500D02*
X130425000Y-64703000D01*
X130425000Y-64703000D02*
X130425000Y-65938000D01*
%TO.N,Net-(U7-VCC)*%
X128033861Y-96164000D02*
X124675000Y-99522861D01*
X120763400Y-90068000D02*
X127885000Y-90068000D01*
X124675000Y-104561800D02*
X124710000Y-104596800D01*
X115566000Y-104622200D02*
X124684600Y-104622200D01*
X124684600Y-104622200D02*
X124710000Y-104596800D01*
X120763400Y-90068000D02*
X111375000Y-90068000D01*
X124675000Y-99522861D02*
X124675000Y-104561800D01*
X128033861Y-96164000D02*
X136613000Y-96164000D01*
D20*
%TO.N,Net-(U9-OE)*%
X142709000Y-96463000D02*
X142754000Y-96418000D01*
X136740000Y-105689000D02*
X142709000Y-99720000D01*
X149059000Y-97180000D02*
X152488000Y-97180000D01*
X142709000Y-99720000D02*
X142709000Y-96463000D01*
X146773000Y-94894000D02*
X149059000Y-97180000D01*
D17*
%TO.N,/level_translator/UART_RX0*%
X115185000Y-80416000D02*
X121128600Y-80416000D01*
X121128600Y-80416000D02*
X124710000Y-83997400D01*
%TO.N,/level_translator/UART_RX1*%
X117979000Y-85750000D02*
X115185000Y-85750000D01*
%TO.N,/level_translator/UART_TX1*%
X112568800Y-83210000D02*
X119630000Y-83210000D01*
X108161900Y-87616900D02*
X112568800Y-83210000D01*
D20*
%TO.N,Net-(JP1-B)*%
X145376000Y-98450000D02*
X145376000Y-91465000D01*
D17*
%TO.N,Net-(JP3-B)*%
X134454000Y-87528000D02*
X133184000Y-86258000D01*
X133184000Y-86258000D02*
X123134500Y-86258000D01*
X134454000Y-91608000D02*
X134454000Y-94767000D01*
D20*
%TO.N,/level_translator/TX0*%
X146646000Y-108937372D02*
X144687372Y-110896000D01*
X145376000Y-103784000D02*
X146646000Y-105054000D01*
X139280000Y-113171818D02*
X139280000Y-114960000D01*
X144687372Y-110896000D02*
X141574818Y-110896000D01*
X139299000Y-113171818D02*
X139280000Y-113171818D01*
X139280000Y-114960000D02*
X138010000Y-116230000D01*
X141574818Y-110896000D02*
X139299000Y-113171818D01*
X146646000Y-105054000D02*
X146646000Y-108937372D01*
D17*
%TO.N,Net-(JP4-B)*%
X131821000Y-87655000D02*
X115312000Y-87655000D01*
X131914000Y-87748000D02*
X131821000Y-87655000D01*
X115312000Y-87655000D02*
X113407000Y-85750000D01*
D20*
%TO.N,/level_translator/RX1*%
X135505000Y-113655000D02*
X135470000Y-113690000D01*
%TO.N,/level_translator/RX0*%
X138953893Y-107013893D02*
X138010000Y-107957786D01*
X138010000Y-107957786D02*
X138010000Y-113690000D01*
D17*
%TO.N,Net-(JP2-B)*%
X112391000Y-88798000D02*
X111311500Y-87718500D01*
X145249000Y-88798000D02*
X112391000Y-88798000D01*
X147027000Y-87020000D02*
X145249000Y-88798000D01*
%TO.N,Net-(U10-CS)*%
X125489500Y-48937500D02*
X128520000Y-51968000D01*
X122297000Y-48937500D02*
X125489500Y-48937500D01*
%TD*%
%TA.AperFunction,Conductor*%
%TO.N,GND*%
G36*
X113725270Y-114451717D02*
G01*
X113725270Y-114451716D01*
X113764622Y-114397555D01*
X113769232Y-114388507D01*
X113817205Y-114337709D01*
X113885025Y-114320912D01*
X113951161Y-114343447D01*
X113990204Y-114388504D01*
X113994949Y-114397817D01*
X114119890Y-114569786D01*
X114270213Y-114720109D01*
X114442182Y-114845050D01*
X114450946Y-114849516D01*
X114501742Y-114897491D01*
X114518536Y-114965312D01*
X114495998Y-115031447D01*
X114450946Y-115070484D01*
X114442182Y-115074949D01*
X114270213Y-115199890D01*
X114119890Y-115350213D01*
X113994949Y-115522182D01*
X113990202Y-115531499D01*
X113942227Y-115582293D01*
X113874405Y-115599087D01*
X113808271Y-115576548D01*
X113769234Y-115531495D01*
X113764626Y-115522452D01*
X113725270Y-115468282D01*
X113725269Y-115468282D01*
X113092962Y-116100590D01*
X113075925Y-116037007D01*
X113010099Y-115922993D01*
X112917007Y-115829901D01*
X112802993Y-115764075D01*
X112739409Y-115747037D01*
X113371716Y-115114728D01*
X113317550Y-115075375D01*
X113307954Y-115070486D01*
X113257157Y-115022512D01*
X113240361Y-114954692D01*
X113262897Y-114888556D01*
X113307954Y-114849514D01*
X113317554Y-114844622D01*
X113371716Y-114805270D01*
X113371717Y-114805270D01*
X112739408Y-114172962D01*
X112802993Y-114155925D01*
X112917007Y-114090099D01*
X113010099Y-113997007D01*
X113075925Y-113882993D01*
X113092962Y-113819409D01*
X113725270Y-114451717D01*
G37*
%TD.AperFunction*%
%TA.AperFunction,Conductor*%
G36*
X137007964Y-76995185D02*
G01*
X137041241Y-77026612D01*
X137068706Y-77064414D01*
X137116496Y-77130192D01*
X137266813Y-77280509D01*
X137438779Y-77405448D01*
X137438781Y-77405449D01*
X137438784Y-77405451D01*
X137448093Y-77410194D01*
X137498890Y-77458166D01*
X137515687Y-77525987D01*
X137493152Y-77592122D01*
X137448105Y-77631160D01*
X137439046Y-77635776D01*
X137439040Y-77635780D01*
X137384882Y-77675127D01*
X137384882Y-77675128D01*
X138017191Y-78307437D01*
X137953607Y-78324475D01*
X137839593Y-78390301D01*
X137746501Y-78483393D01*
X137680675Y-78597407D01*
X137663637Y-78660991D01*
X137031328Y-78028682D01*
X137031327Y-78028682D01*
X136991980Y-78082839D01*
X136895504Y-78272182D01*
X136829842Y-78474269D01*
X136829842Y-78474272D01*
X136796600Y-78684153D01*
X136796600Y-78896646D01*
X136829842Y-79106527D01*
X136829842Y-79106530D01*
X136895504Y-79308617D01*
X136991975Y-79497950D01*
X137031328Y-79552116D01*
X137663637Y-78919808D01*
X137680675Y-78983393D01*
X137746501Y-79097407D01*
X137839593Y-79190499D01*
X137953607Y-79256325D01*
X138017190Y-79273362D01*
X137384882Y-79905669D01*
X137384882Y-79905670D01*
X137439049Y-79945024D01*
X137628382Y-80041495D01*
X137830470Y-80107157D01*
X138040354Y-80140400D01*
X138252846Y-80140400D01*
X138462727Y-80107157D01*
X138462730Y-80107157D01*
X138664817Y-80041495D01*
X138854154Y-79945022D01*
X138908316Y-79905670D01*
X138908317Y-79905670D01*
X138276008Y-79273362D01*
X138339593Y-79256325D01*
X138453607Y-79190499D01*
X138546699Y-79097407D01*
X138612525Y-78983393D01*
X138629562Y-78919808D01*
X139299781Y-79590028D01*
X139333266Y-79651351D01*
X139336100Y-79677700D01*
X139336100Y-79688265D01*
X139336101Y-79688276D01*
X139342508Y-79747883D01*
X139392802Y-79882728D01*
X139392806Y-79882735D01*
X139479052Y-79997944D01*
X139479055Y-79997947D01*
X139594264Y-80084193D01*
X139594271Y-80084197D01*
X139639218Y-80100961D01*
X139729117Y-80134491D01*
X139788727Y-80140900D01*
X139812097Y-80140899D01*
X139879136Y-80160581D01*
X139924892Y-80213383D01*
X139936100Y-80264899D01*
X139936100Y-81930296D01*
X139916415Y-81997335D01*
X139899781Y-82017977D01*
X139847188Y-82070569D01*
X139847188Y-82070570D01*
X139847186Y-82070572D01*
X139818903Y-82109500D01*
X139745368Y-82210711D01*
X139666728Y-82365052D01*
X139613197Y-82529802D01*
X139596819Y-82633211D01*
X139586100Y-82700889D01*
X139586100Y-82874111D01*
X139594001Y-82923997D01*
X139602479Y-82977528D01*
X139613198Y-83045201D01*
X139666727Y-83209945D01*
X139745368Y-83364288D01*
X139847186Y-83504428D01*
X139847188Y-83504430D01*
X139860577Y-83517819D01*
X139894062Y-83579142D01*
X139889078Y-83648834D01*
X139847206Y-83704767D01*
X139781742Y-83729184D01*
X139772896Y-83729500D01*
X138626229Y-83729500D01*
X138559190Y-83709815D01*
X138538548Y-83693181D01*
X136037819Y-81192451D01*
X136004334Y-81131128D01*
X136001500Y-81104770D01*
X136001500Y-78784004D01*
X136010144Y-78754563D01*
X136016668Y-78724577D01*
X136020422Y-78719561D01*
X136021185Y-78716965D01*
X136037819Y-78696323D01*
X136088642Y-78645500D01*
X136141214Y-78592928D01*
X136243032Y-78452788D01*
X136321673Y-78298445D01*
X136375202Y-78133701D01*
X136402300Y-77962611D01*
X136402300Y-77789389D01*
X136375202Y-77618299D01*
X136321673Y-77453555D01*
X136243032Y-77299212D01*
X136150886Y-77172385D01*
X136127407Y-77106579D01*
X136143232Y-77038525D01*
X136193338Y-76989830D01*
X136251205Y-76975500D01*
X136940925Y-76975500D01*
X137007964Y-76995185D01*
G37*
%TD.AperFunction*%
%TA.AperFunction,Conductor*%
G36*
X139433826Y-76885924D02*
G01*
X139446410Y-76885385D01*
X139466274Y-76896981D01*
X139488044Y-76904399D01*
X139497319Y-76915103D01*
X139506751Y-76920609D01*
X139527086Y-76949456D01*
X139531551Y-76958220D01*
X139656490Y-77130186D01*
X139770030Y-77243726D01*
X139803515Y-77305049D01*
X139798531Y-77374741D01*
X139756659Y-77430674D01*
X139725683Y-77447589D01*
X139594269Y-77496603D01*
X139594264Y-77496606D01*
X139479055Y-77582852D01*
X139479052Y-77582855D01*
X139392806Y-77698064D01*
X139392802Y-77698071D01*
X139342508Y-77832917D01*
X139336101Y-77892516D01*
X139336101Y-77892523D01*
X139336100Y-77892535D01*
X139336100Y-77903090D01*
X139316415Y-77970129D01*
X139299781Y-77990771D01*
X138629562Y-78660990D01*
X138612525Y-78597407D01*
X138546699Y-78483393D01*
X138453607Y-78390301D01*
X138339593Y-78324475D01*
X138276009Y-78307437D01*
X138908316Y-77675128D01*
X138854147Y-77635773D01*
X138854147Y-77635772D01*
X138845100Y-77631163D01*
X138794306Y-77583188D01*
X138777512Y-77515366D01*
X138800051Y-77449232D01*
X138845108Y-77410193D01*
X138854416Y-77405451D01*
X138964460Y-77325500D01*
X139026386Y-77280509D01*
X139026388Y-77280506D01*
X139026392Y-77280504D01*
X139176704Y-77130192D01*
X139176706Y-77130188D01*
X139176709Y-77130186D01*
X139301648Y-76958220D01*
X139301647Y-76958220D01*
X139301651Y-76958216D01*
X139306114Y-76949454D01*
X139314760Y-76940300D01*
X139319497Y-76928632D01*
X139338296Y-76915379D01*
X139354088Y-76898659D01*
X139366310Y-76895631D01*
X139376604Y-76888376D01*
X139399585Y-76887391D01*
X139421908Y-76881863D01*
X139433826Y-76885924D01*
G37*
%TD.AperFunction*%
%TA.AperFunction,Conductor*%
G36*
X139261870Y-69392117D02*
G01*
X139261870Y-69392116D01*
X139301222Y-69337955D01*
X139305832Y-69328907D01*
X139353805Y-69278109D01*
X139421625Y-69261312D01*
X139487761Y-69283847D01*
X139526804Y-69328904D01*
X139531549Y-69338217D01*
X139656490Y-69510186D01*
X139806813Y-69660509D01*
X139978782Y-69785450D01*
X139987546Y-69789916D01*
X140038342Y-69837891D01*
X140055136Y-69905712D01*
X140032598Y-69971847D01*
X139987546Y-70010884D01*
X139978782Y-70015349D01*
X139806813Y-70140290D01*
X139656490Y-70290613D01*
X139531549Y-70462582D01*
X139527084Y-70471346D01*
X139479109Y-70522142D01*
X139411288Y-70538936D01*
X139345153Y-70516398D01*
X139306116Y-70471346D01*
X139301650Y-70462582D01*
X139176709Y-70290613D01*
X139026386Y-70140290D01*
X138854417Y-70015349D01*
X138845104Y-70010604D01*
X138794307Y-69962630D01*
X138777512Y-69894809D01*
X138800049Y-69828674D01*
X138845107Y-69789632D01*
X138854155Y-69785022D01*
X138908316Y-69745670D01*
X138908317Y-69745670D01*
X138276008Y-69113362D01*
X138339593Y-69096325D01*
X138453607Y-69030499D01*
X138546699Y-68937407D01*
X138612525Y-68823393D01*
X138629562Y-68759808D01*
X139261870Y-69392117D01*
G37*
%TD.AperFunction*%
%TA.AperFunction,Conductor*%
G36*
X106591075Y-61558993D02*
G01*
X106656901Y-61673007D01*
X106749993Y-61766099D01*
X106864007Y-61831925D01*
X106927590Y-61848962D01*
X106295282Y-62481269D01*
X106295282Y-62481270D01*
X106349452Y-62520626D01*
X106349451Y-62520626D01*
X106358495Y-62525234D01*
X106409292Y-62573208D01*
X106426087Y-62641029D01*
X106403550Y-62707164D01*
X106358499Y-62746202D01*
X106349182Y-62750949D01*
X106177213Y-62875890D01*
X106026890Y-63026213D01*
X105901949Y-63198182D01*
X105897484Y-63206946D01*
X105849509Y-63257742D01*
X105781688Y-63274536D01*
X105715553Y-63251998D01*
X105676516Y-63206946D01*
X105672050Y-63198182D01*
X105547109Y-63026213D01*
X105396786Y-62875890D01*
X105224820Y-62750951D01*
X105224115Y-62750591D01*
X105216054Y-62746485D01*
X105165259Y-62698512D01*
X105148463Y-62630692D01*
X105170999Y-62564556D01*
X105216054Y-62525515D01*
X105224816Y-62521051D01*
X105280051Y-62480921D01*
X105396786Y-62396109D01*
X105396788Y-62396106D01*
X105396792Y-62396104D01*
X105547104Y-62245792D01*
X105547106Y-62245788D01*
X105547109Y-62245786D01*
X105625335Y-62138115D01*
X105672051Y-62073816D01*
X105676793Y-62064508D01*
X105724763Y-62013711D01*
X105792583Y-61996911D01*
X105858719Y-62019445D01*
X105897763Y-62064500D01*
X105902373Y-62073547D01*
X105941728Y-62127716D01*
X106574036Y-61495407D01*
X106591075Y-61558993D01*
G37*
%TD.AperFunction*%
%TA.AperFunction,Conductor*%
G36*
X181774418Y-39229816D02*
G01*
X181974561Y-39244130D01*
X181992063Y-39246647D01*
X182183797Y-39288355D01*
X182200755Y-39293334D01*
X182384609Y-39361909D01*
X182400701Y-39369259D01*
X182572904Y-39463288D01*
X182587784Y-39472849D01*
X182744867Y-39590441D01*
X182758237Y-39602027D01*
X182896972Y-39740762D01*
X182908558Y-39754132D01*
X183026146Y-39911210D01*
X183035711Y-39926095D01*
X183129740Y-40098298D01*
X183137090Y-40114390D01*
X183205662Y-40298236D01*
X183210646Y-40315212D01*
X183252351Y-40506931D01*
X183254869Y-40524442D01*
X183269184Y-40724580D01*
X183269500Y-40733427D01*
X183269500Y-130724572D01*
X183269184Y-130733419D01*
X183254869Y-130933557D01*
X183252351Y-130951068D01*
X183210646Y-131142787D01*
X183205662Y-131159763D01*
X183137090Y-131343609D01*
X183129740Y-131359701D01*
X183035711Y-131531904D01*
X183026146Y-131546789D01*
X182908558Y-131703867D01*
X182896972Y-131717237D01*
X182758237Y-131855972D01*
X182744867Y-131867558D01*
X182587789Y-131985146D01*
X182572904Y-131994711D01*
X182400701Y-132088740D01*
X182384609Y-132096090D01*
X182200763Y-132164662D01*
X182183787Y-132169646D01*
X181992068Y-132211351D01*
X181974557Y-132213869D01*
X181793779Y-132226799D01*
X181774417Y-132228184D01*
X181765572Y-132228500D01*
X168774428Y-132228500D01*
X168765582Y-132228184D01*
X168743622Y-132226613D01*
X168565442Y-132213869D01*
X168547931Y-132211351D01*
X168356212Y-132169646D01*
X168339236Y-132164662D01*
X168155390Y-132096090D01*
X168139298Y-132088740D01*
X167967095Y-131994711D01*
X167952210Y-131985146D01*
X167795132Y-131867558D01*
X167781762Y-131855972D01*
X167643027Y-131717237D01*
X167631441Y-131703867D01*
X167513849Y-131546784D01*
X167504288Y-131531904D01*
X167410259Y-131359701D01*
X167402909Y-131343609D01*
X167342091Y-131180551D01*
X167334334Y-131159755D01*
X167329355Y-131142797D01*
X167287647Y-130951063D01*
X167285130Y-130933556D01*
X167270816Y-130733418D01*
X167270500Y-130724572D01*
X167270500Y-128577744D01*
X167254064Y-128442381D01*
X167252741Y-128431486D01*
X174519500Y-128431486D01*
X174519500Y-128726513D01*
X174538482Y-128870690D01*
X174558007Y-129018993D01*
X174558008Y-129018995D01*
X174634361Y-129303951D01*
X174634364Y-129303961D01*
X174747254Y-129576500D01*
X174747258Y-129576510D01*
X174894761Y-129831993D01*
X175074352Y-130066040D01*
X175074358Y-130066047D01*
X175282952Y-130274641D01*
X175282959Y-130274647D01*
X175517006Y-130454238D01*
X175772489Y-130601741D01*
X175772490Y-130601741D01*
X175772493Y-130601743D01*
X176045048Y-130714639D01*
X176330007Y-130790993D01*
X176622494Y-130829500D01*
X176622501Y-130829500D01*
X176917499Y-130829500D01*
X176917506Y-130829500D01*
X177209993Y-130790993D01*
X177494952Y-130714639D01*
X177767507Y-130601743D01*
X178022994Y-130454238D01*
X178257042Y-130274646D01*
X178465646Y-130066042D01*
X178645238Y-129831994D01*
X178792743Y-129576507D01*
X178905639Y-129303952D01*
X178981993Y-129018993D01*
X179020500Y-128726506D01*
X179020500Y-128431494D01*
X178981993Y-128139007D01*
X178905639Y-127854048D01*
X178792743Y-127581493D01*
X178726952Y-127467540D01*
X178645238Y-127326006D01*
X178465647Y-127091959D01*
X178465641Y-127091952D01*
X178257047Y-126883358D01*
X178257040Y-126883352D01*
X178022993Y-126703761D01*
X177767510Y-126556258D01*
X177767500Y-126556254D01*
X177494961Y-126443364D01*
X177494954Y-126443362D01*
X177494952Y-126443361D01*
X177209993Y-126367007D01*
X177161113Y-126360571D01*
X176917513Y-126328500D01*
X176917506Y-126328500D01*
X176622494Y-126328500D01*
X176622486Y-126328500D01*
X176344085Y-126365153D01*
X176330007Y-126367007D01*
X176045048Y-126443361D01*
X176045038Y-126443364D01*
X175772499Y-126556254D01*
X175772489Y-126556258D01*
X175517006Y-126703761D01*
X175282959Y-126883352D01*
X175282952Y-126883358D01*
X175074358Y-127091952D01*
X175074352Y-127091959D01*
X174894761Y-127326006D01*
X174747258Y-127581489D01*
X174747254Y-127581499D01*
X174634364Y-127854038D01*
X174634361Y-127854048D01*
X174566829Y-128106085D01*
X174558008Y-128139004D01*
X174558006Y-128139015D01*
X174519500Y-128431486D01*
X167252741Y-128431486D01*
X167247731Y-128390235D01*
X167234037Y-128277449D01*
X167161643Y-127983734D01*
X167161642Y-127983731D01*
X167161641Y-127983727D01*
X167054371Y-127700882D01*
X166913793Y-127433035D01*
X166913787Y-127433026D01*
X166741952Y-127184078D01*
X166741947Y-127184072D01*
X166541353Y-126957648D01*
X166541351Y-126957646D01*
X166314927Y-126757052D01*
X166314921Y-126757047D01*
X166065973Y-126585212D01*
X166065964Y-126585206D01*
X165798117Y-126444628D01*
X165515272Y-126337358D01*
X165399820Y-126308902D01*
X165221551Y-126264963D01*
X165041371Y-126243085D01*
X164921254Y-126228500D01*
X164921252Y-126228500D01*
X164835892Y-126228500D01*
X136835892Y-126228500D01*
X108835892Y-126228500D01*
X108770000Y-126228500D01*
X108618748Y-126228500D01*
X108618746Y-126228500D01*
X108468598Y-126246731D01*
X108318449Y-126264963D01*
X108199602Y-126294255D01*
X108024727Y-126337358D01*
X107741882Y-126444628D01*
X107474035Y-126585206D01*
X107474026Y-126585212D01*
X107225078Y-126757047D01*
X107225072Y-126757052D01*
X106998648Y-126957646D01*
X106998646Y-126957648D01*
X106798052Y-127184072D01*
X106798047Y-127184078D01*
X106626212Y-127433026D01*
X106626206Y-127433035D01*
X106485628Y-127700882D01*
X106378358Y-127983727D01*
X106340086Y-128139007D01*
X106305963Y-128277449D01*
X106291377Y-128397568D01*
X106269500Y-128577745D01*
X106269500Y-130724572D01*
X106269184Y-130733418D01*
X106269184Y-130733419D01*
X106254869Y-130933557D01*
X106252351Y-130951068D01*
X106210646Y-131142787D01*
X106205662Y-131159763D01*
X106137090Y-131343609D01*
X106129740Y-131359701D01*
X106035711Y-131531904D01*
X106026146Y-131546789D01*
X105908558Y-131703867D01*
X105896972Y-131717237D01*
X105758237Y-131855972D01*
X105744867Y-131867558D01*
X105587789Y-131985146D01*
X105572904Y-131994711D01*
X105400701Y-132088740D01*
X105384609Y-132096090D01*
X105200763Y-132164662D01*
X105183787Y-132169646D01*
X104992068Y-132211351D01*
X104974557Y-132213869D01*
X104793779Y-132226799D01*
X104774417Y-132228184D01*
X104765572Y-132228500D01*
X91774428Y-132228500D01*
X91765582Y-132228184D01*
X91743622Y-132226613D01*
X91565442Y-132213869D01*
X91547931Y-132211351D01*
X91356212Y-132169646D01*
X91339236Y-132164662D01*
X91155390Y-132096090D01*
X91139298Y-132088740D01*
X90967095Y-131994711D01*
X90952210Y-131985146D01*
X90795132Y-131867558D01*
X90781762Y-131855972D01*
X90643027Y-131717237D01*
X90631441Y-131703867D01*
X90513849Y-131546784D01*
X90504288Y-131531904D01*
X90410259Y-131359701D01*
X90402909Y-131343609D01*
X90342091Y-131180551D01*
X90334334Y-131159755D01*
X90329355Y-131142797D01*
X90287647Y-130951063D01*
X90285130Y-130933556D01*
X90270816Y-130733418D01*
X90270500Y-130724572D01*
X90270500Y-128431486D01*
X94519500Y-128431486D01*
X94519500Y-128726513D01*
X94538482Y-128870690D01*
X94558007Y-129018993D01*
X94558008Y-129018995D01*
X94634361Y-129303951D01*
X94634364Y-129303961D01*
X94747254Y-129576500D01*
X94747258Y-129576510D01*
X94894761Y-129831993D01*
X95074352Y-130066040D01*
X95074358Y-130066047D01*
X95282952Y-130274641D01*
X95282959Y-130274647D01*
X95517006Y-130454238D01*
X95772489Y-130601741D01*
X95772490Y-130601741D01*
X95772493Y-130601743D01*
X96045048Y-130714639D01*
X96330007Y-130790993D01*
X96622494Y-130829500D01*
X96622501Y-130829500D01*
X96917499Y-130829500D01*
X96917506Y-130829500D01*
X97209993Y-130790993D01*
X97494952Y-130714639D01*
X97767507Y-130601743D01*
X98022994Y-130454238D01*
X98257042Y-130274646D01*
X98465646Y-130066042D01*
X98645238Y-129831994D01*
X98792743Y-129576507D01*
X98905639Y-129303952D01*
X98981993Y-129018993D01*
X99020500Y-128726506D01*
X99020500Y-128431494D01*
X98981993Y-128139007D01*
X98905639Y-127854048D01*
X98792743Y-127581493D01*
X98726952Y-127467540D01*
X98645238Y-127326006D01*
X98465647Y-127091959D01*
X98465641Y-127091952D01*
X98257047Y-126883358D01*
X98257040Y-126883352D01*
X98022993Y-126703761D01*
X97767510Y-126556258D01*
X97767500Y-126556254D01*
X97494961Y-126443364D01*
X97494954Y-126443362D01*
X97494952Y-126443361D01*
X97209993Y-126367007D01*
X97161113Y-126360571D01*
X96917513Y-126328500D01*
X96917506Y-126328500D01*
X96622494Y-126328500D01*
X96622486Y-126328500D01*
X96344085Y-126365153D01*
X96330007Y-126367007D01*
X96045048Y-126443361D01*
X96045038Y-126443364D01*
X95772499Y-126556254D01*
X95772489Y-126556258D01*
X95517006Y-126703761D01*
X95282959Y-126883352D01*
X95282952Y-126883358D01*
X95074358Y-127091952D01*
X95074352Y-127091959D01*
X94894761Y-127326006D01*
X94747258Y-127581489D01*
X94747254Y-127581499D01*
X94634364Y-127854038D01*
X94634361Y-127854048D01*
X94566829Y-128106085D01*
X94558008Y-128139004D01*
X94558006Y-128139015D01*
X94519500Y-128431486D01*
X90270500Y-128431486D01*
X90270500Y-113583753D01*
X111260000Y-113583753D01*
X111260000Y-113796246D01*
X111293242Y-114006127D01*
X111293242Y-114006130D01*
X111358904Y-114208217D01*
X111455375Y-114397550D01*
X111494728Y-114451716D01*
X112127037Y-113819408D01*
X112144075Y-113882993D01*
X112209901Y-113997007D01*
X112302993Y-114090099D01*
X112417007Y-114155925D01*
X112480591Y-114172962D01*
X111879971Y-114773581D01*
X111958711Y-114890895D01*
X111959920Y-114894729D01*
X111962844Y-114897491D01*
X111970343Y-114927778D01*
X111979727Y-114957529D01*
X111978671Y-114961408D01*
X111979638Y-114965312D01*
X111969573Y-114994844D01*
X111961383Y-115024947D01*
X111958397Y-115027640D01*
X111957100Y-115031447D01*
X111912051Y-115070483D01*
X111902440Y-115075380D01*
X111848282Y-115114727D01*
X111848282Y-115114728D01*
X112480591Y-115747037D01*
X112417007Y-115764075D01*
X112302993Y-115829901D01*
X112209901Y-115922993D01*
X112144075Y-116037007D01*
X112127037Y-116100591D01*
X111494728Y-115468282D01*
X111494727Y-115468282D01*
X111455380Y-115522439D01*
X111358904Y-115711782D01*
X111293242Y-115913869D01*
X111293242Y-115913872D01*
X111260000Y-116123753D01*
X111260000Y-116336246D01*
X111293242Y-116546127D01*
X111293242Y-116546130D01*
X111358904Y-116748217D01*
X111455375Y-116937550D01*
X111494728Y-116991716D01*
X112127037Y-116359408D01*
X112144075Y-116422993D01*
X112209901Y-116537007D01*
X112302993Y-116630099D01*
X112417007Y-116695925D01*
X112480590Y-116712962D01*
X111848282Y-117345269D01*
X111848282Y-117345270D01*
X111902449Y-117384624D01*
X112091782Y-117481095D01*
X112293870Y-117546757D01*
X112503754Y-117580000D01*
X112716246Y-117580000D01*
X112926127Y-117546757D01*
X112926130Y-117546757D01*
X113128217Y-117481095D01*
X113317554Y-117384622D01*
X113371716Y-117345270D01*
X113371717Y-117345270D01*
X112739408Y-116712962D01*
X112802993Y-116695925D01*
X112917007Y-116630099D01*
X113010099Y-116537007D01*
X113075925Y-116422993D01*
X113092962Y-116359409D01*
X113725270Y-116991717D01*
X113725270Y-116991716D01*
X113764622Y-116937555D01*
X113769232Y-116928507D01*
X113817205Y-116877709D01*
X113885025Y-116860912D01*
X113951161Y-116883447D01*
X113990204Y-116928504D01*
X113994949Y-116937817D01*
X114119890Y-117109786D01*
X114270213Y-117260109D01*
X114442179Y-117385048D01*
X114442181Y-117385049D01*
X114442184Y-117385051D01*
X114631588Y-117481557D01*
X114833757Y-117547246D01*
X115043713Y-117580500D01*
X115043714Y-117580500D01*
X115256286Y-117580500D01*
X115256287Y-117580500D01*
X115466243Y-117547246D01*
X115668412Y-117481557D01*
X115857816Y-117385051D01*
X115912572Y-117345269D01*
X116029786Y-117260109D01*
X116029788Y-117260106D01*
X116029792Y-117260104D01*
X116180104Y-117109792D01*
X116180106Y-117109788D01*
X116180109Y-117109786D01*
X116305048Y-116937820D01*
X116305050Y-116937817D01*
X116305051Y-116937816D01*
X116309514Y-116929054D01*
X116357488Y-116878259D01*
X116425308Y-116861463D01*
X116491444Y-116883999D01*
X116530486Y-116929056D01*
X116534951Y-116937820D01*
X116659890Y-117109786D01*
X116810213Y-117260109D01*
X116982179Y-117385048D01*
X116982181Y-117385049D01*
X116982184Y-117385051D01*
X117171588Y-117481557D01*
X117373757Y-117547246D01*
X117583713Y-117580500D01*
X117583714Y-117580500D01*
X117796286Y-117580500D01*
X117796287Y-117580500D01*
X118006243Y-117547246D01*
X118208412Y-117481557D01*
X118397816Y-117385051D01*
X118452572Y-117345269D01*
X118569786Y-117260109D01*
X118569788Y-117260106D01*
X118569792Y-117260104D01*
X118720104Y-117109792D01*
X118720106Y-117109788D01*
X118720109Y-117109786D01*
X118845048Y-116937820D01*
X118845050Y-116937817D01*
X118845051Y-116937816D01*
X118849514Y-116929054D01*
X118897488Y-116878259D01*
X118965308Y-116861463D01*
X119031444Y-116883999D01*
X119070486Y-116929056D01*
X119074951Y-116937820D01*
X119199890Y-117109786D01*
X119350213Y-117260109D01*
X119522179Y-117385048D01*
X119522181Y-117385049D01*
X119522184Y-117385051D01*
X119711588Y-117481557D01*
X119913757Y-117547246D01*
X120123713Y-117580500D01*
X120123714Y-117580500D01*
X120336286Y-117580500D01*
X120336287Y-117580500D01*
X120546243Y-117547246D01*
X120748412Y-117481557D01*
X120937816Y-117385051D01*
X120992572Y-117345269D01*
X121109786Y-117260109D01*
X121109788Y-117260106D01*
X121109792Y-117260104D01*
X121260104Y-117109792D01*
X121260106Y-117109788D01*
X121260109Y-117109786D01*
X121385048Y-116937820D01*
X121385050Y-116937817D01*
X121385051Y-116937816D01*
X121389514Y-116929054D01*
X121437488Y-116878259D01*
X121505308Y-116861463D01*
X121571444Y-116883999D01*
X121610486Y-116929056D01*
X121614951Y-116937820D01*
X121739890Y-117109786D01*
X121890213Y-117260109D01*
X122062179Y-117385048D01*
X122062181Y-117385049D01*
X122062184Y-117385051D01*
X122251588Y-117481557D01*
X122453757Y-117547246D01*
X122663713Y-117580500D01*
X122663714Y-117580500D01*
X122876286Y-117580500D01*
X122876287Y-117580500D01*
X123086243Y-117547246D01*
X123288412Y-117481557D01*
X123477816Y-117385051D01*
X123532572Y-117345269D01*
X123649786Y-117260109D01*
X123649788Y-117260106D01*
X123649792Y-117260104D01*
X123800104Y-117109792D01*
X123800106Y-117109788D01*
X123800109Y-117109786D01*
X123925048Y-116937820D01*
X123925050Y-116937817D01*
X123925051Y-116937816D01*
X123929514Y-116929054D01*
X123977488Y-116878259D01*
X124045308Y-116861463D01*
X124111444Y-116883999D01*
X124150486Y-116929056D01*
X124154951Y-116937820D01*
X124279890Y-117109786D01*
X124430213Y-117260109D01*
X124602179Y-117385048D01*
X124602181Y-117385049D01*
X124602184Y-117385051D01*
X124791588Y-117481557D01*
X124993757Y-117547246D01*
X125203713Y-117580500D01*
X125203714Y-117580500D01*
X125416286Y-117580500D01*
X125416287Y-117580500D01*
X125626243Y-117547246D01*
X125828412Y-117481557D01*
X126017816Y-117385051D01*
X126072572Y-117345269D01*
X126189786Y-117260109D01*
X126189788Y-117260106D01*
X126189792Y-117260104D01*
X126340104Y-117109792D01*
X126340106Y-117109788D01*
X126340109Y-117109786D01*
X126465048Y-116937820D01*
X126465050Y-116937817D01*
X126465051Y-116937816D01*
X126469514Y-116929054D01*
X126517488Y-116878259D01*
X126585308Y-116861463D01*
X126651444Y-116883999D01*
X126690486Y-116929056D01*
X126694951Y-116937820D01*
X126819890Y-117109786D01*
X126970213Y-117260109D01*
X127142179Y-117385048D01*
X127142181Y-117385049D01*
X127142184Y-117385051D01*
X127331588Y-117481557D01*
X127533757Y-117547246D01*
X127743713Y-117580500D01*
X127743714Y-117580500D01*
X127956286Y-117580500D01*
X127956287Y-117580500D01*
X128166243Y-117547246D01*
X128368412Y-117481557D01*
X128557816Y-117385051D01*
X128612572Y-117345269D01*
X128729786Y-117260109D01*
X128729788Y-117260106D01*
X128729792Y-117260104D01*
X128880104Y-117109792D01*
X128880106Y-117109788D01*
X128880109Y-117109786D01*
X129005048Y-116937820D01*
X129005050Y-116937817D01*
X129005051Y-116937816D01*
X129009514Y-116929054D01*
X129057488Y-116878259D01*
X129125308Y-116861463D01*
X129191444Y-116883999D01*
X129230486Y-116929056D01*
X129234951Y-116937820D01*
X129359890Y-117109786D01*
X129510213Y-117260109D01*
X129682179Y-117385048D01*
X129682181Y-117385049D01*
X129682184Y-117385051D01*
X129871588Y-117481557D01*
X130073757Y-117547246D01*
X130283713Y-117580500D01*
X130283714Y-117580500D01*
X130496286Y-117580500D01*
X130496287Y-117580500D01*
X130706243Y-117547246D01*
X130908412Y-117481557D01*
X131097816Y-117385051D01*
X131152572Y-117345269D01*
X131269786Y-117260109D01*
X131269788Y-117260106D01*
X131269792Y-117260104D01*
X131420104Y-117109792D01*
X131420106Y-117109788D01*
X131420109Y-117109786D01*
X131545048Y-116937820D01*
X131545050Y-116937817D01*
X131545051Y-116937816D01*
X131549514Y-116929054D01*
X131597488Y-116878259D01*
X131665308Y-116861463D01*
X131731444Y-116883999D01*
X131770486Y-116929056D01*
X131774951Y-116937820D01*
X131899890Y-117109786D01*
X132050213Y-117260109D01*
X132222179Y-117385048D01*
X132222181Y-117385049D01*
X132222184Y-117385051D01*
X132411588Y-117481557D01*
X132613757Y-117547246D01*
X132823713Y-117580500D01*
X132823714Y-117580500D01*
X133036286Y-117580500D01*
X133036287Y-117580500D01*
X133246243Y-117547246D01*
X133448412Y-117481557D01*
X133637816Y-117385051D01*
X133692572Y-117345269D01*
X133809786Y-117260109D01*
X133809788Y-117260106D01*
X133809792Y-117260104D01*
X133960104Y-117109792D01*
X133960106Y-117109788D01*
X133960109Y-117109786D01*
X134085048Y-116937820D01*
X134085050Y-116937817D01*
X134085051Y-116937816D01*
X134089514Y-116929054D01*
X134137488Y-116878259D01*
X134205308Y-116861463D01*
X134271444Y-116883999D01*
X134310486Y-116929056D01*
X134314951Y-116937820D01*
X134439890Y-117109786D01*
X134590213Y-117260109D01*
X134762179Y-117385048D01*
X134762181Y-117385049D01*
X134762184Y-117385051D01*
X134951588Y-117481557D01*
X135153757Y-117547246D01*
X135363713Y-117580500D01*
X135363714Y-117580500D01*
X135576286Y-117580500D01*
X135576287Y-117580500D01*
X135786243Y-117547246D01*
X135988412Y-117481557D01*
X136177816Y-117385051D01*
X136232572Y-117345269D01*
X136349786Y-117260109D01*
X136349788Y-117260106D01*
X136349792Y-117260104D01*
X136500104Y-117109792D01*
X136500106Y-117109788D01*
X136500109Y-117109786D01*
X136625048Y-116937820D01*
X136625050Y-116937817D01*
X136625051Y-116937816D01*
X136629514Y-116929054D01*
X136677488Y-116878259D01*
X136745308Y-116861463D01*
X136811444Y-116883999D01*
X136850486Y-116929056D01*
X136854951Y-116937820D01*
X136979890Y-117109786D01*
X137130213Y-117260109D01*
X137302179Y-117385048D01*
X137302181Y-117385049D01*
X137302184Y-117385051D01*
X137491588Y-117481557D01*
X137693757Y-117547246D01*
X137903713Y-117580500D01*
X137903714Y-117580500D01*
X138116286Y-117580500D01*
X138116287Y-117580500D01*
X138326243Y-117547246D01*
X138528412Y-117481557D01*
X138717816Y-117385051D01*
X138772572Y-117345269D01*
X138889786Y-117260109D01*
X138889788Y-117260106D01*
X138889792Y-117260104D01*
X139040104Y-117109792D01*
X139040106Y-117109788D01*
X139040109Y-117109786D01*
X139165048Y-116937820D01*
X139165050Y-116937817D01*
X139165051Y-116937816D01*
X139169514Y-116929054D01*
X139217488Y-116878259D01*
X139285308Y-116861463D01*
X139351444Y-116883999D01*
X139390486Y-116929056D01*
X139394951Y-116937820D01*
X139519890Y-117109786D01*
X139670213Y-117260109D01*
X139842179Y-117385048D01*
X139842181Y-117385049D01*
X139842184Y-117385051D01*
X140031588Y-117481557D01*
X140233757Y-117547246D01*
X140443713Y-117580500D01*
X140443714Y-117580500D01*
X140656286Y-117580500D01*
X140656287Y-117580500D01*
X140866243Y-117547246D01*
X141068412Y-117481557D01*
X141257816Y-117385051D01*
X141312572Y-117345269D01*
X141429786Y-117260109D01*
X141429788Y-117260106D01*
X141429792Y-117260104D01*
X141580104Y-117109792D01*
X141580106Y-117109788D01*
X141580109Y-117109786D01*
X141705048Y-116937820D01*
X141705050Y-116937817D01*
X141705051Y-116937816D01*
X141709514Y-116929054D01*
X141757488Y-116878259D01*
X141825308Y-116861463D01*
X141891444Y-116883999D01*
X141930486Y-116929056D01*
X141934951Y-116937820D01*
X142059890Y-117109786D01*
X142210213Y-117260109D01*
X142382179Y-117385048D01*
X142382181Y-117385049D01*
X142382184Y-117385051D01*
X142571588Y-117481557D01*
X142773757Y-117547246D01*
X142983713Y-117580500D01*
X142983714Y-117580500D01*
X143196286Y-117580500D01*
X143196287Y-117580500D01*
X143406243Y-117547246D01*
X143608412Y-117481557D01*
X143797816Y-117385051D01*
X143852572Y-117345269D01*
X143969786Y-117260109D01*
X143969788Y-117260106D01*
X143969792Y-117260104D01*
X144120104Y-117109792D01*
X144120106Y-117109788D01*
X144120109Y-117109786D01*
X144245048Y-116937820D01*
X144245050Y-116937817D01*
X144245051Y-116937816D01*
X144249514Y-116929054D01*
X144297488Y-116878259D01*
X144365308Y-116861463D01*
X144431444Y-116883999D01*
X144470486Y-116929056D01*
X144474951Y-116937820D01*
X144599890Y-117109786D01*
X144750213Y-117260109D01*
X144922179Y-117385048D01*
X144922181Y-117385049D01*
X144922184Y-117385051D01*
X145111588Y-117481557D01*
X145313757Y-117547246D01*
X145523713Y-117580500D01*
X145523714Y-117580500D01*
X145736286Y-117580500D01*
X145736287Y-117580500D01*
X145946243Y-117547246D01*
X146148412Y-117481557D01*
X146337816Y-117385051D01*
X146392572Y-117345269D01*
X146509786Y-117260109D01*
X146509788Y-117260106D01*
X146509792Y-117260104D01*
X146660104Y-117109792D01*
X146660106Y-117109788D01*
X146660109Y-117109786D01*
X146785048Y-116937820D01*
X146785050Y-116937817D01*
X146785051Y-116937816D01*
X146789514Y-116929054D01*
X146837488Y-116878259D01*
X146905308Y-116861463D01*
X146971444Y-116883999D01*
X147010486Y-116929056D01*
X147014951Y-116937820D01*
X147139890Y-117109786D01*
X147290213Y-117260109D01*
X147462179Y-117385048D01*
X147462181Y-117385049D01*
X147462184Y-117385051D01*
X147651588Y-117481557D01*
X147853757Y-117547246D01*
X148063713Y-117580500D01*
X148063714Y-117580500D01*
X148276286Y-117580500D01*
X148276287Y-117580500D01*
X148486243Y-117547246D01*
X148688412Y-117481557D01*
X148877816Y-117385051D01*
X148932572Y-117345269D01*
X149049786Y-117260109D01*
X149049788Y-117260106D01*
X149049792Y-117260104D01*
X149200104Y-117109792D01*
X149200106Y-117109788D01*
X149200109Y-117109786D01*
X149325048Y-116937820D01*
X149325050Y-116937817D01*
X149325051Y-116937816D01*
X149329514Y-116929054D01*
X149377488Y-116878259D01*
X149445308Y-116861463D01*
X149511444Y-116883999D01*
X149550486Y-116929056D01*
X149554951Y-116937820D01*
X149679890Y-117109786D01*
X149830213Y-117260109D01*
X150002179Y-117385048D01*
X150002181Y-117385049D01*
X150002184Y-117385051D01*
X150191588Y-117481557D01*
X150393757Y-117547246D01*
X150603713Y-117580500D01*
X150603714Y-117580500D01*
X150816286Y-117580500D01*
X150816287Y-117580500D01*
X151026243Y-117547246D01*
X151228412Y-117481557D01*
X151417816Y-117385051D01*
X151472572Y-117345269D01*
X151589786Y-117260109D01*
X151589788Y-117260106D01*
X151589792Y-117260104D01*
X151740104Y-117109792D01*
X151740106Y-117109788D01*
X151740109Y-117109786D01*
X151865048Y-116937820D01*
X151865050Y-116937817D01*
X151865051Y-116937816D01*
X151869514Y-116929054D01*
X151917488Y-116878259D01*
X151985308Y-116861463D01*
X152051444Y-116883999D01*
X152090486Y-116929056D01*
X152094951Y-116937820D01*
X152219890Y-117109786D01*
X152370213Y-117260109D01*
X152542179Y-117385048D01*
X152542181Y-117385049D01*
X152542184Y-117385051D01*
X152731588Y-117481557D01*
X152933757Y-117547246D01*
X153143713Y-117580500D01*
X153143714Y-117580500D01*
X153356286Y-117580500D01*
X153356287Y-117580500D01*
X153566243Y-117547246D01*
X153768412Y-117481557D01*
X153957816Y-117385051D01*
X154012572Y-117345269D01*
X154129786Y-117260109D01*
X154129788Y-117260106D01*
X154129792Y-117260104D01*
X154280104Y-117109792D01*
X154280106Y-117109788D01*
X154280109Y-117109786D01*
X154405048Y-116937820D01*
X154405050Y-116937817D01*
X154405051Y-116937816D01*
X154409514Y-116929054D01*
X154457488Y-116878259D01*
X154525308Y-116861463D01*
X154591444Y-116883999D01*
X154630486Y-116929056D01*
X154634951Y-116937820D01*
X154759890Y-117109786D01*
X154910213Y-117260109D01*
X155082179Y-117385048D01*
X155082181Y-117385049D01*
X155082184Y-117385051D01*
X155271588Y-117481557D01*
X155473757Y-117547246D01*
X155683713Y-117580500D01*
X155683714Y-117580500D01*
X155896286Y-117580500D01*
X155896287Y-117580500D01*
X156106243Y-117547246D01*
X156308412Y-117481557D01*
X156497816Y-117385051D01*
X156552572Y-117345269D01*
X156669786Y-117260109D01*
X156669788Y-117260106D01*
X156669792Y-117260104D01*
X156820104Y-117109792D01*
X156820106Y-117109788D01*
X156820109Y-117109786D01*
X156945048Y-116937820D01*
X156945050Y-116937817D01*
X156945051Y-116937816D01*
X156949514Y-116929054D01*
X156997488Y-116878259D01*
X157065308Y-116861463D01*
X157131444Y-116883999D01*
X157170486Y-116929056D01*
X157174951Y-116937820D01*
X157299890Y-117109786D01*
X157450213Y-117260109D01*
X157622179Y-117385048D01*
X157622181Y-117385049D01*
X157622184Y-117385051D01*
X157811588Y-117481557D01*
X158013757Y-117547246D01*
X158223713Y-117580500D01*
X158223714Y-117580500D01*
X158436286Y-117580500D01*
X158436287Y-117580500D01*
X158646243Y-117547246D01*
X158848412Y-117481557D01*
X159037816Y-117385051D01*
X159092572Y-117345269D01*
X159209786Y-117260109D01*
X159209788Y-117260106D01*
X159209792Y-117260104D01*
X159360104Y-117109792D01*
X159360106Y-117109788D01*
X159360109Y-117109786D01*
X159485048Y-116937820D01*
X159485050Y-116937817D01*
X159485051Y-116937816D01*
X159489514Y-116929054D01*
X159537488Y-116878259D01*
X159605308Y-116861463D01*
X159671444Y-116883999D01*
X159710486Y-116929056D01*
X159714951Y-116937820D01*
X159839890Y-117109786D01*
X159990213Y-117260109D01*
X160162179Y-117385048D01*
X160162181Y-117385049D01*
X160162184Y-117385051D01*
X160351588Y-117481557D01*
X160553757Y-117547246D01*
X160763713Y-117580500D01*
X160763714Y-117580500D01*
X160976286Y-117580500D01*
X160976287Y-117580500D01*
X161186243Y-117547246D01*
X161388412Y-117481557D01*
X161577816Y-117385051D01*
X161632572Y-117345269D01*
X161749786Y-117260109D01*
X161749788Y-117260106D01*
X161749792Y-117260104D01*
X161900104Y-117109792D01*
X161900106Y-117109788D01*
X161900109Y-117109786D01*
X162025048Y-116937820D01*
X162025050Y-116937817D01*
X162025051Y-116937816D01*
X162121557Y-116748412D01*
X162187246Y-116546243D01*
X162220500Y-116336287D01*
X162220500Y-116123713D01*
X162187246Y-115913757D01*
X162121557Y-115711588D01*
X162025051Y-115522184D01*
X162025049Y-115522181D01*
X162025048Y-115522179D01*
X161900109Y-115350213D01*
X161786569Y-115236673D01*
X161753084Y-115175350D01*
X161758068Y-115105658D01*
X161799940Y-115049725D01*
X161830915Y-115032810D01*
X161962331Y-114983796D01*
X162077546Y-114897546D01*
X162163796Y-114782331D01*
X162214091Y-114647483D01*
X162220500Y-114587873D01*
X162220499Y-112792128D01*
X162214091Y-112732517D01*
X162212810Y-112729083D01*
X162163797Y-112597671D01*
X162163793Y-112597664D01*
X162077547Y-112482455D01*
X162077544Y-112482452D01*
X161962335Y-112396206D01*
X161962328Y-112396202D01*
X161827482Y-112345908D01*
X161827483Y-112345908D01*
X161767883Y-112339501D01*
X161767881Y-112339500D01*
X161767873Y-112339500D01*
X161767864Y-112339500D01*
X159972129Y-112339500D01*
X159972123Y-112339501D01*
X159912516Y-112345908D01*
X159777671Y-112396202D01*
X159777664Y-112396206D01*
X159662455Y-112482452D01*
X159662452Y-112482455D01*
X159576206Y-112597664D01*
X159576203Y-112597669D01*
X159527189Y-112729083D01*
X159485317Y-112785016D01*
X159419853Y-112809433D01*
X159351580Y-112794581D01*
X159323326Y-112773430D01*
X159209786Y-112659890D01*
X159037820Y-112534951D01*
X158848414Y-112438444D01*
X158848413Y-112438443D01*
X158848412Y-112438443D01*
X158646243Y-112372754D01*
X158646241Y-112372753D01*
X158646240Y-112372753D01*
X158484957Y-112347208D01*
X158436287Y-112339500D01*
X158223713Y-112339500D01*
X158175042Y-112347208D01*
X158013760Y-112372753D01*
X157811585Y-112438444D01*
X157622179Y-112534951D01*
X157450213Y-112659890D01*
X157299890Y-112810213D01*
X157174949Y-112982182D01*
X157170484Y-112990946D01*
X157122509Y-113041742D01*
X157054688Y-113058536D01*
X156988553Y-113035998D01*
X156949516Y-112990946D01*
X156945050Y-112982182D01*
X156820109Y-112810213D01*
X156669786Y-112659890D01*
X156497820Y-112534951D01*
X156308414Y-112438444D01*
X156308413Y-112438443D01*
X156308412Y-112438443D01*
X156106243Y-112372754D01*
X156106241Y-112372753D01*
X156106240Y-112372753D01*
X155944957Y-112347208D01*
X155896287Y-112339500D01*
X155683713Y-112339500D01*
X155635042Y-112347208D01*
X155473760Y-112372753D01*
X155271585Y-112438444D01*
X155082179Y-112534951D01*
X154910213Y-112659890D01*
X154759890Y-112810213D01*
X154634949Y-112982182D01*
X154630484Y-112990946D01*
X154582509Y-113041742D01*
X154514688Y-113058536D01*
X154448553Y-113035998D01*
X154409516Y-112990946D01*
X154405050Y-112982182D01*
X154280109Y-112810213D01*
X154129786Y-112659890D01*
X153957820Y-112534951D01*
X153768414Y-112438444D01*
X153768413Y-112438443D01*
X153768412Y-112438443D01*
X153566243Y-112372754D01*
X153566241Y-112372753D01*
X153566240Y-112372753D01*
X153404957Y-112347208D01*
X153356287Y-112339500D01*
X153143713Y-112339500D01*
X153095042Y-112347208D01*
X152933760Y-112372753D01*
X152731585Y-112438444D01*
X152542179Y-112534951D01*
X152370213Y-112659890D01*
X152219890Y-112810213D01*
X152094949Y-112982182D01*
X152090484Y-112990946D01*
X152042509Y-113041742D01*
X151974688Y-113058536D01*
X151908553Y-113035998D01*
X151869516Y-112990946D01*
X151865050Y-112982182D01*
X151740109Y-112810213D01*
X151589786Y-112659890D01*
X151417820Y-112534951D01*
X151228414Y-112438444D01*
X151228413Y-112438443D01*
X151228412Y-112438443D01*
X151026243Y-112372754D01*
X151026241Y-112372753D01*
X151026240Y-112372753D01*
X150864957Y-112347208D01*
X150816287Y-112339500D01*
X150603713Y-112339500D01*
X150555042Y-112347208D01*
X150393760Y-112372753D01*
X150191585Y-112438444D01*
X150002179Y-112534951D01*
X149830213Y-112659890D01*
X149679890Y-112810213D01*
X149554949Y-112982182D01*
X149550484Y-112990946D01*
X149502509Y-113041742D01*
X149434688Y-113058536D01*
X149368553Y-113035998D01*
X149329516Y-112990946D01*
X149325050Y-112982182D01*
X149200109Y-112810213D01*
X149049786Y-112659890D01*
X148877820Y-112534951D01*
X148688414Y-112438444D01*
X148688413Y-112438443D01*
X148688412Y-112438443D01*
X148486243Y-112372754D01*
X148486241Y-112372753D01*
X148486240Y-112372753D01*
X148324957Y-112347208D01*
X148276287Y-112339500D01*
X148063713Y-112339500D01*
X148015042Y-112347208D01*
X147853760Y-112372753D01*
X147651585Y-112438444D01*
X147462179Y-112534951D01*
X147290213Y-112659890D01*
X147139890Y-112810213D01*
X147014949Y-112982182D01*
X147010484Y-112990946D01*
X146962509Y-113041742D01*
X146894688Y-113058536D01*
X146828553Y-113035998D01*
X146789516Y-112990946D01*
X146785050Y-112982182D01*
X146660109Y-112810213D01*
X146509786Y-112659890D01*
X146337820Y-112534951D01*
X146148414Y-112438444D01*
X146148413Y-112438443D01*
X146148412Y-112438443D01*
X145946243Y-112372754D01*
X145946241Y-112372753D01*
X145946240Y-112372753D01*
X145784957Y-112347208D01*
X145736287Y-112339500D01*
X145523713Y-112339500D01*
X145475042Y-112347208D01*
X145313760Y-112372753D01*
X145111585Y-112438444D01*
X144922179Y-112534951D01*
X144750213Y-112659890D01*
X144599890Y-112810213D01*
X144474949Y-112982182D01*
X144470484Y-112990946D01*
X144422509Y-113041742D01*
X144354688Y-113058536D01*
X144288553Y-113035998D01*
X144249516Y-112990946D01*
X144245050Y-112982182D01*
X144120109Y-112810213D01*
X143969786Y-112659890D01*
X143797820Y-112534951D01*
X143608414Y-112438444D01*
X143608413Y-112438443D01*
X143608412Y-112438443D01*
X143406243Y-112372754D01*
X143406241Y-112372753D01*
X143406240Y-112372753D01*
X143244957Y-112347208D01*
X143196287Y-112339500D01*
X142983713Y-112339500D01*
X142935042Y-112347208D01*
X142773760Y-112372753D01*
X142571585Y-112438444D01*
X142382179Y-112534951D01*
X142210213Y-112659890D01*
X142059890Y-112810213D01*
X141934949Y-112982182D01*
X141930484Y-112990946D01*
X141882509Y-113041742D01*
X141814688Y-113058536D01*
X141748553Y-113035998D01*
X141709516Y-112990946D01*
X141705050Y-112982182D01*
X141580109Y-112810213D01*
X141429786Y-112659890D01*
X141257819Y-112534951D01*
X141257818Y-112534950D01*
X141257816Y-112534949D01*
X141190418Y-112500608D01*
X141139622Y-112452633D01*
X141122827Y-112384812D01*
X141145364Y-112318677D01*
X141159032Y-112302442D01*
X141828656Y-111632819D01*
X141889979Y-111599334D01*
X141916337Y-111596500D01*
X144756368Y-111596500D01*
X144847412Y-111578389D01*
X144891700Y-111569580D01*
X144955441Y-111543177D01*
X145019179Y-111516777D01*
X145019180Y-111516776D01*
X145019183Y-111516775D01*
X145133915Y-111440114D01*
X147190114Y-109383915D01*
X147266775Y-109269183D01*
X147319580Y-109141701D01*
X147319580Y-109141697D01*
X147319582Y-109141694D01*
X147324934Y-109114783D01*
X147324934Y-109114781D01*
X147346500Y-109006365D01*
X147346500Y-104985007D01*
X147346500Y-104985004D01*
X147321118Y-104857402D01*
X147319580Y-104849672D01*
X147319544Y-104849586D01*
X147266775Y-104722189D01*
X147190114Y-104607457D01*
X147190111Y-104607453D01*
X147169047Y-104586389D01*
X153419500Y-104586389D01*
X153419500Y-104759610D01*
X153434988Y-104857402D01*
X153446598Y-104930701D01*
X153500127Y-105095445D01*
X153578768Y-105249788D01*
X153680586Y-105389928D01*
X153803072Y-105512414D01*
X153943212Y-105614232D01*
X154097555Y-105692873D01*
X154262299Y-105746402D01*
X154433389Y-105773500D01*
X154433390Y-105773500D01*
X154606610Y-105773500D01*
X154606611Y-105773500D01*
X154777701Y-105746402D01*
X154942445Y-105692873D01*
X155096788Y-105614232D01*
X155236928Y-105512414D01*
X155359414Y-105389928D01*
X155461232Y-105249788D01*
X155539873Y-105095445D01*
X155593402Y-104930701D01*
X155620500Y-104759611D01*
X155620500Y-104586389D01*
X155593402Y-104415299D01*
X155539873Y-104250555D01*
X155461232Y-104096212D01*
X155359414Y-103956072D01*
X155236928Y-103833586D01*
X155096788Y-103731768D01*
X154942445Y-103653127D01*
X154777701Y-103599598D01*
X154777699Y-103599597D01*
X154777698Y-103599597D01*
X154646271Y-103578781D01*
X154606611Y-103572500D01*
X154433389Y-103572500D01*
X154393728Y-103578781D01*
X154262302Y-103599597D01*
X154097552Y-103653128D01*
X153943211Y-103731768D01*
X153872992Y-103782786D01*
X153803072Y-103833586D01*
X153803070Y-103833588D01*
X153803069Y-103833588D01*
X153680588Y-103956069D01*
X153680588Y-103956070D01*
X153680586Y-103956072D01*
X153636859Y-104016256D01*
X153578768Y-104096211D01*
X153500128Y-104250552D01*
X153446597Y-104415302D01*
X153419500Y-104586389D01*
X147169047Y-104586389D01*
X146512819Y-103930161D01*
X146479334Y-103868838D01*
X146476500Y-103842480D01*
X146476500Y-103697389D01*
X146469490Y-103653128D01*
X146449402Y-103526299D01*
X146395873Y-103361555D01*
X146317232Y-103207212D01*
X146215414Y-103067072D01*
X146092928Y-102944586D01*
X145952788Y-102842768D01*
X145798445Y-102764127D01*
X145633701Y-102710598D01*
X145633699Y-102710597D01*
X145633698Y-102710597D01*
X145502271Y-102689781D01*
X145462611Y-102683500D01*
X145289389Y-102683500D01*
X145249728Y-102689781D01*
X145118302Y-102710597D01*
X144953552Y-102764128D01*
X144799211Y-102842768D01*
X144719256Y-102900859D01*
X144659072Y-102944586D01*
X144659070Y-102944588D01*
X144659069Y-102944588D01*
X144536588Y-103067069D01*
X144536588Y-103067070D01*
X144536586Y-103067072D01*
X144492859Y-103127256D01*
X144434768Y-103207211D01*
X144356128Y-103361552D01*
X144302597Y-103526302D01*
X144290556Y-103602327D01*
X144275500Y-103697389D01*
X144275500Y-103870611D01*
X144276967Y-103879872D01*
X144299162Y-104020012D01*
X144302598Y-104041701D01*
X144356127Y-104206445D01*
X144434768Y-104360788D01*
X144536586Y-104500928D01*
X144659072Y-104623414D01*
X144799212Y-104725232D01*
X144953555Y-104803873D01*
X145118299Y-104857402D01*
X145289389Y-104884500D01*
X145289390Y-104884500D01*
X145434481Y-104884500D01*
X145501520Y-104904185D01*
X145522162Y-104920819D01*
X145909181Y-105307838D01*
X145942666Y-105369161D01*
X145945500Y-105395519D01*
X145945500Y-108595853D01*
X145925815Y-108662892D01*
X145909181Y-108683534D01*
X144433534Y-110159181D01*
X144372211Y-110192666D01*
X144345853Y-110195500D01*
X141505822Y-110195500D01*
X141370495Y-110222418D01*
X141370485Y-110222421D01*
X141243010Y-110275222D01*
X141128272Y-110351887D01*
X138924408Y-112555751D01*
X138894505Y-112572079D01*
X138864813Y-112588847D01*
X138863893Y-112588794D01*
X138863085Y-112589236D01*
X138829078Y-112586804D01*
X138795057Y-112584859D01*
X138793987Y-112584294D01*
X138793393Y-112584252D01*
X138763842Y-112568388D01*
X138761615Y-112566770D01*
X138718949Y-112511441D01*
X138710500Y-112466452D01*
X138710500Y-108299305D01*
X138730185Y-108232266D01*
X138746819Y-108211624D01*
X138807731Y-108150712D01*
X138869054Y-108117227D01*
X138895412Y-108114393D01*
X139040503Y-108114393D01*
X139040504Y-108114393D01*
X139211594Y-108087295D01*
X139376338Y-108033766D01*
X139530681Y-107955125D01*
X139670821Y-107853307D01*
X139793307Y-107730821D01*
X139895125Y-107590681D01*
X139973766Y-107436338D01*
X139991945Y-107380389D01*
X143005500Y-107380389D01*
X143005500Y-107553611D01*
X143032598Y-107724701D01*
X143086127Y-107889445D01*
X143164768Y-108043788D01*
X143266586Y-108183928D01*
X143389072Y-108306414D01*
X143529212Y-108408232D01*
X143683555Y-108486873D01*
X143848299Y-108540402D01*
X144019389Y-108567500D01*
X144019390Y-108567500D01*
X144192610Y-108567500D01*
X144192611Y-108567500D01*
X144363701Y-108540402D01*
X144528445Y-108486873D01*
X144682788Y-108408232D01*
X144822928Y-108306414D01*
X144945414Y-108183928D01*
X145047232Y-108043788D01*
X145125873Y-107889445D01*
X145179402Y-107724701D01*
X145206500Y-107553611D01*
X145206500Y-107380389D01*
X145179402Y-107209299D01*
X145125873Y-107044555D01*
X145047232Y-106890212D01*
X144945414Y-106750072D01*
X144822928Y-106627586D01*
X144682788Y-106525768D01*
X144528445Y-106447127D01*
X144363701Y-106393598D01*
X144363699Y-106393597D01*
X144363698Y-106393597D01*
X144232271Y-106372781D01*
X144192611Y-106366500D01*
X144019389Y-106366500D01*
X143979728Y-106372781D01*
X143848302Y-106393597D01*
X143683552Y-106447128D01*
X143529211Y-106525768D01*
X143449256Y-106583859D01*
X143389072Y-106627586D01*
X143389070Y-106627588D01*
X143389069Y-106627588D01*
X143266588Y-106750069D01*
X143266588Y-106750070D01*
X143266586Y-106750072D01*
X143257628Y-106762402D01*
X143164768Y-106890211D01*
X143086128Y-107044552D01*
X143032597Y-107209302D01*
X143005500Y-107380389D01*
X139991945Y-107380389D01*
X140027295Y-107271594D01*
X140054393Y-107100504D01*
X140054393Y-106927282D01*
X140027295Y-106756192D01*
X139973766Y-106591448D01*
X139895125Y-106437105D01*
X139793307Y-106296965D01*
X139670821Y-106174479D01*
X139530681Y-106072661D01*
X139376338Y-105994020D01*
X139211594Y-105940491D01*
X139211592Y-105940490D01*
X139211591Y-105940490D01*
X139080164Y-105919674D01*
X139040504Y-105913393D01*
X138867282Y-105913393D01*
X138827621Y-105919674D01*
X138696195Y-105940490D01*
X138531445Y-105994021D01*
X138377104Y-106072661D01*
X138297149Y-106130752D01*
X138236965Y-106174479D01*
X138236963Y-106174481D01*
X138236962Y-106174481D01*
X138114481Y-106296962D01*
X138114481Y-106296963D01*
X138114479Y-106296965D01*
X138070752Y-106357149D01*
X138012661Y-106437104D01*
X137934021Y-106591445D01*
X137880490Y-106756195D01*
X137853393Y-106927282D01*
X137853393Y-107072373D01*
X137833708Y-107139412D01*
X137817074Y-107160054D01*
X137465888Y-107511239D01*
X137465887Y-107511240D01*
X137389223Y-107625978D01*
X137336421Y-107753454D01*
X137336421Y-107753455D01*
X137336420Y-107753458D01*
X137322688Y-107822495D01*
X137322688Y-107822496D01*
X137309500Y-107888791D01*
X137309500Y-112466452D01*
X137289815Y-112533491D01*
X137258385Y-112566770D01*
X137130213Y-112659890D01*
X136979890Y-112810213D01*
X136854949Y-112982182D01*
X136850484Y-112990946D01*
X136802509Y-113041742D01*
X136734688Y-113058536D01*
X136668553Y-113035998D01*
X136629516Y-112990946D01*
X136625050Y-112982182D01*
X136500109Y-112810213D01*
X136349786Y-112659890D01*
X136177820Y-112534951D01*
X135988414Y-112438444D01*
X135988413Y-112438443D01*
X135988412Y-112438443D01*
X135786243Y-112372754D01*
X135786241Y-112372753D01*
X135786240Y-112372753D01*
X135624957Y-112347208D01*
X135576287Y-112339500D01*
X135363713Y-112339500D01*
X135315042Y-112347208D01*
X135153760Y-112372753D01*
X134951585Y-112438444D01*
X134762179Y-112534951D01*
X134590213Y-112659890D01*
X134439890Y-112810213D01*
X134314949Y-112982182D01*
X134310484Y-112990946D01*
X134262509Y-113041742D01*
X134194688Y-113058536D01*
X134128553Y-113035998D01*
X134089516Y-112990946D01*
X134085050Y-112982182D01*
X133960109Y-112810213D01*
X133809786Y-112659890D01*
X133637820Y-112534951D01*
X133448414Y-112438444D01*
X133448413Y-112438443D01*
X133448412Y-112438443D01*
X133246243Y-112372754D01*
X133246241Y-112372753D01*
X133246240Y-112372753D01*
X133084957Y-112347208D01*
X133036287Y-112339500D01*
X132823713Y-112339500D01*
X132775042Y-112347208D01*
X132613760Y-112372753D01*
X132411585Y-112438444D01*
X132222179Y-112534951D01*
X132050213Y-112659890D01*
X131899890Y-112810213D01*
X131774949Y-112982182D01*
X131770484Y-112990946D01*
X131722509Y-113041742D01*
X131654688Y-113058536D01*
X131588553Y-113035998D01*
X131549516Y-112990946D01*
X131545050Y-112982182D01*
X131420109Y-112810213D01*
X131269786Y-112659890D01*
X131097820Y-112534951D01*
X130908414Y-112438444D01*
X130908413Y-112438443D01*
X130908412Y-112438443D01*
X130706243Y-112372754D01*
X130706241Y-112372753D01*
X130706240Y-112372753D01*
X130544957Y-112347208D01*
X130496287Y-112339500D01*
X130283713Y-112339500D01*
X130235042Y-112347208D01*
X130073760Y-112372753D01*
X129871585Y-112438444D01*
X129682179Y-112534951D01*
X129510213Y-112659890D01*
X129359890Y-112810213D01*
X129234949Y-112982182D01*
X129230484Y-112990946D01*
X129182509Y-113041742D01*
X129114688Y-113058536D01*
X129048553Y-113035998D01*
X129009516Y-112990946D01*
X129005050Y-112982182D01*
X128880109Y-112810213D01*
X128729786Y-112659890D01*
X128557820Y-112534951D01*
X128368414Y-112438444D01*
X128368413Y-112438443D01*
X128368412Y-112438443D01*
X128166243Y-112372754D01*
X128166241Y-112372753D01*
X128166240Y-112372753D01*
X128004957Y-112347208D01*
X127956287Y-112339500D01*
X127743713Y-112339500D01*
X127695042Y-112347208D01*
X127533760Y-112372753D01*
X127331585Y-112438444D01*
X127142179Y-112534951D01*
X126970213Y-112659890D01*
X126819890Y-112810213D01*
X126694949Y-112982182D01*
X126690484Y-112990946D01*
X126642509Y-113041742D01*
X126574688Y-113058536D01*
X126508553Y-113035998D01*
X126469516Y-112990946D01*
X126465050Y-112982182D01*
X126340109Y-112810213D01*
X126189786Y-112659890D01*
X126017820Y-112534951D01*
X125828414Y-112438444D01*
X125828413Y-112438443D01*
X125828412Y-112438443D01*
X125626243Y-112372754D01*
X125626241Y-112372753D01*
X125626240Y-112372753D01*
X125464957Y-112347208D01*
X125416287Y-112339500D01*
X125203713Y-112339500D01*
X125155042Y-112347208D01*
X124993760Y-112372753D01*
X124791585Y-112438444D01*
X124602179Y-112534951D01*
X124430213Y-112659890D01*
X124279890Y-112810213D01*
X124154949Y-112982182D01*
X124150484Y-112990946D01*
X124102509Y-113041742D01*
X124034688Y-113058536D01*
X123968553Y-113035998D01*
X123929516Y-112990946D01*
X123925050Y-112982182D01*
X123800109Y-112810213D01*
X123649786Y-112659890D01*
X123477820Y-112534951D01*
X123288414Y-112438444D01*
X123288413Y-112438443D01*
X123288412Y-112438443D01*
X123086243Y-112372754D01*
X123086241Y-112372753D01*
X123086240Y-112372753D01*
X122924957Y-112347208D01*
X122876287Y-112339500D01*
X122663713Y-112339500D01*
X122615042Y-112347208D01*
X122453760Y-112372753D01*
X122251585Y-112438444D01*
X122062179Y-112534951D01*
X121890213Y-112659890D01*
X121739890Y-112810213D01*
X121614949Y-112982182D01*
X121610484Y-112990946D01*
X121562509Y-113041742D01*
X121494688Y-113058536D01*
X121428553Y-113035998D01*
X121389516Y-112990946D01*
X121385050Y-112982182D01*
X121260109Y-112810213D01*
X121109786Y-112659890D01*
X120937820Y-112534951D01*
X120748414Y-112438444D01*
X120748413Y-112438443D01*
X120748412Y-112438443D01*
X120546243Y-112372754D01*
X120546241Y-112372753D01*
X120546240Y-112372753D01*
X120384957Y-112347208D01*
X120336287Y-112339500D01*
X120123713Y-112339500D01*
X120075042Y-112347208D01*
X119913760Y-112372753D01*
X119711585Y-112438444D01*
X119522179Y-112534951D01*
X119350213Y-112659890D01*
X119199890Y-112810213D01*
X119074949Y-112982182D01*
X119070484Y-112990946D01*
X119022509Y-113041742D01*
X118954688Y-113058536D01*
X118888553Y-113035998D01*
X118849516Y-112990946D01*
X118845050Y-112982182D01*
X118720109Y-112810213D01*
X118569786Y-112659890D01*
X118397820Y-112534951D01*
X118208414Y-112438444D01*
X118208413Y-112438443D01*
X118208412Y-112438443D01*
X118006243Y-112372754D01*
X118006241Y-112372753D01*
X118006240Y-112372753D01*
X117844957Y-112347208D01*
X117796287Y-112339500D01*
X117583713Y-112339500D01*
X117535042Y-112347208D01*
X117373760Y-112372753D01*
X117171585Y-112438444D01*
X116982179Y-112534951D01*
X116810213Y-112659890D01*
X116659890Y-112810213D01*
X116534949Y-112982182D01*
X116530484Y-112990946D01*
X116482509Y-113041742D01*
X116414688Y-113058536D01*
X116348553Y-113035998D01*
X116309516Y-112990946D01*
X116305050Y-112982182D01*
X116180109Y-112810213D01*
X116029786Y-112659890D01*
X115857820Y-112534951D01*
X115668414Y-112438444D01*
X115668413Y-112438443D01*
X115668412Y-112438443D01*
X115466243Y-112372754D01*
X115466241Y-112372753D01*
X115466240Y-112372753D01*
X115304957Y-112347208D01*
X115256287Y-112339500D01*
X115043713Y-112339500D01*
X114995042Y-112347208D01*
X114833760Y-112372753D01*
X114631585Y-112438444D01*
X114442179Y-112534951D01*
X114270213Y-112659890D01*
X114119890Y-112810213D01*
X113994949Y-112982182D01*
X113990202Y-112991499D01*
X113942227Y-113042293D01*
X113874405Y-113059087D01*
X113808271Y-113036548D01*
X113769234Y-112991495D01*
X113764626Y-112982452D01*
X113725270Y-112928282D01*
X113725269Y-112928282D01*
X113092962Y-113560590D01*
X113075925Y-113497007D01*
X113010099Y-113382993D01*
X112917007Y-113289901D01*
X112802993Y-113224075D01*
X112739409Y-113207037D01*
X113371716Y-112574728D01*
X113317550Y-112535375D01*
X113128217Y-112438904D01*
X112926129Y-112373242D01*
X112716246Y-112340000D01*
X112503754Y-112340000D01*
X112293872Y-112373242D01*
X112293869Y-112373242D01*
X112091782Y-112438904D01*
X111902439Y-112535380D01*
X111848282Y-112574727D01*
X111848282Y-112574728D01*
X112480591Y-113207037D01*
X112417007Y-113224075D01*
X112302993Y-113289901D01*
X112209901Y-113382993D01*
X112144075Y-113497007D01*
X112127037Y-113560591D01*
X111494728Y-112928282D01*
X111494727Y-112928282D01*
X111455380Y-112982439D01*
X111358904Y-113171782D01*
X111293242Y-113373869D01*
X111293242Y-113373872D01*
X111260000Y-113583753D01*
X90270500Y-113583753D01*
X90270500Y-87530289D01*
X107061400Y-87530289D01*
X107061400Y-87703510D01*
X107086092Y-87859414D01*
X107088498Y-87874601D01*
X107142027Y-88039345D01*
X107220668Y-88193688D01*
X107322486Y-88333828D01*
X107444972Y-88456314D01*
X107585112Y-88558132D01*
X107739455Y-88636773D01*
X107904199Y-88690302D01*
X108075289Y-88717400D01*
X108075290Y-88717400D01*
X108248510Y-88717400D01*
X108248511Y-88717400D01*
X108419601Y-88690302D01*
X108584345Y-88636773D01*
X108738688Y-88558132D01*
X108878828Y-88456314D01*
X109001314Y-88333828D01*
X109103132Y-88193688D01*
X109181773Y-88039345D01*
X109235302Y-87874601D01*
X109262400Y-87703511D01*
X109262400Y-87629130D01*
X109282085Y-87562091D01*
X109298719Y-87541449D01*
X112843349Y-83996819D01*
X112904672Y-83963334D01*
X112931030Y-83960500D01*
X118772796Y-83960500D01*
X118839835Y-83980185D01*
X118860477Y-83996819D01*
X118913072Y-84049414D01*
X119053212Y-84151232D01*
X119207555Y-84229873D01*
X119372299Y-84283402D01*
X119543389Y-84310500D01*
X119543390Y-84310500D01*
X119718071Y-84310500D01*
X119785110Y-84330185D01*
X119830865Y-84382989D01*
X119840809Y-84452147D01*
X119811784Y-84515703D01*
X119801391Y-84526336D01*
X119794593Y-84532503D01*
X119769084Y-84549548D01*
X119703311Y-84615320D01*
X119701090Y-84617336D01*
X119672255Y-84631307D01*
X119644129Y-84646666D01*
X119639541Y-84647159D01*
X119638213Y-84647803D01*
X119636016Y-84647538D01*
X119617770Y-84649500D01*
X119543389Y-84649500D01*
X119503728Y-84655781D01*
X119372302Y-84676597D01*
X119207552Y-84730128D01*
X119053211Y-84808768D01*
X118973256Y-84866859D01*
X118913072Y-84910586D01*
X118913070Y-84910588D01*
X118913069Y-84910588D01*
X118892181Y-84931477D01*
X118830858Y-84964962D01*
X118761166Y-84959978D01*
X118716819Y-84931477D01*
X118695930Y-84910588D01*
X118695928Y-84910586D01*
X118555788Y-84808768D01*
X118401445Y-84730127D01*
X118236701Y-84676598D01*
X118236699Y-84676597D01*
X118236698Y-84676597D01*
X118105271Y-84655781D01*
X118065611Y-84649500D01*
X117892389Y-84649500D01*
X117852728Y-84655781D01*
X117721302Y-84676597D01*
X117556552Y-84730128D01*
X117402211Y-84808768D01*
X117322256Y-84866859D01*
X117262072Y-84910586D01*
X117262070Y-84910588D01*
X117262069Y-84910588D01*
X117209477Y-84963181D01*
X117148154Y-84996666D01*
X117121796Y-84999500D01*
X116042204Y-84999500D01*
X115975165Y-84979815D01*
X115954523Y-84963181D01*
X115901930Y-84910588D01*
X115901928Y-84910586D01*
X115761788Y-84808768D01*
X115607445Y-84730127D01*
X115442701Y-84676598D01*
X115442699Y-84676597D01*
X115442698Y-84676597D01*
X115311271Y-84655781D01*
X115271611Y-84649500D01*
X115098389Y-84649500D01*
X115058728Y-84655781D01*
X114927302Y-84676597D01*
X114762552Y-84730128D01*
X114608211Y-84808768D01*
X114528256Y-84866859D01*
X114468072Y-84910586D01*
X114468070Y-84910588D01*
X114468069Y-84910588D01*
X114383681Y-84994977D01*
X114322358Y-85028462D01*
X114252666Y-85023478D01*
X114208319Y-84994977D01*
X114123930Y-84910588D01*
X114123928Y-84910586D01*
X113983788Y-84808768D01*
X113829445Y-84730127D01*
X113664701Y-84676598D01*
X113664699Y-84676597D01*
X113664698Y-84676597D01*
X113533271Y-84655781D01*
X113493611Y-84649500D01*
X113320389Y-84649500D01*
X113280728Y-84655781D01*
X113149302Y-84676597D01*
X112984552Y-84730128D01*
X112830211Y-84808768D01*
X112750256Y-84866859D01*
X112690072Y-84910586D01*
X112690070Y-84910588D01*
X112690069Y-84910588D01*
X112567588Y-85033069D01*
X112567588Y-85033070D01*
X112567586Y-85033072D01*
X112545878Y-85062951D01*
X112465768Y-85173211D01*
X112387128Y-85327552D01*
X112333597Y-85492302D01*
X112306500Y-85663389D01*
X112306500Y-85836610D01*
X112332425Y-86000299D01*
X112333598Y-86007701D01*
X112387127Y-86172445D01*
X112465768Y-86326788D01*
X112567586Y-86466928D01*
X112690072Y-86589414D01*
X112830212Y-86691232D01*
X112984555Y-86769873D01*
X113149299Y-86823402D01*
X113320389Y-86850500D01*
X113394770Y-86850500D01*
X113461809Y-86870185D01*
X113482451Y-86886819D01*
X114431451Y-87835819D01*
X114464936Y-87897142D01*
X114459952Y-87966834D01*
X114418080Y-88022767D01*
X114352616Y-88047184D01*
X114343770Y-88047500D01*
X112753229Y-88047500D01*
X112686190Y-88027815D01*
X112665548Y-88011181D01*
X112448319Y-87793951D01*
X112414834Y-87732628D01*
X112412000Y-87706270D01*
X112412000Y-87631889D01*
X112406569Y-87597597D01*
X112384902Y-87460799D01*
X112331373Y-87296055D01*
X112252732Y-87141712D01*
X112150914Y-87001572D01*
X112028428Y-86879086D01*
X111888288Y-86777268D01*
X111733945Y-86698627D01*
X111569201Y-86645098D01*
X111569199Y-86645097D01*
X111569198Y-86645097D01*
X111437771Y-86624281D01*
X111398111Y-86618000D01*
X111224889Y-86618000D01*
X111185228Y-86624281D01*
X111053802Y-86645097D01*
X110889052Y-86698628D01*
X110734711Y-86777268D01*
X110691320Y-86808794D01*
X110594572Y-86879086D01*
X110594570Y-86879088D01*
X110594569Y-86879088D01*
X110472088Y-87001569D01*
X110472088Y-87001570D01*
X110472086Y-87001572D01*
X110450653Y-87031072D01*
X110370268Y-87141711D01*
X110291628Y-87296052D01*
X110238097Y-87460802D01*
X110211000Y-87631889D01*
X110211000Y-87805110D01*
X110237909Y-87975011D01*
X110238098Y-87976201D01*
X110291627Y-88140945D01*
X110370268Y-88295288D01*
X110472086Y-88435428D01*
X110594572Y-88557914D01*
X110734712Y-88659732D01*
X110889055Y-88738373D01*
X111034514Y-88785636D01*
X111092189Y-88825073D01*
X111119387Y-88889431D01*
X111107472Y-88958278D01*
X111060228Y-89009753D01*
X111034516Y-89021495D01*
X111007498Y-89030274D01*
X110952550Y-89048128D01*
X110798211Y-89126768D01*
X110718256Y-89184859D01*
X110658072Y-89228586D01*
X110658070Y-89228588D01*
X110658069Y-89228588D01*
X110535588Y-89351069D01*
X110535588Y-89351070D01*
X110535586Y-89351072D01*
X110508808Y-89387929D01*
X110433768Y-89491211D01*
X110355128Y-89645552D01*
X110301597Y-89810302D01*
X110274500Y-89981389D01*
X110274500Y-90154611D01*
X110301598Y-90325701D01*
X110355127Y-90490445D01*
X110433768Y-90644788D01*
X110535586Y-90784928D01*
X110658072Y-90907414D01*
X110798212Y-91009232D01*
X110952555Y-91087873D01*
X111117299Y-91141402D01*
X111288389Y-91168500D01*
X111288390Y-91168500D01*
X111461610Y-91168500D01*
X111461611Y-91168500D01*
X111632701Y-91141402D01*
X111797445Y-91087873D01*
X111951788Y-91009232D01*
X112091928Y-90907414D01*
X112144523Y-90854819D01*
X112205846Y-90821334D01*
X112232204Y-90818500D01*
X119906196Y-90818500D01*
X119973235Y-90838185D01*
X119993877Y-90854819D01*
X120046472Y-90907414D01*
X120186612Y-91009232D01*
X120340955Y-91087873D01*
X120505699Y-91141402D01*
X120676789Y-91168500D01*
X120676790Y-91168500D01*
X120850010Y-91168500D01*
X120850011Y-91168500D01*
X121021101Y-91141402D01*
X121185845Y-91087873D01*
X121340188Y-91009232D01*
X121480328Y-90907414D01*
X121532923Y-90854819D01*
X121594246Y-90821334D01*
X121620604Y-90818500D01*
X127027796Y-90818500D01*
X127094835Y-90838185D01*
X127115477Y-90854819D01*
X127168072Y-90907414D01*
X127308212Y-91009232D01*
X127462555Y-91087873D01*
X127627299Y-91141402D01*
X127798389Y-91168500D01*
X127798390Y-91168500D01*
X127928769Y-91168500D01*
X127995808Y-91188185D01*
X128041563Y-91240989D01*
X128051507Y-91310147D01*
X128022482Y-91373703D01*
X128016450Y-91380181D01*
X126401451Y-92995181D01*
X126340128Y-93028666D01*
X126313770Y-93031500D01*
X126239389Y-93031500D01*
X126199728Y-93037781D01*
X126068302Y-93058597D01*
X125903552Y-93112128D01*
X125749211Y-93190768D01*
X125669256Y-93248859D01*
X125609072Y-93292586D01*
X125609070Y-93292588D01*
X125609069Y-93292588D01*
X125486588Y-93415069D01*
X125486588Y-93415070D01*
X125486586Y-93415072D01*
X125442859Y-93475256D01*
X125384768Y-93555211D01*
X125306128Y-93709552D01*
X125252597Y-93874302D01*
X125225500Y-94045389D01*
X125225500Y-94218610D01*
X125245447Y-94344555D01*
X125252598Y-94389701D01*
X125306127Y-94554445D01*
X125384768Y-94708788D01*
X125486586Y-94848928D01*
X125609072Y-94971414D01*
X125749212Y-95073232D01*
X125903555Y-95151873D01*
X126068299Y-95205402D01*
X126239389Y-95232500D01*
X126239390Y-95232500D01*
X126412610Y-95232500D01*
X126412611Y-95232500D01*
X126583701Y-95205402D01*
X126748445Y-95151873D01*
X126902788Y-95073232D01*
X127042928Y-94971414D01*
X127165414Y-94848928D01*
X127267232Y-94708788D01*
X127345873Y-94554445D01*
X127399402Y-94389701D01*
X127426500Y-94218611D01*
X127426500Y-94144230D01*
X127446185Y-94077191D01*
X127462819Y-94056549D01*
X130537549Y-90981819D01*
X130598872Y-90948334D01*
X130625230Y-90945500D01*
X133354091Y-90945500D01*
X133421130Y-90965185D01*
X133466885Y-91017989D01*
X133476829Y-91087147D01*
X133464576Y-91125795D01*
X133434128Y-91185552D01*
X133380597Y-91350302D01*
X133376891Y-91373703D01*
X133353500Y-91521389D01*
X133353500Y-91694611D01*
X133380598Y-91865701D01*
X133434127Y-92030445D01*
X133512768Y-92184788D01*
X133614586Y-92324928D01*
X133614588Y-92324930D01*
X133667181Y-92377523D01*
X133700666Y-92438846D01*
X133703500Y-92465204D01*
X133703500Y-93909796D01*
X133683815Y-93976835D01*
X133667181Y-93997477D01*
X133614588Y-94050069D01*
X133614588Y-94050070D01*
X133614586Y-94050072D01*
X133594883Y-94077191D01*
X133512768Y-94190211D01*
X133434128Y-94344552D01*
X133380597Y-94509302D01*
X133353500Y-94680389D01*
X133353500Y-94853610D01*
X133372157Y-94971411D01*
X133380598Y-95024701D01*
X133434127Y-95189445D01*
X133456064Y-95232500D01*
X133456424Y-95233205D01*
X133469320Y-95301874D01*
X133443044Y-95366614D01*
X133385938Y-95406872D01*
X133345939Y-95413500D01*
X128891065Y-95413500D01*
X128824026Y-95393815D01*
X128803384Y-95377181D01*
X128750791Y-95324588D01*
X128750789Y-95324586D01*
X128610649Y-95222768D01*
X128456306Y-95144127D01*
X128291562Y-95090598D01*
X128291560Y-95090597D01*
X128291559Y-95090597D01*
X128160132Y-95069781D01*
X128120472Y-95063500D01*
X127947250Y-95063500D01*
X127907589Y-95069781D01*
X127776163Y-95090597D01*
X127611413Y-95144128D01*
X127457072Y-95222768D01*
X127377117Y-95280859D01*
X127316933Y-95324586D01*
X127316931Y-95324588D01*
X127316930Y-95324588D01*
X127194449Y-95447069D01*
X127194449Y-95447070D01*
X127194447Y-95447072D01*
X127172872Y-95476768D01*
X127092629Y-95587211D01*
X127013989Y-95741552D01*
X126960458Y-95906302D01*
X126933361Y-96077389D01*
X126933361Y-96151769D01*
X126913676Y-96218808D01*
X126897042Y-96239450D01*
X124092052Y-99044439D01*
X124092049Y-99044442D01*
X124055445Y-99099224D01*
X124055446Y-99099225D01*
X124009913Y-99167369D01*
X123953343Y-99303943D01*
X123953340Y-99303953D01*
X123924500Y-99448940D01*
X123924500Y-103747700D01*
X123904815Y-103814739D01*
X123852011Y-103860494D01*
X123800500Y-103871700D01*
X116423204Y-103871700D01*
X116356165Y-103852015D01*
X116335523Y-103835381D01*
X116282930Y-103782788D01*
X116282928Y-103782786D01*
X116142788Y-103680968D01*
X115988445Y-103602327D01*
X115823701Y-103548798D01*
X115823699Y-103548797D01*
X115823698Y-103548797D01*
X115681648Y-103526299D01*
X115652611Y-103521700D01*
X115479389Y-103521700D01*
X115450352Y-103526299D01*
X115308302Y-103548797D01*
X115143552Y-103602328D01*
X114989211Y-103680968D01*
X114920412Y-103730954D01*
X114849072Y-103782786D01*
X114849070Y-103782788D01*
X114849069Y-103782788D01*
X114726588Y-103905269D01*
X114726588Y-103905270D01*
X114726586Y-103905272D01*
X114708503Y-103930161D01*
X114624768Y-104045411D01*
X114546128Y-104199752D01*
X114492597Y-104364502D01*
X114465500Y-104535589D01*
X114465500Y-104708810D01*
X114489034Y-104857402D01*
X114492598Y-104879901D01*
X114546127Y-105044645D01*
X114624768Y-105198988D01*
X114726586Y-105339128D01*
X114849072Y-105461614D01*
X114989212Y-105563432D01*
X115143555Y-105642073D01*
X115308299Y-105695602D01*
X115479389Y-105722700D01*
X115479390Y-105722700D01*
X115652610Y-105722700D01*
X115652611Y-105722700D01*
X115823701Y-105695602D01*
X115988445Y-105642073D01*
X116142788Y-105563432D01*
X116282928Y-105461614D01*
X116335523Y-105409019D01*
X116396846Y-105375534D01*
X116423204Y-105372700D01*
X123878196Y-105372700D01*
X123945235Y-105392385D01*
X123965877Y-105409019D01*
X123993072Y-105436214D01*
X124133212Y-105538032D01*
X124287555Y-105616673D01*
X124452299Y-105670202D01*
X124623389Y-105697300D01*
X124623390Y-105697300D01*
X124796610Y-105697300D01*
X124796611Y-105697300D01*
X124967701Y-105670202D01*
X125132445Y-105616673D01*
X125160479Y-105602389D01*
X135639500Y-105602389D01*
X135639500Y-105775610D01*
X135661322Y-105913393D01*
X135666598Y-105946701D01*
X135720127Y-106111445D01*
X135798768Y-106265788D01*
X135900586Y-106405928D01*
X136023072Y-106528414D01*
X136163212Y-106630232D01*
X136317555Y-106708873D01*
X136482299Y-106762402D01*
X136653389Y-106789500D01*
X136653390Y-106789500D01*
X136826610Y-106789500D01*
X136826611Y-106789500D01*
X136997701Y-106762402D01*
X137162445Y-106708873D01*
X137316788Y-106630232D01*
X137456928Y-106528414D01*
X137579414Y-106405928D01*
X137681232Y-106265788D01*
X137759873Y-106111445D01*
X137813402Y-105946701D01*
X137840500Y-105775611D01*
X137840500Y-105630518D01*
X137860185Y-105563479D01*
X137876819Y-105542837D01*
X143253111Y-100166546D01*
X143253112Y-100166545D01*
X143253112Y-100166544D01*
X143253114Y-100166543D01*
X143329775Y-100051811D01*
X143382580Y-99924328D01*
X143409500Y-99788994D01*
X143409500Y-99651006D01*
X143409500Y-97365224D01*
X143429185Y-97298185D01*
X143460616Y-97264905D01*
X143470928Y-97257414D01*
X143593414Y-97134928D01*
X143695232Y-96994788D01*
X143773873Y-96840445D01*
X143827402Y-96675701D01*
X143854500Y-96504611D01*
X143854500Y-96331389D01*
X143827402Y-96160299D01*
X143773873Y-95995555D01*
X143695232Y-95841212D01*
X143593414Y-95701072D01*
X143470928Y-95578586D01*
X143330788Y-95476768D01*
X143272500Y-95447069D01*
X143176447Y-95398128D01*
X143176446Y-95398127D01*
X143176445Y-95398127D01*
X143011701Y-95344598D01*
X143011699Y-95344597D01*
X143011698Y-95344597D01*
X142880271Y-95323781D01*
X142840611Y-95317500D01*
X142667389Y-95317500D01*
X142627728Y-95323781D01*
X142496302Y-95344597D01*
X142331552Y-95398128D01*
X142177211Y-95476768D01*
X142097256Y-95534859D01*
X142037072Y-95578586D01*
X142037070Y-95578588D01*
X142037069Y-95578588D01*
X141914588Y-95701069D01*
X141914588Y-95701070D01*
X141914586Y-95701072D01*
X141870859Y-95761256D01*
X141812768Y-95841211D01*
X141734128Y-95995552D01*
X141680597Y-96160302D01*
X141653500Y-96331389D01*
X141653500Y-96504610D01*
X141666461Y-96586447D01*
X141680598Y-96675701D01*
X141734127Y-96840445D01*
X141812768Y-96994788D01*
X141914586Y-97134928D01*
X141914588Y-97134930D01*
X141972181Y-97192523D01*
X142005666Y-97253846D01*
X142008500Y-97280204D01*
X142008500Y-99378480D01*
X141988815Y-99445519D01*
X141972181Y-99466161D01*
X136886161Y-104552181D01*
X136824838Y-104585666D01*
X136798480Y-104588500D01*
X136653389Y-104588500D01*
X136633337Y-104591676D01*
X136482302Y-104615597D01*
X136317552Y-104669128D01*
X136163211Y-104747768D01*
X136023069Y-104849588D01*
X135900588Y-104972069D01*
X135900588Y-104972070D01*
X135900586Y-104972072D01*
X135866313Y-105019245D01*
X135798768Y-105112211D01*
X135720128Y-105266552D01*
X135666597Y-105431302D01*
X135639500Y-105602389D01*
X125160479Y-105602389D01*
X125286788Y-105538032D01*
X125426928Y-105436214D01*
X125549414Y-105313728D01*
X125651232Y-105173588D01*
X125729873Y-105019245D01*
X125783402Y-104854501D01*
X125810500Y-104683411D01*
X125810500Y-104510189D01*
X125783402Y-104339099D01*
X125729873Y-104174355D01*
X125651232Y-104020012D01*
X125549414Y-103879872D01*
X125461819Y-103792277D01*
X125428334Y-103730954D01*
X125425500Y-103704596D01*
X125425500Y-99885091D01*
X125445185Y-99818052D01*
X125461819Y-99797410D01*
X127958410Y-97300819D01*
X128019733Y-97267334D01*
X128046091Y-97264500D01*
X128120471Y-97264500D01*
X128120472Y-97264500D01*
X128291562Y-97237402D01*
X128456306Y-97183873D01*
X128610649Y-97105232D01*
X128750789Y-97003414D01*
X128803384Y-96950819D01*
X128864707Y-96917334D01*
X128891065Y-96914500D01*
X135755796Y-96914500D01*
X135822835Y-96934185D01*
X135843477Y-96950819D01*
X135896072Y-97003414D01*
X136036212Y-97105232D01*
X136190555Y-97183873D01*
X136355299Y-97237402D01*
X136526389Y-97264500D01*
X136526390Y-97264500D01*
X136699610Y-97264500D01*
X136699611Y-97264500D01*
X136870701Y-97237402D01*
X137035445Y-97183873D01*
X137189788Y-97105232D01*
X137329928Y-97003414D01*
X137452414Y-96880928D01*
X137554232Y-96740788D01*
X137632873Y-96586445D01*
X137686402Y-96421701D01*
X137713500Y-96250611D01*
X137713500Y-96077389D01*
X137686402Y-95906299D01*
X137632873Y-95741555D01*
X137554232Y-95587212D01*
X137452414Y-95447072D01*
X137329928Y-95324586D01*
X137189788Y-95222768D01*
X137035445Y-95144127D01*
X136870701Y-95090598D01*
X136870699Y-95090597D01*
X136870698Y-95090597D01*
X136739271Y-95069781D01*
X136699611Y-95063500D01*
X136526389Y-95063500D01*
X136486728Y-95069781D01*
X136355302Y-95090597D01*
X136190552Y-95144128D01*
X136036211Y-95222768D01*
X135956256Y-95280859D01*
X135896072Y-95324586D01*
X135896070Y-95324588D01*
X135896069Y-95324588D01*
X135843477Y-95377181D01*
X135816549Y-95391884D01*
X135790731Y-95408477D01*
X135784530Y-95409368D01*
X135782154Y-95410666D01*
X135755796Y-95413500D01*
X135562061Y-95413500D01*
X135495022Y-95393815D01*
X135449267Y-95341011D01*
X135439323Y-95271853D01*
X135451576Y-95233205D01*
X135473873Y-95189445D01*
X135527402Y-95024701D01*
X135554500Y-94853611D01*
X135554500Y-94680389D01*
X135527402Y-94509299D01*
X135473873Y-94344555D01*
X135395232Y-94190212D01*
X135293414Y-94050072D01*
X135240819Y-93997477D01*
X135207334Y-93936154D01*
X135204500Y-93909796D01*
X135204500Y-92465204D01*
X135224185Y-92398165D01*
X135240819Y-92377523D01*
X135246138Y-92372204D01*
X135293414Y-92324928D01*
X135395232Y-92184788D01*
X135473873Y-92030445D01*
X135527402Y-91865701D01*
X135554500Y-91694611D01*
X135554500Y-91521389D01*
X135527402Y-91350299D01*
X135473873Y-91185555D01*
X135443423Y-91125794D01*
X135430528Y-91057125D01*
X135456804Y-90992385D01*
X135513911Y-90952128D01*
X135553909Y-90945500D01*
X144216991Y-90945500D01*
X144284030Y-90965185D01*
X144329785Y-91017989D01*
X144339729Y-91087147D01*
X144334923Y-91107813D01*
X144315205Y-91168500D01*
X144302597Y-91207302D01*
X144276242Y-91373703D01*
X144275500Y-91378389D01*
X144275500Y-91551611D01*
X144302598Y-91722701D01*
X144356127Y-91887445D01*
X144434768Y-92041788D01*
X144536586Y-92181928D01*
X144536588Y-92181930D01*
X144639181Y-92284523D01*
X144672666Y-92345846D01*
X144675500Y-92372204D01*
X144675500Y-97542795D01*
X144655815Y-97609834D01*
X144639182Y-97630476D01*
X144536585Y-97733073D01*
X144434768Y-97873211D01*
X144356128Y-98027552D01*
X144302597Y-98192302D01*
X144301398Y-98199873D01*
X144275500Y-98363389D01*
X144275500Y-98536611D01*
X144302598Y-98707701D01*
X144356127Y-98872445D01*
X144434768Y-99026788D01*
X144536586Y-99166928D01*
X144659072Y-99289414D01*
X144799212Y-99391232D01*
X144953555Y-99469873D01*
X145118299Y-99523402D01*
X145289389Y-99550500D01*
X145289390Y-99550500D01*
X145462610Y-99550500D01*
X145462611Y-99550500D01*
X145633701Y-99523402D01*
X145798445Y-99469873D01*
X145952788Y-99391232D01*
X146092928Y-99289414D01*
X146215414Y-99166928D01*
X146317232Y-99026788D01*
X146395873Y-98872445D01*
X146449402Y-98707701D01*
X146476500Y-98536611D01*
X146476500Y-98363389D01*
X146449402Y-98192299D01*
X146395873Y-98027555D01*
X146317232Y-97873212D01*
X146215414Y-97733072D01*
X146112818Y-97630476D01*
X146079334Y-97569153D01*
X146076500Y-97542795D01*
X146076500Y-95976585D01*
X146096185Y-95909546D01*
X146148989Y-95863791D01*
X146218147Y-95853847D01*
X146256793Y-95866099D01*
X146350555Y-95913873D01*
X146515299Y-95967402D01*
X146686389Y-95994500D01*
X146686390Y-95994500D01*
X146831481Y-95994500D01*
X146898520Y-96014185D01*
X146919162Y-96030819D01*
X148612453Y-97724111D01*
X148612454Y-97724112D01*
X148727190Y-97800776D01*
X148825790Y-97841617D01*
X148854671Y-97853580D01*
X148854672Y-97853580D01*
X148854677Y-97853582D01*
X148881545Y-97858925D01*
X148881551Y-97858926D01*
X148881591Y-97858934D01*
X148971937Y-97876905D01*
X148990006Y-97880500D01*
X148990007Y-97880500D01*
X151580795Y-97880500D01*
X151647834Y-97900185D01*
X151668476Y-97916818D01*
X151771072Y-98019414D01*
X151911212Y-98121232D01*
X152065555Y-98199873D01*
X152230299Y-98253402D01*
X152401389Y-98280500D01*
X152401390Y-98280500D01*
X152574610Y-98280500D01*
X152574611Y-98280500D01*
X152745701Y-98253402D01*
X152910445Y-98199873D01*
X153064788Y-98121232D01*
X153204928Y-98019414D01*
X153327414Y-97896928D01*
X153429232Y-97756788D01*
X153507873Y-97602445D01*
X153561402Y-97437701D01*
X153588500Y-97266611D01*
X153588500Y-97093389D01*
X153561402Y-96922299D01*
X153507873Y-96757555D01*
X153429232Y-96603212D01*
X153327414Y-96463072D01*
X153204928Y-96340586D01*
X153064788Y-96238768D01*
X152910445Y-96160127D01*
X152745701Y-96106598D01*
X152745699Y-96106597D01*
X152745698Y-96106597D01*
X152614271Y-96085781D01*
X152574611Y-96079500D01*
X152401389Y-96079500D01*
X152361728Y-96085781D01*
X152230302Y-96106597D01*
X152065552Y-96160128D01*
X151911211Y-96238768D01*
X151771073Y-96340585D01*
X151668476Y-96443182D01*
X151607153Y-96476666D01*
X151580795Y-96479500D01*
X149400519Y-96479500D01*
X149333480Y-96459815D01*
X149312838Y-96443181D01*
X147909819Y-95040162D01*
X147876334Y-94978839D01*
X147873500Y-94952481D01*
X147873500Y-94807389D01*
X147846402Y-94636302D01*
X147846402Y-94636299D01*
X147792873Y-94471555D01*
X147714232Y-94317212D01*
X147612414Y-94177072D01*
X147489928Y-94054586D01*
X147349788Y-93952768D01*
X147195445Y-93874127D01*
X147030701Y-93820598D01*
X147030699Y-93820597D01*
X147030698Y-93820597D01*
X146899271Y-93799781D01*
X146859611Y-93793500D01*
X146686389Y-93793500D01*
X146646728Y-93799781D01*
X146515302Y-93820597D01*
X146350549Y-93874129D01*
X146256794Y-93921899D01*
X146188125Y-93934795D01*
X146123384Y-93908518D01*
X146083128Y-93851411D01*
X146076500Y-93811414D01*
X146076500Y-92372204D01*
X146096185Y-92305165D01*
X146112819Y-92284523D01*
X146215414Y-92181928D01*
X146317232Y-92041788D01*
X146395873Y-91887445D01*
X146449402Y-91722701D01*
X146476500Y-91551611D01*
X146476500Y-91378389D01*
X146449402Y-91207299D01*
X146417077Y-91107816D01*
X146415083Y-91037977D01*
X146451163Y-90978144D01*
X146513864Y-90947316D01*
X146535009Y-90945500D01*
X149513920Y-90945500D01*
X149611462Y-90926096D01*
X149658913Y-90916658D01*
X149795495Y-90860084D01*
X149857730Y-90818500D01*
X149918416Y-90777952D01*
X150888548Y-89807818D01*
X150949871Y-89774334D01*
X150976229Y-89771500D01*
X151050610Y-89771500D01*
X151050611Y-89771500D01*
X151221701Y-89744402D01*
X151386445Y-89690873D01*
X151540788Y-89612232D01*
X151680928Y-89510414D01*
X151803414Y-89387928D01*
X151905232Y-89247788D01*
X151983873Y-89093445D01*
X152037402Y-88928701D01*
X152064500Y-88757611D01*
X152064500Y-88584389D01*
X152037402Y-88413299D01*
X151983873Y-88248555D01*
X151905232Y-88094212D01*
X151803414Y-87954072D01*
X151680928Y-87831586D01*
X151540788Y-87729768D01*
X151453090Y-87685084D01*
X151386447Y-87651128D01*
X151386446Y-87651127D01*
X151386445Y-87651127D01*
X151221701Y-87597598D01*
X151221699Y-87597597D01*
X151221698Y-87597597D01*
X151090271Y-87576781D01*
X151050611Y-87570500D01*
X150877389Y-87570500D01*
X150837728Y-87576781D01*
X150706302Y-87597597D01*
X150541552Y-87651128D01*
X150387211Y-87729768D01*
X150310233Y-87785697D01*
X150247072Y-87831586D01*
X150247070Y-87831588D01*
X150247069Y-87831588D01*
X150124588Y-87954069D01*
X150124588Y-87954070D01*
X150124586Y-87954072D01*
X150087800Y-88004703D01*
X150022768Y-88094211D01*
X149944128Y-88248552D01*
X149890597Y-88413302D01*
X149863500Y-88584389D01*
X149863500Y-88658770D01*
X149843815Y-88725809D01*
X149827181Y-88746451D01*
X149165451Y-89408181D01*
X149104128Y-89441666D01*
X149077770Y-89444500D01*
X145963230Y-89444500D01*
X145896191Y-89424815D01*
X145850436Y-89372011D01*
X145840492Y-89302853D01*
X145869517Y-89239297D01*
X145875549Y-89232819D01*
X146951549Y-88156819D01*
X147012872Y-88123334D01*
X147039230Y-88120500D01*
X147113610Y-88120500D01*
X147113611Y-88120500D01*
X147284701Y-88093402D01*
X147449445Y-88039873D01*
X147603788Y-87961232D01*
X147743928Y-87859414D01*
X147866414Y-87736928D01*
X147968232Y-87596788D01*
X148046873Y-87442445D01*
X148100402Y-87277701D01*
X148127500Y-87106611D01*
X148127500Y-86933389D01*
X148100402Y-86762299D01*
X148046873Y-86597555D01*
X147968232Y-86443212D01*
X147866414Y-86303072D01*
X147743928Y-86180586D01*
X147603788Y-86078768D01*
X147449445Y-86000127D01*
X147284701Y-85946598D01*
X147284699Y-85946597D01*
X147284698Y-85946597D01*
X147144965Y-85924466D01*
X147113611Y-85919500D01*
X146940389Y-85919500D01*
X146909035Y-85924466D01*
X146769302Y-85946597D01*
X146604552Y-86000128D01*
X146450211Y-86078768D01*
X146370256Y-86136859D01*
X146310072Y-86180586D01*
X146310070Y-86180588D01*
X146310069Y-86180588D01*
X146187588Y-86303069D01*
X146187588Y-86303070D01*
X146187586Y-86303072D01*
X146157407Y-86344610D01*
X146085768Y-86443211D01*
X146007128Y-86597552D01*
X145953597Y-86762302D01*
X145926500Y-86933389D01*
X145926500Y-87007770D01*
X145906815Y-87074809D01*
X145890181Y-87095451D01*
X145651592Y-87334039D01*
X145590269Y-87367524D01*
X145520577Y-87362540D01*
X145464644Y-87320668D01*
X145440227Y-87255204D01*
X145441437Y-87226965D01*
X145460500Y-87106611D01*
X145460500Y-86933389D01*
X145433402Y-86762299D01*
X145379873Y-86597555D01*
X145301232Y-86443212D01*
X145199414Y-86303072D01*
X145076928Y-86180586D01*
X144936788Y-86078768D01*
X144782445Y-86000127D01*
X144617701Y-85946598D01*
X144617699Y-85946597D01*
X144617698Y-85946597D01*
X144477965Y-85924466D01*
X144446611Y-85919500D01*
X144273389Y-85919500D01*
X144242035Y-85924466D01*
X144102302Y-85946597D01*
X143937552Y-86000128D01*
X143783211Y-86078768D01*
X143703256Y-86136859D01*
X143643072Y-86180586D01*
X143643070Y-86180588D01*
X143643069Y-86180588D01*
X143590477Y-86233181D01*
X143529154Y-86266666D01*
X143502796Y-86269500D01*
X136340229Y-86269500D01*
X136273190Y-86249815D01*
X136252548Y-86233181D01*
X134568921Y-84549552D01*
X134568914Y-84549546D01*
X134495229Y-84500312D01*
X134495229Y-84500313D01*
X134445991Y-84467413D01*
X134309417Y-84410843D01*
X134309407Y-84410840D01*
X134164420Y-84382000D01*
X134164418Y-84382000D01*
X125908488Y-84382000D01*
X125841449Y-84362315D01*
X125795694Y-84309511D01*
X125785750Y-84240353D01*
X125786015Y-84238602D01*
X125799400Y-84154096D01*
X125810500Y-84084011D01*
X125810500Y-83910789D01*
X125783402Y-83739699D01*
X125729873Y-83574955D01*
X125651232Y-83420612D01*
X125549414Y-83280472D01*
X125426928Y-83157986D01*
X125286788Y-83056168D01*
X125132445Y-82977527D01*
X124967701Y-82923998D01*
X124967699Y-82923997D01*
X124967698Y-82923997D01*
X124836271Y-82903181D01*
X124796611Y-82896900D01*
X124796610Y-82896900D01*
X124722229Y-82896900D01*
X124655190Y-82877215D01*
X124634548Y-82860581D01*
X121607021Y-79833052D01*
X121607014Y-79833046D01*
X121533329Y-79783812D01*
X121533329Y-79783813D01*
X121484091Y-79750913D01*
X121347517Y-79694343D01*
X121347507Y-79694340D01*
X121202520Y-79665500D01*
X121202518Y-79665500D01*
X116042204Y-79665500D01*
X115975165Y-79645815D01*
X115954523Y-79629181D01*
X115901930Y-79576588D01*
X115901928Y-79576586D01*
X115761788Y-79474768D01*
X115607445Y-79396127D01*
X115442701Y-79342598D01*
X115442699Y-79342597D01*
X115442698Y-79342597D01*
X115311271Y-79321781D01*
X115271611Y-79315500D01*
X115098389Y-79315500D01*
X115058728Y-79321781D01*
X114927302Y-79342597D01*
X114762552Y-79396128D01*
X114608211Y-79474768D01*
X114528256Y-79532859D01*
X114468072Y-79576586D01*
X114468070Y-79576588D01*
X114468069Y-79576588D01*
X114345588Y-79699069D01*
X114345588Y-79699070D01*
X114345586Y-79699072D01*
X114310123Y-79747882D01*
X114243768Y-79839211D01*
X114165128Y-79993552D01*
X114111597Y-80158302D01*
X114094714Y-80264899D01*
X114084500Y-80329389D01*
X114084500Y-80502611D01*
X114092677Y-80554239D01*
X114105092Y-80632628D01*
X114111598Y-80673701D01*
X114165127Y-80838445D01*
X114243768Y-80992788D01*
X114345586Y-81132928D01*
X114468072Y-81255414D01*
X114608212Y-81357232D01*
X114762555Y-81435873D01*
X114927299Y-81489402D01*
X115098389Y-81516500D01*
X115098390Y-81516500D01*
X115271610Y-81516500D01*
X115271611Y-81516500D01*
X115442701Y-81489402D01*
X115607445Y-81435873D01*
X115761788Y-81357232D01*
X115901928Y-81255414D01*
X115954523Y-81202819D01*
X116015846Y-81169334D01*
X116042204Y-81166500D01*
X120766370Y-81166500D01*
X120833409Y-81186185D01*
X120854051Y-81202819D01*
X123573181Y-83921948D01*
X123584898Y-83943407D01*
X123600191Y-83962491D01*
X123602951Y-83976467D01*
X123606666Y-83983271D01*
X123608825Y-83996713D01*
X123609500Y-84003158D01*
X123609500Y-84084011D01*
X123634496Y-84241832D01*
X123634837Y-84245084D01*
X123629105Y-84276362D01*
X123625030Y-84307896D01*
X123622852Y-84310482D01*
X123622243Y-84313809D01*
X123600509Y-84337023D01*
X123580034Y-84361347D01*
X123576803Y-84362345D01*
X123574492Y-84364815D01*
X123543660Y-84372593D01*
X123513283Y-84381987D01*
X123511512Y-84382000D01*
X120269880Y-84382000D01*
X120202841Y-84362315D01*
X120157086Y-84309511D01*
X120147142Y-84240353D01*
X120176167Y-84176797D01*
X120202882Y-84154145D01*
X120202846Y-84154096D01*
X120203508Y-84153614D01*
X120205092Y-84152272D01*
X120206781Y-84151236D01*
X120206782Y-84151234D01*
X120206788Y-84151232D01*
X120346928Y-84049414D01*
X120469414Y-83926928D01*
X120571232Y-83786788D01*
X120649873Y-83632445D01*
X120703402Y-83467701D01*
X120730500Y-83296611D01*
X120730500Y-83123389D01*
X120703402Y-82952299D01*
X120649873Y-82787555D01*
X120571232Y-82633212D01*
X120469414Y-82493072D01*
X120346928Y-82370586D01*
X120206788Y-82268768D01*
X120052445Y-82190127D01*
X119887701Y-82136598D01*
X119887699Y-82136597D01*
X119887698Y-82136597D01*
X119756271Y-82115781D01*
X119716611Y-82109500D01*
X119543389Y-82109500D01*
X119503728Y-82115781D01*
X119372302Y-82136597D01*
X119207552Y-82190128D01*
X119053211Y-82268768D01*
X118973256Y-82326859D01*
X118913072Y-82370586D01*
X118913070Y-82370588D01*
X118913069Y-82370588D01*
X118860477Y-82423181D01*
X118799154Y-82456666D01*
X118772796Y-82459500D01*
X112494876Y-82459500D01*
X112466042Y-82465234D01*
X112466043Y-82465235D01*
X112349893Y-82488339D01*
X112349883Y-82488342D01*
X112269881Y-82521479D01*
X112269882Y-82521480D01*
X112213306Y-82544915D01*
X112177879Y-82568587D01*
X112090379Y-82627051D01*
X112090378Y-82627052D01*
X108237351Y-86480081D01*
X108176028Y-86513566D01*
X108149670Y-86516400D01*
X108075289Y-86516400D01*
X108035628Y-86522681D01*
X107904202Y-86543497D01*
X107904199Y-86543498D01*
X107762895Y-86589411D01*
X107739452Y-86597028D01*
X107585111Y-86675668D01*
X107538874Y-86709262D01*
X107444972Y-86777486D01*
X107444970Y-86777488D01*
X107444969Y-86777488D01*
X107322488Y-86899969D01*
X107322488Y-86899970D01*
X107322486Y-86899972D01*
X107298207Y-86933389D01*
X107220668Y-87040111D01*
X107142028Y-87194452D01*
X107088497Y-87359202D01*
X107061400Y-87530289D01*
X90270500Y-87530289D01*
X90270500Y-70804389D01*
X120907500Y-70804389D01*
X120907500Y-70977610D01*
X120921200Y-71064113D01*
X120934598Y-71148701D01*
X120988127Y-71313445D01*
X121066768Y-71467788D01*
X121168586Y-71607928D01*
X121291072Y-71730414D01*
X121431212Y-71832232D01*
X121585555Y-71910873D01*
X121750299Y-71964402D01*
X121921389Y-71991500D01*
X121921390Y-71991500D01*
X122094610Y-71991500D01*
X122094611Y-71991500D01*
X122265701Y-71964402D01*
X122430445Y-71910873D01*
X122584788Y-71832232D01*
X122724928Y-71730414D01*
X122777523Y-71677819D01*
X122838846Y-71644334D01*
X122865204Y-71641500D01*
X130916770Y-71641500D01*
X130983809Y-71661185D01*
X131004451Y-71677819D01*
X133619986Y-74293354D01*
X133642822Y-74308611D01*
X133693670Y-74342586D01*
X133742905Y-74375484D01*
X133799480Y-74398918D01*
X133879488Y-74432059D01*
X133995641Y-74455163D01*
X134014868Y-74458987D01*
X134024481Y-74460900D01*
X134024482Y-74460900D01*
X134024483Y-74460900D01*
X134172318Y-74460900D01*
X136959379Y-74460900D01*
X137026418Y-74480585D01*
X137059697Y-74512015D01*
X137116492Y-74590188D01*
X137266813Y-74740509D01*
X137438782Y-74865450D01*
X137447546Y-74869916D01*
X137498342Y-74917891D01*
X137515136Y-74985712D01*
X137492598Y-75051847D01*
X137447546Y-75090884D01*
X137438782Y-75095349D01*
X137266813Y-75220290D01*
X137116497Y-75370606D01*
X137116495Y-75370609D01*
X137078151Y-75423385D01*
X137022821Y-75466051D01*
X136977833Y-75474500D01*
X125694204Y-75474500D01*
X125627165Y-75454815D01*
X125606523Y-75438181D01*
X125553930Y-75385588D01*
X125553928Y-75385586D01*
X125413788Y-75283768D01*
X125259445Y-75205127D01*
X125094701Y-75151598D01*
X125094699Y-75151597D01*
X125094698Y-75151597D01*
X124963271Y-75130781D01*
X124923611Y-75124500D01*
X124750389Y-75124500D01*
X124710728Y-75130781D01*
X124579302Y-75151597D01*
X124414552Y-75205128D01*
X124260211Y-75283768D01*
X124180256Y-75341859D01*
X124120072Y-75385586D01*
X124120070Y-75385588D01*
X124120069Y-75385588D01*
X123997588Y-75508069D01*
X123997588Y-75508070D01*
X123997586Y-75508072D01*
X123953859Y-75568256D01*
X123895768Y-75648211D01*
X123817128Y-75802552D01*
X123763597Y-75967302D01*
X123736500Y-76138389D01*
X123736500Y-76311611D01*
X123763598Y-76482701D01*
X123817127Y-76647445D01*
X123895768Y-76801788D01*
X123997586Y-76941928D01*
X124120072Y-77064414D01*
X124260212Y-77166232D01*
X124414555Y-77244873D01*
X124579299Y-77298402D01*
X124750389Y-77325500D01*
X124750390Y-77325500D01*
X124923610Y-77325500D01*
X124923611Y-77325500D01*
X125094701Y-77298402D01*
X125259445Y-77244873D01*
X125413788Y-77166232D01*
X125553928Y-77064414D01*
X125606523Y-77011819D01*
X125667846Y-76978334D01*
X125694204Y-76975500D01*
X134352395Y-76975500D01*
X134419434Y-76995185D01*
X134465189Y-77047989D01*
X134475133Y-77117147D01*
X134452713Y-77172386D01*
X134360568Y-77299211D01*
X134281928Y-77453552D01*
X134228397Y-77618302D01*
X134215763Y-77698071D01*
X134201300Y-77789389D01*
X134201300Y-77962611D01*
X134228398Y-78133701D01*
X134281927Y-78298445D01*
X134360568Y-78452788D01*
X134462386Y-78592928D01*
X134462388Y-78592930D01*
X134464181Y-78594723D01*
X134464644Y-78595571D01*
X134465550Y-78596632D01*
X134465327Y-78596822D01*
X134497666Y-78656046D01*
X134500500Y-78682404D01*
X134500500Y-81540918D01*
X134500500Y-81540920D01*
X134500499Y-81540920D01*
X134529340Y-81685907D01*
X134529343Y-81685917D01*
X134585913Y-81822490D01*
X134585919Y-81822501D01*
X134601798Y-81846264D01*
X134601799Y-81846268D01*
X134601801Y-81846268D01*
X134657945Y-81930296D01*
X134668051Y-81945420D01*
X134668052Y-81945421D01*
X136944932Y-84222299D01*
X137681048Y-84958415D01*
X137681049Y-84958416D01*
X137741791Y-85019158D01*
X137785585Y-85062952D01*
X137908498Y-85145080D01*
X137908511Y-85145087D01*
X138045082Y-85201656D01*
X138045087Y-85201658D01*
X138045091Y-85201658D01*
X138045092Y-85201659D01*
X138190079Y-85230500D01*
X138190082Y-85230500D01*
X176649796Y-85230500D01*
X176716835Y-85250185D01*
X176737477Y-85266819D01*
X176790072Y-85319414D01*
X176930212Y-85421232D01*
X177084555Y-85499873D01*
X177249299Y-85553402D01*
X177420389Y-85580500D01*
X177420390Y-85580500D01*
X177593610Y-85580500D01*
X177593611Y-85580500D01*
X177764701Y-85553402D01*
X177929445Y-85499873D01*
X178083788Y-85421232D01*
X178223928Y-85319414D01*
X178346414Y-85196928D01*
X178448232Y-85056788D01*
X178526873Y-84902445D01*
X178580402Y-84737701D01*
X178607500Y-84566611D01*
X178607500Y-84393389D01*
X178580402Y-84222299D01*
X178526873Y-84057555D01*
X178448232Y-83903212D01*
X178346414Y-83763072D01*
X178223928Y-83640586D01*
X178083788Y-83538768D01*
X177929445Y-83460127D01*
X177764701Y-83406598D01*
X177764699Y-83406597D01*
X177764698Y-83406597D01*
X177633271Y-83385781D01*
X177593611Y-83379500D01*
X177420389Y-83379500D01*
X177380728Y-83385781D01*
X177249302Y-83406597D01*
X177084552Y-83460128D01*
X176930211Y-83538768D01*
X176850256Y-83596859D01*
X176790072Y-83640586D01*
X176790070Y-83640588D01*
X176790069Y-83640588D01*
X176737477Y-83693181D01*
X176676154Y-83726666D01*
X176649796Y-83729500D01*
X141600304Y-83729500D01*
X141533265Y-83709815D01*
X141487510Y-83657011D01*
X141477566Y-83587853D01*
X141506591Y-83524297D01*
X141512623Y-83517819D01*
X141526014Y-83504428D01*
X141627832Y-83364288D01*
X141706473Y-83209945D01*
X141760002Y-83045201D01*
X141787100Y-82874111D01*
X141787100Y-82700889D01*
X141760002Y-82529799D01*
X141706473Y-82365055D01*
X141627832Y-82210712D01*
X141526014Y-82070572D01*
X141473419Y-82017977D01*
X141439934Y-81956654D01*
X141437100Y-81930296D01*
X141437100Y-80264899D01*
X141456785Y-80197860D01*
X141509589Y-80152105D01*
X141561100Y-80140899D01*
X141584471Y-80140899D01*
X141584472Y-80140899D01*
X141644083Y-80134491D01*
X141778931Y-80084196D01*
X141894146Y-79997946D01*
X141980396Y-79882731D01*
X142030691Y-79747883D01*
X142037100Y-79688273D01*
X142037099Y-77892528D01*
X142030691Y-77832917D01*
X141980396Y-77698069D01*
X141980395Y-77698068D01*
X141980393Y-77698064D01*
X141894147Y-77582855D01*
X141894144Y-77582852D01*
X141778935Y-77496606D01*
X141778928Y-77496602D01*
X141647517Y-77447589D01*
X141591583Y-77405718D01*
X141567166Y-77340253D01*
X141582018Y-77271980D01*
X141603163Y-77243732D01*
X141716704Y-77130192D01*
X141841651Y-76958216D01*
X141938157Y-76768812D01*
X142003846Y-76566643D01*
X142037100Y-76356687D01*
X142037100Y-76144113D01*
X142003846Y-75934157D01*
X141938157Y-75731988D01*
X141841651Y-75542584D01*
X141841649Y-75542581D01*
X141841648Y-75542579D01*
X141716709Y-75370613D01*
X141566386Y-75220290D01*
X141394420Y-75095351D01*
X141393715Y-75094991D01*
X141385654Y-75090885D01*
X141334859Y-75042912D01*
X141318063Y-74975092D01*
X141340599Y-74908956D01*
X141385654Y-74869915D01*
X141394416Y-74865451D01*
X141443790Y-74829579D01*
X141566386Y-74740509D01*
X141566388Y-74740506D01*
X141566392Y-74740504D01*
X141716704Y-74590192D01*
X141716706Y-74590188D01*
X141716709Y-74590186D01*
X141841648Y-74418220D01*
X141841647Y-74418220D01*
X141841651Y-74418216D01*
X141938157Y-74228812D01*
X142003846Y-74026643D01*
X142037100Y-73816687D01*
X142037100Y-73604113D01*
X142003846Y-73394157D01*
X141938157Y-73191988D01*
X141841651Y-73002584D01*
X141841649Y-73002581D01*
X141841648Y-73002579D01*
X141716709Y-72830613D01*
X141566386Y-72680290D01*
X141394420Y-72555351D01*
X141393715Y-72554991D01*
X141385654Y-72550885D01*
X141334859Y-72502912D01*
X141318063Y-72435092D01*
X141340599Y-72368956D01*
X141385654Y-72329915D01*
X141394416Y-72325451D01*
X141416389Y-72309486D01*
X141566386Y-72200509D01*
X141566388Y-72200506D01*
X141566392Y-72200504D01*
X141716704Y-72050192D01*
X141716706Y-72050188D01*
X141716709Y-72050186D01*
X141841648Y-71878220D01*
X141841647Y-71878220D01*
X141841651Y-71878216D01*
X141938157Y-71688812D01*
X142003846Y-71486643D01*
X142037100Y-71276687D01*
X142037100Y-71064113D01*
X142003846Y-70854157D01*
X141938157Y-70651988D01*
X141841651Y-70462584D01*
X141841649Y-70462581D01*
X141841648Y-70462579D01*
X141716709Y-70290613D01*
X141566386Y-70140290D01*
X141394420Y-70015351D01*
X141393715Y-70014991D01*
X141385654Y-70010885D01*
X141334859Y-69962912D01*
X141318063Y-69895092D01*
X141340599Y-69828956D01*
X141385654Y-69789915D01*
X141394416Y-69785451D01*
X141449172Y-69745669D01*
X141566386Y-69660509D01*
X141566388Y-69660506D01*
X141566392Y-69660504D01*
X141716704Y-69510192D01*
X141716706Y-69510188D01*
X141716709Y-69510186D01*
X141841648Y-69338220D01*
X141841650Y-69338217D01*
X141841651Y-69338216D01*
X141938157Y-69148812D01*
X142003846Y-68946643D01*
X142037100Y-68736687D01*
X142037100Y-68524113D01*
X142003846Y-68314157D01*
X141938157Y-68111988D01*
X141841651Y-67922584D01*
X141841649Y-67922581D01*
X141841648Y-67922579D01*
X141716709Y-67750613D01*
X141566386Y-67600290D01*
X141394420Y-67475351D01*
X141205014Y-67378844D01*
X141205013Y-67378843D01*
X141205012Y-67378843D01*
X141002843Y-67313154D01*
X141002841Y-67313153D01*
X141002840Y-67313153D01*
X140841557Y-67287608D01*
X140792887Y-67279900D01*
X140580313Y-67279900D01*
X140531642Y-67287608D01*
X140370360Y-67313153D01*
X140168185Y-67378844D01*
X139978779Y-67475351D01*
X139806813Y-67600290D01*
X139656490Y-67750613D01*
X139531549Y-67922582D01*
X139526802Y-67931899D01*
X139478827Y-67982693D01*
X139411005Y-67999487D01*
X139344871Y-67976948D01*
X139305834Y-67931895D01*
X139301226Y-67922852D01*
X139261870Y-67868682D01*
X139261869Y-67868682D01*
X138629562Y-68500990D01*
X138612525Y-68437407D01*
X138546699Y-68323393D01*
X138453607Y-68230301D01*
X138339593Y-68164475D01*
X138276009Y-68147437D01*
X138908316Y-67515128D01*
X138854150Y-67475775D01*
X138664817Y-67379304D01*
X138462729Y-67313642D01*
X138252846Y-67280400D01*
X138040354Y-67280400D01*
X137830472Y-67313642D01*
X137830469Y-67313642D01*
X137628382Y-67379304D01*
X137439039Y-67475780D01*
X137384882Y-67515127D01*
X137384882Y-67515128D01*
X138017191Y-68147437D01*
X137953607Y-68164475D01*
X137839593Y-68230301D01*
X137746501Y-68323393D01*
X137680675Y-68437407D01*
X137663637Y-68500991D01*
X137031328Y-67868682D01*
X137031327Y-67868682D01*
X136991980Y-67922839D01*
X136895504Y-68112182D01*
X136829842Y-68314269D01*
X136829842Y-68314272D01*
X136796600Y-68524153D01*
X136796600Y-68736646D01*
X136829842Y-68946527D01*
X136829842Y-68946530D01*
X136895504Y-69148617D01*
X136991975Y-69337950D01*
X137031328Y-69392116D01*
X137663637Y-68759808D01*
X137680675Y-68823393D01*
X137746501Y-68937407D01*
X137839593Y-69030499D01*
X137953607Y-69096325D01*
X138017190Y-69113362D01*
X137384882Y-69745669D01*
X137384882Y-69745670D01*
X137439052Y-69785026D01*
X137439051Y-69785026D01*
X137448095Y-69789634D01*
X137498892Y-69837608D01*
X137515687Y-69905429D01*
X137493150Y-69971564D01*
X137448099Y-70010602D01*
X137438782Y-70015349D01*
X137266813Y-70140290D01*
X137116490Y-70290613D01*
X136991551Y-70462579D01*
X136895044Y-70651985D01*
X136829353Y-70854160D01*
X136796100Y-71064113D01*
X136796100Y-71276686D01*
X136826367Y-71467788D01*
X136829354Y-71486643D01*
X136886066Y-71661185D01*
X136895044Y-71688814D01*
X136991551Y-71878220D01*
X137116490Y-72050186D01*
X137266813Y-72200509D01*
X137438782Y-72325450D01*
X137447546Y-72329916D01*
X137498342Y-72377891D01*
X137515136Y-72445712D01*
X137492598Y-72511847D01*
X137447546Y-72550884D01*
X137438782Y-72555349D01*
X137266813Y-72680290D01*
X137116492Y-72830611D01*
X137059697Y-72908785D01*
X137004367Y-72951451D01*
X136959379Y-72959900D01*
X134460630Y-72959900D01*
X134393591Y-72940215D01*
X134372949Y-72923581D01*
X131757421Y-70308052D01*
X131757414Y-70308046D01*
X131683729Y-70258812D01*
X131683729Y-70258813D01*
X131634491Y-70225913D01*
X131497917Y-70169343D01*
X131497907Y-70169340D01*
X131352920Y-70140500D01*
X131352918Y-70140500D01*
X122865204Y-70140500D01*
X122798165Y-70120815D01*
X122777523Y-70104181D01*
X122724930Y-70051588D01*
X122724928Y-70051586D01*
X122584788Y-69949768D01*
X122476924Y-69894809D01*
X122430447Y-69871128D01*
X122430446Y-69871127D01*
X122430445Y-69871127D01*
X122265701Y-69817598D01*
X122265699Y-69817597D01*
X122265698Y-69817597D01*
X122134271Y-69796781D01*
X122094611Y-69790500D01*
X121921389Y-69790500D01*
X121881728Y-69796781D01*
X121750302Y-69817597D01*
X121585552Y-69871128D01*
X121431211Y-69949768D01*
X121370084Y-69994180D01*
X121291072Y-70051586D01*
X121291070Y-70051588D01*
X121291069Y-70051588D01*
X121168588Y-70174069D01*
X121168588Y-70174070D01*
X121168586Y-70174072D01*
X121163385Y-70181231D01*
X121066768Y-70314211D01*
X120988128Y-70468552D01*
X120934597Y-70633302D01*
X120907500Y-70804389D01*
X90270500Y-70804389D01*
X90270500Y-65591920D01*
X98776249Y-65591920D01*
X98805090Y-65736907D01*
X98805093Y-65736917D01*
X98861662Y-65873488D01*
X98861666Y-65873495D01*
X98886211Y-65910229D01*
X98886212Y-65910232D01*
X98886213Y-65910232D01*
X98936605Y-65985651D01*
X98943801Y-65996420D01*
X98943802Y-65996421D01*
X102807578Y-69860196D01*
X102807583Y-69860200D01*
X102809896Y-69861746D01*
X102841317Y-69891958D01*
X102899361Y-69971847D01*
X102915586Y-69994178D01*
X103038072Y-70116664D01*
X103178212Y-70218482D01*
X103332555Y-70297123D01*
X103497299Y-70350652D01*
X103668389Y-70377750D01*
X103668390Y-70377750D01*
X103841610Y-70377750D01*
X103841611Y-70377750D01*
X104012701Y-70350652D01*
X104177445Y-70297123D01*
X104331788Y-70218482D01*
X104471928Y-70116664D01*
X104594414Y-69994178D01*
X104696232Y-69854038D01*
X104774873Y-69699695D01*
X104828402Y-69534951D01*
X104855500Y-69363861D01*
X104855500Y-69190639D01*
X104828402Y-69019549D01*
X104774873Y-68854805D01*
X104696232Y-68700462D01*
X104594414Y-68560322D01*
X104471928Y-68437836D01*
X104331788Y-68336018D01*
X104177445Y-68257377D01*
X104012701Y-68203848D01*
X104012699Y-68203847D01*
X104012698Y-68203847D01*
X103881271Y-68183031D01*
X103841611Y-68176750D01*
X103668389Y-68176750D01*
X103636192Y-68181849D01*
X103497301Y-68203847D01*
X103443947Y-68221183D01*
X103401002Y-68235137D01*
X103331162Y-68237132D01*
X103275004Y-68204887D01*
X100313569Y-65243451D01*
X100280084Y-65182128D01*
X100277250Y-65155770D01*
X100277250Y-62578229D01*
X100296935Y-62511190D01*
X100313569Y-62490548D01*
X100651298Y-62152819D01*
X100678225Y-62138115D01*
X100704044Y-62121523D01*
X100710244Y-62120631D01*
X100712621Y-62119334D01*
X100738979Y-62116500D01*
X100789779Y-62116500D01*
X100856818Y-62136185D01*
X100890097Y-62167615D01*
X100946892Y-62245788D01*
X101060430Y-62359326D01*
X101093915Y-62420649D01*
X101088931Y-62490341D01*
X101047059Y-62546274D01*
X101016083Y-62563189D01*
X100884669Y-62612203D01*
X100884664Y-62612206D01*
X100769455Y-62698452D01*
X100769452Y-62698455D01*
X100683206Y-62813664D01*
X100683202Y-62813671D01*
X100632908Y-62948517D01*
X100626501Y-63008116D01*
X100626500Y-63008135D01*
X100626500Y-64803870D01*
X100626501Y-64803876D01*
X100632908Y-64863483D01*
X100683202Y-64998328D01*
X100683206Y-64998335D01*
X100769452Y-65113544D01*
X100769455Y-65113547D01*
X100884664Y-65199793D01*
X100884671Y-65199797D01*
X101019517Y-65250091D01*
X101019516Y-65250091D01*
X101026444Y-65250835D01*
X101079127Y-65256500D01*
X102874872Y-65256499D01*
X102934483Y-65250091D01*
X103069331Y-65199796D01*
X103184546Y-65113546D01*
X103270796Y-64998331D01*
X103319810Y-64866916D01*
X103361681Y-64810984D01*
X103427145Y-64786566D01*
X103495418Y-64801417D01*
X103523673Y-64822569D01*
X103637208Y-64936104D01*
X103715384Y-64992902D01*
X103758051Y-65048231D01*
X103766500Y-65093220D01*
X103766500Y-65244918D01*
X103766500Y-65244920D01*
X103766499Y-65244920D01*
X103795340Y-65389907D01*
X103795343Y-65389917D01*
X103851913Y-65526490D01*
X103851918Y-65526499D01*
X103857988Y-65535583D01*
X103857990Y-65535585D01*
X103900499Y-65599206D01*
X103934051Y-65649420D01*
X103934052Y-65649421D01*
X106098049Y-67813416D01*
X106153315Y-67868682D01*
X106202585Y-67917952D01*
X106325498Y-68000080D01*
X106325511Y-68000087D01*
X106457558Y-68054782D01*
X106462087Y-68056658D01*
X106462091Y-68056658D01*
X106462092Y-68056659D01*
X106607079Y-68085500D01*
X106607082Y-68085500D01*
X109882796Y-68085500D01*
X109949835Y-68105185D01*
X109970477Y-68121819D01*
X110023072Y-68174414D01*
X110163212Y-68276232D01*
X110317555Y-68354873D01*
X110482299Y-68408402D01*
X110653389Y-68435500D01*
X110653390Y-68435500D01*
X110826610Y-68435500D01*
X110826611Y-68435500D01*
X110997701Y-68408402D01*
X111162445Y-68354873D01*
X111316788Y-68276232D01*
X111456928Y-68174414D01*
X111579414Y-68051928D01*
X111681232Y-67911788D01*
X111759873Y-67757445D01*
X111813402Y-67592701D01*
X111840500Y-67421611D01*
X111840500Y-67248389D01*
X111813402Y-67077299D01*
X111759873Y-66912555D01*
X111681232Y-66758212D01*
X111579414Y-66618072D01*
X111456928Y-66495586D01*
X111316788Y-66393768D01*
X111162445Y-66315127D01*
X110997701Y-66261598D01*
X110997699Y-66261597D01*
X110997698Y-66261597D01*
X110866271Y-66240781D01*
X110826611Y-66234500D01*
X110653389Y-66234500D01*
X110613728Y-66240781D01*
X110482302Y-66261597D01*
X110317552Y-66315128D01*
X110163211Y-66393768D01*
X110083256Y-66451859D01*
X110023072Y-66495586D01*
X110023070Y-66495588D01*
X110023069Y-66495588D01*
X109970477Y-66548181D01*
X109909154Y-66581666D01*
X109882796Y-66584500D01*
X107043229Y-66584500D01*
X106976190Y-66564815D01*
X106955548Y-66548181D01*
X105457813Y-65050445D01*
X105424328Y-64989122D01*
X105429312Y-64919430D01*
X105457813Y-64875083D01*
X105469413Y-64863483D01*
X105547104Y-64785792D01*
X105547106Y-64785788D01*
X105547109Y-64785786D01*
X105672048Y-64613820D01*
X105672047Y-64613820D01*
X105672051Y-64613816D01*
X105676514Y-64605054D01*
X105724488Y-64554259D01*
X105792308Y-64537463D01*
X105858444Y-64559999D01*
X105897486Y-64605056D01*
X105901951Y-64613820D01*
X106026890Y-64785786D01*
X106177213Y-64936109D01*
X106349179Y-65061048D01*
X106349181Y-65061049D01*
X106349184Y-65061051D01*
X106538588Y-65157557D01*
X106740757Y-65223246D01*
X106950713Y-65256500D01*
X106950714Y-65256500D01*
X107163286Y-65256500D01*
X107163287Y-65256500D01*
X107373243Y-65223246D01*
X107575412Y-65157557D01*
X107764816Y-65061051D01*
X107812304Y-65026549D01*
X107936786Y-64936109D01*
X107936788Y-64936106D01*
X107936792Y-64936104D01*
X108087104Y-64785792D01*
X108087106Y-64785788D01*
X108087109Y-64785786D01*
X108212048Y-64613820D01*
X108212047Y-64613820D01*
X108212051Y-64613816D01*
X108308557Y-64424412D01*
X108374246Y-64222243D01*
X108407500Y-64012287D01*
X108407500Y-63799713D01*
X108374246Y-63589757D01*
X108308557Y-63387588D01*
X108212051Y-63198184D01*
X108212049Y-63198181D01*
X108212048Y-63198179D01*
X108087109Y-63026213D01*
X107936786Y-62875890D01*
X107764817Y-62750949D01*
X107755504Y-62746204D01*
X107704707Y-62698230D01*
X107687912Y-62630409D01*
X107710449Y-62564274D01*
X107755507Y-62525232D01*
X107764555Y-62520622D01*
X107818716Y-62481270D01*
X107818717Y-62481270D01*
X107186408Y-61848962D01*
X107249993Y-61831925D01*
X107364007Y-61766099D01*
X107457099Y-61673007D01*
X107522925Y-61558993D01*
X107539962Y-61495409D01*
X108172270Y-62127717D01*
X108172270Y-62127716D01*
X108211622Y-62073554D01*
X108308095Y-61884217D01*
X108373757Y-61682130D01*
X108373757Y-61682127D01*
X108407000Y-61472246D01*
X108407000Y-61259753D01*
X108373757Y-61049872D01*
X108373757Y-61049869D01*
X108308095Y-60847782D01*
X108211618Y-60658437D01*
X108209077Y-60654290D01*
X108203896Y-60644956D01*
X108203895Y-60644954D01*
X108191520Y-60576189D01*
X108218288Y-60511650D01*
X108275698Y-60471828D01*
X108314804Y-60465500D01*
X108345770Y-60465500D01*
X108412809Y-60485185D01*
X108433451Y-60501819D01*
X109318181Y-61386548D01*
X109351666Y-61447871D01*
X109354500Y-61474229D01*
X109354500Y-62032796D01*
X109334815Y-62099835D01*
X109318181Y-62120477D01*
X109265588Y-62173069D01*
X109265588Y-62173070D01*
X109265586Y-62173072D01*
X109238808Y-62209929D01*
X109163768Y-62313211D01*
X109085128Y-62467552D01*
X109031597Y-62632302D01*
X109012806Y-62750949D01*
X109004500Y-62803389D01*
X109004500Y-62976611D01*
X109009490Y-63008116D01*
X109022888Y-63092712D01*
X109031598Y-63147701D01*
X109085127Y-63312445D01*
X109163768Y-63466788D01*
X109265586Y-63606928D01*
X109388072Y-63729414D01*
X109528212Y-63831232D01*
X109682555Y-63909873D01*
X109847299Y-63963402D01*
X110018389Y-63990500D01*
X110092770Y-63990500D01*
X110159809Y-64010185D01*
X110180451Y-64026819D01*
X111046048Y-64892415D01*
X111046049Y-64892416D01*
X111112174Y-64958541D01*
X111150585Y-64996952D01*
X111273498Y-65079080D01*
X111273511Y-65079087D01*
X111399044Y-65131084D01*
X111410087Y-65135658D01*
X111410091Y-65135658D01*
X111410092Y-65135659D01*
X111555079Y-65164500D01*
X111555082Y-65164500D01*
X115076770Y-65164500D01*
X115143809Y-65184185D01*
X115164451Y-65200819D01*
X117223181Y-67259549D01*
X117256666Y-67320872D01*
X117259500Y-67347230D01*
X117259500Y-67421611D01*
X117286598Y-67592701D01*
X117340127Y-67757445D01*
X117418768Y-67911788D01*
X117520586Y-68051928D01*
X117643072Y-68174414D01*
X117783212Y-68276232D01*
X117937555Y-68354873D01*
X118102299Y-68408402D01*
X118273389Y-68435500D01*
X118273390Y-68435500D01*
X118446610Y-68435500D01*
X118446611Y-68435500D01*
X118617701Y-68408402D01*
X118782445Y-68354873D01*
X118936788Y-68276232D01*
X119076928Y-68174414D01*
X119199414Y-68051928D01*
X119301232Y-67911788D01*
X119379873Y-67757445D01*
X119433402Y-67592701D01*
X119460500Y-67421611D01*
X119460500Y-67248389D01*
X119433402Y-67077299D01*
X119379873Y-66912555D01*
X119301232Y-66758212D01*
X119199414Y-66618072D01*
X119076928Y-66495586D01*
X118936788Y-66393768D01*
X118782445Y-66315127D01*
X118617701Y-66261598D01*
X118617699Y-66261597D01*
X118617698Y-66261597D01*
X118486271Y-66240781D01*
X118446611Y-66234500D01*
X118446610Y-66234500D01*
X118372230Y-66234500D01*
X118305191Y-66214815D01*
X118284549Y-66198181D01*
X115917421Y-63831052D01*
X115917414Y-63831046D01*
X115843729Y-63781812D01*
X115843729Y-63781813D01*
X115794491Y-63748913D01*
X115657917Y-63692343D01*
X115657907Y-63692340D01*
X115512920Y-63663500D01*
X115512918Y-63663500D01*
X111991229Y-63663500D01*
X111924190Y-63643815D01*
X111903548Y-63627181D01*
X111241819Y-62965451D01*
X111208334Y-62904128D01*
X111205500Y-62877770D01*
X111205500Y-62803389D01*
X111201073Y-62775439D01*
X111178402Y-62632299D01*
X111124873Y-62467555D01*
X111046232Y-62313212D01*
X110944414Y-62173072D01*
X110891819Y-62120477D01*
X110858334Y-62059154D01*
X110855500Y-62032796D01*
X110855500Y-61038079D01*
X110826659Y-60893092D01*
X110826658Y-60893091D01*
X110826658Y-60893087D01*
X110785437Y-60793570D01*
X110770087Y-60756511D01*
X110770080Y-60756498D01*
X110687952Y-60633585D01*
X110657006Y-60602639D01*
X110583416Y-60529049D01*
X110235919Y-60181552D01*
X109186421Y-59132052D01*
X109186414Y-59132046D01*
X109102980Y-59076298D01*
X109102979Y-59076298D01*
X109063501Y-59049919D01*
X109063488Y-59049912D01*
X108926917Y-58993343D01*
X108926907Y-58993340D01*
X108781920Y-58964500D01*
X108781918Y-58964500D01*
X104966917Y-58964500D01*
X104819082Y-58964500D01*
X104819080Y-58964500D01*
X104674092Y-58993340D01*
X104674082Y-58993343D01*
X104537511Y-59049912D01*
X104537498Y-59049919D01*
X104414584Y-59132048D01*
X104414580Y-59132051D01*
X103934049Y-59612581D01*
X103934048Y-59612583D01*
X103917227Y-59637758D01*
X103900517Y-59662768D01*
X103876132Y-59699261D01*
X103851914Y-59735507D01*
X103795343Y-59872082D01*
X103795340Y-59872092D01*
X103766500Y-60017079D01*
X103766500Y-60178779D01*
X103746815Y-60245818D01*
X103715385Y-60279097D01*
X103637211Y-60335893D01*
X103637205Y-60335898D01*
X103486890Y-60486213D01*
X103361949Y-60658182D01*
X103357484Y-60666946D01*
X103309509Y-60717742D01*
X103241688Y-60734536D01*
X103175553Y-60711998D01*
X103136516Y-60666946D01*
X103132050Y-60658182D01*
X103007109Y-60486213D01*
X102856786Y-60335890D01*
X102684820Y-60210951D01*
X102495414Y-60114444D01*
X102495413Y-60114443D01*
X102495412Y-60114443D01*
X102293243Y-60048754D01*
X102293241Y-60048753D01*
X102293240Y-60048753D01*
X102131957Y-60023208D01*
X102083287Y-60015500D01*
X101870713Y-60015500D01*
X101822042Y-60023208D01*
X101660760Y-60048753D01*
X101458585Y-60114444D01*
X101269179Y-60210951D01*
X101097213Y-60335890D01*
X100946897Y-60486206D01*
X100893302Y-60559974D01*
X100837972Y-60602639D01*
X100787010Y-60609643D01*
X100787010Y-60610500D01*
X100780918Y-60610500D01*
X100307832Y-60610500D01*
X100282696Y-60615500D01*
X100282695Y-60615500D01*
X100162845Y-60639339D01*
X100162833Y-60639342D01*
X100117346Y-60658183D01*
X100117347Y-60658184D01*
X100026258Y-60695914D01*
X99977912Y-60728218D01*
X99903332Y-60778049D01*
X99903329Y-60778052D01*
X98943802Y-61737578D01*
X98943799Y-61737581D01*
X98910519Y-61787388D01*
X98910520Y-61787389D01*
X98861664Y-61860508D01*
X98805093Y-61997082D01*
X98805090Y-61997092D01*
X98776250Y-62142079D01*
X98776250Y-62142082D01*
X98776250Y-65591918D01*
X98776250Y-65591920D01*
X98776249Y-65591920D01*
X90270500Y-65591920D01*
X90270500Y-57418589D01*
X107242300Y-57418589D01*
X107242300Y-57591811D01*
X107269398Y-57762901D01*
X107322927Y-57927645D01*
X107401568Y-58081988D01*
X107503386Y-58222128D01*
X107625872Y-58344614D01*
X107766012Y-58446432D01*
X107920355Y-58525073D01*
X108085099Y-58578602D01*
X108256189Y-58605700D01*
X108256190Y-58605700D01*
X108429410Y-58605700D01*
X108429411Y-58605700D01*
X108600501Y-58578602D01*
X108765245Y-58525073D01*
X108765249Y-58525071D01*
X108776741Y-58519216D01*
X108833037Y-58505700D01*
X118669339Y-58505700D01*
X118736378Y-58525385D01*
X118782133Y-58578189D01*
X118792077Y-58647347D01*
X118769656Y-58702586D01*
X118729970Y-58757207D01*
X118651328Y-58911552D01*
X118597797Y-59076302D01*
X118570700Y-59247389D01*
X118570700Y-59420610D01*
X118596598Y-59584128D01*
X118597798Y-59591701D01*
X118651327Y-59756445D01*
X118729968Y-59910788D01*
X118831786Y-60050928D01*
X118954272Y-60173414D01*
X119094412Y-60275232D01*
X119248755Y-60353873D01*
X119413499Y-60407402D01*
X119584589Y-60434500D01*
X119584590Y-60434500D01*
X119757810Y-60434500D01*
X119757811Y-60434500D01*
X119928901Y-60407402D01*
X120093645Y-60353873D01*
X120247988Y-60275232D01*
X120388128Y-60173414D01*
X120440723Y-60120819D01*
X120502046Y-60087334D01*
X120528404Y-60084500D01*
X125162270Y-60084500D01*
X125229309Y-60104185D01*
X125275064Y-60156989D01*
X125285008Y-60226147D01*
X125276831Y-60255953D01*
X125223342Y-60385086D01*
X125223340Y-60385092D01*
X125194500Y-60530079D01*
X125194500Y-60530082D01*
X125194500Y-63598918D01*
X125194500Y-63598920D01*
X125194499Y-63598920D01*
X125223340Y-63743907D01*
X125223343Y-63743917D01*
X125279911Y-63880487D01*
X125279915Y-63880493D01*
X125279916Y-63880495D01*
X125285205Y-63888410D01*
X125285206Y-63888413D01*
X125285207Y-63888413D01*
X125299544Y-63909871D01*
X125362051Y-64003420D01*
X125362052Y-64003421D01*
X126078181Y-64719548D01*
X126111666Y-64780871D01*
X126114500Y-64807229D01*
X126114500Y-64881611D01*
X126122677Y-64933239D01*
X126141240Y-65050445D01*
X126141598Y-65052701D01*
X126189392Y-65199796D01*
X126195128Y-65217447D01*
X126196974Y-65221070D01*
X126273768Y-65371788D01*
X126375586Y-65511928D01*
X126498072Y-65634414D01*
X126638212Y-65736232D01*
X126792555Y-65814873D01*
X126957299Y-65868402D01*
X127128389Y-65895500D01*
X127128390Y-65895500D01*
X127301610Y-65895500D01*
X127301611Y-65895500D01*
X127472701Y-65868402D01*
X127637445Y-65814873D01*
X127791788Y-65736232D01*
X127931928Y-65634414D01*
X128054414Y-65511928D01*
X128156232Y-65371788D01*
X128234873Y-65217445D01*
X128288402Y-65052701D01*
X128315500Y-64881611D01*
X128315500Y-64708389D01*
X128288402Y-64537299D01*
X128234873Y-64372555D01*
X128156232Y-64218212D01*
X128054414Y-64078072D01*
X127931928Y-63955586D01*
X127791788Y-63853768D01*
X127637445Y-63775127D01*
X127472701Y-63721598D01*
X127472699Y-63721597D01*
X127472698Y-63721597D01*
X127341271Y-63700781D01*
X127301611Y-63694500D01*
X127301610Y-63694500D01*
X127227229Y-63694500D01*
X127160190Y-63674815D01*
X127139548Y-63658181D01*
X126731819Y-63250451D01*
X126698334Y-63189128D01*
X126695500Y-63162770D01*
X126695500Y-62669509D01*
X126715185Y-62602470D01*
X126767989Y-62556715D01*
X126837147Y-62546771D01*
X126857813Y-62551576D01*
X126957299Y-62583902D01*
X127128389Y-62611000D01*
X127220270Y-62611000D01*
X127287309Y-62630685D01*
X127307951Y-62647319D01*
X129638181Y-64977549D01*
X129652884Y-65004476D01*
X129669477Y-65030295D01*
X129670368Y-65036495D01*
X129671666Y-65038872D01*
X129674500Y-65065230D01*
X129674500Y-65080796D01*
X129654815Y-65147835D01*
X129638181Y-65168477D01*
X129585588Y-65221069D01*
X129585588Y-65221070D01*
X129585586Y-65221072D01*
X129559847Y-65256499D01*
X129483768Y-65361211D01*
X129405128Y-65515552D01*
X129351597Y-65680302D01*
X129324857Y-65849136D01*
X129324500Y-65851389D01*
X129324500Y-66024611D01*
X129351598Y-66195701D01*
X129405127Y-66360445D01*
X129483768Y-66514788D01*
X129585586Y-66654928D01*
X129708072Y-66777414D01*
X129848212Y-66879232D01*
X130002555Y-66957873D01*
X130167299Y-67011402D01*
X130338389Y-67038500D01*
X130338390Y-67038500D01*
X130511610Y-67038500D01*
X130511611Y-67038500D01*
X130682701Y-67011402D01*
X130847445Y-66957873D01*
X131001788Y-66879232D01*
X131141928Y-66777414D01*
X131264414Y-66654928D01*
X131366232Y-66514788D01*
X131444873Y-66360445D01*
X131498402Y-66195701D01*
X131525500Y-66024611D01*
X131525500Y-65851389D01*
X131498402Y-65680299D01*
X131444873Y-65515555D01*
X131366232Y-65361212D01*
X131264414Y-65221072D01*
X131211819Y-65168477D01*
X131178334Y-65107154D01*
X131175500Y-65080796D01*
X131175500Y-64629079D01*
X131146659Y-64484092D01*
X131146658Y-64484091D01*
X131146658Y-64484087D01*
X131106207Y-64386429D01*
X131090085Y-64347507D01*
X131041972Y-64275500D01*
X131007952Y-64224584D01*
X128351819Y-61568451D01*
X128318334Y-61507128D01*
X128315500Y-61480770D01*
X128315500Y-61423889D01*
X128299193Y-61320930D01*
X128288402Y-61252799D01*
X128234873Y-61088055D01*
X128156232Y-60933712D01*
X128054414Y-60793572D01*
X127931928Y-60671086D01*
X127837719Y-60602639D01*
X127791786Y-60569266D01*
X127720088Y-60532735D01*
X127669291Y-60484761D01*
X127652496Y-60416940D01*
X127675033Y-60350805D01*
X127720088Y-60311765D01*
X127791786Y-60275233D01*
X127791785Y-60275233D01*
X127791788Y-60275232D01*
X127931928Y-60173414D01*
X127984523Y-60120819D01*
X128045846Y-60087334D01*
X128072204Y-60084500D01*
X130789770Y-60084500D01*
X130856809Y-60104185D01*
X130877451Y-60120819D01*
X132174181Y-61417549D01*
X132207666Y-61478872D01*
X132210500Y-61505230D01*
X132210500Y-61579611D01*
X132213249Y-61596968D01*
X132235519Y-61737578D01*
X132237598Y-61750701D01*
X132291127Y-61915445D01*
X132369768Y-62069788D01*
X132471586Y-62209928D01*
X132594072Y-62332414D01*
X132734212Y-62434232D01*
X132766705Y-62450788D01*
X132805912Y-62470765D01*
X132856708Y-62518740D01*
X132873503Y-62586561D01*
X132850966Y-62652696D01*
X132805912Y-62691735D01*
X132734211Y-62728268D01*
X132669292Y-62775435D01*
X132594072Y-62830086D01*
X132594070Y-62830088D01*
X132594069Y-62830088D01*
X132471588Y-62952569D01*
X132471588Y-62952570D01*
X132471586Y-62952572D01*
X132454121Y-62976611D01*
X132369768Y-63092711D01*
X132291128Y-63247052D01*
X132237597Y-63411802D01*
X132210500Y-63582889D01*
X132210500Y-63756110D01*
X132234853Y-63909873D01*
X132237598Y-63927201D01*
X132291127Y-64091945D01*
X132369768Y-64246288D01*
X132471586Y-64386428D01*
X132594072Y-64508914D01*
X132734212Y-64610732D01*
X132888555Y-64689373D01*
X133053299Y-64742902D01*
X133224389Y-64770000D01*
X133298770Y-64770000D01*
X133365809Y-64789685D01*
X133386451Y-64806319D01*
X134464181Y-65884048D01*
X134497666Y-65945371D01*
X134500500Y-65971729D01*
X134500500Y-68382796D01*
X134480815Y-68449835D01*
X134464181Y-68470477D01*
X134411588Y-68523069D01*
X134411588Y-68523070D01*
X134411586Y-68523072D01*
X134384524Y-68560320D01*
X134309768Y-68663211D01*
X134231128Y-68817552D01*
X134177597Y-68982302D01*
X134159538Y-69096325D01*
X134150500Y-69153389D01*
X134150500Y-69326611D01*
X134177598Y-69497701D01*
X134231127Y-69662445D01*
X134309768Y-69816788D01*
X134411586Y-69956928D01*
X134534072Y-70079414D01*
X134674212Y-70181232D01*
X134828555Y-70259873D01*
X134993299Y-70313402D01*
X135164389Y-70340500D01*
X135164390Y-70340500D01*
X135337610Y-70340500D01*
X135337611Y-70340500D01*
X135508701Y-70313402D01*
X135673445Y-70259873D01*
X135827788Y-70181232D01*
X135967928Y-70079414D01*
X136090414Y-69956928D01*
X136192232Y-69816788D01*
X136270873Y-69662445D01*
X136324402Y-69497701D01*
X136351500Y-69326611D01*
X136351500Y-69153389D01*
X136324402Y-68982299D01*
X136270873Y-68817555D01*
X136192232Y-68663212D01*
X136090414Y-68523072D01*
X136034160Y-68466818D01*
X136030821Y-68462870D01*
X136018697Y-68435458D01*
X136004334Y-68409154D01*
X136003457Y-68401001D01*
X136002560Y-68398972D01*
X136002962Y-68396394D01*
X136001500Y-68382796D01*
X136001500Y-65535579D01*
X135972659Y-65390592D01*
X135972658Y-65390591D01*
X135972658Y-65390587D01*
X135972656Y-65390582D01*
X135916087Y-65254011D01*
X135916080Y-65253998D01*
X135833952Y-65131085D01*
X135781947Y-65079080D01*
X135729416Y-65026549D01*
X135088681Y-64385814D01*
X134447819Y-63744951D01*
X134414334Y-63683628D01*
X134411500Y-63657270D01*
X134411500Y-63582889D01*
X134393111Y-63466788D01*
X134384402Y-63411799D01*
X134330873Y-63247055D01*
X134252232Y-63092712D01*
X134150414Y-62952572D01*
X134027928Y-62830086D01*
X133952699Y-62775429D01*
X133887786Y-62728266D01*
X133816088Y-62691735D01*
X133765291Y-62643761D01*
X133748496Y-62575940D01*
X133771033Y-62509805D01*
X133816088Y-62470765D01*
X133887786Y-62434233D01*
X133887785Y-62434233D01*
X133887788Y-62434232D01*
X134027928Y-62332414D01*
X134150414Y-62209928D01*
X134252232Y-62069788D01*
X134330873Y-61915445D01*
X134384402Y-61750701D01*
X134411500Y-61579611D01*
X134411500Y-61406389D01*
X134384402Y-61235299D01*
X134330873Y-61070555D01*
X134252232Y-60916212D01*
X134150414Y-60776072D01*
X134027928Y-60653586D01*
X133887788Y-60551768D01*
X133733445Y-60473127D01*
X133568701Y-60419598D01*
X133568699Y-60419597D01*
X133568698Y-60419597D01*
X133437271Y-60398781D01*
X133397611Y-60392500D01*
X133397610Y-60392500D01*
X133323230Y-60392500D01*
X133256191Y-60372815D01*
X133235549Y-60356181D01*
X131630421Y-58751052D01*
X131630420Y-58751051D01*
X131630416Y-58751048D01*
X131603107Y-58732801D01*
X131558303Y-58679191D01*
X131549596Y-58609866D01*
X131579750Y-58546838D01*
X131639193Y-58510118D01*
X131671999Y-58505700D01*
X134226418Y-58505700D01*
X134293457Y-58525385D01*
X134314099Y-58542019D01*
X143739181Y-67967101D01*
X143772666Y-68028424D01*
X143775500Y-68054782D01*
X143775500Y-75342541D01*
X143781083Y-75370608D01*
X143813949Y-75535836D01*
X143836038Y-75589165D01*
X143839406Y-75597296D01*
X143889366Y-75717911D01*
X143889371Y-75717920D01*
X143998859Y-75881780D01*
X143998860Y-75881781D01*
X143998861Y-75881782D01*
X144138218Y-76021139D01*
X144138219Y-76021139D01*
X144145286Y-76028206D01*
X144145285Y-76028206D01*
X144145288Y-76028208D01*
X148500860Y-80383781D01*
X148500861Y-80383782D01*
X148580007Y-80462928D01*
X148640219Y-80523140D01*
X148804079Y-80632628D01*
X148804086Y-80632632D01*
X148903236Y-80673701D01*
X148986164Y-80708051D01*
X149179454Y-80746499D01*
X149179457Y-80746500D01*
X149179459Y-80746500D01*
X149376540Y-80746500D01*
X150508763Y-80746500D01*
X150565059Y-80760016D01*
X150576550Y-80765871D01*
X150576552Y-80765871D01*
X150576555Y-80765873D01*
X150741299Y-80819402D01*
X150912389Y-80846500D01*
X150912390Y-80846500D01*
X151085610Y-80846500D01*
X151085611Y-80846500D01*
X151256701Y-80819402D01*
X151421445Y-80765873D01*
X151575788Y-80687232D01*
X151715928Y-80585414D01*
X151838414Y-80462928D01*
X151940232Y-80322788D01*
X152018873Y-80168445D01*
X152072402Y-80003701D01*
X152099500Y-79832611D01*
X152099500Y-79659389D01*
X152072402Y-79488299D01*
X152018873Y-79323555D01*
X151940232Y-79169212D01*
X151838414Y-79029072D01*
X151715928Y-78906586D01*
X151575788Y-78804768D01*
X151421445Y-78726127D01*
X151256701Y-78672598D01*
X151256699Y-78672597D01*
X151256698Y-78672597D01*
X151125271Y-78651781D01*
X151085611Y-78645500D01*
X150912389Y-78645500D01*
X150872728Y-78651781D01*
X150741302Y-78672597D01*
X150576550Y-78726128D01*
X150565059Y-78731984D01*
X150508763Y-78745500D01*
X149743783Y-78745500D01*
X149676744Y-78725815D01*
X149656102Y-78709181D01*
X145812819Y-74865898D01*
X145779334Y-74804575D01*
X145776500Y-74778217D01*
X145776500Y-67490456D01*
X145754298Y-67378844D01*
X145754298Y-67378843D01*
X145741329Y-67313642D01*
X145738051Y-67297164D01*
X145730900Y-67279900D01*
X145715961Y-67243833D01*
X145662635Y-67115092D01*
X145662628Y-67115079D01*
X145553139Y-66951218D01*
X145553136Y-66951214D01*
X145410686Y-66808764D01*
X145410655Y-66808735D01*
X143724063Y-65122143D01*
X159240899Y-65122143D01*
X159279347Y-65315429D01*
X159279350Y-65315439D01*
X159354764Y-65497507D01*
X159354771Y-65497520D01*
X159464260Y-65661381D01*
X159464263Y-65661385D01*
X159603614Y-65800736D01*
X159603618Y-65800739D01*
X159767479Y-65910228D01*
X159767492Y-65910235D01*
X159915954Y-65971729D01*
X159949565Y-65985651D01*
X159949569Y-65985651D01*
X159949570Y-65985652D01*
X160142856Y-66024100D01*
X160142859Y-66024100D01*
X160339943Y-66024100D01*
X160479116Y-65996416D01*
X160533235Y-65985651D01*
X160715314Y-65910232D01*
X160770295Y-65873495D01*
X160806751Y-65849136D01*
X160879182Y-65800739D01*
X161018536Y-65661385D01*
X161018539Y-65661382D01*
X161128032Y-65497514D01*
X161203451Y-65315435D01*
X161233474Y-65164500D01*
X161241900Y-65122143D01*
X161241900Y-65105755D01*
X167891400Y-65105755D01*
X167891400Y-65503600D01*
X168675714Y-65503600D01*
X168671320Y-65507994D01*
X168618659Y-65599206D01*
X168591400Y-65700939D01*
X168591400Y-65806261D01*
X168618659Y-65907994D01*
X168671320Y-65999206D01*
X168675714Y-66003600D01*
X167891400Y-66003600D01*
X167891400Y-66401444D01*
X167897801Y-66460972D01*
X167897803Y-66460979D01*
X167948045Y-66595686D01*
X167948049Y-66595693D01*
X168034209Y-66710787D01*
X168034212Y-66710790D01*
X168149306Y-66796950D01*
X168149313Y-66796954D01*
X168284020Y-66847196D01*
X168284027Y-66847198D01*
X168343555Y-66853599D01*
X168343572Y-66853600D01*
X168741400Y-66853600D01*
X168741400Y-66069286D01*
X168745794Y-66073680D01*
X168837006Y-66126341D01*
X168938739Y-66153600D01*
X169044061Y-66153600D01*
X169145794Y-66126341D01*
X169237006Y-66073680D01*
X169241400Y-66069286D01*
X169241400Y-66853600D01*
X169639228Y-66853600D01*
X169639244Y-66853599D01*
X169698772Y-66847198D01*
X169698779Y-66847196D01*
X169833486Y-66796954D01*
X169833493Y-66796950D01*
X169948587Y-66710790D01*
X169948590Y-66710787D01*
X170034750Y-66595693D01*
X170034754Y-66595686D01*
X170084996Y-66460979D01*
X170084998Y-66460972D01*
X170091399Y-66401444D01*
X170091400Y-66401427D01*
X170091400Y-66003600D01*
X169307086Y-66003600D01*
X169311480Y-65999206D01*
X169364141Y-65907994D01*
X169391400Y-65806261D01*
X169391400Y-65700939D01*
X169364141Y-65599206D01*
X169311480Y-65507994D01*
X169307086Y-65503600D01*
X170091400Y-65503600D01*
X170091400Y-65105772D01*
X170091399Y-65105755D01*
X170084998Y-65046227D01*
X170084996Y-65046220D01*
X170034754Y-64911513D01*
X170034750Y-64911506D01*
X169948590Y-64796412D01*
X169948587Y-64796409D01*
X169833493Y-64710249D01*
X169833486Y-64710245D01*
X169698779Y-64660003D01*
X169698772Y-64660001D01*
X169639244Y-64653600D01*
X169241400Y-64653600D01*
X169241400Y-65437914D01*
X169237006Y-65433520D01*
X169145794Y-65380859D01*
X169044061Y-65353600D01*
X168938739Y-65353600D01*
X168837006Y-65380859D01*
X168745794Y-65433520D01*
X168741400Y-65437914D01*
X168741400Y-64653600D01*
X168343555Y-64653600D01*
X168284027Y-64660001D01*
X168284020Y-64660003D01*
X168149313Y-64710245D01*
X168149306Y-64710249D01*
X168034212Y-64796409D01*
X168034209Y-64796412D01*
X167948049Y-64911506D01*
X167948045Y-64911513D01*
X167897803Y-65046220D01*
X167897801Y-65046227D01*
X167891400Y-65105755D01*
X161241900Y-65105755D01*
X161241900Y-64925056D01*
X161203452Y-64731770D01*
X161203451Y-64731769D01*
X161203451Y-64731765D01*
X161194537Y-64710245D01*
X161128035Y-64549692D01*
X161128028Y-64549679D01*
X161018539Y-64385818D01*
X161018536Y-64385814D01*
X160879185Y-64246463D01*
X160879181Y-64246460D01*
X160715320Y-64136971D01*
X160715307Y-64136964D01*
X160533239Y-64061550D01*
X160533229Y-64061547D01*
X160339943Y-64023100D01*
X160339941Y-64023100D01*
X160142859Y-64023100D01*
X160142857Y-64023100D01*
X159949570Y-64061547D01*
X159949560Y-64061550D01*
X159767492Y-64136964D01*
X159767479Y-64136971D01*
X159603618Y-64246460D01*
X159603614Y-64246463D01*
X159464263Y-64385814D01*
X159464260Y-64385818D01*
X159354771Y-64549679D01*
X159354764Y-64549692D01*
X159279350Y-64731760D01*
X159279347Y-64731770D01*
X159240900Y-64925056D01*
X159240900Y-64925059D01*
X159240900Y-65122141D01*
X159240900Y-65122143D01*
X159240899Y-65122143D01*
X143724063Y-65122143D01*
X135670110Y-57068190D01*
X135639859Y-57018824D01*
X135635873Y-57006556D01*
X135635870Y-57006550D01*
X135557233Y-56852213D01*
X135541937Y-56831160D01*
X135455414Y-56712072D01*
X135402819Y-56659477D01*
X135369334Y-56598154D01*
X135366500Y-56571796D01*
X135366500Y-53557789D01*
X144564500Y-53557789D01*
X144564500Y-53731011D01*
X144591598Y-53902101D01*
X144606559Y-53948147D01*
X144645128Y-54066847D01*
X144647056Y-54070631D01*
X144723768Y-54221188D01*
X144825586Y-54361328D01*
X144825588Y-54361330D01*
X144878181Y-54413923D01*
X144911666Y-54475246D01*
X144914500Y-54501604D01*
X144914500Y-59746796D01*
X144894815Y-59813835D01*
X144878181Y-59834477D01*
X144825588Y-59887069D01*
X144825588Y-59887070D01*
X144825586Y-59887072D01*
X144781859Y-59947256D01*
X144723768Y-60027211D01*
X144645128Y-60181552D01*
X144591597Y-60346302D01*
X144564500Y-60517389D01*
X144564500Y-60690610D01*
X144589362Y-60847588D01*
X144591598Y-60861701D01*
X144645127Y-61026445D01*
X144723768Y-61180788D01*
X144825586Y-61320928D01*
X144948072Y-61443414D01*
X145088212Y-61545232D01*
X145242555Y-61623873D01*
X145407299Y-61677402D01*
X145578389Y-61704500D01*
X145578390Y-61704500D01*
X145751610Y-61704500D01*
X145751611Y-61704500D01*
X145922701Y-61677402D01*
X146084087Y-61624963D01*
X146153923Y-61622969D01*
X146213756Y-61659049D01*
X146244585Y-61721749D01*
X146244875Y-61762289D01*
X146240900Y-61787389D01*
X146240900Y-61960610D01*
X146267366Y-62127716D01*
X146267998Y-62131701D01*
X146321527Y-62296445D01*
X146400168Y-62450788D01*
X146501986Y-62590928D01*
X146624472Y-62713414D01*
X146764612Y-62815232D01*
X146918955Y-62893873D01*
X147083699Y-62947402D01*
X147254789Y-62974500D01*
X147254790Y-62974500D01*
X147428010Y-62974500D01*
X147428011Y-62974500D01*
X147599101Y-62947402D01*
X147763845Y-62893873D01*
X147918188Y-62815232D01*
X148058328Y-62713414D01*
X148180814Y-62590928D01*
X148187197Y-62582143D01*
X159240899Y-62582143D01*
X159279347Y-62775429D01*
X159279350Y-62775439D01*
X159354764Y-62957507D01*
X159354771Y-62957520D01*
X159464260Y-63121381D01*
X159464263Y-63121385D01*
X159603614Y-63260736D01*
X159603618Y-63260739D01*
X159767479Y-63370228D01*
X159767492Y-63370235D01*
X159949560Y-63445649D01*
X159949565Y-63445651D01*
X159949569Y-63445651D01*
X159949570Y-63445652D01*
X160142856Y-63484100D01*
X160142859Y-63484100D01*
X160339943Y-63484100D01*
X160469982Y-63458232D01*
X160533235Y-63445651D01*
X160715314Y-63370232D01*
X160879182Y-63260739D01*
X161018539Y-63121382D01*
X161128032Y-62957514D01*
X161132221Y-62947402D01*
X161161839Y-62875896D01*
X161203451Y-62775435D01*
X161230130Y-62641312D01*
X161241900Y-62582143D01*
X161241900Y-62385056D01*
X161203452Y-62191770D01*
X161203451Y-62191769D01*
X161203451Y-62191765D01*
X161173923Y-62120477D01*
X161128033Y-62009687D01*
X161128031Y-62009683D01*
X161018539Y-61845818D01*
X161018536Y-61845814D01*
X160879185Y-61706463D01*
X160879181Y-61706460D01*
X160715320Y-61596971D01*
X160715307Y-61596964D01*
X160533239Y-61521550D01*
X160533229Y-61521547D01*
X160339943Y-61483100D01*
X160339941Y-61483100D01*
X160142859Y-61483100D01*
X160142857Y-61483100D01*
X159949570Y-61521547D01*
X159949560Y-61521550D01*
X159767492Y-61596964D01*
X159767479Y-61596971D01*
X159603618Y-61706460D01*
X159603614Y-61706463D01*
X159464263Y-61845814D01*
X159464260Y-61845818D01*
X159354771Y-62009679D01*
X159354764Y-62009692D01*
X159279350Y-62191760D01*
X159279347Y-62191770D01*
X159240900Y-62385056D01*
X159240900Y-62385059D01*
X159240900Y-62582141D01*
X159240900Y-62582143D01*
X159240899Y-62582143D01*
X148187197Y-62582143D01*
X148282632Y-62450788D01*
X148361273Y-62296445D01*
X148414802Y-62131701D01*
X148441900Y-61960611D01*
X148441900Y-61787389D01*
X148440681Y-61779694D01*
X148449635Y-61710404D01*
X148494630Y-61656951D01*
X148561381Y-61636310D01*
X148601467Y-61642365D01*
X148709299Y-61677402D01*
X148880389Y-61704500D01*
X148880390Y-61704500D01*
X149053610Y-61704500D01*
X149053611Y-61704500D01*
X149224701Y-61677402D01*
X149389445Y-61623873D01*
X149543788Y-61545232D01*
X149683928Y-61443414D01*
X149806414Y-61320928D01*
X149908232Y-61180788D01*
X149946463Y-61105755D01*
X167891400Y-61105755D01*
X167891400Y-61503600D01*
X168675714Y-61503600D01*
X168671320Y-61507994D01*
X168618659Y-61599206D01*
X168591400Y-61700939D01*
X168591400Y-61806261D01*
X168618659Y-61907994D01*
X168671320Y-61999206D01*
X168675714Y-62003600D01*
X167891400Y-62003600D01*
X167891400Y-62401444D01*
X167897801Y-62460972D01*
X167897803Y-62460979D01*
X167948045Y-62595686D01*
X167948049Y-62595693D01*
X168034209Y-62710787D01*
X168034212Y-62710790D01*
X168149306Y-62796950D01*
X168149313Y-62796954D01*
X168284020Y-62847196D01*
X168284027Y-62847198D01*
X168343555Y-62853599D01*
X168343572Y-62853600D01*
X168741400Y-62853600D01*
X168741400Y-62069286D01*
X168745794Y-62073680D01*
X168837006Y-62126341D01*
X168938739Y-62153600D01*
X169044061Y-62153600D01*
X169145794Y-62126341D01*
X169237006Y-62073680D01*
X169241400Y-62069286D01*
X169241400Y-62853600D01*
X169639228Y-62853600D01*
X169639244Y-62853599D01*
X169698772Y-62847198D01*
X169698779Y-62847196D01*
X169833486Y-62796954D01*
X169833493Y-62796950D01*
X169948587Y-62710790D01*
X169948590Y-62710787D01*
X170034750Y-62595693D01*
X170034754Y-62595686D01*
X170084996Y-62460979D01*
X170084998Y-62460972D01*
X170091399Y-62401444D01*
X170091400Y-62401427D01*
X170091400Y-62003600D01*
X169307086Y-62003600D01*
X169311480Y-61999206D01*
X169364141Y-61907994D01*
X169391400Y-61806261D01*
X169391400Y-61700939D01*
X169364141Y-61599206D01*
X169311480Y-61507994D01*
X169307086Y-61503600D01*
X170091400Y-61503600D01*
X170091400Y-61105772D01*
X170091399Y-61105755D01*
X170084998Y-61046227D01*
X170084996Y-61046220D01*
X170034754Y-60911513D01*
X170034750Y-60911506D01*
X169948590Y-60796412D01*
X169948587Y-60796409D01*
X169833493Y-60710249D01*
X169833486Y-60710245D01*
X169698779Y-60660003D01*
X169698772Y-60660001D01*
X169639244Y-60653600D01*
X169241400Y-60653600D01*
X169241400Y-61437914D01*
X169237006Y-61433520D01*
X169145794Y-61380859D01*
X169044061Y-61353600D01*
X168938739Y-61353600D01*
X168837006Y-61380859D01*
X168745794Y-61433520D01*
X168741400Y-61437914D01*
X168741400Y-60653600D01*
X168343555Y-60653600D01*
X168284027Y-60660001D01*
X168284020Y-60660003D01*
X168149313Y-60710245D01*
X168149306Y-60710249D01*
X168034212Y-60796409D01*
X168034209Y-60796412D01*
X167948049Y-60911506D01*
X167948045Y-60911513D01*
X167897803Y-61046220D01*
X167897801Y-61046227D01*
X167891400Y-61105755D01*
X149946463Y-61105755D01*
X149970289Y-61058993D01*
X149976830Y-61046156D01*
X149976831Y-61046154D01*
X149986870Y-61026450D01*
X149986873Y-61026445D01*
X150040402Y-60861701D01*
X150067500Y-60690611D01*
X150067500Y-60517389D01*
X150040402Y-60346299D01*
X149986873Y-60181555D01*
X149908232Y-60027212D01*
X149806414Y-59887072D01*
X149683928Y-59764586D01*
X149543788Y-59662768D01*
X149543784Y-59662766D01*
X149389447Y-59584128D01*
X149389446Y-59584127D01*
X149389445Y-59584127D01*
X149224701Y-59530598D01*
X149224699Y-59530597D01*
X149224698Y-59530597D01*
X149093271Y-59509781D01*
X149053611Y-59503500D01*
X148880389Y-59503500D01*
X148840728Y-59509781D01*
X148709302Y-59530597D01*
X148544552Y-59584128D01*
X148390211Y-59662768D01*
X148310256Y-59720859D01*
X148250072Y-59764586D01*
X148250070Y-59764588D01*
X148250069Y-59764588D01*
X148197477Y-59817181D01*
X148136154Y-59850666D01*
X148109796Y-59853500D01*
X146539500Y-59853500D01*
X146472461Y-59833815D01*
X146426706Y-59781011D01*
X146415500Y-59729500D01*
X146415500Y-57105889D01*
X153564000Y-57105889D01*
X153564000Y-57279111D01*
X153591098Y-57450201D01*
X153644627Y-57614945D01*
X153723268Y-57769288D01*
X153825086Y-57909428D01*
X153947572Y-58031914D01*
X154087712Y-58133732D01*
X154242055Y-58212373D01*
X154406799Y-58265902D01*
X154577889Y-58293000D01*
X154577890Y-58293000D01*
X154751110Y-58293000D01*
X154751111Y-58293000D01*
X154922201Y-58265902D01*
X155086945Y-58212373D01*
X155241288Y-58133732D01*
X155381428Y-58031914D01*
X155503914Y-57909428D01*
X155605732Y-57769288D01*
X155684373Y-57614945D01*
X155737902Y-57450201D01*
X155765000Y-57279111D01*
X155765000Y-57105889D01*
X155737902Y-56934799D01*
X155684373Y-56770055D01*
X155605732Y-56615712D01*
X155503914Y-56475572D01*
X155381428Y-56353086D01*
X155241288Y-56251268D01*
X155086945Y-56172627D01*
X154922201Y-56119098D01*
X154922199Y-56119097D01*
X154922198Y-56119097D01*
X154790771Y-56098281D01*
X154751111Y-56092000D01*
X154577889Y-56092000D01*
X154538228Y-56098281D01*
X154406802Y-56119097D01*
X154242052Y-56172628D01*
X154087711Y-56251268D01*
X154034577Y-56289873D01*
X153947572Y-56353086D01*
X153947570Y-56353088D01*
X153947569Y-56353088D01*
X153825088Y-56475569D01*
X153825088Y-56475570D01*
X153825086Y-56475572D01*
X153812065Y-56493494D01*
X153723268Y-56615711D01*
X153644628Y-56770052D01*
X153591097Y-56934802D01*
X153567664Y-57082755D01*
X153564000Y-57105889D01*
X146415500Y-57105889D01*
X146415500Y-56199804D01*
X146435185Y-56132765D01*
X146487989Y-56087010D01*
X146557147Y-56077066D01*
X146620703Y-56106091D01*
X146622045Y-56107341D01*
X146624463Y-56109405D01*
X146624472Y-56109414D01*
X146764612Y-56211232D01*
X146918955Y-56289873D01*
X147083699Y-56343402D01*
X147254789Y-56370500D01*
X147254790Y-56370500D01*
X147428010Y-56370500D01*
X147428011Y-56370500D01*
X147599101Y-56343402D01*
X147763845Y-56289873D01*
X147918188Y-56211232D01*
X148058328Y-56109414D01*
X148180814Y-55986928D01*
X148282632Y-55846788D01*
X148361273Y-55692445D01*
X148414802Y-55527701D01*
X148441900Y-55356611D01*
X148441900Y-55183389D01*
X148414802Y-55012299D01*
X148361273Y-54847555D01*
X148282632Y-54693212D01*
X148180814Y-54553072D01*
X148058328Y-54430586D01*
X147918188Y-54328768D01*
X147763845Y-54250127D01*
X147599101Y-54196598D01*
X147599099Y-54196597D01*
X147599098Y-54196597D01*
X147446630Y-54172449D01*
X147428011Y-54169500D01*
X147254789Y-54169500D01*
X147236170Y-54172449D01*
X147083702Y-54196597D01*
X146918949Y-54250129D01*
X146816696Y-54302229D01*
X146748027Y-54315125D01*
X146683287Y-54288848D01*
X146643030Y-54231741D01*
X146640038Y-54161936D01*
X146649918Y-54135448D01*
X146684871Y-54066849D01*
X146684872Y-54066847D01*
X146684873Y-54066845D01*
X146738402Y-53902101D01*
X146765500Y-53731011D01*
X146765500Y-53557789D01*
X146738402Y-53386699D01*
X146684873Y-53221955D01*
X146645462Y-53144606D01*
X147969217Y-53144606D01*
X147969217Y-53317828D01*
X147996315Y-53488918D01*
X148049844Y-53653662D01*
X148128485Y-53808005D01*
X148230303Y-53948145D01*
X148352789Y-54070631D01*
X148492929Y-54172449D01*
X148647272Y-54251090D01*
X148812016Y-54304619D01*
X148983106Y-54331717D01*
X148983107Y-54331717D01*
X149156327Y-54331717D01*
X149156328Y-54331717D01*
X149327418Y-54304619D01*
X149492162Y-54251090D01*
X149646505Y-54172449D01*
X149786645Y-54070631D01*
X149909131Y-53948145D01*
X150010949Y-53808005D01*
X150089590Y-53653662D01*
X150143119Y-53488918D01*
X150170217Y-53317828D01*
X150170217Y-53144606D01*
X150143119Y-52973516D01*
X150089590Y-52808772D01*
X150010949Y-52654429D01*
X149909131Y-52514289D01*
X149786645Y-52391803D01*
X149646505Y-52289985D01*
X149492162Y-52211344D01*
X149327418Y-52157815D01*
X149327416Y-52157814D01*
X149327415Y-52157814D01*
X149195988Y-52136998D01*
X149156328Y-52130717D01*
X148983106Y-52130717D01*
X148943445Y-52136998D01*
X148812019Y-52157814D01*
X148647269Y-52211345D01*
X148492928Y-52289985D01*
X148412973Y-52348076D01*
X148352789Y-52391803D01*
X148352787Y-52391805D01*
X148352786Y-52391805D01*
X148230305Y-52514286D01*
X148230305Y-52514287D01*
X148230303Y-52514289D01*
X148208144Y-52544788D01*
X148128485Y-52654428D01*
X148049845Y-52808769D01*
X147996314Y-52973519D01*
X147981411Y-53067613D01*
X147969217Y-53144606D01*
X146645462Y-53144606D01*
X146606233Y-53067613D01*
X146587189Y-53041402D01*
X146504414Y-52927472D01*
X146381928Y-52804986D01*
X146241788Y-52703168D01*
X146205990Y-52684928D01*
X146087447Y-52624528D01*
X146087446Y-52624527D01*
X146087445Y-52624527D01*
X145922701Y-52570998D01*
X145922699Y-52570997D01*
X145922698Y-52570997D01*
X145791271Y-52550181D01*
X145751611Y-52543900D01*
X145578389Y-52543900D01*
X145538728Y-52550181D01*
X145407302Y-52570997D01*
X145242552Y-52624528D01*
X145088211Y-52703168D01*
X145008256Y-52761259D01*
X144948072Y-52804986D01*
X144948070Y-52804988D01*
X144948069Y-52804988D01*
X144825588Y-52927469D01*
X144825588Y-52927470D01*
X144825586Y-52927472D01*
X144792133Y-52973516D01*
X144723768Y-53067611D01*
X144645128Y-53221952D01*
X144591597Y-53386702D01*
X144575409Y-53488914D01*
X144564500Y-53557789D01*
X135366500Y-53557789D01*
X135366500Y-50412204D01*
X135386185Y-50345165D01*
X135402819Y-50324523D01*
X135455414Y-50271928D01*
X135557232Y-50131788D01*
X135635873Y-49977445D01*
X135689402Y-49812701D01*
X135716500Y-49641611D01*
X135716500Y-49468389D01*
X135689402Y-49297299D01*
X135635873Y-49132555D01*
X135557232Y-48978212D01*
X135455414Y-48838072D01*
X135332928Y-48715586D01*
X135192788Y-48613768D01*
X135038445Y-48535127D01*
X134873701Y-48481598D01*
X134873699Y-48481597D01*
X134873698Y-48481597D01*
X134742271Y-48460781D01*
X134702611Y-48454500D01*
X134529389Y-48454500D01*
X134489728Y-48460781D01*
X134358302Y-48481597D01*
X134193552Y-48535128D01*
X134039211Y-48613768D01*
X133959256Y-48671859D01*
X133899072Y-48715586D01*
X133899070Y-48715588D01*
X133899069Y-48715588D01*
X133776588Y-48838069D01*
X133776588Y-48838070D01*
X133776586Y-48838072D01*
X133767274Y-48850889D01*
X133674768Y-48978211D01*
X133596128Y-49132552D01*
X133542597Y-49297302D01*
X133515500Y-49468389D01*
X133515500Y-49641611D01*
X133542598Y-49812701D01*
X133596127Y-49977445D01*
X133674768Y-50131788D01*
X133776586Y-50271928D01*
X133776588Y-50271930D01*
X133829181Y-50324523D01*
X133862666Y-50385846D01*
X133865500Y-50412204D01*
X133865500Y-56380700D01*
X133845815Y-56447739D01*
X133793011Y-56493494D01*
X133741500Y-56504700D01*
X127732321Y-56504700D01*
X127665282Y-56485015D01*
X127619527Y-56432211D01*
X127609583Y-56363053D01*
X127638608Y-56299497D01*
X127676027Y-56270215D01*
X127791786Y-56211233D01*
X127791785Y-56211233D01*
X127791788Y-56211232D01*
X127931928Y-56109414D01*
X128054414Y-55986928D01*
X128156232Y-55846788D01*
X128234873Y-55692445D01*
X128288402Y-55527701D01*
X128315500Y-55356611D01*
X128315500Y-55183389D01*
X128288402Y-55012299D01*
X128234873Y-54847555D01*
X128156232Y-54693212D01*
X128054414Y-54553072D01*
X127931928Y-54430586D01*
X127791788Y-54328768D01*
X127637445Y-54250127D01*
X127472701Y-54196598D01*
X127472699Y-54196597D01*
X127472698Y-54196597D01*
X127320230Y-54172449D01*
X127301611Y-54169500D01*
X127128389Y-54169500D01*
X127109770Y-54172449D01*
X126957302Y-54196597D01*
X126792552Y-54250128D01*
X126638207Y-54328770D01*
X126555089Y-54389159D01*
X126489282Y-54412639D01*
X126421229Y-54396813D01*
X126372534Y-54346707D01*
X126358659Y-54278229D01*
X126376483Y-54224040D01*
X126378219Y-54221204D01*
X126378232Y-54221188D01*
X126456873Y-54066845D01*
X126510402Y-53902101D01*
X126537500Y-53731011D01*
X126537500Y-53557789D01*
X126510402Y-53386699D01*
X126456873Y-53221955D01*
X126378232Y-53067612D01*
X126276414Y-52927472D01*
X126153928Y-52804986D01*
X126013788Y-52703168D01*
X125977990Y-52684928D01*
X125859447Y-52624528D01*
X125859446Y-52624527D01*
X125859445Y-52624527D01*
X125694701Y-52570998D01*
X125694699Y-52570997D01*
X125694698Y-52570997D01*
X125563271Y-52550181D01*
X125523611Y-52543900D01*
X125350389Y-52543900D01*
X125310728Y-52550181D01*
X125179302Y-52570997D01*
X125014552Y-52624528D01*
X124860211Y-52703168D01*
X124780256Y-52761259D01*
X124720072Y-52804986D01*
X124720070Y-52804988D01*
X124720069Y-52804988D01*
X124597588Y-52927469D01*
X124597588Y-52927470D01*
X124597586Y-52927472D01*
X124564133Y-52973516D01*
X124495768Y-53067611D01*
X124417128Y-53221952D01*
X124363597Y-53386702D01*
X124347409Y-53488914D01*
X124336500Y-53557789D01*
X124336500Y-53731011D01*
X124363598Y-53902101D01*
X124378559Y-53948147D01*
X124417128Y-54066847D01*
X124419056Y-54070631D01*
X124495768Y-54221188D01*
X124564017Y-54315125D01*
X124569459Y-54322614D01*
X124592939Y-54388420D01*
X124577114Y-54456474D01*
X124527008Y-54505169D01*
X124469141Y-54519500D01*
X123119204Y-54519500D01*
X123052165Y-54499815D01*
X123031523Y-54483181D01*
X122978930Y-54430588D01*
X122978928Y-54430586D01*
X122838788Y-54328768D01*
X122684445Y-54250127D01*
X122519701Y-54196598D01*
X122519699Y-54196597D01*
X122519698Y-54196597D01*
X122367230Y-54172449D01*
X122348611Y-54169500D01*
X122175389Y-54169500D01*
X122156770Y-54172449D01*
X122004302Y-54196597D01*
X121839552Y-54250128D01*
X121685211Y-54328768D01*
X121640394Y-54361330D01*
X121545072Y-54430586D01*
X121545070Y-54430588D01*
X121545069Y-54430588D01*
X121422588Y-54553069D01*
X121422588Y-54553070D01*
X121422586Y-54553072D01*
X121378859Y-54613256D01*
X121320768Y-54693211D01*
X121242128Y-54847552D01*
X121188597Y-55012302D01*
X121161500Y-55183389D01*
X121161500Y-55356611D01*
X121188598Y-55527701D01*
X121242127Y-55692445D01*
X121320768Y-55846788D01*
X121422586Y-55986928D01*
X121545072Y-56109414D01*
X121650177Y-56185777D01*
X121685213Y-56211233D01*
X121800973Y-56270215D01*
X121851770Y-56318189D01*
X121868565Y-56386010D01*
X121846028Y-56452145D01*
X121791313Y-56495597D01*
X121744679Y-56504700D01*
X108833037Y-56504700D01*
X108776741Y-56491184D01*
X108765249Y-56485328D01*
X108649562Y-56447739D01*
X108600501Y-56431798D01*
X108600499Y-56431797D01*
X108600498Y-56431797D01*
X108469071Y-56410981D01*
X108429411Y-56404700D01*
X108256189Y-56404700D01*
X108216528Y-56410981D01*
X108085102Y-56431797D01*
X107920352Y-56485328D01*
X107766011Y-56563968D01*
X107718959Y-56598154D01*
X107625872Y-56665786D01*
X107625870Y-56665788D01*
X107625869Y-56665788D01*
X107503388Y-56788269D01*
X107503388Y-56788270D01*
X107503386Y-56788272D01*
X107459659Y-56848456D01*
X107401568Y-56928411D01*
X107322928Y-57082752D01*
X107269397Y-57247502D01*
X107264391Y-57279110D01*
X107242300Y-57418589D01*
X90270500Y-57418589D01*
X90270500Y-48850889D01*
X121196500Y-48850889D01*
X121196500Y-49024111D01*
X121223598Y-49195201D01*
X121277127Y-49359945D01*
X121355768Y-49514288D01*
X121457586Y-49654428D01*
X121580072Y-49776914D01*
X121720212Y-49878732D01*
X121874555Y-49957373D01*
X122039299Y-50010902D01*
X122210389Y-50038000D01*
X122210390Y-50038000D01*
X122383610Y-50038000D01*
X122383611Y-50038000D01*
X122554701Y-50010902D01*
X122719445Y-49957373D01*
X122873788Y-49878732D01*
X123013928Y-49776914D01*
X123066523Y-49724319D01*
X123127846Y-49690834D01*
X123154204Y-49688000D01*
X125127270Y-49688000D01*
X125194309Y-49707685D01*
X125214951Y-49724319D01*
X127383181Y-51892548D01*
X127416666Y-51953871D01*
X127419500Y-51980229D01*
X127419500Y-52054611D01*
X127446598Y-52225701D01*
X127500127Y-52390445D01*
X127578768Y-52544788D01*
X127680586Y-52684928D01*
X127803072Y-52807414D01*
X127943212Y-52909232D01*
X128097555Y-52987873D01*
X128262299Y-53041402D01*
X128433389Y-53068500D01*
X128433390Y-53068500D01*
X128606610Y-53068500D01*
X128606611Y-53068500D01*
X128777701Y-53041402D01*
X128942445Y-52987873D01*
X129096788Y-52909232D01*
X129236928Y-52807414D01*
X129359414Y-52684928D01*
X129461232Y-52544788D01*
X129539873Y-52390445D01*
X129593402Y-52225701D01*
X129620500Y-52054611D01*
X129620500Y-51881389D01*
X129593402Y-51710299D01*
X129539873Y-51545555D01*
X129461232Y-51391212D01*
X129359414Y-51251072D01*
X129236928Y-51128586D01*
X129096788Y-51026768D01*
X128942445Y-50948127D01*
X128777701Y-50894598D01*
X128777699Y-50894597D01*
X128777698Y-50894597D01*
X128646271Y-50873781D01*
X128606611Y-50867500D01*
X128606610Y-50867500D01*
X128532229Y-50867500D01*
X128465190Y-50847815D01*
X128444548Y-50831181D01*
X125967921Y-48354552D01*
X125967914Y-48354546D01*
X125894229Y-48305312D01*
X125894229Y-48305313D01*
X125844991Y-48272413D01*
X125708417Y-48215843D01*
X125708407Y-48215840D01*
X125563420Y-48187000D01*
X125563418Y-48187000D01*
X123154204Y-48187000D01*
X123087165Y-48167315D01*
X123066523Y-48150681D01*
X123013930Y-48098088D01*
X123013928Y-48098086D01*
X122873788Y-47996268D01*
X122719445Y-47917627D01*
X122554701Y-47864098D01*
X122554699Y-47864097D01*
X122554698Y-47864097D01*
X122423271Y-47843281D01*
X122383611Y-47837000D01*
X122210389Y-47837000D01*
X122170728Y-47843281D01*
X122039302Y-47864097D01*
X121874552Y-47917628D01*
X121720211Y-47996268D01*
X121640256Y-48054359D01*
X121580072Y-48098086D01*
X121580070Y-48098088D01*
X121580069Y-48098088D01*
X121457588Y-48220569D01*
X121457588Y-48220570D01*
X121457586Y-48220572D01*
X121419921Y-48272413D01*
X121355768Y-48360711D01*
X121277128Y-48515052D01*
X121223597Y-48679802D01*
X121198530Y-48838069D01*
X121196500Y-48850889D01*
X90270500Y-48850889D01*
X90270500Y-46674389D01*
X133515500Y-46674389D01*
X133515500Y-46847611D01*
X133542598Y-47018701D01*
X133596127Y-47183445D01*
X133674768Y-47337788D01*
X133776586Y-47477928D01*
X133899072Y-47600414D01*
X134039212Y-47702232D01*
X134193555Y-47780873D01*
X134358299Y-47834402D01*
X134529389Y-47861500D01*
X134529390Y-47861500D01*
X134702610Y-47861500D01*
X134702611Y-47861500D01*
X134873701Y-47834402D01*
X135038445Y-47780873D01*
X135192788Y-47702232D01*
X135332928Y-47600414D01*
X135455414Y-47477928D01*
X135557232Y-47337788D01*
X135635873Y-47183445D01*
X135689402Y-47018701D01*
X135716500Y-46847611D01*
X135716500Y-46674389D01*
X135689402Y-46503299D01*
X135635873Y-46338555D01*
X135557232Y-46184212D01*
X135455414Y-46044072D01*
X135332928Y-45921586D01*
X135192788Y-45819768D01*
X135038445Y-45741127D01*
X134873701Y-45687598D01*
X134873699Y-45687597D01*
X134873698Y-45687597D01*
X134742271Y-45666781D01*
X134702611Y-45660500D01*
X134529389Y-45660500D01*
X134489728Y-45666781D01*
X134358302Y-45687597D01*
X134193552Y-45741128D01*
X134039211Y-45819768D01*
X133959256Y-45877859D01*
X133899072Y-45921586D01*
X133899070Y-45921588D01*
X133899069Y-45921588D01*
X133776588Y-46044069D01*
X133776588Y-46044070D01*
X133776586Y-46044072D01*
X133732859Y-46104256D01*
X133674768Y-46184211D01*
X133596128Y-46338552D01*
X133542597Y-46503302D01*
X133515500Y-46674389D01*
X90270500Y-46674389D01*
X90270500Y-42731486D01*
X97619500Y-42731486D01*
X97619500Y-43026513D01*
X97638482Y-43170690D01*
X97658007Y-43318993D01*
X97658008Y-43318995D01*
X97734361Y-43603951D01*
X97734364Y-43603961D01*
X97847254Y-43876500D01*
X97847258Y-43876510D01*
X97994761Y-44131993D01*
X98174352Y-44366040D01*
X98174358Y-44366047D01*
X98382952Y-44574641D01*
X98382959Y-44574647D01*
X98617006Y-44754238D01*
X98872489Y-44901741D01*
X98872490Y-44901741D01*
X98872493Y-44901743D01*
X99145048Y-45014639D01*
X99430007Y-45090993D01*
X99722494Y-45129500D01*
X99722501Y-45129500D01*
X100017499Y-45129500D01*
X100017506Y-45129500D01*
X100309993Y-45090993D01*
X100594952Y-45014639D01*
X100867507Y-44901743D01*
X101122994Y-44754238D01*
X101357042Y-44574646D01*
X101565646Y-44366042D01*
X101745238Y-44131994D01*
X101892743Y-43876507D01*
X101907865Y-43840000D01*
X106260000Y-43840000D01*
X110070000Y-43840000D01*
X110070000Y-42731486D01*
X171419500Y-42731486D01*
X171419500Y-43026513D01*
X171438482Y-43170690D01*
X171458007Y-43318993D01*
X171458008Y-43318995D01*
X171534361Y-43603951D01*
X171534364Y-43603961D01*
X171647254Y-43876500D01*
X171647258Y-43876510D01*
X171794761Y-44131993D01*
X171974352Y-44366040D01*
X171974358Y-44366047D01*
X172182952Y-44574641D01*
X172182959Y-44574647D01*
X172417006Y-44754238D01*
X172672489Y-44901741D01*
X172672490Y-44901741D01*
X172672493Y-44901743D01*
X172945048Y-45014639D01*
X173230007Y-45090993D01*
X173522494Y-45129500D01*
X173522501Y-45129500D01*
X173817499Y-45129500D01*
X173817506Y-45129500D01*
X174109993Y-45090993D01*
X174394952Y-45014639D01*
X174667507Y-44901743D01*
X174922994Y-44754238D01*
X175157042Y-44574646D01*
X175365646Y-44366042D01*
X175545238Y-44131994D01*
X175692743Y-43876507D01*
X175805639Y-43603952D01*
X175881993Y-43318993D01*
X175920500Y-43026506D01*
X175920500Y-42731494D01*
X175881993Y-42439007D01*
X175805639Y-42154048D01*
X175692743Y-41881493D01*
X175545238Y-41626006D01*
X175365646Y-41391958D01*
X175365641Y-41391952D01*
X175157047Y-41183358D01*
X175157040Y-41183352D01*
X174922993Y-41003761D01*
X174667510Y-40856258D01*
X174667500Y-40856254D01*
X174394961Y-40743364D01*
X174394954Y-40743362D01*
X174394952Y-40743361D01*
X174109993Y-40667007D01*
X174061113Y-40660571D01*
X173817513Y-40628500D01*
X173817506Y-40628500D01*
X173522494Y-40628500D01*
X173522486Y-40628500D01*
X173244085Y-40665153D01*
X173230007Y-40667007D01*
X172945048Y-40743361D01*
X172945038Y-40743364D01*
X172672499Y-40856254D01*
X172672489Y-40856258D01*
X172417006Y-41003761D01*
X172182959Y-41183352D01*
X172182952Y-41183358D01*
X171974358Y-41391952D01*
X171974352Y-41391959D01*
X171794761Y-41626006D01*
X171647258Y-41881489D01*
X171647254Y-41881499D01*
X171534364Y-42154038D01*
X171534361Y-42154048D01*
X171458008Y-42439004D01*
X171458006Y-42439015D01*
X171419500Y-42731486D01*
X110070000Y-42731486D01*
X110070000Y-41300000D01*
X106260000Y-41300000D01*
X106260000Y-43840000D01*
X101907865Y-43840000D01*
X102005639Y-43603952D01*
X102081993Y-43318993D01*
X102120500Y-43026506D01*
X102120500Y-42731494D01*
X102081993Y-42439007D01*
X102005639Y-42154048D01*
X101892743Y-41881493D01*
X101745238Y-41626006D01*
X101565646Y-41391958D01*
X101565641Y-41391952D01*
X101357047Y-41183358D01*
X101357040Y-41183352D01*
X101122993Y-41003761D01*
X100867510Y-40856258D01*
X100867500Y-40856254D01*
X100594961Y-40743364D01*
X100594954Y-40743362D01*
X100594952Y-40743361D01*
X100309993Y-40667007D01*
X100261113Y-40660571D01*
X100017513Y-40628500D01*
X100017506Y-40628500D01*
X99722494Y-40628500D01*
X99722486Y-40628500D01*
X99444085Y-40665153D01*
X99430007Y-40667007D01*
X99145048Y-40743361D01*
X99145038Y-40743364D01*
X98872499Y-40856254D01*
X98872489Y-40856258D01*
X98617006Y-41003761D01*
X98382959Y-41183352D01*
X98382952Y-41183358D01*
X98174358Y-41391952D01*
X98174352Y-41391959D01*
X97994761Y-41626006D01*
X97847258Y-41881489D01*
X97847254Y-41881499D01*
X97734364Y-42154038D01*
X97734361Y-42154048D01*
X97658008Y-42439004D01*
X97658006Y-42439015D01*
X97619500Y-42731486D01*
X90270500Y-42731486D01*
X90270500Y-40733427D01*
X90270816Y-40724581D01*
X90285130Y-40524443D01*
X90285131Y-40524434D01*
X90287646Y-40506938D01*
X90329356Y-40315199D01*
X90334333Y-40298248D01*
X90402911Y-40114385D01*
X90410259Y-40098298D01*
X90472815Y-39983734D01*
X90504291Y-39926089D01*
X90513845Y-39911221D01*
X90631448Y-39754123D01*
X90643020Y-39740769D01*
X90781769Y-39602020D01*
X90795123Y-39590448D01*
X90952221Y-39472845D01*
X90967089Y-39463291D01*
X91139298Y-39369258D01*
X91155385Y-39361911D01*
X91339248Y-39293333D01*
X91356199Y-39288356D01*
X91547938Y-39246646D01*
X91565436Y-39244130D01*
X91765582Y-39229816D01*
X91774428Y-39229500D01*
X91835892Y-39229500D01*
X181704108Y-39229500D01*
X181765572Y-39229500D01*
X181774418Y-39229816D01*
G37*
%TD.AperFunction*%
%TD*%
D21*
X106770000Y-128729000D02*
X106770000Y-130729000D01*
X106770000Y-128729000D02*
G75*
G02*
X108770000Y-126729000I2000000J0D01*
G01*
X166770000Y-128729000D02*
X166770000Y-130729000D01*
X136770000Y-126729000D02*
X164770000Y-126729000D01*
X89770000Y-40729000D02*
X89770000Y-130729000D01*
X101620000Y-42879000D02*
G75*
G02*
X98120000Y-42879000I-1750000J0D01*
G01*
X98120000Y-42879000D02*
G75*
G02*
X101620000Y-42879000I1750000J0D01*
G01*
X178520000Y-128579000D02*
G75*
G02*
X175020000Y-128579000I-1750000J0D01*
G01*
X175020000Y-128579000D02*
G75*
G02*
X178520000Y-128579000I1750000J0D01*
G01*
X164770000Y-126729000D02*
G75*
G02*
X166770000Y-128729000I0J-2000000D01*
G01*
X89770000Y-40729000D02*
G75*
G02*
X91770000Y-38729000I2000000J0D01*
G01*
X175420000Y-42879000D02*
G75*
G02*
X171920000Y-42879000I-1750000J0D01*
G01*
X171920000Y-42879000D02*
G75*
G02*
X175420000Y-42879000I1750000J0D01*
G01*
X181770000Y-38729000D02*
X91770000Y-38729000D01*
X181770000Y-38729000D02*
G75*
G02*
X183770000Y-40729000I0J-2000000D01*
G01*
X168770000Y-132729000D02*
X181770000Y-132729000D01*
X91770000Y-132729000D02*
X104770000Y-132729000D01*
X168770000Y-132729000D02*
G75*
G02*
X166770000Y-130729000I0J2000000D01*
G01*
X106770000Y-130729000D02*
G75*
G02*
X104770000Y-132729000I-2000000J0D01*
G01*
X91770000Y-132729000D02*
G75*
G02*
X89770000Y-130729000I0J2000000D01*
G01*
X136770000Y-126729000D02*
X108770000Y-126729000D01*
X183770000Y-130729000D02*
X183770000Y-40729000D01*
X98520000Y-128579000D02*
G75*
G02*
X95020000Y-128579000I-1750000J0D01*
G01*
X95020000Y-128579000D02*
G75*
G02*
X98520000Y-128579000I1750000J0D01*
G01*
X183770000Y-130729000D02*
G75*
G02*
X181770000Y-132729000I-2000000J0D01*
G01*
M02*
