%TF.GenerationSoftware,KiCad,Pcbnew,9.0.7*%
%TF.CreationDate,2026-03-06T10:41:30+03:00*%
%TF.ProjectId,3axis-magnitometer,33617869-732d-46d6-9167-6e69746f6d65,rev?*%
%TF.SameCoordinates,Original*%
%TF.FileFunction,Paste,Top*%
%TF.FilePolarity,Positive*%
%FSLAX46Y46*%
G04 Gerber Fmt 4.6, Leading zero omitted, Abs format (unit mm)*
G04 Created by KiCad (PCBNEW 9.0.7) date 2026-03-06 10:41:30*
%MOMM*%
%LPD*%
G01*
G04 APERTURE LIST*
G04 Aperture macros list*
%AMRoundRect*
0 Rectangle with rounded corners*
0 $1 Rounding radius*
0 $2 $3 $4 $5 $6 $7 $8 $9 X,Y pos of 4 corners*
0 Add a 4 corners polygon primitive as box body*
4,1,4,$2,$3,$4,$5,$6,$7,$8,$9,$2,$3,0*
0 Add four circle primitives for the rounded corners*
1,1,$1+$1,$2,$3*
1,1,$1+$1,$4,$5*
1,1,$1+$1,$6,$7*
1,1,$1+$1,$8,$9*
0 Add four rect primitives between the rounded corners*
20,1,$1+$1,$2,$3,$4,$5,0*
20,1,$1+$1,$4,$5,$6,$7,0*
20,1,$1+$1,$6,$7,$8,$9,0*
20,1,$1+$1,$8,$9,$2,$3,0*%
G04 Aperture macros list end*
%ADD10RoundRect,0.250000X0.475000X-0.250000X0.475000X0.250000X-0.475000X0.250000X-0.475000X-0.250000X0*%
%ADD11RoundRect,0.250000X0.450000X-0.262500X0.450000X0.262500X-0.450000X0.262500X-0.450000X-0.262500X0*%
%ADD12RoundRect,0.250000X0.250000X0.475000X-0.250000X0.475000X-0.250000X-0.475000X0.250000X-0.475000X0*%
%ADD13RoundRect,0.200000X-2.300000X0.800000X-2.300000X-0.800000X2.300000X-0.800000X2.300000X0.800000X0*%
%ADD14RoundRect,0.170000X-1.830000X0.680000X-1.830000X-0.680000X1.830000X-0.680000X1.830000X0.680000X0*%
%ADD15RoundRect,0.250000X-0.475000X0.250000X-0.475000X-0.250000X0.475000X-0.250000X0.475000X0.250000X0*%
%ADD16RoundRect,0.249999X0.850001X0.950001X-0.850001X0.950001X-0.850001X-0.950001X0.850001X-0.950001X0*%
%ADD17RoundRect,0.250000X0.262500X0.450000X-0.262500X0.450000X-0.262500X-0.450000X0.262500X-0.450000X0*%
%ADD18RoundRect,0.250000X-0.600000X0.400000X-0.600000X-0.400000X0.600000X-0.400000X0.600000X0.400000X0*%
%ADD19RoundRect,0.250000X-0.250000X-0.475000X0.250000X-0.475000X0.250000X0.475000X-0.250000X0.475000X0*%
%ADD20RoundRect,0.250000X-0.450000X0.262500X-0.450000X-0.262500X0.450000X-0.262500X0.450000X0.262500X0*%
%ADD21RoundRect,0.375000X-0.625000X-0.375000X0.625000X-0.375000X0.625000X0.375000X-0.625000X0.375000X0*%
%ADD22RoundRect,0.500000X-0.500000X-1.400000X0.500000X-1.400000X0.500000X1.400000X-0.500000X1.400000X0*%
%ADD23RoundRect,0.250000X-0.262500X-0.450000X0.262500X-0.450000X0.262500X0.450000X-0.262500X0.450000X0*%
%ADD24RoundRect,0.218750X0.381250X-0.218750X0.381250X0.218750X-0.381250X0.218750X-0.381250X-0.218750X0*%
%ADD25RoundRect,0.150000X-0.150000X0.825000X-0.150000X-0.825000X0.150000X-0.825000X0.150000X0.825000X0*%
%ADD26RoundRect,0.100000X0.100000X-0.637500X0.100000X0.637500X-0.100000X0.637500X-0.100000X-0.637500X0*%
%ADD27RoundRect,0.087500X0.087500X-0.225000X0.087500X0.225000X-0.087500X0.225000X-0.087500X-0.225000X0*%
%ADD28RoundRect,0.087500X0.225000X-0.087500X0.225000X0.087500X-0.225000X0.087500X-0.225000X-0.087500X0*%
%ADD29RoundRect,0.218750X-0.218750X-0.381250X0.218750X-0.381250X0.218750X0.381250X-0.218750X0.381250X0*%
%ADD30RoundRect,0.150000X0.825000X0.150000X-0.825000X0.150000X-0.825000X-0.150000X0.825000X-0.150000X0*%
%ADD31RoundRect,0.218750X0.218750X0.381250X-0.218750X0.381250X-0.218750X-0.381250X0.218750X-0.381250X0*%
%ADD32RoundRect,0.137500X-0.600000X-0.137500X0.600000X-0.137500X0.600000X0.137500X-0.600000X0.137500X0*%
%ADD33RoundRect,0.137500X-0.137500X-0.600000X0.137500X-0.600000X0.137500X0.600000X-0.137500X0.600000X0*%
%ADD34RoundRect,0.087500X0.087500X-0.187500X0.087500X0.187500X-0.087500X0.187500X-0.087500X-0.187500X0*%
%ADD35RoundRect,0.087500X0.187500X-0.087500X0.187500X0.087500X-0.187500X0.087500X-0.187500X-0.087500X0*%
%ADD36RoundRect,0.250000X5.000000X-1.350000X5.000000X1.350000X-5.000000X1.350000X-5.000000X-1.350000X0*%
%TA.AperFunction,Profile*%
%ADD37C,0.100000*%
%TD*%
G04 APERTURE END LIST*
D10*
%TO.C,C30*%
X126742000Y-101940000D03*
X126742000Y-100040000D03*
%TD*%
%TO.C,C2*%
X160270000Y-60919000D03*
X160270000Y-59019000D03*
%TD*%
%TO.C,C31*%
X115566000Y-101940000D03*
X115566000Y-100040000D03*
%TD*%
D11*
%TO.C,R14*%
X152488000Y-102029500D03*
X152488000Y-100204500D03*
%TD*%
%TO.C,R12*%
X154570000Y-102018500D03*
X154570000Y-100193500D03*
%TD*%
D12*
%TO.C,C21*%
X149536000Y-46761000D03*
X147636000Y-46761000D03*
%TD*%
D13*
%TO.C,C4*%
X158965000Y-71075000D03*
D14*
X158965000Y-81375000D03*
%TD*%
D10*
%TO.C,C28*%
X175221000Y-90160500D03*
X175221000Y-88260500D03*
%TD*%
D15*
%TO.C,C23*%
X176110000Y-100156000D03*
X176110000Y-102056000D03*
%TD*%
D12*
%TO.C,C5*%
X156740000Y-66700000D03*
X154840000Y-66700000D03*
%TD*%
D11*
%TO.C,R17*%
X124710000Y-101902500D03*
X124710000Y-100077500D03*
%TD*%
D10*
%TO.C,C27*%
X157872000Y-90118000D03*
X157872000Y-88218000D03*
%TD*%
D16*
%TO.C,Y2*%
X111477000Y-77495000D03*
X105177000Y-77495000D03*
%TD*%
D17*
%TO.C,R8*%
X130829500Y-61493000D03*
X129004500Y-61493000D03*
%TD*%
D18*
%TO.C,D1*%
X150964000Y-71046000D03*
X150964000Y-74546000D03*
%TD*%
D19*
%TO.C,C16*%
X151065000Y-53231217D03*
X152965000Y-53231217D03*
%TD*%
D20*
%TO.C,R15*%
X120773000Y-92584500D03*
X120773000Y-94409500D03*
%TD*%
D17*
%TO.C,R11*%
X125495500Y-63669500D03*
X123670500Y-63669500D03*
%TD*%
D20*
%TO.C,R1*%
X150989400Y-76709500D03*
X150989400Y-78534500D03*
%TD*%
D15*
%TO.C,C35*%
X130552000Y-49606565D03*
X130552000Y-51506565D03*
%TD*%
D11*
%TO.C,R13*%
X169506000Y-102018500D03*
X169506000Y-100193500D03*
%TD*%
D21*
%TO.C,U5*%
X154747000Y-92710000D03*
X154747000Y-95010000D03*
D22*
X161047000Y-95010000D03*
D21*
X154747000Y-97310000D03*
%TD*%
D23*
%TO.C,R2*%
X109665500Y-57505200D03*
X111490500Y-57505200D03*
%TD*%
D17*
%TO.C,R10*%
X130829500Y-63652000D03*
X129004500Y-63652000D03*
%TD*%
D24*
%TO.C,FB3*%
X132965000Y-51608100D03*
X132965000Y-49483100D03*
%TD*%
D25*
%TO.C,U7*%
X122805000Y-98515000D03*
X121535000Y-98515000D03*
X120265000Y-98515000D03*
X118995000Y-98515000D03*
X118995000Y-103465000D03*
X120265000Y-103465000D03*
X121535000Y-103465000D03*
X122805000Y-103465000D03*
%TD*%
D15*
%TO.C,C11*%
X106295000Y-67528000D03*
X106295000Y-69428000D03*
%TD*%
D26*
%TO.C,U9*%
X138854000Y-103852500D03*
X139504000Y-103852500D03*
X140154000Y-103852500D03*
X140804000Y-103852500D03*
X141454000Y-103852500D03*
X142104000Y-103852500D03*
X142754000Y-103852500D03*
X142754000Y-98127500D03*
X142104000Y-98127500D03*
X141454000Y-98127500D03*
X140804000Y-98127500D03*
X140154000Y-98127500D03*
X139504000Y-98127500D03*
X138854000Y-98127500D03*
%TD*%
D15*
%TO.C,C18*%
X171665000Y-100156000D03*
X171665000Y-102056000D03*
%TD*%
D27*
%TO.C,U10*%
X124087000Y-51352500D03*
X124587000Y-51352500D03*
X125087000Y-51352500D03*
X125587000Y-51352500D03*
D28*
X125749500Y-50690000D03*
X125749500Y-50190000D03*
X125749500Y-49690000D03*
D27*
X125587000Y-49027500D03*
X125087000Y-49027500D03*
X124587000Y-49027500D03*
X124087000Y-49027500D03*
D28*
X123924500Y-49690000D03*
X123924500Y-50190000D03*
X123924500Y-50690000D03*
%TD*%
D11*
%TO.C,R4*%
X108200000Y-69390500D03*
X108200000Y-67565500D03*
%TD*%
D15*
%TO.C,C1*%
X160270000Y-66385000D03*
X160270000Y-68285000D03*
%TD*%
%TO.C,C22*%
X161047000Y-100156000D03*
X161047000Y-102056000D03*
%TD*%
%TO.C,C20*%
X173824000Y-100156000D03*
X173824000Y-102056000D03*
%TD*%
D10*
%TO.C,C7*%
X115693000Y-69428000D03*
X115693000Y-67528000D03*
%TD*%
D11*
%TO.C,R6*%
X123532000Y-59357500D03*
X123532000Y-57532500D03*
%TD*%
D10*
%TO.C,C26*%
X172681000Y-90160500D03*
X172681000Y-88260500D03*
%TD*%
D21*
%TO.C,U6*%
X169633000Y-92738500D03*
X169633000Y-95038500D03*
D22*
X175933000Y-95038500D03*
D21*
X169633000Y-97338500D03*
%TD*%
D25*
%TO.C,U8*%
X113280000Y-98532500D03*
X112010000Y-98532500D03*
X110740000Y-98532500D03*
X109470000Y-98532500D03*
X109470000Y-103482500D03*
X110740000Y-103482500D03*
X112010000Y-103482500D03*
X113280000Y-103482500D03*
%TD*%
D11*
%TO.C,R7*%
X125437000Y-59357500D03*
X125437000Y-57532500D03*
%TD*%
D10*
%TO.C,C24*%
X170141000Y-90160500D03*
X170141000Y-88260500D03*
%TD*%
D24*
%TO.C,FB1*%
X135301800Y-76525500D03*
X135301800Y-74400500D03*
%TD*%
D17*
%TO.C,R5*%
X117713500Y-57556000D03*
X115888500Y-57556000D03*
%TD*%
D19*
%TO.C,C13*%
X123633000Y-65828500D03*
X125533000Y-65828500D03*
%TD*%
D12*
%TO.C,C8*%
X112290000Y-81940000D03*
X110390000Y-81940000D03*
%TD*%
D10*
%TO.C,C32*%
X136740000Y-103718000D03*
X136740000Y-101818000D03*
%TD*%
%TO.C,C25*%
X155205000Y-90118000D03*
X155205000Y-88218000D03*
%TD*%
D15*
%TO.C,C10*%
X133219000Y-70974500D03*
X133219000Y-72874500D03*
%TD*%
D19*
%TO.C,C15*%
X151065000Y-55270000D03*
X152965000Y-55270000D03*
%TD*%
%TO.C,C34*%
X124649000Y-46761000D03*
X126549000Y-46761000D03*
%TD*%
D15*
%TO.C,C14*%
X133219000Y-74530500D03*
X133219000Y-76430500D03*
%TD*%
D29*
%TO.C,FB4*%
X130759500Y-46786400D03*
X132884500Y-46786400D03*
%TD*%
D30*
%TO.C,U1*%
X157538000Y-64414000D03*
X157538000Y-63144000D03*
X157538000Y-61874000D03*
X157538000Y-60604000D03*
X152588000Y-60604000D03*
X152588000Y-61874000D03*
X152588000Y-63144000D03*
X152588000Y-64414000D03*
%TD*%
D17*
%TO.C,R3*%
X130829500Y-59334000D03*
X129004500Y-59334000D03*
%TD*%
D15*
%TO.C,C17*%
X156729000Y-100156000D03*
X156729000Y-102056000D03*
%TD*%
D13*
%TO.C,C3*%
X170395000Y-71075000D03*
D14*
X170395000Y-81375000D03*
%TD*%
D19*
%TO.C,C9*%
X104675000Y-81940000D03*
X106575000Y-81940000D03*
%TD*%
%TO.C,C12*%
X122871000Y-81957500D03*
X124771000Y-81957500D03*
%TD*%
D31*
%TO.C,FB2*%
X153077500Y-57302000D03*
X150952500Y-57302000D03*
%TD*%
D32*
%TO.C,U3*%
X119174500Y-69702500D03*
X119174500Y-70502500D03*
X119174500Y-71302500D03*
X119174500Y-72102500D03*
X119174500Y-72902500D03*
X119174500Y-73702500D03*
X119174500Y-74502500D03*
X119174500Y-75302500D03*
X119174500Y-76102500D03*
X119174500Y-76902500D03*
X119174500Y-77702500D03*
D33*
X120837000Y-79365000D03*
X121637000Y-79365000D03*
X122437000Y-79365000D03*
X123237000Y-79365000D03*
X124037000Y-79365000D03*
X124837000Y-79365000D03*
X125637000Y-79365000D03*
X126437000Y-79365000D03*
X127237000Y-79365000D03*
X128037000Y-79365000D03*
X128837000Y-79365000D03*
D32*
X130499500Y-77702500D03*
X130499500Y-76902500D03*
X130499500Y-76102500D03*
X130499500Y-75302500D03*
X130499500Y-74502500D03*
X130499500Y-73702500D03*
X130499500Y-72902500D03*
X130499500Y-72102500D03*
X130499500Y-71302500D03*
X130499500Y-70502500D03*
X130499500Y-69702500D03*
D33*
X128837000Y-68040000D03*
X128037000Y-68040000D03*
X127237000Y-68040000D03*
X126437000Y-68040000D03*
X125637000Y-68040000D03*
X124837000Y-68040000D03*
X124037000Y-68040000D03*
X123237000Y-68040000D03*
X122437000Y-68040000D03*
X121637000Y-68040000D03*
X120837000Y-68040000D03*
%TD*%
D34*
%TO.C,U4*%
X147332000Y-51275000D03*
X147832000Y-51275000D03*
X148332000Y-51275000D03*
X148832000Y-51275000D03*
X149332000Y-51275000D03*
D35*
X149557000Y-50550000D03*
X149557000Y-50050000D03*
X149557000Y-49550000D03*
D34*
X149332000Y-48825000D03*
X148832000Y-48825000D03*
X148332000Y-48825000D03*
X147832000Y-48825000D03*
X147332000Y-48825000D03*
D35*
X147107000Y-49550000D03*
X147107000Y-50050000D03*
X147107000Y-50550000D03*
%TD*%
D17*
%TO.C,R9*%
X125495500Y-61510500D03*
X123670500Y-61510500D03*
%TD*%
D12*
%TO.C,C36*%
X122027800Y-46786400D03*
X120127800Y-46786400D03*
%TD*%
D20*
%TO.C,R16*%
X111375000Y-92602000D03*
X111375000Y-94427000D03*
%TD*%
D36*
%TO.C,Y1*%
X168991400Y-63753600D03*
%TD*%
D10*
%TO.C,C6*%
X113661000Y-69428000D03*
X113661000Y-67528000D03*
%TD*%
D15*
%TO.C,C33*%
X136740000Y-98262000D03*
X136740000Y-100162000D03*
%TD*%
D10*
%TO.C,C29*%
X160539000Y-90118000D03*
X160539000Y-88218000D03*
%TD*%
D25*
%TO.C,U2*%
X114985750Y-59829750D03*
X113715750Y-59829750D03*
X112445750Y-59829750D03*
X111175750Y-59829750D03*
X111175750Y-64779750D03*
X112445750Y-64779750D03*
X113715750Y-64779750D03*
X114985750Y-64779750D03*
%TD*%
D15*
%TO.C,C19*%
X158888000Y-100156000D03*
X158888000Y-102056000D03*
%TD*%
D37*
X106770000Y-128729000D02*
X106770000Y-130729000D01*
X106770000Y-128729000D02*
G75*
G02*
X108770000Y-126729000I2000000J0D01*
G01*
X166770000Y-128729000D02*
X166770000Y-130729000D01*
X136770000Y-126729000D02*
X164770000Y-126729000D01*
X89770000Y-40729000D02*
X89770000Y-130729000D01*
X101620000Y-42879000D02*
G75*
G02*
X98120000Y-42879000I-1750000J0D01*
G01*
X98120000Y-42879000D02*
G75*
G02*
X101620000Y-42879000I1750000J0D01*
G01*
X178520000Y-128579000D02*
G75*
G02*
X175020000Y-128579000I-1750000J0D01*
G01*
X175020000Y-128579000D02*
G75*
G02*
X178520000Y-128579000I1750000J0D01*
G01*
X164770000Y-126729000D02*
G75*
G02*
X166770000Y-128729000I0J-2000000D01*
G01*
X89770000Y-40729000D02*
G75*
G02*
X91770000Y-38729000I2000000J0D01*
G01*
X175420000Y-42879000D02*
G75*
G02*
X171920000Y-42879000I-1750000J0D01*
G01*
X171920000Y-42879000D02*
G75*
G02*
X175420000Y-42879000I1750000J0D01*
G01*
X181770000Y-38729000D02*
X91770000Y-38729000D01*
X181770000Y-38729000D02*
G75*
G02*
X183770000Y-40729000I0J-2000000D01*
G01*
X168770000Y-132729000D02*
X181770000Y-132729000D01*
X91770000Y-132729000D02*
X104770000Y-132729000D01*
X168770000Y-132729000D02*
G75*
G02*
X166770000Y-130729000I0J2000000D01*
G01*
X106770000Y-130729000D02*
G75*
G02*
X104770000Y-132729000I-2000000J0D01*
G01*
X91770000Y-132729000D02*
G75*
G02*
X89770000Y-130729000I0J2000000D01*
G01*
X136770000Y-126729000D02*
X108770000Y-126729000D01*
X183770000Y-130729000D02*
X183770000Y-40729000D01*
X98520000Y-128579000D02*
G75*
G02*
X95020000Y-128579000I-1750000J0D01*
G01*
X95020000Y-128579000D02*
G75*
G02*
X98520000Y-128579000I1750000J0D01*
G01*
X183770000Y-130729000D02*
G75*
G02*
X181770000Y-132729000I-2000000J0D01*
G01*
M02*
