M48
; DRILL file {KiCad 9.0.7} date 2026-03-06T10:41:38+0300
; FORMAT={-:-/ absolute / metric / decimal}
; #@! TF.CreationDate,2026-03-06T10:41:38+03:00
; #@! TF.GenerationSoftware,Kicad,Pcbnew,9.0.7
; #@! TF.FileFunction,Plated,1,2,PTH
FMAT,2
METRIC
; #@! TA.AperFunction,Plated,PTH,ViaDrill
T1C0.500
; #@! TA.AperFunction,Plated,PTH,ComponentDrill
T2C0.500
; #@! TA.AperFunction,Plated,PTH,ComponentDrill
T3C0.800
; #@! TA.AperFunction,Plated,PTH,ComponentDrill
T4C1.000
%
G90
G05
T1
X103.755Y-67.462
X103.755Y-69.277
X108.162Y-87.617
X108.327Y-77.495
X108.343Y-57.505
X110.105Y-62.89
X110.74Y-67.335
X111.311Y-87.718
X111.375Y-90.068
X111.375Y-100.99
X112.137Y-68.478
X112.391Y-62.763
X113.407Y-85.75
X115.185Y-80.416
X115.185Y-85.75
X115.566Y-98.323
X115.566Y-104.622
X117.979Y-85.75
X118.36Y-67.335
X119.63Y-83.21
X119.63Y-85.75
X119.671Y-59.334
X120.763Y-90.068
X120.9Y-100.99
X121.611Y-83.642
X121.662Y-76.242
X122.008Y-70.891
X122.043Y-61.511
X122.043Y-63.669
X122.043Y-65.828
X122.262Y-55.27
X122.297Y-48.938
X122.459Y-51.968
X123.134Y-86.258
X123.313Y-46.761
X124.32Y-69.774
X124.71Y-83.997
X124.71Y-104.597
X124.837Y-76.225
X125.437Y-53.644
X126.326Y-91.846
X126.326Y-94.132
X127.214Y-77.531
X127.215Y-55.27
X127.215Y-59.334
X127.215Y-61.511
X127.215Y-64.795
X127.885Y-90.068
X128.034Y-96.164
X128.52Y-48.92
X128.52Y-51.968
X128.774Y-73.703
X128.993Y-99.974
X130.136Y-92.608
X130.425Y-65.938
X131.914Y-87.748
X133.219Y-69.24
X133.219Y-77.766
X133.311Y-61.493
X133.311Y-63.669
X134.454Y-87.528
X134.454Y-91.608
X134.454Y-94.767
X134.616Y-46.761
X134.616Y-49.555
X134.616Y-57.429
X135.251Y-69.24
X135.302Y-77.876
X136.613Y-91.592
X136.613Y-96.164
X136.74Y-105.689
X138.045Y-64.16
X138.518Y-100.99
X138.954Y-107.014
X140.296Y-109.499
X140.687Y-82.787
X142.754Y-96.418
X143.125Y-57.81
X143.217Y-91.592
X144.106Y-107.467
X144.36Y-87.02
X145.376Y-91.465
X145.376Y-98.45
X145.376Y-103.784
X145.665Y-46.761
X145.665Y-53.644
X145.665Y-60.604
X146.773Y-94.894
X147.027Y-87.02
X147.341Y-55.27
X147.341Y-61.874
X148.967Y-60.604
X149.07Y-53.231
X149.094Y-64.16
X149.186Y-86.004
X149.694Y-98.45
X150.456Y-105.054
X150.964Y-88.671
X150.964Y-109.118
X150.999Y-79.746
X151.472Y-47.904
X152.488Y-97.18
X152.615Y-92.735
X152.996Y-51.206
X154.52Y-104.673
X154.665Y-57.192
X155.028Y-63.906
X155.205Y-86.512
X156.729Y-104.673
X157.476Y-58.953
X157.872Y-86.512
X158.33Y-66.7
X158.365Y-109.88
X158.888Y-104.673
X160.539Y-86.512
X161.047Y-104.673
X167.474Y-92.862
X170.141Y-86.512
X171.665Y-104.673
X172.681Y-86.512
X173.824Y-104.673
X175.221Y-86.512
X176.11Y-104.673
X177.507Y-84.48
T2
X160.241Y-62.484
X160.241Y-65.024
T3
X168.991Y-61.754
X168.991Y-65.754
T4
X101.977Y-61.366
X101.977Y-63.906
X104.517Y-61.366
X104.517Y-63.906
X107.057Y-61.366
X107.057Y-63.906
X112.61Y-113.69
X112.61Y-116.23
X115.15Y-113.69
X115.15Y-116.23
X117.69Y-113.69
X117.69Y-116.23
X120.23Y-113.69
X120.23Y-116.23
X122.77Y-113.69
X122.77Y-116.23
X125.31Y-113.69
X125.31Y-116.23
X127.85Y-113.69
X127.85Y-116.23
X130.39Y-113.69
X130.39Y-116.23
X132.93Y-113.69
X132.93Y-116.23
X135.47Y-113.69
X135.47Y-116.23
X138.01Y-113.69
X138.01Y-116.23
X138.147Y-68.63
X138.147Y-71.17
X138.147Y-73.71
X138.147Y-76.25
X138.147Y-78.79
X140.55Y-113.69
X140.55Y-116.23
X140.687Y-68.63
X140.687Y-71.17
X140.687Y-73.71
X140.687Y-76.25
X140.687Y-78.79
X143.09Y-113.69
X143.09Y-116.23
X145.63Y-113.69
X145.63Y-116.23
X148.17Y-113.69
X148.17Y-116.23
X150.71Y-113.69
X150.71Y-116.23
X153.25Y-113.69
X153.25Y-116.23
X155.79Y-113.69
X155.79Y-116.23
X158.33Y-113.69
X158.33Y-116.23
X160.87Y-113.69
X160.87Y-116.23
M30
