M48
; DRILL file {KiCad 9.0.7} date 2026-03-07T10:22:51+0300
; FORMAT={-:-/ absolute / inch / decimal}
; #@! TF.CreationDate,2026-03-07T10:22:51+03:00
; #@! TF.GenerationSoftware,Kicad,Pcbnew,9.0.7
; #@! TF.FileFunction,Plated,1,2,PTH
FMAT,2
INCH
; #@! TA.AperFunction,Plated,PTH,ViaDrill
T1C0.0197
; #@! TA.AperFunction,Plated,PTH,ComponentDrill
T2C0.0197
; #@! TA.AperFunction,Plated,PTH,ComponentDrill
T3C0.0315
; #@! TA.AperFunction,Plated,PTH,ComponentDrill
T4C0.0394
%
G90
G05
T1
X4.0311Y-2.6167
X4.0474Y-2.7182
X4.1311Y-2.2517
X4.2274Y-3.0417
X4.2281Y-2.2547
X4.2378Y-3.4234
X4.2974Y-2.4667
X4.3224Y-2.6417
X4.3449Y-3.4217
X4.3474Y-3.6067
X4.3474Y-3.9667
X4.3761Y-2.7267
X4.4274Y-3.3667
X4.4661Y-3.3017
X4.4974Y-3.3667
X4.5124Y-3.8617
X4.5124Y-4.1097
X4.5961Y-3.3667
X4.6224Y-2.6417
X4.6488Y-3.1717
X4.6724Y-3.3667
X4.6741Y-2.3267
X4.7111Y-3.2167
X4.7171Y-3.6067
X4.7224Y-3.9667
X4.7411Y-2.7417
X4.7524Y-2.9924
X4.7561Y-2.1717
X4.7674Y-2.4124
X4.7674Y-2.4974
X4.7674Y-2.5824
X4.7774Y-1.9174
X4.7841Y-2.0563
X4.7861Y-2.8117
X4.8104Y-3.3867
X4.8174Y-1.8317
X4.8724Y-3.3011
X4.8724Y-4.1087
X4.8774Y-2.9124
X4.9361Y-3.6067
X4.9411Y-3.0217
X4.9411Y-3.7367
X4.9711Y-2.1667
X4.9711Y-2.3267
X4.9711Y-2.4124
X4.9711Y-2.5417
X5.0033Y-3.5426
X5.0033Y-3.7767
X5.0224Y-1.9167
X5.0224Y-2.0367
X5.0324Y-2.8924
X5.0411Y-3.9267
X5.0861Y-3.6867
X5.0974Y-2.5867
X5.1561Y-3.4454
X5.2074Y-2.7167
X5.2074Y-3.0524
X5.2111Y-2.4117
X5.2111Y-2.4974
X5.2561Y-3.4454
X5.2561Y-3.5974
X5.2561Y-3.7217
X5.2624Y-1.9417
X5.2624Y-2.2517
X5.2874Y-2.7167
X5.2874Y-3.1867
X5.3411Y-3.5967
X5.3461Y-3.7767
X5.3461Y-3.9667
X5.3461Y-4.1517
X5.3974Y-2.5167
X5.4332Y-4.2039
X5.5828Y-3.7867
X5.5828Y-4.1567
X5.5961Y-3.2617
X5.5961Y-3.6267
X5.5974Y-2.2667
X5.6561Y-3.4417
X5.6861Y-3.5917
X5.6861Y-3.8767
X5.6861Y-4.0767
X5.6974Y-1.8317
X5.6974Y-2.1027
X5.6974Y-2.3767
X5.7411Y-3.7267
X5.7561Y-3.6417
X5.7911Y-3.4367
X5.8274Y-2.3767
X5.8324Y-2.5167
X5.8361Y-3.3767
X5.8761Y-3.8817
X5.8761Y-4.1217
X5.8761Y-4.2967
X5.9061Y-3.4817
X5.9074Y-3.1304
X5.9261Y-1.8767
X5.9261Y-2.0017
X5.9611Y-3.6417
X5.9661Y-3.8167
X6.0661Y-2.5067
X6.073Y-3.3967
X6.133Y-4.1117
X6.1624Y-2.3117
X6.178Y-3.3967
X6.1961Y-2.6167
X6.1974Y-4.3167
X6.218Y-4.1117
X6.283Y-3.3967
X6.303Y-4.1117
X6.4461Y-3.1917
X6.5461Y-3.6417
X6.6611Y-3.3967
X6.7211Y-4.1117
X6.7611Y-3.3967
X6.8061Y-4.1117
X6.8611Y-3.3967
X6.8961Y-4.1117
X6.9511Y-3.3167
T2
X6.2713Y-2.4507
X6.2713Y-2.5507
T3
X6.6158Y-2.422
X6.6158Y-2.5795
T4
X3.9774Y-2.4067
X3.9774Y-2.5067
X4.0774Y-2.4067
X4.0774Y-2.5067
X4.1774Y-2.4067
X4.1774Y-2.5067
X4.3961Y-4.4667
X4.3961Y-4.5667
X4.4961Y-4.4667
X4.4961Y-4.5667
X4.5961Y-4.4667
X4.5961Y-4.5667
X4.6961Y-4.4667
X4.6961Y-4.5667
X4.7961Y-4.4667
X4.7961Y-4.5667
X4.8961Y-4.4667
X4.8961Y-4.5667
X4.9961Y-4.4667
X4.9961Y-4.5667
X5.0961Y-4.4667
X5.0961Y-4.5667
X5.1961Y-4.4667
X5.1961Y-4.5667
X5.2961Y-4.4667
X5.2961Y-4.5667
X5.3961Y-4.4667
X5.3961Y-4.5667
X5.4014Y-2.6927
X5.4014Y-2.7927
X5.4014Y-2.8927
X5.4014Y-2.9927
X5.4014Y-3.0927
X5.4961Y-4.4667
X5.4961Y-4.5667
X5.5014Y-2.6927
X5.5014Y-2.7927
X5.5014Y-2.8927
X5.5014Y-2.9927
X5.5014Y-3.0927
X5.5961Y-4.4667
X5.5961Y-4.5667
X5.6961Y-4.4667
X5.6961Y-4.5667
X5.7961Y-4.4667
X5.7961Y-4.5667
X5.8961Y-4.4667
X5.8961Y-4.5667
X5.9961Y-4.4667
X5.9961Y-4.5667
X6.0961Y-4.4667
X6.0961Y-4.5667
X6.1961Y-4.4667
X6.1961Y-4.5667
X6.2961Y-4.4667
X6.2961Y-4.5667
M30
