G04 #@! TF.GenerationSoftware,KiCad,Pcbnew,9.0.7*
G04 #@! TF.CreationDate,2026-03-07T10:22:39+03:00*
G04 #@! TF.ProjectId,3axis-magnitometer,33617869-732d-46d6-9167-6e69746f6d65,rev?*
G04 #@! TF.SameCoordinates,Original*
G04 #@! TF.FileFunction,Soldermask,Bot*
G04 #@! TF.FilePolarity,Negative*
%FSLAX46Y46*%
G04 Gerber Fmt 4.6, Leading zero omitted, Abs format (unit mm)*
G04 Created by KiCad (PCBNEW 9.0.7) date 2026-03-07 10:22:39*
%MOMM*%
%LPD*%
G01*
G04 APERTURE LIST*
%ADD10C,4.300000*%
%ADD11C,1.700000*%
%ADD12R,1.700000X1.700000*%
%ADD13R,1.200000X1.200000*%
%ADD14C,1.000000*%
%ADD15C,1.200000*%
G04 #@! TA.AperFunction,Profile*
%ADD16C,0.100000*%
G04 #@! TD*
G04 APERTURE END LIST*
D10*
G04 #@! TO.C,REF\u002A\u002A*
X175825000Y-128340000D03*
G04 #@! TD*
G04 #@! TO.C,REF\u002A\u002A*
X95825000Y-128340000D03*
G04 #@! TD*
G04 #@! TO.C,REF\u002A\u002A*
X98925000Y-42640000D03*
G04 #@! TD*
G04 #@! TO.C,REF\u002A\u002A*
X172725000Y-42665000D03*
G04 #@! TD*
D11*
G04 #@! TO.C,J2*
X137196600Y-68395400D03*
X139736600Y-68395400D03*
X137196600Y-70935400D03*
X139736600Y-70935400D03*
X137196600Y-73475400D03*
X139736600Y-73475400D03*
X137196600Y-76015400D03*
X139736600Y-76015400D03*
X137196600Y-78555400D03*
D12*
X139736600Y-78555400D03*
G04 #@! TD*
D13*
G04 #@! TO.C,Y1*
X168041400Y-61518600D03*
X168041400Y-65518600D03*
D14*
X159291400Y-62248600D03*
X159291400Y-64788600D03*
G04 #@! TD*
D11*
G04 #@! TO.C,J1*
X111660000Y-115995000D03*
X111660000Y-113455000D03*
X114200000Y-115995000D03*
X114200000Y-113455000D03*
X116740000Y-115995000D03*
X116740000Y-113455000D03*
X119280000Y-115995000D03*
X119280000Y-113455000D03*
X121820000Y-115995000D03*
X121820000Y-113455000D03*
X124360000Y-115995000D03*
X124360000Y-113455000D03*
X126900000Y-115995000D03*
X126900000Y-113455000D03*
X129440000Y-115995000D03*
X129440000Y-113455000D03*
X131980000Y-115995000D03*
X131980000Y-113455000D03*
X134520000Y-115995000D03*
X134520000Y-113455000D03*
X137060000Y-115995000D03*
X137060000Y-113455000D03*
X139600000Y-115995000D03*
X139600000Y-113455000D03*
X142140000Y-115995000D03*
X142140000Y-113455000D03*
X144680000Y-115995000D03*
X144680000Y-113455000D03*
X147220000Y-115995000D03*
X147220000Y-113455000D03*
X149760000Y-115995000D03*
X149760000Y-113455000D03*
X152300000Y-115995000D03*
X152300000Y-113455000D03*
X154840000Y-115995000D03*
X154840000Y-113455000D03*
X157380000Y-115995000D03*
X157380000Y-113455000D03*
X159920000Y-115995000D03*
D12*
X159920000Y-113455000D03*
G04 #@! TD*
D11*
G04 #@! TO.C,J3*
X106107000Y-61131000D03*
X106107000Y-63671000D03*
X103567000Y-61131000D03*
X103567000Y-63671000D03*
X101027000Y-61131000D03*
D12*
X101027000Y-63671000D03*
G04 #@! TD*
D15*
X143664000Y-87420000D03*
X133504000Y-87513000D03*
X130964000Y-87513000D03*
X147093000Y-87293000D03*
X120804000Y-55162000D03*
X144715000Y-60369000D03*
X144715000Y-53409400D03*
X176557000Y-84245000D03*
X150014000Y-88436000D03*
D16*
X90820000Y-132494000D02*
X103820000Y-132494000D01*
X105820000Y-128494000D02*
X105820000Y-130494000D01*
X88820000Y-40494000D02*
X88820000Y-130494000D01*
X88820000Y-40494000D02*
G75*
G02*
X90820000Y-38494000I2000000J0D01*
G01*
X135820000Y-126494000D02*
X163820000Y-126494000D01*
X167820000Y-132494000D02*
X180820000Y-132494000D01*
X180820000Y-38494000D02*
X90820000Y-38494000D01*
X105820000Y-128494000D02*
G75*
G02*
X107820000Y-126494000I2000000J0D01*
G01*
X163820000Y-126494000D02*
G75*
G02*
X165820000Y-128494000I0J-2000000D01*
G01*
X180820000Y-38494000D02*
G75*
G02*
X182820000Y-40494000I0J-2000000D01*
G01*
X165820000Y-128494000D02*
X165820000Y-130494000D01*
X105820000Y-130494000D02*
G75*
G02*
X103820000Y-132494000I-2000000J0D01*
G01*
X167820000Y-132494000D02*
G75*
G02*
X165820000Y-130494000I0J2000000D01*
G01*
X90820000Y-132494000D02*
G75*
G02*
X88820000Y-130494000I0J2000000D01*
G01*
X135820000Y-126494000D02*
X107820000Y-126494000D01*
X182820000Y-130494000D02*
X182820000Y-40494000D01*
X182820000Y-130494000D02*
G75*
G02*
X180820000Y-132494000I-2000000J0D01*
G01*
M02*
